<?xml version="1.0" encoding="iso-8859-1"?>
<!-- Generator: Adobe Illustrator 21.0.0, SVG Export Plug-In . SVG Version: 6.00 Build 0)  -->
<svg version="1.1" id="Capa_1" xmlns="http://www.w3.org/2000/svg" xmlns:xlink="http://www.w3.org/1999/xlink" x="0px" y="0px"
	 viewBox="0 0 496.927 496.927" style="enable-background:new 0 0 496.927 496.927;" xml:space="preserve">
<path style="fill:#18191B;" d="M246.735,359.227c-37.218,0-67.497,30.279-67.497,67.497c0,37.218,30.279,67.497,67.497,67.497
	s67.497-30.279,67.497-67.497C314.232,389.506,283.953,359.227,246.735,359.227z M246.735,479.221
	c-28.947,0-52.497-23.55-52.497-52.497c0-28.947,23.55-52.497,52.497-52.497s52.497,23.55,52.497,52.497
	C299.232,455.671,275.682,479.221,246.735,479.221z"/>
<path style="fill:#18191B;" d="M267.984,402.941l-30.248,30.248l-4.193-6.808c-2.172-3.526-6.792-4.625-10.319-2.453
	c-3.527,2.172-4.625,6.792-2.453,10.319l9.17,14.89c1.203,1.953,3.234,3.249,5.513,3.516c0.292,0.034,0.583,0.051,0.874,0.051
	c1.977,0,3.888-0.782,5.303-2.197l36.96-36.96c2.929-2.929,2.929-7.677,0-10.606C275.661,400.011,270.912,400.011,267.984,402.941z"
	/>
<path style="fill:#18191B;" d="M95.195,325.401H74.871c-4.136,0-7.5-3.365-7.5-7.5v-17.187c0-4.142-3.358-7.5-7.5-7.5
	s-7.5,3.358-7.5,7.5v17.187c0,12.406,10.093,22.5,22.5,22.5h20.324c4.142,0,7.5-3.358,7.5-7.5S99.337,325.401,95.195,325.401z"/>
<path style="fill:#18191B;" d="M433.599,293.214c-4.142,0-7.5,3.358-7.5,7.5v17.187c0,4.135-3.364,7.5-7.5,7.5H254.235v-24.687
	c0-4.142-3.358-7.5-7.5-7.5s-7.5,3.358-7.5,7.5v24.687h-114.04c-4.142,0-7.5,3.358-7.5,7.5s3.358,7.5,7.5,7.5h293.404
	c12.407,0,22.5-10.094,22.5-22.5v-17.187C441.099,296.572,437.741,293.214,433.599,293.214z"/>
<path style="fill:#18191B;" d="M96.878,190.236c0-14.841-10.237-26.916-22.821-26.916s-22.821,12.074-22.821,26.916
	s10.237,26.916,22.821,26.916S96.878,205.077,96.878,190.236z M66.236,190.236c0-7.022,4.122-11.916,7.821-11.916
	s7.821,4.894,7.821,11.916c0,7.022-4.122,11.916-7.821,11.916S66.236,197.258,66.236,190.236z"/>
<path style="fill:#18191B;" d="M72.878,139.375c-16.627,0-32.286,5.356-45.282,15.489c-3.267,2.547-3.85,7.26-1.303,10.526
	c2.547,3.266,7.258,3.85,10.526,1.303c10.336-8.059,22.806-12.319,36.06-12.319c31.914,0,57.878,25.378,57.878,56.573
	c0,11.669-3.628,22.857-10.353,32.278c-11.042-12.845-27.631-20.51-45.357-20.51c-18.98,0-36.634,8.771-47.593,23.277
	C19.458,236.075,15,223.713,15,210.948c0-8.206,1.755-16.116,5.218-23.511c1.756-3.751,0.139-8.216-3.612-9.972
	c-3.752-1.757-8.216-0.139-9.973,3.613C2.231,190.477,0,200.527,0,210.948c0,14.843,4.748,29.236,13.322,41.206
	c0.139,0.217,0.28,0.43,0.437,0.628c1.975,2.696,4.163,5.253,6.522,7.672l-0.066,0.202l3.649,3.258
	c0.002,0.002,0.003,0.003,0.005,0.005c0.002,0.002,0.004,0.003,0.006,0.005c13.435,11.992,30.837,18.597,49.003,18.597
	c19.912,0,38.512-7.752,52.375-21.829c0.001-0.001,0.003-0.002,0.004-0.004c0.002-0.002,0.003-0.004,0.005-0.005l4.009-4.071
	l-0.129-0.222c10.742-12.792,16.613-28.714,16.613-45.441C145.756,171.482,113.063,139.375,72.878,139.375z M38.44,256.418
	c0.165-0.238,0.339-0.468,0.509-0.702c0.381-0.524,0.761-1.049,1.167-1.552c0.135-0.169,0.278-0.331,0.415-0.497
	c0.523-0.629,1.055-1.25,1.61-1.849c8.206-8.85,20.132-14.101,32.906-14.101c12.757,0,24.684,5.247,32.891,14.088
	c0.283,0.304,0.56,0.614,0.835,0.924c0.444,0.508,0.882,1.021,1.302,1.551c-10.403,8.578-23.4,13.241-37.196,13.241
	C60.39,267.52,48.365,263.612,38.44,256.418z"/>
<path style="fill:#18191B;" d="M163.296,80.482c12.583,0,22.821-12.074,22.821-26.916s-10.237-26.916-22.821-26.916
	s-22.821,12.074-22.821,26.916S150.713,80.482,163.296,80.482z M163.296,41.651c3.699,0,7.821,4.894,7.821,11.916
	c0,7.022-4.122,11.916-7.821,11.916s-7.821-4.894-7.821-11.916C155.475,46.545,159.597,41.651,163.296,41.651z"/>
<path style="fill:#18191B;" d="M109.52,123.785l-0.066,0.202l3.649,3.258c0.002,0.002,0.003,0.003,0.005,0.005
	c0.002,0.002,0.004,0.003,0.006,0.005c13.435,11.992,30.837,18.597,49.003,18.597c19.912,0,38.512-7.753,52.375-21.829
	c0.001-0.001,0.003-0.002,0.004-0.004c0.002-0.002,0.003-0.004,0.005-0.005l4.009-4.071l-0.129-0.222
	c10.742-12.792,16.613-28.714,16.613-45.441c0-39.465-32.693-71.573-72.878-71.573c-40.186,0-72.878,32.107-72.878,71.573
	C89.239,92.746,96.586,110.516,109.52,123.785z M127.679,119.749c0.274-0.396,0.559-0.782,0.846-1.167
	c0.206-0.276,0.402-0.559,0.615-0.83c0.402-0.512,0.826-1.005,1.25-1.497c0.173-0.2,0.336-0.411,0.512-0.608
	c8.216-9.158,20.366-14.6,33.383-14.6c12.999,0,25.148,5.436,33.366,14.584h-0.004c0.163,0.181,0.312,0.374,0.472,0.558
	c0.405,0.467,0.809,0.936,1.193,1.422c-10.403,8.578-23.4,13.241-37.196,13.241C149.629,130.851,137.604,126.943,127.679,119.749z
	 M162.117,17.706c31.914,0,57.878,25.378,57.878,56.573c0,11.669-3.628,22.857-10.353,32.278
	c-11.042-12.845-27.631-20.51-45.357-20.51c-18.98,0-36.634,8.771-47.593,23.277c-7.995-9.918-12.454-22.28-12.454-35.046
	C104.239,43.085,130.203,17.706,162.117,17.706z"/>
<path style="fill:#18191B;" d="M340.328,80.482c12.583,0,22.821-12.074,22.821-26.916s-10.237-26.916-22.821-26.916
	s-22.821,12.074-22.821,26.916S327.745,80.482,340.328,80.482z M340.328,41.651c3.699,0,7.821,4.894,7.821,11.916
	c0,7.022-4.122,11.916-7.821,11.916s-7.821-4.894-7.821-11.916C332.507,46.545,336.629,41.651,340.328,41.651z"/>
<path style="fill:#18191B;" d="M286.551,123.785l-0.066,0.202l3.649,3.258c0.002,0.002,0.003,0.003,0.005,0.005
	c0.002,0.002,0.004,0.003,0.006,0.005c13.435,11.992,30.837,18.597,49.003,18.597c19.912,0,38.512-7.753,52.375-21.829
	c0.001-0.001,0.003-0.002,0.004-0.004c0.002-0.002,0.003-0.004,0.005-0.005l4.009-4.071l-0.129-0.222
	c10.742-12.792,16.613-28.714,16.613-45.441c0-39.465-32.693-71.573-72.878-71.573c-40.186,0-72.878,32.107-72.878,71.573
	C266.271,92.746,273.618,110.516,286.551,123.785z M304.711,119.749c0.274-0.396,0.559-0.782,0.846-1.167
	c0.206-0.276,0.402-0.559,0.615-0.83c0.402-0.512,0.826-1.005,1.25-1.497c0.173-0.2,0.336-0.411,0.512-0.608
	c8.216-9.158,20.366-14.6,33.383-14.6c12.999,0,25.148,5.436,33.366,14.584h-0.004c0.163,0.181,0.312,0.374,0.472,0.558
	c0.405,0.467,0.809,0.936,1.193,1.422c-10.403,8.578-23.4,13.241-37.196,13.241C326.661,130.851,314.636,126.943,304.711,119.749z
	 M339.149,17.706c31.914,0,57.878,25.378,57.878,56.573c0,11.669-3.628,22.857-10.353,32.278
	c-11.042-12.845-27.631-20.51-45.357-20.51c-18.98,0-36.634,8.771-47.593,23.277c-7.995-9.918-12.454-22.28-12.454-35.046
	C281.271,43.085,307.235,17.706,339.149,17.706z"/>
<path style="fill:#18191B;" d="M248.196,212.663c12.584,0,22.821-12.074,22.821-26.916s-10.237-26.916-22.821-26.916
	c-12.583,0-22.821,12.074-22.821,26.916S235.612,212.663,248.196,212.663z M248.196,173.832c3.699,0,7.821,4.894,7.821,11.916
	c0,7.022-4.122,11.916-7.821,11.916s-7.821-4.894-7.821-11.916C240.375,178.725,244.496,173.832,248.196,173.832z"/>
<path style="fill:#18191B;" d="M194.419,255.966l-0.066,0.202l3.649,3.258c0.002,0.002,0.003,0.003,0.005,0.005
	c0.002,0.002,0.004,0.003,0.006,0.005c13.435,11.992,30.837,18.597,49.003,18.597c19.912,0,38.512-7.753,52.376-21.829
	c0.001-0.001,0.003-0.002,0.004-0.004c0.002-0.002,0.003-0.004,0.005-0.005l4.009-4.071l-0.129-0.222
	c10.742-12.792,16.613-28.714,16.613-45.441c0-39.465-32.693-71.573-72.878-71.573c-40.186,0-72.878,32.107-72.878,71.573
	C174.138,224.927,181.485,242.696,194.419,255.966z M212.578,251.929c0.274-0.396,0.559-0.782,0.846-1.167
	c0.206-0.276,0.402-0.559,0.615-0.83c0.402-0.512,0.826-1.005,1.25-1.497c0.173-0.2,0.336-0.411,0.512-0.608
	c8.216-9.158,20.366-14.6,33.383-14.6c12.999,0,25.148,5.436,33.366,14.584h-0.004c0.163,0.181,0.312,0.374,0.472,0.558
	c0.405,0.467,0.809,0.936,1.193,1.422c-10.403,8.578-23.4,13.241-37.196,13.241C234.529,263.032,222.503,259.124,212.578,251.929z
	 M247.017,149.887c31.914,0,57.878,25.378,57.878,56.573c0,11.669-3.628,22.857-10.353,32.278
	c-11.042-12.845-27.631-20.51-45.357-20.51c-18.98,0-36.634,8.771-47.593,23.277c-7.995-9.918-12.454-22.28-12.454-35.046
	C189.138,175.265,215.103,149.887,247.017,149.887z"/>
<path style="fill:#18191B;" d="M425.228,212.663c12.583,0,22.821-12.074,22.821-26.916s-10.237-26.916-22.821-26.916
	s-22.821,12.074-22.821,26.916S412.644,212.663,425.228,212.663z M425.228,173.832c3.699,0,7.821,4.894,7.821,11.916
	c0,7.022-4.122,11.916-7.821,11.916s-7.821-4.894-7.821-11.916C417.407,178.725,421.528,173.832,425.228,173.832z"/>
<path style="fill:#18191B;" d="M371.451,255.966l-0.066,0.202l3.649,3.258c0.002,0.002,0.003,0.003,0.005,0.005
	c0.002,0.002,0.004,0.003,0.006,0.005c13.435,11.992,30.837,18.597,49.003,18.597c19.912,0,38.512-7.753,52.375-21.829
	c0.001-0.001,0.003-0.002,0.004-0.004c0.002-0.002,0.003-0.004,0.005-0.005l4.009-4.071l-0.129-0.222
	c10.742-12.792,16.613-28.714,16.613-45.441c0-39.465-32.693-71.573-72.878-71.573c-40.186,0-72.878,32.107-72.878,71.573
	C351.17,224.927,358.517,242.696,371.451,255.966z M389.61,251.929c0.274-0.396,0.559-0.782,0.846-1.167
	c0.206-0.276,0.402-0.559,0.615-0.83c0.402-0.512,0.826-1.005,1.25-1.497c0.173-0.2,0.336-0.411,0.512-0.608
	c8.216-9.158,20.366-14.6,33.383-14.6c12.999,0,25.148,5.436,33.366,14.584h-0.004c0.163,0.181,0.312,0.374,0.472,0.558
	c0.405,0.467,0.809,0.936,1.193,1.422c-10.403,8.578-23.4,13.241-37.196,13.241C411.561,263.032,399.535,259.124,389.61,251.929z
	 M424.049,149.887c31.914,0,57.878,25.378,57.878,56.573c0,11.669-3.628,22.857-10.353,32.278
	c-11.042-12.845-27.631-20.51-45.357-20.51c-18.98,0-36.634,8.771-47.593,23.277c-7.995-9.918-12.454-22.28-12.454-35.046
	C366.17,175.265,392.135,149.887,424.049,149.887z"/>
<g>
</g>
<g>
</g>
<g>
</g>
<g>
</g>
<g>
</g>
<g>
</g>
<g>
</g>
<g>
</g>
<g>
</g>
<g>
</g>
<g>
</g>
<g>
</g>
<g>
</g>
<g>
</g>
<g>
</g>
</svg>
