<?xml version="1.0" encoding="iso-8859-1"?>
<!-- Generator: Adobe Illustrator 21.0.0, SVG Export Plug-In . SVG Version: 6.00 Build 0)  -->
<svg version="1.1" id="Capa_1" xmlns="http://www.w3.org/2000/svg" xmlns:xlink="http://www.w3.org/1999/xlink" x="0px" y="0px"
	 viewBox="0 0 500.338 500.338" style="enable-background:new 0 0 500.338 500.338;" xml:space="preserve">
<circle style="fill:#18191B;" cx="251.582" cy="351.144" r="7.64"/>
<path style="fill:#18191B;" d="M475.934,17.444H24.404C10.947,17.444,0,28.392,0,41.849v317.984
	c0,13.457,10.947,24.405,24.404,24.405h141.573v37.037c-23.453,6.823-41.093,28.403-41.79,53.915
	c-0.056,2.024,0.71,3.984,2.122,5.435c1.412,1.451,3.351,2.27,5.375,2.27h236.969c2.024,0,3.963-0.819,5.375-2.27
	c1.412-1.451,2.178-3.412,2.122-5.435c-0.697-25.512-18.337-47.092-41.79-53.915v-37.037h141.573
	c13.457,0,24.404-10.948,24.404-24.405V41.849C500.338,28.392,489.391,17.444,475.934,17.444z M475.934,369.237H24.404
	c-5.186,0-9.404-4.219-9.404-9.405v-26.781h288.963c4.143,0,7.5-3.358,7.5-7.5s-3.357-7.5-7.5-7.5H15V72.378h150.521
	c4.143,0,7.5-3.358,7.5-7.5s-3.357-7.5-7.5-7.5H15V41.849c0-5.186,4.219-9.405,9.404-9.405h451.529c5.186,0,9.404,4.219,9.404,9.405
	v15.529H195.521c-4.143,0-7.5,3.358-7.5,7.5s3.357,7.5,7.5,7.5h289.817v245.674H333.963c-4.143,0-7.5,3.358-7.5,7.5
	s3.357,7.5,7.5,7.5h151.375v26.781C485.338,365.018,481.119,369.237,475.934,369.237z M360.233,467.894H140.104
	c4.136-19.26,21.412-33.879,41.624-33.879h136.881C338.821,434.014,356.098,448.633,360.233,467.894z M319.36,419.033
	c-0.251-0.003-0.499-0.019-0.751-0.019H181.729c-0.252,0-0.5,0.016-0.751,0.019v-34.796H319.36V419.033z"/>
<path style="fill:#18191B;" d="M202.348,136.917H68.691c-14.432,0-26.172,11.74-26.172,26.172s11.74,26.172,26.172,26.172h7.607
	l17.438,18.673c1.418,1.519,3.403,2.381,5.481,2.381s4.063-0.862,5.481-2.381l17.438-18.673h80.211
	c14.432,0,26.172-11.741,26.172-26.172S216.779,136.917,202.348,136.917z M202.348,174.261h-83.469
	c-2.078,0-4.063,0.862-5.481,2.381l-14.18,15.184l-14.18-15.184c-1.418-1.519-3.403-2.381-5.481-2.381H68.691
	c-6.16,0-11.172-5.012-11.172-11.172s5.012-11.172,11.172-11.172h133.656c6.16,0,11.172,5.011,11.172,11.172
	S208.508,174.261,202.348,174.261z"/>
<path style="fill:#18191B;" d="M202.348,223.378H68.691c-14.432,0-26.172,11.741-26.172,26.172s11.74,26.172,26.172,26.172h7.607
	l17.438,18.673c1.418,1.519,3.403,2.381,5.481,2.381s4.063-0.862,5.481-2.381l17.438-18.673h80.211
	c14.432,0,26.172-11.74,26.172-26.172S216.779,223.378,202.348,223.378z M202.348,260.722h-83.469c-2.078,0-4.063,0.862-5.481,2.381
	l-14.18,15.184l-14.18-15.184c-1.418-1.519-3.403-2.381-5.481-2.381H68.691c-6.16,0-11.172-5.011-11.172-11.172
	s5.012-11.172,11.172-11.172h133.656c6.16,0,11.172,5.012,11.172,11.172S208.508,260.722,202.348,260.722z"/>
<path style="fill:#18191B;" d="M310.407,151.261h80.21l17.438,18.673c1.418,1.519,3.403,2.381,5.481,2.381s4.063-0.862,5.481-2.381
	l17.438-18.673h7.608c14.432,0,26.172-11.741,26.172-26.172s-11.74-26.172-26.172-26.172H310.407
	c-14.432,0-26.172,11.74-26.172,26.172S295.976,151.261,310.407,151.261z M310.407,113.917h133.656
	c6.16,0,11.172,5.011,11.172,11.172s-5.012,11.172-11.172,11.172h-10.866c-2.078,0-4.063,0.862-5.481,2.381l-14.18,15.184
	l-14.18-15.184c-1.418-1.519-3.403-2.381-5.481-2.381h-83.468c-6.16,0-11.172-5.012-11.172-11.172S304.247,113.917,310.407,113.917z
	"/>
<path style="fill:#18191B;" d="M408.055,271.933c1.418,1.519,3.403,2.381,5.481,2.381s4.063-0.862,5.481-2.381l17.438-18.673h7.608
	c14.432,0,26.172-11.741,26.172-26.172s-11.74-26.172-26.172-26.172H300.407c-14.432,0-26.172,11.741-26.172,26.172
	c0,14.431,11.74,26.172,26.172,26.172h90.21L408.055,271.933z M289.235,227.089c0-6.16,5.012-11.172,11.172-11.172h143.656
	c6.16,0,11.172,5.012,11.172,11.172s-5.012,11.172-11.172,11.172h-10.866c-2.078,0-4.063,0.862-5.481,2.381l-14.18,15.184
	l-14.18-15.184c-1.418-1.519-3.403-2.381-5.481-2.381h-93.468C294.247,238.261,289.235,233.249,289.235,227.089z"/>
<circle style="fill:#18191B;" cx="323.746" cy="282.645" r="6.5"/>
<circle style="fill:#18191B;" cx="350.746" cy="282.645" r="6.5"/>
<circle style="fill:#18191B;" cx="296.746" cy="282.645" r="6.5"/>
<g>
</g>
<g>
</g>
<g>
</g>
<g>
</g>
<g>
</g>
<g>
</g>
<g>
</g>
<g>
</g>
<g>
</g>
<g>
</g>
<g>
</g>
<g>
</g>
<g>
</g>
<g>
</g>
<g>
</g>
</svg>
