<?xml version="1.0" encoding="iso-8859-1"?>
<!-- Generator: Adobe Illustrator 21.0.0, SVG Export Plug-In . SVG Version: 6.00 Build 0)  -->
<svg version="1.1" id="Capa_1" xmlns="http://www.w3.org/2000/svg" xmlns:xlink="http://www.w3.org/1999/xlink" x="0px" y="0px"
	 viewBox="0 0 509.549 509.549" style="enable-background:new 0 0 509.549 509.549;" xml:space="preserve">
<path style="fill:#18191B;" d="M111.435,383.252H46.797c-4.142,0-7.5,3.358-7.5,7.5s3.358,7.5,7.5,7.5h64.638
	c4.142,0,7.5-3.358,7.5-7.5S115.577,383.252,111.435,383.252z"/>
<path style="fill:#18191B;" d="M111.435,421.274H46.797c-4.142,0-7.5,3.358-7.5,7.5s3.358,7.5,7.5,7.5h64.638
	c4.142,0,7.5-3.358,7.5-7.5S115.577,421.274,111.435,421.274z"/>
<path style="fill:#18191B;" d="M111.435,459.297H46.797c-4.142,0-7.5,3.358-7.5,7.5s3.358,7.5,7.5,7.5h64.638
	c4.142,0,7.5-3.358,7.5-7.5S115.577,459.297,111.435,459.297z"/>
<path style="fill:#18191B;" d="M253.176,225.519c-15.909,0-28.852,12.943-28.852,28.852c0,15.909,12.943,28.852,28.852,28.852
	c15.909,0,28.852-12.943,28.852-28.852C282.028,238.462,269.085,225.519,253.176,225.519z M253.176,268.223
	c-7.638,0-13.852-6.214-13.852-13.852c0-7.638,6.214-13.852,13.852-13.852c7.638,0,13.852,6.214,13.852,13.852
	C267.028,262.009,260.814,268.223,253.176,268.223z"/>
<path style="fill:#18191B;" d="M487.049,301.97h-50.092v-29.983c0-12.407-8.656-22.5-19.295-22.5h-99.521
	c-2.22-29.787-24.539-54.047-53.412-59.236v-21.195h32.873c12.407,0,22.5-10.093,22.5-22.5v-22.258c0-12.406-10.093-22.5-22.5-22.5
	h-32.873V93.65c0-4.135,3.364-7.5,7.5-7.5H347v50.695c0,12.406,10.093,22.5,22.5,22.5h113.232c12.407,0,22.5-10.094,22.5-22.5
	V26.704c0-12.406-10.093-22.5-22.5-22.5H369.5c-12.407,0-22.5,10.094-22.5,22.5V71.15h-74.771c-12.407,0-22.5,10.094-22.5,22.5
	v8.147h-37.942c-12.407,0-22.5,10.094-22.5,22.5v22.258c0,12.407,10.093,22.5,22.5,22.5h37.942v20.241
	c-34.337,1.799-61.719,30.298-61.719,65.074c0,0.573,0.029,1.139,0.043,1.708h-72.504c0.002-0.147,0.011-0.292,0.011-0.438
	c0-20.77-16.897-37.667-37.667-37.667c-0.132,0-0.262,0.009-0.394,0.01V92.204h80.343c12.407,0,22.5-10.094,22.5-22.5v-44
	c0-12.406-10.093-22.5-22.5-22.5h-65.09c-4.142,0-7.5,3.358-7.5,7.5s3.358,7.5,7.5,7.5h65.09c4.136,0,7.5,3.365,7.5,7.5v44
	c0,4.135-3.364,7.5-7.5,7.5h-134c-4.136,0-7.5-3.365-7.5-7.5v-44c0-4.135,3.364-7.5,7.5-7.5h38.91c4.142,0,7.5-3.358,7.5-7.5
	s-3.358-7.5-7.5-7.5h-38.91c-12.407,0-22.5,10.094-22.5,22.5v44c0,12.406,10.093,22.5,22.5,22.5H62.5v129.073
	c-13.114,5.898-22.273,19.077-22.273,34.364c0,20.77,16.897,37.667,37.667,37.667c15.269,0,28.436-9.138,34.344-22.228h77.953
	c6.274,23.63,25.518,42.029,49.619,47.074v72.223c-15.893,3.583-28.005,17.235-29.261,33.879h-52.316v-50.551
	c0-12.407-10.093-22.5-22.5-22.5H22.5c-12.407,0-22.5,10.093-22.5,22.5v110.141c0,12.407,10.093,22.5,22.5,22.5h113.232
	c12.407,0,22.5-10.093,22.5-22.5v-44.589h54.216c5.065,14.828,19.126,25.524,35.647,25.524c20.77,0,37.667-16.897,37.667-37.667
	c0-18.477-13.377-33.878-30.953-37.055v-70.562c31.759-0.788,57.952-24.388,62.745-55.009h100.108c1.71,0,4.295,2.991,4.295,7.5
	v29.983h-68.908c-12.407,0-22.5,10.093-22.5,22.5v44c0,12.407,10.093,22.5,22.5,22.5h22.833c4.142,0,7.5-3.358,7.5-7.5
	s-3.358-7.5-7.5-7.5h-22.833c-4.136,0-7.5-3.364-7.5-7.5v-44c0-4.136,3.364-7.5,7.5-7.5h134c4.136,0,7.5,3.364,7.5,7.5v44
	c0,4.136-3.364,7.5-7.5,7.5h-81.167c-4.142,0-7.5,3.358-7.5,7.5s3.358,7.5,7.5,7.5h16.075v39.932
	c-17.052,3.592-29.894,18.75-29.894,36.856c0,20.77,16.897,37.667,37.667,37.667s37.667-16.897,37.667-37.667
	c0-18.297-13.116-33.582-30.439-36.963V390.97h50.092c12.407,0,22.5-10.093,22.5-22.5v-44
	C509.549,312.063,499.456,301.97,487.049,301.97z M362,26.704c0-4.135,3.364-7.5,7.5-7.5h113.232c4.136,0,7.5,3.365,7.5,7.5v110.14
	c0,4.136-3.364,7.5-7.5,7.5H369.5c-4.136,0-7.5-3.365-7.5-7.5V26.704z M204.287,146.555v-22.258c0-4.135,3.364-7.5,7.5-7.5h85.815
	c4.136,0,7.5,3.365,7.5,7.5v22.258c0,4.136-3.364,7.5-7.5,7.5h-85.815C207.651,154.055,204.287,150.691,204.287,146.555z
	 M77.894,278.308c-12.499,0-22.667-10.168-22.667-22.667s10.168-22.667,22.667-22.667s22.667,10.168,22.667,22.667
	S90.392,278.308,77.894,278.308z M143.232,483.845c0,4.136-3.364,7.5-7.5,7.5H22.5c-4.136,0-7.5-3.364-7.5-7.5V373.704
	c0-4.136,3.364-7.5,7.5-7.5h113.232c4.136,0,7.5,3.364,7.5,7.5V483.845z M270.762,427.113c0,12.499-10.168,22.667-22.667,22.667
	s-22.667-10.168-22.667-22.667s10.168-22.667,22.667-22.667S270.762,414.615,270.762,427.113z M253.176,304.538
	c-27.662,0-50.167-22.504-50.167-50.167s22.504-50.167,50.167-50.167s50.167,22.505,50.167,50.167S280.838,304.538,253.176,304.538z
	 M452.396,467.758c0,12.499-10.168,22.667-22.667,22.667s-22.667-10.168-22.667-22.667s10.168-22.667,22.667-22.667
	S452.396,455.26,452.396,467.758z"/>
<path style="fill:#18191B;" d="M393.797,51.252h64.638c4.142,0,7.5-3.358,7.5-7.5s-3.358-7.5-7.5-7.5h-64.638
	c-4.142,0-7.5,3.358-7.5,7.5S389.655,51.252,393.797,51.252z"/>
<path style="fill:#18191B;" d="M393.797,89.274h64.638c4.142,0,7.5-3.358,7.5-7.5s-3.358-7.5-7.5-7.5h-64.638
	c-4.142,0-7.5,3.358-7.5,7.5S389.655,89.274,393.797,89.274z"/>
<path style="fill:#18191B;" d="M393.797,127.297h64.638c4.142,0,7.5-3.358,7.5-7.5s-3.358-7.5-7.5-7.5h-64.638
	c-4.142,0-7.5,3.358-7.5,7.5S389.655,127.297,393.797,127.297z"/>
<g>
</g>
<g>
</g>
<g>
</g>
<g>
</g>
<g>
</g>
<g>
</g>
<g>
</g>
<g>
</g>
<g>
</g>
<g>
</g>
<g>
</g>
<g>
</g>
<g>
</g>
<g>
</g>
<g>
</g>
</svg>
