<?xml version="1.0" encoding="iso-8859-1"?>
<!-- Generator: Adobe Illustrator 21.0.0, SVG Export Plug-In . SVG Version: 6.00 Build 0)  -->
<svg version="1.1" id="Capa_1" xmlns="http://www.w3.org/2000/svg" xmlns:xlink="http://www.w3.org/1999/xlink" x="0px" y="0px"
	 viewBox="0 0 508.492 508.492" style="enable-background:new 0 0 508.492 508.492;" xml:space="preserve">
<path style="fill:#18191B;" d="M507.998,278.072l-33.512-87.693c-0.26-17.741-3.943-34.931-10.955-51.115
	c-1.646-3.801-6.065-5.548-9.863-3.9c-3.801,1.647-5.547,6.063-3.9,9.864c6.384,14.732,9.658,30.413,9.732,46.605
	c0.004,0.903,0.172,1.799,0.494,2.643l30.103,78.774H466.29c-4.143,0-7.5,3.358-7.5,7.5v74.194h-65.374c-4.142,0-7.5,3.358-7.5,7.5
	l-0.001,72.234c-47.235-2.04-91.091-23.296-122.044-59.202C287.939,343.419,301.13,304,301.13,263.786v-43.149
	c9.365-0.93,30.887-4.686,46.028-19.826c19.429-19.43,20.111-49.376,20.131-50.641c0.031-2.029-0.761-3.984-2.195-5.419
	c-1.435-1.435-3.396-2.222-5.419-2.196c-1.266,0.02-31.212,0.701-50.642,20.131c-3.515,3.515-6.409,7.376-8.803,11.347
	c-3.724-27.487-15.801-52.826-35.038-73.222c21.246-17.566,47.796-27.158,75.575-27.158c37.146,0,71.464,16.906,94.151,46.383
	c2.526,3.282,7.233,3.896,10.518,1.369c3.283-2.526,3.896-7.235,1.369-10.518c-25.55-33.196-64.199-52.234-106.038-52.234
	c-31.902,0-62.361,11.235-86.52,31.766c-24.159-20.531-54.619-31.766-86.52-31.766c-33.063,0-64.802,12.161-89.369,34.244
	c-3.081,2.769-3.333,7.511-0.564,10.592c2.769,3.08,7.51,3.334,10.592,0.564c21.81-19.604,49.987-30.4,79.342-30.4
	c27.778,0,54.328,9.592,75.574,27.158c-14.563,15.44-25.022,33.713-30.863,53.606c-2.924-6.467-6.981-13.008-12.633-18.66
	c-19.431-19.43-49.376-20.112-50.642-20.132c-1.997-0.035-3.983,0.761-5.419,2.196c-1.435,1.435-2.227,3.39-2.195,5.419
	c0.02,1.265,0.701,31.211,20.131,50.641c14.799,14.8,35.686,18.719,45.367,19.756c0.026,2.726,0.121,5.493,0.316,8.262v61.887
	c0,40.214,13.19,79.633,37.259,111.689c-30.953,35.906-74.809,57.162-122.044,59.202v-72.234c0-4.142-3.357-7.5-7.5-7.5H49.702
	v-74.194c0-4.142-3.357-7.5-7.5-7.5H18.395l30.103-78.774c0.322-0.844,0.49-1.739,0.494-2.643
	c0.111-23.909,7.294-46.924,20.772-66.557c2.344-3.415,1.476-8.083-1.938-10.428c-3.417-2.344-8.085-1.476-10.429,1.939
	c-14.926,21.743-23,47.161-23.392,73.593L0.494,278.072c-0.881,2.306-0.571,4.897,0.828,6.93c1.399,2.033,3.71,3.248,6.178,3.248
	h27.202v74.194c0,4.142,3.357,7.5,7.5,7.5h65.375v72.396c0,4.142,3.357,7.5,7.5,7.5c53.594,0,103.809-22.713,139.169-62.606
	c35.36,39.893,85.575,62.606,139.17,62.606c4.143,0,7.5-3.358,7.5-7.5v-72.396h65.374c4.143,0,7.5-3.358,7.5-7.5v-74.194h27.202
	c2.468,0,4.778-1.214,6.178-3.248C508.569,282.969,508.879,280.378,507.998,278.072z M319.641,173.293
	c9.535-9.536,23.032-13.304,31.719-14.787c-1.465,8.664-5.218,22.108-14.809,31.698c-9.525,9.525-23.005,13.296-31.692,14.782
	C306.345,196.295,310.115,182.818,319.641,173.293z M172.287,163.274c-9.536-9.536-13.305-23.033-14.787-31.719
	c8.664,1.465,22.107,5.218,31.697,14.808c9.536,9.536,13.304,23.033,14.787,31.719C195.32,176.617,181.877,172.865,172.287,163.274z
	 M254.246,363.239c-20.887-29.087-31.884-63.267-31.884-99.453v-62.154c0-0.181-0.007-0.361-0.02-0.541
	c-0.211-2.92-0.318-5.846-0.318-8.696c0-30.632,11.393-59.231,32.222-81.312c20.828,22.081,32.222,50.68,32.222,81.312
	c0,2.851-0.107,5.776-0.318,8.696c-0.013,0.18-0.02,0.36-0.02,0.541v62.154C286.13,299.972,275.133,334.153,254.246,363.239z"/>
<g>
</g>
<g>
</g>
<g>
</g>
<g>
</g>
<g>
</g>
<g>
</g>
<g>
</g>
<g>
</g>
<g>
</g>
<g>
</g>
<g>
</g>
<g>
</g>
<g>
</g>
<g>
</g>
<g>
</g>
</svg>
