<?xml version="1.0" encoding="iso-8859-1"?>
<!-- Generator: Adobe Illustrator 21.0.0, SVG Export Plug-In . SVG Version: 6.00 Build 0)  -->
<svg version="1.1" id="Capa_1" xmlns="http://www.w3.org/2000/svg" xmlns:xlink="http://www.w3.org/1999/xlink" x="0px" y="0px"
	 viewBox="0 0 509.624 509.624" style="enable-background:new 0 0 509.624 509.624;" xml:space="preserve">
<g>
	<path style="fill:#18191B;" d="M29.754,151.611c16.365,14.611,37.566,22.657,59.699,22.657c24.254,0,46.91-9.442,63.795-26.585
		c0.003-0.002,0.005-0.005,0.008-0.007c16.092-16.34,24.954-37.841,24.954-60.542C178.21,39.088,138.394,0,89.453,0
		S0.696,39.088,0.696,87.134C0.696,111.623,11.287,135.124,29.754,151.611z M44.173,144.055
		c10.172-15.775,28.303-25.473,47.974-25.473c18.459,0,35.585,8.556,46.027,22.66c-13.472,11.655-30.547,18.027-48.721,18.027
		C72.947,159.269,57.083,153.893,44.173,144.055z M89.453,15c40.669,0,73.757,32.359,73.757,72.134
		c0,15.677-5.132,30.673-14.604,43.069c-13.351-16.625-34.162-26.622-56.458-26.622c-23.817,0-45.907,11.382-59.056,30.069
		c-11.146-12.938-17.396-29.443-17.396-46.517C15.696,47.359,48.783,15,89.453,15z"/>
	<path style="fill:#18191B;" d="M90.918,93.023c14.635,0,26.542-14.19,26.542-31.631s-11.907-31.631-26.542-31.631
		S64.376,43.95,64.376,61.392S76.282,93.023,90.918,93.023z M90.918,44.761c6.256,0,11.542,7.616,11.542,16.631
		c0,9.015-5.286,16.631-11.542,16.631s-11.542-7.616-11.542-16.631C79.376,52.377,84.661,44.761,90.918,44.761z"/>
	<path style="fill:#18191B;" d="M360.472,151.611c16.365,14.611,37.566,22.657,59.699,22.657c24.258,0,46.917-9.444,63.804-26.593
		c16.092-16.34,24.954-37.841,24.954-60.542C508.928,39.088,469.112,0,420.171,0s-88.757,39.088-88.757,87.134
		C331.414,111.623,342.006,135.124,360.472,151.611z M374.892,144.055c10.172-15.775,28.303-25.473,47.974-25.473
		c18.459,0,35.585,8.556,46.027,22.66c-13.472,11.655-30.547,18.027-48.722,18.027C403.666,159.269,387.802,153.893,374.892,144.055
		z M420.171,15c40.67,0,73.757,32.359,73.757,72.134c0,15.677-5.132,30.672-14.604,43.069
		c-13.351-16.625-34.162-26.621-56.458-26.621c-23.817,0-45.907,11.382-59.056,30.069c-11.146-12.938-17.396-29.443-17.396-46.517
		C346.414,47.359,379.502,15,420.171,15z"/>
	<path style="fill:#18191B;" d="M421.636,93.023c14.635,0,26.542-14.19,26.542-31.631s-11.906-31.631-26.542-31.631
		s-26.542,14.189-26.542,31.631S407.001,93.023,421.636,93.023z M421.636,44.761c6.256,0,11.542,7.616,11.542,16.631
		c0,9.015-5.285,16.631-11.542,16.631s-11.542-7.616-11.542-16.631C410.094,52.377,415.38,44.761,421.636,44.761z"/>
	<path style="fill:#18191B;" d="M420.171,335.355c-48.941,0-88.757,39.088-88.757,87.134c0,24.489,10.591,47.99,29.058,64.478
		c16.364,14.61,37.566,22.657,59.699,22.657c24.257,0,46.917-9.444,63.804-26.592c16.092-16.341,24.954-37.842,24.954-60.542
		C508.928,374.444,469.112,335.355,420.171,335.355z M374.892,479.412c10.171-15.775,28.303-25.474,47.974-25.474
		c18.459,0,35.585,8.556,46.027,22.659c-13.473,11.655-30.547,18.027-48.722,18.027
		C403.665,494.624,387.802,489.249,374.892,479.412z M479.324,465.559c-13.351-16.625-34.162-26.621-56.458-26.621
		c-23.817,0-45.908,11.382-59.056,30.069c-11.146-12.938-17.396-29.444-17.396-46.517c0-39.775,33.087-72.134,73.757-72.134
		c40.67,0,73.757,32.359,73.757,72.134C493.928,438.167,488.796,453.162,479.324,465.559z"/>
	<path style="fill:#18191B;" d="M421.636,365.116c-14.635,0-26.542,14.19-26.542,31.631s11.907,31.631,26.542,31.631
		s26.542-14.189,26.542-31.631S436.272,365.116,421.636,365.116z M421.636,413.378c-6.256,0-11.542-7.616-11.542-16.631
		c0-9.015,5.286-16.631,11.542-16.631s11.542,7.616,11.542,16.631C433.178,405.762,427.893,413.378,421.636,413.378z"/>
	<path style="fill:#18191B;" d="M89.453,335.355c-14.097,0-27.579,3.151-40.072,9.367c-3.708,1.845-5.219,6.347-3.374,10.056
		c1.845,3.708,6.346,5.219,10.056,3.374c10.398-5.173,21.633-7.796,33.391-7.796c40.669,0,73.757,32.359,73.757,72.134
		c0,15.677-5.132,30.673-14.604,43.069c-13.351-16.625-34.162-26.621-56.458-26.621c-23.817,0-45.908,11.382-59.056,30.069
		c-11.146-12.938-17.396-29.444-17.396-46.517c0-16.354,5.455-31.772,15.775-44.588c2.598-3.226,2.088-7.947-1.138-10.545
		c-3.225-2.597-7.947-2.088-10.545,1.138C7.297,384.005,0.696,402.677,0.696,422.49c0,24.489,10.591,47.99,29.058,64.478
		c16.364,14.61,37.566,22.657,59.699,22.657c24.257,0,46.917-9.444,63.803-26.592c16.092-16.34,24.954-37.841,24.954-60.542
		C178.21,374.444,138.394,335.355,89.453,335.355z M44.173,479.412c10.171-15.775,28.303-25.474,47.974-25.474
		c18.459,0,35.585,8.556,46.027,22.659c-13.473,11.655-30.547,18.027-48.721,18.027C72.947,494.624,57.083,489.249,44.173,479.412z"
		/>
	<path style="fill:#18191B;" d="M117.46,396.748c0-17.441-11.907-31.631-26.542-31.631s-26.542,14.19-26.542,31.631
		s11.907,31.631,26.542,31.631S117.46,414.189,117.46,396.748z M79.376,396.748c0-9.015,5.286-16.631,11.542-16.631
		s11.542,7.616,11.542,16.631c0,9.015-5.286,16.631-11.542,16.631S79.376,405.762,79.376,396.748z"/>
	<path style="fill:#18191B;" d="M348.594,315.322c5.361-1.323,9.906-4.884,12.47-9.769c7.166-13.653,11.741-28.961,13.23-44.271
		c0.534-5.493-1.317-10.963-5.079-15.009c-3.109-3.344-7.283-5.459-11.754-6.022c-1.948-15.777-7.511-30.787-16.33-44.066
		c3.108-3.149,5.069-7.301,5.492-11.766c0.521-5.497-1.339-10.962-5.104-14.996c-10.521-11.273-23.461-20.646-37.419-27.105
		c-5.007-2.318-10.782-2.377-15.843-0.163c-4.611,2.018-8.239,5.75-10.138,10.369c-15.682-3.578-32.216-3.414-47.848,0.508
		c-1.861-4.813-5.583-8.704-10.343-10.769c-5.068-2.199-10.843-2.123-15.844,0.211c-13.94,6.505-26.851,15.92-37.335,27.225
		c-3.752,4.045-5.595,9.516-5.057,15.011c0.49,5.01,2.917,9.619,6.723,12.854c-8.849,13.813-14.206,29.41-15.718,45.78
		c-4.621,0.583-8.916,2.826-12.042,6.348c-3.661,4.124-5.389,9.627-4.742,15.101c1.844,15.587,6.675,30.416,14.359,44.075
		c2.703,4.805,7.344,8.232,12.734,9.405c3.964,0.864,8.068,0.448,11.736-1.125c10.807,13.496,24.979,24.203,40.87,30.869
		c-0.102,3.6,0.802,7.197,2.664,10.36c2.797,4.755,7.503,8.092,12.911,9.154c7.557,1.485,15.321,2.238,23.083,2.238
		c7.792,0,15.593-0.76,23.184-2.26c5.409-1.068,10.113-4.411,12.907-9.17c1.72-2.93,2.619-6.231,2.659-9.561
		c17.614-6.977,33.09-18.789,44.537-33.986C341.072,316.028,344.91,316.232,348.594,315.322z M333.843,297.6
		c-1.984,0.392-3.726,1.569-4.83,3.263c-11.031,16.927-27.625,29.656-46.725,35.843c-1.894,0.614-3.466,1.955-4.371,3.729
		c-0.904,1.774-1.066,3.834-0.45,5.728l0.34,1.045c0.525,1.615-0.017,2.912-0.386,3.541c-0.367,0.625-1.228,1.721-2.877,2.047
		c-13.233,2.614-27.215,2.624-40.467,0.019c-1.646-0.323-2.507-1.418-2.874-2.042c-0.371-0.629-0.914-1.926-0.39-3.541l0.532-1.642
		c1.26-3.889-0.826-8.072-4.692-9.403c-17.637-6.076-33.218-17.917-43.873-33.341c-1.149-1.664-2.922-2.793-4.916-3.131
		c-0.418-0.071-0.837-0.106-1.255-0.106c-1.578,0-3.127,0.498-4.418,1.44l-2.52,1.837c-1.368,0.998-2.766,0.887-3.478,0.732
		c-0.709-0.154-2.022-0.633-2.849-2.103c-6.709-11.925-10.927-24.872-12.536-38.483c-0.199-1.676,0.581-2.837,1.063-3.38
		c0.483-0.543,1.545-1.456,3.237-1.458l4.679-0.005c4.07-0.004,7.394-3.254,7.49-7.323c0.433-18.375,6.467-35.844,17.451-50.521
		c1.203-1.608,1.711-3.631,1.411-5.616s-1.385-3.768-3.01-4.947l-4.739-3.44c-1.375-0.998-1.699-2.365-1.77-3.091
		c-0.071-0.721-0.018-2.116,1.126-3.35c9.18-9.898,20.481-18.14,32.681-23.833c1.523-0.711,2.865-0.333,3.53-0.044
		c0.67,0.291,1.874,1.02,2.402,2.637l1.928,5.909c0.618,1.895,1.965,3.465,3.743,4.366c1.777,0.899,3.842,1.055,5.734,0.431
		c8.892-2.93,18.135-4.416,27.473-4.416c8.689,0,17.3,1.281,25.593,3.807c3.916,1.194,8.066-0.975,9.323-4.871l1.725-5.344
		c0.522-1.619,1.724-2.352,2.394-2.646c0.663-0.291,2.005-0.672,3.529,0.034c12.217,5.653,23.542,13.858,32.754,23.727
		c1.148,1.23,1.205,2.625,1.136,3.347c-0.069,0.727-0.389,2.095-1.76,3.097l-3.5,2.557c-1.634,1.194-2.716,2.998-3.001,5.001
		s0.252,4.037,1.489,5.639c10.931,14.158,17.222,31.038,18.191,48.816c0.221,4.048,3.633,7.223,7.671,7.089l4.163-0.101
		c1.701-0.051,2.789,0.851,3.287,1.386c0.494,0.531,1.297,1.671,1.134,3.343c-1.303,13.399-5.308,26.799-11.582,38.751
		c-0.782,1.49-2.08,2.004-2.784,2.178c-0.708,0.175-2.105,0.324-3.506-0.64l-1.943-1.338
		C337.885,297.634,335.824,297.208,333.843,297.6z"/>
	<path style="fill:#18191B;" d="M255.236,189.333c-8.416,0-16.599,1.626-24.324,4.832c-0.001,0-0.002,0.001-0.003,0.001
		c-0.718,0.298-1.429,0.609-2.133,0.932c-3.766,1.727-5.418,6.178-3.692,9.943c1.727,3.765,6.177,5.418,9.943,3.692
		c0.539-0.248,1.083-0.485,1.632-0.713c0.001,0,0.002-0.001,0.004-0.001c5.893-2.446,12.143-3.687,18.574-3.687
		c26.815,0,48.632,21.816,48.632,48.632s-21.816,48.632-48.632,48.632c-26.816,0-48.632-21.816-48.632-48.632
		c0-9.165,2.574-18.097,7.444-25.83c0.003-0.005,0.006-0.01,0.009-0.015c0.361-0.573,0.734-1.138,1.118-1.694
		c2.353-3.409,1.496-8.08-1.913-10.433c-3.411-2.353-8.08-1.496-10.433,1.913c-0.506,0.733-0.998,1.479-1.473,2.233
		c-0.002,0.004-0.004,0.007-0.007,0.011c-6.375,10.128-9.745,21.82-9.745,33.813c0,35.087,28.545,63.632,63.632,63.632
		s63.632-28.545,63.632-63.632S290.323,189.333,255.236,189.333z"/>
	<path style="fill:#18191B;" d="M233.209,46.489c0.31,0,0.63-0.02,0.95-0.06c4.11-0.52,7.01-4.28,6.49-8.38
		c-0.52-4.12-4.27-7.02-8.38-6.5c-4.11,0.52-7.02,4.27-6.5,8.38C226.249,43.719,229.479,46.489,233.209,46.489z"/>
	<path style="fill:#18191B;" d="M191.379,56.119c0.8,0,1.61-0.13,2.41-0.4c3.92-1.33,6.02-5.58,4.69-9.51
		c-1.33-3.92-5.58-6.02-9.5-4.69c-3.93,1.33-6.03,5.58-4.7,9.51C185.339,54.149,188.249,56.119,191.379,56.119z"/>
	<path style="fill:#18191B;" d="M316.428,52.319c0.67,0.18,1.35,0.27,2.01,0.27c3.29,0,6.3-2.17,7.22-5.49
		c1.11-4-1.23-8.13-5.22-9.24c-3.99-1.1-8.13,1.24-9.23,5.23C310.098,47.079,312.439,51.209,316.428,52.319z"/>
	<path style="fill:#18191B;" d="M275.598,45.289c0.18,0.01,0.36,0.02,0.54,0.02c3.9,0,7.19-3.02,7.47-6.97
		c0.29-4.13-2.82-7.72-6.95-8.01c-4.13-0.3-7.72,2.82-8.01,6.95C268.348,41.409,271.469,44.999,275.598,45.289z"/>
	<path style="fill:#18191B;" d="M460.948,323.549c0.67,0.18,1.35,0.27,2.01,0.27c3.29,0,6.3-2.18,7.22-5.5
		c1.11-3.99-1.23-8.12-5.22-9.23c-3.99-1.11-8.12,1.23-9.23,5.22C454.618,318.299,456.959,322.439,460.948,323.549z"/>
	<path style="fill:#18191B;" d="M477.719,274.539c0.29-4.13-2.82-7.72-6.95-8.01c-4.13-0.29-7.72,2.82-8.01,6.95
		s2.82,7.72,6.95,8.01c0.18,0.02,0.36,0.02,0.54,0.02C474.149,281.509,477.439,278.489,477.719,274.539z"/>
	<path style="fill:#18191B;" d="M461.618,232.039c0.48,3.79,3.71,6.56,7.43,6.56c0.32,0,0.63-0.02,0.95-0.06
		c4.11-0.52,7.02-4.28,6.5-8.39s-4.28-7.02-8.38-6.5C464.009,224.179,461.098,227.929,461.618,232.039z"/>
	<path style="fill:#18191B;" d="M459.428,196.769c0.79,0,1.61-0.13,2.4-0.4c3.93-1.33,6.03-5.59,4.7-9.51s-5.59-6.03-9.51-4.7
		c-3.92,1.33-6.02,5.59-4.69,9.51h-0.01C453.379,194.799,456.299,196.769,459.428,196.769z"/>
	<path style="fill:#18191B;" d="M316.379,450.209c-3.93,1.33-6.03,5.58-4.7,9.51c1.06,3.12,3.98,5.09,7.1,5.09
		c0.8,0,1.61-0.13,2.41-0.4c3.92-1.33,6.02-5.58,4.7-9.51C324.558,450.979,320.299,448.879,316.379,450.209z"/>
	<path style="fill:#18191B;" d="M276.009,459.499c-4.11,0.52-7.02,4.28-6.5,8.39c0.48,3.78,3.71,6.55,7.43,6.55
		c0.32,0,0.64-0.02,0.96-0.06c4.11-0.52,7.01-4.27,6.49-8.38C283.868,461.889,280.118,458.979,276.009,459.499z"/>
	<path style="fill:#18191B;" d="M193.729,453.609c-3.99-1.1-8.12,1.23-9.23,5.22c-1.11,4,1.23,8.13,5.23,9.24
		c0.67,0.18,1.34,0.27,2,0.27c3.29,0,6.3-2.18,7.23-5.5C200.058,458.849,197.729,454.719,193.729,453.609z"/>
	<path style="fill:#18191B;" d="M234.569,460.639c-4.13-0.29-7.72,2.82-8.02,6.95c-0.29,4.13,2.82,7.72,6.96,8.01
		c0.18,0.02,0.36,0.02,0.53,0.02c3.91,0,7.2-3.02,7.48-6.97C241.808,464.519,238.698,460.929,234.569,460.639z"/>
	<path style="fill:#18191B;" d="M32.448,231.389c-0.3,4.13,2.81,7.72,6.95,8.01c0.18,0.01,0.35,0.02,0.53,0.02
		c3.9,0,7.2-3.02,7.48-6.97c0.29-4.13-2.82-7.72-6.95-8.01C36.319,224.139,32.739,227.259,32.448,231.389z"/>
	<path style="fill:#18191B;" d="M45.198,196.839c0.68,0.19,1.35,0.27,2.01,0.27c3.29,0.01,6.3-2.17,7.23-5.49
		c1.1-3.99-1.24-8.13-5.23-9.24c-3.99-1.1-8.12,1.24-9.23,5.23C38.868,191.599,41.209,195.729,45.198,196.839z"/>
	<path style="fill:#18191B;" d="M50.739,324.169c0.79,0,1.61-0.13,2.4-0.4c3.93-1.33,6.03-5.59,4.7-9.51s-5.59-6.03-9.51-4.7
		c-3.92,1.33-6.03,5.59-4.7,9.51C44.689,322.199,47.609,324.169,50.739,324.169z"/>
	<path style="fill:#18191B;" d="M33.669,275.779c0.48,3.79,3.7,6.55,7.43,6.55c0.31,0,0.63-0.02,0.95-0.06
		c4.11-0.52,7.02-4.27,6.49-8.38h0.01c-0.53-4.11-4.28-7.02-8.39-6.5c-4.11,0.53-7.02,4.28-6.5,8.39
		C33.669,275.779,33.669,275.779,33.669,275.779z"/>
</g>
<g>
</g>
<g>
</g>
<g>
</g>
<g>
</g>
<g>
</g>
<g>
</g>
<g>
</g>
<g>
</g>
<g>
</g>
<g>
</g>
<g>
</g>
<g>
</g>
<g>
</g>
<g>
</g>
<g>
</g>
</svg>
