<?xml version="1.0" encoding="iso-8859-1"?>
<!-- Generator: Adobe Illustrator 21.0.0, SVG Export Plug-In . SVG Version: 6.00 Build 0)  -->
<svg version="1.1" id="Capa_1" xmlns="http://www.w3.org/2000/svg" xmlns:xlink="http://www.w3.org/1999/xlink" x="0px" y="0px"
	 viewBox="0 0 483.797 483.797" style="enable-background:new 0 0 483.797 483.797;" xml:space="preserve">
<path style="fill:#18191B;" d="M91.967,117.681c-14.856,0-26.943,14.418-26.943,32.14s12.087,32.141,26.943,32.141
	c14.857,0,26.944-14.418,26.944-32.141S106.824,117.681,91.967,117.681z M91.967,166.962c-6.474,0-11.943-7.85-11.943-17.141
	s5.469-17.14,11.943-17.14s11.944,7.849,11.944,17.14S98.441,166.962,91.967,166.962z"/>
<path style="fill:#18191B;" d="M394.822,181.962c14.856,0,26.943-14.418,26.943-32.141s-12.087-32.14-26.943-32.14
	c-14.857,0-26.944,14.418-26.944,32.14S379.965,181.962,394.822,181.962z M394.822,132.681c6.474,0,11.943,7.849,11.943,17.14
	s-5.469,17.141-11.943,17.141s-11.944-7.85-11.944-17.141S388.348,132.681,394.822,132.681z"/>
<path style="fill:#18191B;" d="M272.964,106.757c0-20.188-13.669-36.612-30.472-36.612s-30.472,16.424-30.472,36.612
	s13.67,36.612,30.472,36.612S272.964,126.945,272.964,106.757z M227.02,106.757c0-11.715,7.085-21.612,15.472-21.612
	s15.472,9.897,15.472,21.612s-7.085,21.612-15.472,21.612S227.02,118.472,227.02,106.757z"/>
<path style="fill:#18191B;" d="M476.01,212.161c5.089-11.223,7.788-23.453,7.788-36.054c0-48.973-40.585-88.814-90.472-88.814
	c-19.085,0-37.515,5.901-52.841,16.741c-14.303-40.573-53.618-69.792-99.76-69.792c-15.463,0-30.366,3.21-44.296,9.54
	c-3.771,1.714-5.438,6.16-3.725,9.931c1.714,3.771,6.161,5.438,9.931,3.725c11.967-5.438,24.782-8.196,38.09-8.196
	c49.917,0,90.528,39.733,90.528,88.571c0,19.925-6.747,38.95-19.165,54.47c-15.75-20.619-41.002-33.08-68.113-33.08
	c-28.911,0-55.672,14.145-71.092,37.242c-14.515-16.102-22.687-36.995-22.687-58.633c0-22.613,8.708-44.141,24.522-60.616
	c2.868-2.988,2.771-7.736-0.218-10.604c-2.989-2.868-7.736-2.771-10.604,0.218c-10.049,10.47-17.64,22.692-22.486,35.917
	c-14.944-9.995-32.704-15.435-50.939-15.435C40.585,87.293,0,127.135,0,176.107c0,14.148,3.472,27.971,9.904,40.354v54.725
	c0,4.142,3.358,7.5,7.5,7.5s7.5-3.358,7.5-7.5V237.29c0.365,0.378,0.732,0.754,1.105,1.126l-0.048,0.146l3.656,3.265
	c16.681,14.893,38.292,23.095,60.854,23.095c24.727,0,47.824-9.626,65.037-27.106l4.014-4.076l-0.107-0.185
	c0.287-0.331,0.576-0.661,0.857-0.996v172.839H24.904V301.186c0-4.142-3.358-7.5-7.5-7.5s-7.5,3.358-7.5,7.5v111.712v29.157
	c0,4.142,3.358,7.5,7.5,7.5h150.369h150.369H468.51h0c4.142,0,7.5-3.358,7.5-7.5v-29.157c0-0.003,0-0.006,0-0.01V212.161z
	 M240.725,241.384c26.085,0,50.613-9.183,69.917-26.018v4.335v185.697H175.273V219.023
	C193.865,233.475,216.83,241.384,240.725,241.384z M325.642,235.02c1.045,1.158,2.118,2.293,3.224,3.397l-0.048,0.146l3.655,3.264
	c16.681,14.893,38.292,23.095,60.854,23.095c24.727,0,47.824-9.626,65.037-27.106l2.647-2.688v170.271H325.642V235.02z
	 M438.957,226.198c1.507,1.592,2.92,3.276,4.231,5.044c0.039,0.052,0.078,0.103,0.117,0.155
	c-13.803,11.988-31.331,18.525-49.979,18.525c-16.938,0-33.225-5.518-46.457-15.641c0.075-0.117,0.151-0.233,0.227-0.35
	c0.32-0.49,0.644-0.977,0.981-1.453c0.018-0.026,0.036-0.052,0.054-0.078c0.421-0.595,0.854-1.181,1.295-1.759h-0.01
	c10.729-14.073,28.02-22.58,46.661-22.58C412.651,208.061,428.175,214.8,438.957,226.198z M346.253,137.813
	c0-6.168-0.555-12.212-1.613-18.086c13.606-11.25,30.797-17.434,48.686-17.434c41.615,0,75.472,33.113,75.472,73.814
	c0,16.111-5.296,31.518-15.068,44.235c-13.598-17.034-34.863-27.281-57.652-27.281c-24.339,0-46.91,11.667-60.29,30.803
	c-5.459-6.294-9.84-13.468-12.871-21.127C338.025,184.371,346.253,161.65,346.253,137.813z M243.975,174.204
	c22.544,0,43.479,10.36,56.398,27.47c0.335,0.442,0.665,0.89,0.99,1.341c0.078,0.109,0.154,0.22,0.232,0.33
	c-16.693,14.899-38.087,23.039-60.87,23.039c-20.733,0-40.656-6.895-56.697-19.521c0.034-0.055,0.065-0.111,0.099-0.166
	c0.808-1.305,1.671-2.567,2.563-3.807h-0.023C199.499,185.051,220.882,174.204,243.975,174.204z M44.015,234.281
	c0.108-0.169,0.218-0.338,0.328-0.505c0.03-0.045,0.06-0.09,0.09-0.135H44.43c10.473-15.855,28.862-25.58,48.793-25.58
	c18.625,0,35.925,8.511,46.656,22.58h-0.017c0.152,0.2,0.31,0.394,0.464,0.592c0.041,0.055,0.083,0.109,0.124,0.165
	c-13.803,11.988-31.331,18.525-49.979,18.525C73.533,249.922,57.246,244.405,44.015,234.281z M150.875,220.342
	c-13.598-17.034-34.863-27.281-57.652-27.281c-24.339,0-46.908,11.664-60.289,30.802C21.445,210.601,15,193.647,15,176.107
	c0-40.702,33.856-73.814,75.471-73.814c16.941,0,33.387,5.592,46.641,15.791c-1.266,6.445-1.916,13.046-1.916,19.73
	c0,24.547,8.956,48.26,24.931,66.842c-0.121,0.214-0.234,0.436-0.336,0.666C157.426,210.674,154.44,215.7,150.875,220.342z
	 M24.904,420.398h135.369v14.157H24.904V420.398z M175.273,420.398h135.369v14.157H175.273V420.398z M325.642,434.555v-14.157
	H461.01v14.157H325.642z"/>
<path style="fill:#18191B;" d="M201.515,314.036c2.935,2.132,4.154,5.883,3.033,9.334c-3.185,9.801,0.145,20.047,8.481,26.104
	c4.169,3.029,8.946,4.543,13.724,4.543c4.777,0,9.556-1.515,13.724-4.543c2.935-2.132,6.879-2.133,9.815,0
	c8.337,6.058,19.111,6.058,27.448,0c8.337-6.057,11.666-16.304,8.481-26.104c-1.121-3.451,0.098-7.202,3.033-9.335
	c8.337-6.057,11.667-16.304,8.482-26.104c-3.185-9.801-11.901-16.133-22.206-16.133c-3.628,0-6.819-2.318-7.94-5.769
	c-3.184-9.801-11.9-16.134-22.206-16.134c-10.306,0-19.022,6.333-22.206,16.134c-1.121,3.45-4.312,5.769-7.94,5.769
	c-10.305,0-19.021,6.333-22.206,16.133C189.848,297.732,193.177,307.979,201.515,314.036z M207.298,292.567
	c0.439-1.353,2.312-5.769,7.94-5.769c10.147,0,19.071-6.484,22.206-16.134c1.739-5.353,6.517-5.769,7.94-5.769
	c1.423,0,6.201,0.416,7.94,5.769v0c3.135,9.65,12.059,16.134,22.206,16.134c5.628,0,7.5,4.416,7.94,5.769
	c0.44,1.354,1.521,6.026-3.033,9.334c-8.208,5.964-11.617,16.455-8.482,26.105c1.739,5.353-1.881,8.498-3.033,9.334
	c-1.15,0.836-5.26,3.31-9.815,0c-8.208-5.964-19.24-5.963-27.448,0c-4.556,3.308-8.665,0.835-9.815,0
	c-1.151-0.836-4.772-3.981-3.033-9.334c3.135-9.65-0.273-20.141-8.482-26.104C205.778,298.593,206.858,293.92,207.298,292.567z"/>
<path style="fill:#18191B;" d="M132.531,352.793c7.774-5.648,10.878-15.203,7.909-24.341c-2.969-9.139-11.097-15.043-20.706-15.043
	c-2.942,0-5.53-1.88-6.44-4.679c-2.969-9.139-11.097-15.043-20.706-15.043s-17.736,5.905-20.705,15.043
	c-0.91,2.799-3.498,4.679-6.44,4.679c-9.609,0-17.736,5.905-20.706,15.043c-2.969,9.138,0.135,18.693,7.909,24.341
	c2.381,1.729,3.369,4.771,2.46,7.57c-2.969,9.138,0.135,18.693,7.909,24.34c7.773,5.648,17.819,5.649,25.594,0
	c2.381-1.729,5.58-1.729,7.96,0c3.887,2.824,8.342,4.236,12.796,4.236c4.455,0,8.91-1.412,12.797-4.236
	c7.773-5.648,10.878-15.202,7.909-24.341C129.162,357.565,130.15,354.523,132.531,352.793z M123.714,340.658
	c-7.654,5.561-10.833,15.343-7.909,24.341c1.411,4.341-1.526,6.892-2.46,7.57c-0.934,0.679-4.266,2.684-7.96,0
	c-3.828-2.781-8.312-4.171-12.797-4.171c-4.484,0-8.97,1.391-12.796,4.171c-3.694,2.686-7.025,0.679-7.96,0
	c-0.934-0.678-3.871-3.229-2.46-7.57c2.924-8.998-0.255-18.78-7.909-24.342c-3.693-2.683-2.816-6.472-2.459-7.57
	c0.356-1.098,1.875-4.679,6.44-4.679c9.461,0,17.782-6.045,20.706-15.044c1.411-4.341,5.286-4.679,6.439-4.679
	c1.154,0,5.03,0.337,6.44,4.679c2.924,8.998,11.245,15.043,20.706,15.043c4.564,0,6.083,3.581,6.439,4.679
	C126.531,334.185,127.407,337.975,123.714,340.658z"/>
<path style="fill:#18191B;" d="M420.471,321c-2.942,0-5.53-1.88-6.44-4.679v0c-2.969-9.139-11.097-15.044-20.706-15.044
	s-17.736,5.905-20.706,15.043c-0.91,2.799-3.498,4.679-6.44,4.679c-9.609,0-17.736,5.905-20.706,15.043s0.135,18.693,7.909,24.341
	c2.38,1.729,3.369,4.771,2.459,7.57c-2.969,9.139,0.135,18.693,7.909,24.341c3.887,2.824,8.342,4.235,12.796,4.235
	c4.455,0,8.91-1.412,12.797-4.236c2.38-1.729,5.58-1.729,7.96,0c7.772,5.648,17.819,5.648,25.593,0.001
	c7.774-5.648,10.878-15.203,7.909-24.342c-0.909-2.798,0.079-5.84,2.46-7.57c7.774-5.648,10.878-15.202,7.909-24.341
	C438.208,326.906,430.08,321,420.471,321z M424.452,348.249c-7.655,5.561-10.833,15.343-7.909,24.341
	c1.411,4.342-1.526,6.893-2.46,7.571c-0.934,0.679-4.266,2.684-7.96,0c-7.654-5.561-17.939-5.56-25.594,0
	c-3.692,2.684-7.026,0.68-7.96,0c-0.934-0.678-3.871-3.229-2.46-7.57c2.924-8.999-0.254-18.78-7.909-24.341
	c-3.693-2.683-2.816-6.473-2.459-7.57c0.356-1.098,1.875-4.679,6.439-4.679c9.461,0,17.782-6.045,20.706-15.044
	c1.411-4.341,5.286-4.679,6.44-4.679s5.029,0.337,6.44,4.679v0C402.689,329.955,411.01,336,420.471,336
	c4.565,0,6.083,3.582,6.44,4.679S428.145,345.567,424.452,348.249z"/>
<g>
</g>
<g>
</g>
<g>
</g>
<g>
</g>
<g>
</g>
<g>
</g>
<g>
</g>
<g>
</g>
<g>
</g>
<g>
</g>
<g>
</g>
<g>
</g>
<g>
</g>
<g>
</g>
<g>
</g>
</svg>
