<?xml version="1.0" encoding="iso-8859-1"?>
<!-- Generator: Adobe Illustrator 21.0.0, SVG Export Plug-In . SVG Version: 6.00 Build 0)  -->
<svg version="1.1" id="Capa_1" xmlns="http://www.w3.org/2000/svg" xmlns:xlink="http://www.w3.org/1999/xlink" x="0px" y="0px"
	 viewBox="0 0 507.207 507.207" style="enable-background:new 0 0 507.207 507.207;" xml:space="preserve">
<path style="fill:#18191B;" d="M456.52,125.751h-36.791l-136.56-92.029l-0.254,0.377c0-0.053,0.004-0.104,0.004-0.157
	C282.919,15.226,267.694,0,248.978,0s-33.941,15.226-33.941,33.941c0,0.757,0.034,1.506,0.083,2.251L82.227,125.751h-31.54
	c-12.406,0-22.5,10.093-22.5,22.5v111.538c0,4.142,3.357,7.5,7.5,7.5s7.5-3.358,7.5-7.5v-76.177h233.22c4.143,0,7.5-3.358,7.5-7.5
	s-3.357-7.5-7.5-7.5H43.187v-20.361c0-4.136,3.364-7.5,7.5-7.5H456.52c4.136,0,7.5,3.364,7.5,7.5v20.361H306.407
	c-4.143,0-7.5,3.358-7.5,7.5s3.357,7.5,7.5,7.5H464.02v301.095c0,4.136-3.364,7.5-7.5,7.5H50.687c-4.136,0-7.5-3.364-7.5-7.5
	V289.789c0-4.142-3.357-7.5-7.5-7.5s-7.5,3.358-7.5,7.5v194.918c0,12.407,10.094,22.5,22.5,22.5H456.52
	c12.406,0,22.5-10.093,22.5-22.5V148.251C479.02,135.844,468.926,125.751,456.52,125.751z M248.978,15
	c10.444,0,18.941,8.497,18.941,18.941s-8.497,18.941-18.941,18.941s-18.941-8.497-18.941-18.941S238.534,15,248.978,15z
	 M219.747,51.163c5.912,9.997,16.798,16.72,29.231,16.72c13.232,0,24.712-7.616,30.307-18.69l113.602,76.558H109.068L219.747,51.163
	z"/>
<path style="fill:#18191B;" d="M401.927,392.603H284.849c-12.406,0-22.5,10.093-22.5,22.5v12.156c0,12.407,10.094,22.5,22.5,22.5
	h117.078c12.406,0,22.5-10.093,22.5-22.5v-12.156C424.427,402.696,414.333,392.603,401.927,392.603z M409.427,427.259
	c0,4.136-3.364,7.5-7.5,7.5H284.849c-4.136,0-7.5-3.364-7.5-7.5v-12.156c0-4.136,3.364-7.5,7.5-7.5h117.078
	c4.136,0,7.5,3.364,7.5,7.5V427.259z"/>
<path style="fill:#18191B;" d="M156.053,204.409c-4.143,0-7.5,3.358-7.5,7.5v249.14c0,4.142,3.357,7.5,7.5,7.5s7.5-3.358,7.5-7.5
	v-91.742h97.854c12.406,0,22.5-10.093,22.5-22.5v-12.156c0-12.407-10.094-22.5-22.5-22.5h-97.854v-23.295h238.374
	c12.406,0,22.5-10.093,22.5-22.5V254.2c0-12.407-10.094-22.5-22.5-22.5H163.553v-19.791
	C163.553,207.767,160.196,204.409,156.053,204.409z M164.933,327.151h96.474c4.136,0,7.5,3.364,7.5,7.5v12.156
	c0,4.136-3.364,7.5-7.5,7.5h-96.474V327.151z M164.933,246.7h236.994c4.136,0,7.5,3.364,7.5,7.5v12.156c0,4.136-3.364,7.5-7.5,7.5
	H164.933V246.7z"/>
<path style="fill:#18191B;" d="M102.88,282.435c15.482,0,28.079-12.596,28.079-28.079s-12.597-28.08-28.079-28.08
	s-28.079,12.597-28.079,28.08S87.398,282.435,102.88,282.435z M102.88,241.276c7.212,0,13.079,5.868,13.079,13.08
	s-5.867,13.079-13.079,13.079s-13.079-5.867-13.079-13.079S95.668,241.276,102.88,241.276z"/>
<path style="fill:#18191B;" d="M102.88,369.033c15.482,0,28.079-12.597,28.079-28.08s-12.597-28.079-28.079-28.079
	s-28.079,12.596-28.079,28.079S87.398,369.033,102.88,369.033z M102.88,327.875c7.212,0,13.079,5.867,13.079,13.079
	s-5.867,13.08-13.079,13.08s-13.079-5.868-13.079-13.08S95.668,327.875,102.88,327.875z"/>
<path style="fill:#18191B;" d="M102.88,455.025c15.482,0,28.079-12.596,28.079-28.079s-12.597-28.08-28.079-28.08
	s-28.079,12.597-28.079,28.08S87.398,455.025,102.88,455.025z M102.88,413.867c7.212,0,13.079,5.868,13.079,13.08
	s-5.867,13.079-13.079,13.079s-13.079-5.867-13.079-13.079S95.668,413.867,102.88,413.867z"/>
<g>
</g>
<g>
</g>
<g>
</g>
<g>
</g>
<g>
</g>
<g>
</g>
<g>
</g>
<g>
</g>
<g>
</g>
<g>
</g>
<g>
</g>
<g>
</g>
<g>
</g>
<g>
</g>
<g>
</g>
</svg>
