<?xml version="1.0" encoding="iso-8859-1"?>
<!-- Generator: Adobe Illustrator 21.0.0, SVG Export Plug-In . SVG Version: 6.00 Build 0)  -->
<svg version="1.1" id="Capa_1" xmlns="http://www.w3.org/2000/svg" xmlns:xlink="http://www.w3.org/1999/xlink" x="0px" y="0px"
	 viewBox="0 0 504.75 504.75" style="enable-background:new 0 0 504.75 504.75;" xml:space="preserve">
<path style="fill:#18191B;" d="M289.321,0c-43.373,0-84.84,16.147-116.761,45.466c-3.051,2.802-3.252,7.546-0.45,10.597
	c2.801,3.05,7.546,3.252,10.597,0.45C211.853,29.743,249.716,15,289.321,15c86.932,0,157.656,70.724,157.656,157.656
	c0,34.846-11.139,67.87-32.211,95.501c-20.403,26.754-49.336,46.618-81.468,55.933c-3.206,0.929-5.412,3.865-5.412,7.203V373
	h-16.806v-77.457c0-4.142-3.357-7.5-7.5-7.5s-7.5,3.358-7.5,7.5V373h-13.886v-77.457c0-4.142-3.357-7.5-7.5-7.5s-7.5,3.358-7.5,7.5
	V373h-16.439v-41.706c0-3.338-2.206-6.274-5.412-7.203c-32.132-9.315-61.064-29.178-81.468-55.933
	c-20.651-27.079-31.754-59.338-32.19-93.414h61.275c2.922,50.069,44.574,89.908,95.362,89.908c52.677,0,95.533-42.856,95.533-95.533
	c0-52.677-42.856-95.533-95.533-95.533c-49.514,0-90.346,37.865-95.072,86.158h-61.071c2.389-29.769,13.044-57.862,31.173-81.907
	c2.494-3.307,1.834-8.01-1.473-10.504c-3.309-2.494-8.012-1.834-10.504,1.473c-20.108,26.669-31.814,57.881-34.234,90.937h-10.958
	L86.35,139.909c-2.93-2.928-7.678-2.93-10.607,0c-2.929,2.929-2.929,7.677,0,10.606l9.228,9.228h-9.56l-19.834-19.834
	c-2.93-2.928-7.678-2.93-10.607,0c-2.929,2.929-2.929,7.677,0,10.606l16.482,16.483l-16.482,16.483
	c-2.929,2.929-2.929,7.678,0,10.606c1.465,1.465,3.385,2.197,5.304,2.197s3.839-0.732,5.304-2.197l19.344-19.344h9.56l-8.737,8.737
	c-2.929,2.929-2.929,7.678,0,10.606c1.465,1.465,3.385,2.197,5.304,2.197s3.839-0.732,5.304-2.197l19.344-19.344h10.992
	c0.437,37.392,12.602,72.796,35.262,102.51c21.188,27.782,50.783,48.779,83.808,59.575v36.25h-6.495c-4.143,0-7.5,3.358-7.5,7.5
	s3.357,7.5,7.5,7.5h6.478v63.046c0,29.569,24.056,53.625,53.625,53.625c31.072,0,53.625-22.552,53.625-53.625v-63.046h6.391
	c4.143,0,7.5-3.358,7.5-7.5s-3.357-7.5-7.5-7.5h-6.492v-36.25c33.025-10.796,62.62-31.793,83.808-59.575
	c23.082-30.267,35.283-66.437,35.283-104.598C461.977,77.453,384.524,0,289.321,0z M288.323,88.585
	c44.406,0,80.533,36.127,80.533,80.533c0,44.406-36.127,80.533-80.533,80.533c-42.512,0-77.414-33.119-80.314-74.908h31.76
	c2.8,24.316,23.5,43.263,48.554,43.263c26.957,0,48.889-21.931,48.889-48.888s-21.932-48.888-48.889-48.888
	c-23.75,0-43.59,17.027-47.976,39.513h-31.993C213.016,119.741,247.09,88.585,288.323,88.585z M287.866,159.743h-32.101
	c4.078-14.138,17.125-24.513,32.558-24.513c18.687,0,33.889,15.202,33.889,33.888s-15.202,33.888-33.889,33.888
	c-16.769,0-30.724-12.246-33.412-28.263h32.955c4.143,0,7.5-3.358,7.5-7.5S292.008,159.743,287.866,159.743z M289.363,489.75
	c-21.298,0-38.625-17.327-38.625-38.625v-9.184h9.046c4.143,0,7.5-3.358,7.5-7.5s-3.357-7.5-7.5-7.5h-9.046v-11.956h77.25v11.956
	h-38.204c-4.143,0-7.5,3.358-7.5,7.5s3.357,7.5,7.5,7.5h38.204v9.184C327.988,473.867,312.105,489.75,289.363,489.75z
	 M327.988,399.986h-77.25v-11.907h77.25V399.986z"/>
<g>
</g>
<g>
</g>
<g>
</g>
<g>
</g>
<g>
</g>
<g>
</g>
<g>
</g>
<g>
</g>
<g>
</g>
<g>
</g>
<g>
</g>
<g>
</g>
<g>
</g>
<g>
</g>
<g>
</g>
</svg>
