<?xml version="1.0" encoding="iso-8859-1"?>
<!-- Generator: Adobe Illustrator 21.0.0, SVG Export Plug-In . SVG Version: 6.00 Build 0)  -->
<svg version="1.1" id="Capa_1" xmlns="http://www.w3.org/2000/svg" xmlns:xlink="http://www.w3.org/1999/xlink" x="0px" y="0px"
	 viewBox="0 0 508.602 508.602" style="enable-background:new 0 0 508.602 508.602;" xml:space="preserve">
<path style="fill:#18191B;" d="M78.787,238.405c-13.184,0-23.909,12.693-23.909,28.295s10.726,28.295,23.909,28.295
	s23.909-12.693,23.909-28.295S91.971,238.405,78.787,238.405z M78.787,279.996c-4.829,0-8.909-6.088-8.909-13.295
	s4.08-13.295,8.909-13.295s8.909,6.088,8.909,13.295S83.616,279.996,78.787,279.996z"/>
<path style="fill:#18191B;" d="M129.948,331.77c0,15.602,10.726,28.295,23.909,28.295s23.909-12.693,23.909-28.295
	s-10.726-28.295-23.909-28.295S129.948,316.168,129.948,331.77z M153.857,318.475c4.829,0,8.909,6.088,8.909,13.295
	s-4.08,13.295-8.909,13.295s-8.909-6.088-8.909-13.295S149.028,318.475,153.857,318.475z"/>
<path style="fill:#18191B;" d="M233.868,437.076c13.184,0,23.909-12.693,23.909-28.295s-10.726-28.295-23.909-28.295
	c-13.185,0-23.91,12.693-23.91,28.295S220.684,437.076,233.868,437.076z M233.868,395.486c4.829,0,8.909,6.088,8.909,13.295
	c0,7.207-4.08,13.295-8.909,13.295c-4.83,0-8.91-6.088-8.91-13.295C224.958,401.574,229.038,395.486,233.868,395.486z"/>
<path style="fill:#18191B;" d="M508.602,87.872c0-11.866-9.653-21.52-21.52-21.52h-93.895V24.011c0-12.407-10.094-22.5-22.5-22.5
	H233.974c-12.406,0-22.5,10.093-22.5,22.5v42.341h-94.881c-11.866,0-21.521,9.654-21.521,21.52c0,0.262,0.008,0.521,0.01,0.783
	c-0.002,0.066-0.01,0.13-0.01,0.197v125.863c-5.646-1.275-11.519-1.957-17.548-1.957C34.777,212.758,0,246.908,0,288.884
	c0,19.749,7.897,38.75,21.796,52.888l-0.061,0.188l3.653,3.262c13.893,12.404,31.781,19.371,50.522,19.751
	c2.351,15.696,9.667,30.386,20.955,41.868l-0.061,0.188l3.654,3.262c14.293,12.761,32.809,19.789,52.137,19.789
	c0.836,0,1.673-0.017,2.51-0.043c-0.004,0.311-0.024,0.617-0.024,0.928c0,19.747,7.895,38.747,21.791,52.884l-0.062,0.188
	l3.657,3.265c14.293,12.761,32.81,19.788,52.138,19.788c21.185,0,40.974-8.249,55.722-23.226l4.014-4.076l-0.123-0.212
	c11.579-13.654,17.912-30.699,17.912-48.612c0-41.976-34.777-76.126-77.524-76.126c-0.856,0-1.703,0.037-2.553,0.063
	c0.039-0.311,0.066-0.626,0.066-0.948c0-0.838-0.037-1.668-0.064-2.5h72.87c4.143,0,7.5-3.358,7.5-7.5s-3.357-7.5-7.5-7.5h-74.896
	c-7.955-33.062-37.909-57.85-73.798-58.585c-3.845-26.153-20.932-47.613-44.158-58.121V146.67
	c20.882,38.176,61.429,64.127,107.926,64.127h40.155v5.909c0,12.407,10.094,22.5,22.5,22.5h37.271c12.406,0,22.5-10.093,22.5-22.5
	v-5.909h45.251c46.496,0,87.043-25.951,107.926-64.127v182.284c0,4.136-3.364,7.5-7.5,7.5H332.925c-4.143,0-7.5,3.358-7.5,7.5
	s3.357,7.5,7.5,7.5h153.177c12.406,0,22.5-10.093,22.5-22.5V88.205c0-0.022-0.003-0.044-0.003-0.067
	C508.598,88.049,508.602,87.961,508.602,87.872z M41.263,335.817c0.301-0.393,0.603-0.785,0.914-1.169
	c8.88-11.004,22.742-17.626,37.67-17.626c1.623,0,3.235,0.104,4.84,0.257c-5.505,9.789-8.885,20.883-9.509,32.685
	c-12.823-0.467-25.098-4.746-35.282-12.26C40.331,337.058,40.796,336.437,41.263,335.817z M152.595,415.08
	c-13.668,0-26.826-4.335-37.628-12.308c8.665-12.83,23.683-20.681,39.95-20.681c5.513,0,10.98,0.93,16.124,2.682
	c-6.833,8.76-11.772,19.01-14.216,30.165C155.417,415.031,154.004,415.08,152.595,415.08z M194.976,479.784
	c0.086-0.128,0.184-0.247,0.271-0.374c0.536-0.775,1.087-1.538,1.67-2.274c0.118-0.15,0.247-0.291,0.367-0.439
	c0.586-0.721,1.185-1.43,1.812-2.113c8.894-9.713,21.9-15.48,35.831-15.48c12.979,0,25.177,5.007,33.977,13.556h-0.025
	c1.51,1.466,2.93,3.027,4.228,4.693c0.026,0.034,0.05,0.07,0.076,0.104c-11.304,9.478-25.499,14.635-40.577,14.635
	C218.937,492.091,205.78,487.755,194.976,479.784z M295.13,430.965c0,12.839-4.064,25.141-11.588,35.436
	c-11.722-13.951-29.55-22.298-48.615-22.298c-20.396,0-39.352,9.536-50.956,25.265c-8.912-10.806-13.89-24.377-13.89-38.402
	c0-33.705,28.049-61.126,62.524-61.126S295.13,397.26,295.13,430.965z M215.119,353.954c0,0.969,0.19,1.892,0.524,2.742
	c-12.544,2.761-23.943,8.511-33.387,16.453c-8.464-3.952-17.861-6.058-27.34-6.058c-20.397,0-39.353,9.536-50.956,25.265
	c-8.913-10.805-13.891-24.377-13.891-38.402c0-33.705,28.049-61.126,62.524-61.126S215.119,320.249,215.119,353.954z
	 M139.226,278.985c-17.702,3.036-33.353,11.979-44.767,24.689c-4.766-1.095-9.67-1.652-14.612-1.652
	c-20.398,0-39.354,9.535-50.957,25.265C19.978,316.481,15,302.909,15,288.884c0-33.705,28.049-61.126,62.524-61.126
	c7.742,0,15.166,1.378,22.031,3.89c0.294,0.129,0.599,0.24,0.912,0.331C120.557,239.681,135.629,257.247,139.226,278.985z
	 M226.474,24.011c0-4.136,3.364-7.5,7.5-7.5h136.714c4.136,0,7.5,3.364,7.5,7.5v42.28h-14.999v-27.28c0-4.142-3.357-7.5-7.5-7.5
	H248.974c-4.143,0-7.5,3.358-7.5,7.5v27.28h-15V24.011z M325.425,216.706c0,4.136-3.364,7.5-7.5,7.5h-37.271
	c-4.136,0-7.5-3.364-7.5-7.5v-18.664c0-4.136,3.364-7.5,7.5-7.5h37.271c4.136,0,7.5,3.364,7.5,7.5V216.706z M385.676,195.797
	h-45.363c-1.13-11.356-10.739-20.255-22.388-20.255h-37.271c-11.648,0-21.257,8.898-22.388,20.255h-40.268
	c-59.511,0-107.926-48.415-107.926-107.925c0-3.595,2.925-6.52,6.521-6.52h172.3c4.143,0,7.5-3.358,7.5-7.5s-3.357-7.5-7.5-7.5
	h-32.419V46.511h91.715v19.841h-29.296c-4.143,0-7.5,3.358-7.5,7.5s3.357,7.5,7.5,7.5h168.189c3.595,0,6.52,2.925,6.52,6.52
	C493.602,147.382,445.187,195.797,385.676,195.797z"/>
<g>
</g>
<g>
</g>
<g>
</g>
<g>
</g>
<g>
</g>
<g>
</g>
<g>
</g>
<g>
</g>
<g>
</g>
<g>
</g>
<g>
</g>
<g>
</g>
<g>
</g>
<g>
</g>
<g>
</g>
</svg>
