<?xml version="1.0" encoding="iso-8859-1"?>
<!-- Generator: Adobe Illustrator 21.0.0, SVG Export Plug-In . SVG Version: 6.00 Build 0)  -->
<svg version="1.1" id="Capa_1" xmlns="http://www.w3.org/2000/svg" xmlns:xlink="http://www.w3.org/1999/xlink" x="0px" y="0px"
	 viewBox="0 0 505.657 505.657" style="enable-background:new 0 0 505.657 505.657;" xml:space="preserve">
<circle style="fill:#18191B;" cx="251.44" cy="461.854" r="12.27"/>
<path style="fill:#18191B;" d="M459.093,305.13h-44.073V150.122c16.61-2.162,29.481-16.392,29.481-33.581
	s-12.872-31.419-29.481-33.581V22.5c0-12.406-10.094-22.5-22.5-22.5H110.361c-12.406,0-22.5,10.094-22.5,22.5v185.667H46.563
	c-18.679,0-33.875,15.197-33.875,33.876c0,18.679,15.196,33.875,33.875,33.875h41.298v207.239c0,12.406,10.094,22.5,22.5,22.5
	h282.158c12.406,0,22.5-10.094,22.5-22.5V372.882h44.073c18.68,0,33.876-15.197,33.876-33.876S477.772,305.13,459.093,305.13z
	 M379.019,305.13V150.416h21V305.13H379.019z M102.861,22.5c0-4.135,3.364-7.5,7.5-7.5h282.158c4.136,0,7.5,3.365,7.5,7.5v60.165
	h-21V64.087c0-12.406-10.094-22.5-22.5-22.5H146.361c-12.406,0-22.5,10.094-22.5,22.5v144.08h-21V22.5z M27.688,242.042
	c0-10.408,8.468-18.875,18.875-18.875h198.271c10.408,0,18.876,8.468,18.876,18.876c0,10.408-8.468,18.875-18.876,18.875h-39.341
	c-2.68,0-5.155,1.429-6.495,3.75l-15.739,27.259c-0.05,0.088-0.103,0.178-0.309,0.178s-0.259-0.091-0.31-0.179l-15.737-27.259
	c-1.34-2.321-3.815-3.75-6.495-3.75H46.563C36.156,260.918,27.688,252.451,27.688,242.042z M400.019,483.157
	c0,4.135-3.364,7.5-7.5,7.5H110.361c-4.136,0-7.5-3.365-7.5-7.5V275.918h21V413.33c0,12.406,10.094,22.5,22.5,22.5h44.579
	c4.143,0,7.5-3.358,7.5-7.5s-3.357-7.5-7.5-7.5h-44.579c-4.136,0-7.5-3.365-7.5-7.5V275.918h17.217l13.572,23.509
	c2.776,4.809,7.749,7.679,13.302,7.679c5.552,0,10.523-2.871,13.298-7.679l13.573-23.509h35.011
	c18.68,0,33.876-15.197,33.876-33.876c0-18.679-15.196-33.875-33.876-33.875H138.861V64.087c0-4.135,3.364-7.5,7.5-7.5h210.158
	c4.136,0,7.5,3.365,7.5,7.5v18.577H260.94c-4.143,0-7.5,3.358-7.5,7.5s3.357,7.5,7.5,7.5h149.685
	c10.408,0,18.876,8.468,18.876,18.876s-8.468,18.876-18.876,18.876h-76.593c-2.68,0-5.155,1.429-6.495,3.75l-15.739,27.26
	c-0.05,0.087-0.103,0.178-0.309,0.178s-0.259-0.091-0.31-0.179l-15.737-27.258c-1.34-2.321-3.815-3.75-6.495-3.75h-76.593
	c-10.408,0-18.876-8.468-18.876-18.876s8.468-18.876,18.876-18.876h18.586c4.143,0,7.5-3.358,7.5-7.5s-3.357-7.5-7.5-7.5h-18.586
	c-18.68,0-33.876,15.197-33.876,33.876s15.196,33.876,33.876,33.876h72.263l13.572,23.508c2.776,4.809,7.749,7.679,13.301,7.679
	c5.553,0,10.524-2.871,13.299-7.679l13.573-23.508h25.657V305.13H260.822c-18.68,0-33.876,15.197-33.876,33.876
	s15.196,33.876,33.876,33.876h12.234l13.572,23.509c2.777,4.808,7.75,7.678,13.302,7.678c5.552,0,10.523-2.871,13.299-7.679
	l13.572-23.508h37.218v40.448c0,4.135-3.364,7.5-7.5,7.5H220.94c-4.143,0-7.5,3.358-7.5,7.5s3.357,7.5,7.5,7.5h135.579
	c12.406,0,22.5-10.094,22.5-22.5v-40.448h21V483.157z M459.093,357.882H322.471c-2.68,0-5.155,1.429-6.495,3.75l-15.737,27.258
	c-0.051,0.088-0.104,0.179-0.31,0.179c-0.207,0-0.26-0.092-0.311-0.179l-15.737-27.258c-1.34-2.321-3.815-3.75-6.495-3.75h-16.564
	c-10.408,0-18.876-8.468-18.876-18.876s8.468-18.876,18.876-18.876h198.271c10.408,0,18.876,8.468,18.876,18.876
	S469.501,357.882,459.093,357.882z"/>
<g>
</g>
<g>
</g>
<g>
</g>
<g>
</g>
<g>
</g>
<g>
</g>
<g>
</g>
<g>
</g>
<g>
</g>
<g>
</g>
<g>
</g>
<g>
</g>
<g>
</g>
<g>
</g>
<g>
</g>
</svg>
