<?xml version="1.0" encoding="iso-8859-1"?>
<!-- Generator: Adobe Illustrator 21.0.0, SVG Export Plug-In . SVG Version: 6.00 Build 0)  -->
<svg version="1.1" id="Capa_1" xmlns="http://www.w3.org/2000/svg" xmlns:xlink="http://www.w3.org/1999/xlink" x="0px" y="0px"
	 viewBox="0 0 487.566 487.566" style="enable-background:new 0 0 487.566 487.566;" xml:space="preserve">
<g>
	<g>
		<circle style="fill:#9DDBDF;" cx="241.891" cy="427.569" r="59.997"/>
	</g>
	<g>
		<path style="fill:#92DDEA;" d="M241.891,367.572c-5.18,0-10.206,0.656-15,1.891c25.877,6.661,44.997,30.151,44.997,58.107
			s-19.12,51.446-44.997,58.107c4.794,1.234,9.82,1.891,15,1.891c33.135,0,59.997-26.862,59.997-59.997
			S275.027,367.572,241.891,367.572z"/>
	</g>
	<g>
		<path style="fill:#FFF4F1;" d="M231.483,453.549c-0.291,0-0.582-0.017-0.874-0.051c-2.279-0.267-4.31-1.563-5.513-3.516
			l-9.17-14.89c-2.172-3.527-1.074-8.147,2.453-10.319c3.527-2.172,8.147-1.073,10.319,2.453l4.193,6.808l30.248-30.248
			c2.929-2.929,7.678-2.929,10.606,0c2.929,2.929,2.929,7.677,0,10.606l-36.96,36.96
			C235.372,452.767,233.461,453.549,231.483,453.549z"/>
	</g>
	<path style="fill:#E3DED9;" d="M428.755,294.059c-4.142,0-7.5,3.358-7.5,7.5v17.187c0,4.135-3.364,7.5-7.5,7.5H249.391v-24.687
		c0-4.142-3.358-7.5-7.5-7.5s-7.5,3.358-7.5,7.5v24.687H90.351h-4H70.027c-4.136,0-7.5-3.365-7.5-7.5v-17.187
		c0-4.142-3.358-7.5-7.5-7.5s-7.5,3.358-7.5,7.5v17.187c0,12.406,10.093,22.5,22.5,22.5h16.324h4h323.404
		c12.407,0,22.5-10.094,22.5-22.5v-17.187C436.255,297.417,432.898,294.059,428.755,294.059z"/>
	<g>
		<g>
			<g>
				<path style="fill:#FFF4F1;" d="M206.273,106.253c-8.531-14.709-24.996-40.035-43.919-40.035
					c-18.974,0-35.478,25.378-43.99,40.153c-0.514,0.892-0.916,1.802-1.215,2.72c11.371,10.152,26.489,16.343,43.083,16.343
					C178.316,125.434,194.635,118.072,206.273,106.253z"/>
			</g>
			<path style="fill:#E8E4E0;" d="M162.154,66.322c-3.968,0.027-7.818,1.174-11.507,3.091c4.674,2.351,9.106,5.941,13.19,10.113
				c14.618,14.93,7.151,40.402-13.288,44.742c-0.555,0.118-1.112,0.228-1.671,0.332c3.752,0.644,7.613,0.979,11.558,0.952
				c18.083-0.123,34.352-7.596,45.91-19.493C197.713,91.407,181.076,66.193,162.154,66.322z"/>
			<g>
				<path style="fill:#5E8EE1;" d="M162.354,81.578c18.923,0,35.388,9.966,43.919,24.676c11.109-11.281,17.954-26.621,17.954-43.536
					C224.228,28.079,195.576,0,160.232,0S96.237,28.079,96.237,62.717c0,18.375,8.064,34.903,20.912,46.374
					c0.299-0.917,0.702-1.828,1.215-2.72C126.876,91.597,143.381,81.578,162.354,81.578z"/>
			</g>
			<g>
				<path style="fill:#467BFF;" d="M160.232,0c-3.097,0-6.141,0.22-9.121,0.637c31.023,4.339,54.875,30.478,54.875,62.08
					c0,11.722-3.29,22.686-9.005,32.069c3.674,3.34,6.818,7.203,9.292,11.468c11.109-11.281,17.954-26.621,17.954-43.536
					C224.228,28.079,195.576,0,160.232,0z"/>
			</g>
			<g>
				<ellipse style="fill:#FFD5CC;" cx="161.386" cy="42.443" rx="14.997" ry="19.005"/>
			</g>
		</g>
		<g>
			<g>
				<path style="fill:#FFF4F1;" d="M373.374,106.253c-8.531-14.709-24.996-40.035-43.919-40.035
					c-18.974,0-35.478,25.378-43.99,40.153c-0.514,0.892-0.916,1.802-1.215,2.72c11.371,10.152,26.489,16.343,43.083,16.343
					C345.417,125.434,361.736,118.072,373.374,106.253z"/>
			</g>
			<path style="fill:#E8E4E0;" d="M329.255,66.322c-3.968,0.027-7.818,1.174-11.507,3.091c4.674,2.351,9.106,5.941,13.19,10.113
				c14.618,14.93,7.151,40.402-13.288,44.742c-0.555,0.118-1.112,0.228-1.672,0.332c3.752,0.644,7.613,0.979,11.558,0.952
				c18.083-0.123,34.352-7.596,45.91-19.493C364.813,91.407,348.177,66.193,329.255,66.322z"/>
			<g>
				<path style="fill:#5E8EE1;" d="M329.455,81.578c18.923,0,35.388,9.966,43.919,24.676c11.109-11.281,17.954-26.621,17.954-43.536
					C391.328,28.079,362.677,0,327.333,0s-63.995,28.079-63.995,62.717c0,18.375,8.064,34.903,20.912,46.374
					c0.299-0.917,0.702-1.828,1.215-2.72C293.977,91.597,310.481,81.578,329.455,81.578z"/>
			</g>
			<g>
				<path style="fill:#467BFF;" d="M327.333,0c-3.097,0-6.141,0.22-9.121,0.637c31.023,4.339,54.875,30.478,54.875,62.08
					c0,11.722-3.29,22.686-9.005,32.069c3.674,3.34,6.818,7.203,9.292,11.468c11.109-11.281,17.954-26.621,17.954-43.536
					C391.328,28.079,362.677,0,327.333,0z"/>
			</g>
			<g>
				<ellipse style="fill:#FFD5CC;" cx="328.487" cy="42.443" rx="14.997" ry="19.005"/>
			</g>
		</g>
	</g>
	<g>
		<g>
			<path style="fill:#FFF4F1;" d="M113.213,244.174c-8.531-14.709-24.996-40.035-43.919-40.035
				c-18.974,0-35.478,25.378-43.99,40.153c-0.514,0.892-0.916,1.802-1.215,2.72c11.371,10.152,26.489,16.343,43.083,16.343
				C85.255,263.355,101.574,255.992,113.213,244.174z"/>
		</g>
		<path style="fill:#E8E4E0;" d="M69.093,204.242c-3.968,0.027-7.818,1.174-11.507,3.091c4.674,2.351,9.106,5.941,13.19,10.113
			c14.618,14.93,7.151,40.402-13.288,44.742c-0.555,0.118-1.112,0.228-1.671,0.332c3.752,0.644,7.613,0.979,11.558,0.952
			c18.083-0.123,34.352-7.596,45.91-19.493C104.652,229.327,88.016,204.114,69.093,204.242z"/>
		<g>
			<path style="fill:#5E8EE1;" d="M69.294,219.498c18.923,0,35.388,9.966,43.919,24.676c11.109-11.281,17.954-26.621,17.954-43.536
				c0-34.638-28.652-62.717-63.995-62.717S3.177,166,3.177,200.637c0,18.375,8.064,34.903,20.912,46.374
				c0.299-0.917,0.702-1.828,1.215-2.72C33.816,229.517,50.32,219.498,69.294,219.498z"/>
		</g>
		<g>
			<path style="fill:#467BFF;" d="M67.172,137.92c-3.097,0-6.141,0.22-9.121,0.637c31.023,4.339,54.875,30.478,54.875,62.08
				c0,11.722-3.29,22.686-9.005,32.069c3.674,3.34,6.818,7.203,9.292,11.468c11.109-11.281,17.954-26.621,17.954-43.536
				C131.167,166,102.516,137.92,67.172,137.92z"/>
		</g>
		<g>
			<ellipse style="fill:#FFD5CC;" cx="68.326" cy="180.364" rx="14.997" ry="19.005"/>
		</g>
	</g>
	<g>
		<g>
			<path style="fill:#FFF4F1;" d="M289.824,244.174c-8.531-14.709-24.996-40.035-43.919-40.035
				c-18.974,0-35.478,25.378-43.99,40.153c-0.514,0.892-0.916,1.802-1.215,2.72c11.371,10.152,26.489,16.343,43.083,16.343
				C261.866,263.355,278.185,255.992,289.824,244.174z"/>
		</g>
		<path style="fill:#E8E4E0;" d="M245.704,204.242c-3.968,0.027-7.818,1.174-11.507,3.091c4.674,2.351,9.106,5.941,13.19,10.113
			c14.618,14.93,7.151,40.402-13.288,44.742c-0.555,0.118-1.112,0.228-1.671,0.332c3.752,0.644,7.613,0.979,11.558,0.952
			c18.083-0.123,34.352-7.596,45.91-19.493C281.263,229.327,264.626,204.114,245.704,204.242z"/>
		<g>
			<path style="fill:#5E8EE1;" d="M245.905,219.498c18.923,0,35.388,9.966,43.919,24.676c11.109-11.281,17.954-26.621,17.954-43.536
				c0-34.638-28.652-62.717-63.995-62.717S179.788,166,179.788,200.637c0,18.375,8.064,34.903,20.912,46.374
				c0.299-0.917,0.702-1.828,1.215-2.72C210.426,229.517,226.931,219.498,245.905,219.498z"/>
		</g>
		<g>
			<path style="fill:#467BFF;" d="M243.783,137.92c-3.097,0-6.141,0.22-9.121,0.637c31.023,4.339,54.875,30.478,54.875,62.08
				c0,11.722-3.29,22.686-9.005,32.069c3.674,3.34,6.818,7.203,9.292,11.468c11.109-11.281,17.954-26.621,17.954-43.536
				C307.778,166,279.126,137.92,243.783,137.92z"/>
		</g>
		<g>
			<ellipse style="fill:#FFD5CC;" cx="244.937" cy="180.364" rx="14.997" ry="19.005"/>
		</g>
	</g>
	<g>
		<g>
			<path style="fill:#FFF4F1;" d="M466.435,247.106c-8.531-14.709-24.996-40.035-43.919-40.035
				c-18.974,0-35.478,25.378-43.99,40.153c-0.514,0.892-0.916,1.802-1.215,2.72c11.371,10.152,26.489,16.343,43.083,16.343
				C438.477,266.287,454.796,258.925,466.435,247.106z"/>
		</g>
		<path style="fill:#E8E4E0;" d="M422.315,207.175c-3.968,0.027-7.818,1.174-11.507,3.091c4.674,2.351,9.106,5.941,13.19,10.113
			c14.618,14.93,7.151,40.402-13.289,44.742c-0.555,0.118-1.112,0.228-1.671,0.332c3.752,0.644,7.613,0.979,11.558,0.952
			c18.083-0.123,34.352-7.596,45.91-19.493C457.874,232.26,441.237,207.046,422.315,207.175z"/>
		<g>
			<path style="fill:#5E8EE1;" d="M422.516,222.431c18.923,0,35.388,9.966,43.919,24.676c11.109-11.281,17.954-26.621,17.954-43.536
				c0-34.638-28.652-62.717-63.995-62.717s-63.995,28.079-63.995,62.717c0,18.375,8.064,34.903,20.912,46.374
				c0.299-0.917,0.702-1.828,1.215-2.72C387.037,232.45,403.542,222.431,422.516,222.431z"/>
		</g>
		<g>
			<path style="fill:#467BFF;" d="M420.394,140.853c-3.097,0-6.141,0.22-9.121,0.637c31.023,4.339,54.875,30.478,54.875,62.08
				c0,11.722-3.29,22.686-9.005,32.069c3.674,3.34,6.818,7.203,9.292,11.468c11.109-11.281,17.954-26.621,17.954-43.536
				C484.389,168.932,455.737,140.853,420.394,140.853z"/>
		</g>
		<g>
			<ellipse style="fill:#FFD5CC;" cx="421.548" cy="183.296" rx="14.997" ry="19.005"/>
		</g>
	</g>
</g>
<g>
</g>
<g>
</g>
<g>
</g>
<g>
</g>
<g>
</g>
<g>
</g>
<g>
</g>
<g>
</g>
<g>
</g>
<g>
</g>
<g>
</g>
<g>
</g>
<g>
</g>
<g>
</g>
<g>
</g>
</svg>
