<?xml version="1.0" encoding="iso-8859-1"?>
<!-- Generator: Adobe Illustrator 21.0.0, SVG Export Plug-In . SVG Version: 6.00 Build 0)  -->
<svg version="1.1" id="Capa_1" xmlns="http://www.w3.org/2000/svg" xmlns:xlink="http://www.w3.org/1999/xlink" x="0px" y="0px"
	 viewBox="0 0 494.024 494.024" style="enable-background:new 0 0 494.024 494.024;" xml:space="preserve">
<g>
	<g>
		<path style="fill:#EBE8E4;" d="M99.173,118.871c3.091-3.18,6.368-6.069,9.797-8.666c6.491-4.917,15.829-0.597,16.184,7.539l0,0
			c0.355,8.145,9.744,12.505,16.197,7.523l52.292-40.378c5.505-4.251,5.138-12.673-0.717-16.428l-55.611-35.669
			c-6.862-4.401-15.835,0.761-15.48,8.905l0.224,5.123c0.23,5.271-3.655,9.787-8.893,10.422
			c-19.218,2.332-37.78,11.129-52.152,26.362c-31.524,33.412-31.037,86.392,1.105,119.21c0.206,0.21,0.413,0.419,0.621,0.627
			c5.704,5.709,15.436,0.523,13.828-7.386C71.094,169.132,78.579,140.059,99.173,118.871z"/>
	</g>
	<g>
		<path style="fill:#EBE8E4;" d="M387.031,374.149c-3.613,2.572-7.356,4.824-11.197,6.762c-7.27,3.669-15.678-2.261-14.563-10.328v0
			c1.116-8.076-7.335-14.054-14.579-10.314l-58.704,30.311c-6.18,3.191-7.334,11.542-2.25,16.289l48.286,45.093
			c5.958,5.564,15.714,2.101,16.829-5.975l0.702-5.08c0.722-5.226,5.357-8.97,10.623-8.652c19.324,1.164,39.166-4.15,56.044-16.548
			c37.021-27.195,46.074-79.398,20.362-117.464c-0.165-0.244-0.331-0.487-0.498-0.729c-4.584-6.642-15.09-3.292-14.932,4.777
			C423.694,329.76,411.101,357.012,387.031,374.149z"/>
	</g>
	<g>
		<path style="fill:#E3DED9;" d="M438.583,298.243c-0.165-0.244-0.331-0.487-0.498-0.729c-4.584-6.642-15.091-3.292-14.932,4.777
			c0.151,7.661-0.723,15.304-2.579,22.716c8.378,33.064-3.479,69.488-32.354,90.699c-16.878,12.398-36.72,17.712-56.044,16.548
			c-5.094-0.307-9.587,3.191-10.528,8.151l12.375,11.556c5.958,5.564,15.714,2.101,16.829-5.975l0.702-5.08
			c0.722-5.226,5.356-8.97,10.623-8.652c19.324,1.164,39.166-4.15,56.044-16.548C455.242,388.511,464.295,336.308,438.583,298.243z"
			/>
	</g>
	<g>
		<g>
			<path style="fill:#FFF4F1;" d="M185.029,459.522c-14.345-24.734-42.032-67.32-73.851-67.32c-31.905,0-59.658,42.675-73.97,67.519
				c-0.864,1.5-1.54,3.03-2.044,4.573c19.121,17.071,44.542,27.482,72.446,27.482C138.018,491.776,165.459,479.396,185.029,459.522z
				"/>
		</g>
		<path style="fill:#E8E4E0;" d="M110.841,392.376c-6.673,0.045-13.147,1.975-19.35,5.197c7.859,3.953,15.311,9.991,22.179,17.005
			c24.58,25.106,12.024,67.938-22.345,75.235c-0.932,0.198-1.869,0.384-2.811,0.558c6.31,1.084,12.801,1.646,19.434,1.601
			c30.407-0.206,57.763-12.772,77.198-32.778C170.634,434.557,142.659,392.16,110.841,392.376z"/>
		<g>
			<path style="fill:#F7EE7D;" d="M111.178,418.03c31.819,0,59.506,16.759,73.851,41.493c18.68-18.969,30.191-44.763,30.191-73.208
				c0-58.245-48.179-105.461-107.61-105.461S0,328.07,0,386.315c0,30.898,13.561,58.691,35.164,77.979
				c0.503-1.543,1.18-3.073,2.044-4.573C51.52,434.877,79.273,418.03,111.178,418.03z"/>
		</g>
		<g>
			<path style="fill:#FFE056;" d="M107.61,280.854c-5.208,0-10.326,0.37-15.337,1.071c52.166,7.296,92.273,51.249,92.273,104.39
				c0,19.711-5.531,38.148-15.142,53.925c6.178,5.616,11.465,12.111,15.625,19.283c18.68-18.969,30.191-44.763,30.191-73.208
				C215.22,328.07,167.041,280.854,107.61,280.854z"/>
		</g>
		<g>
			<ellipse style="fill:#FFD5CC;" cx="109.55" cy="352.224" rx="25.217" ry="31.957"/>
		</g>
	</g>
	<g>
		<g>
			<path style="fill:#FFF4F1;" d="M463.833,180.719c-14.345-24.734-42.032-67.32-73.851-67.32c-31.905,0-59.658,42.675-73.97,67.519
				c-0.864,1.5-1.54,3.03-2.044,4.573c19.121,17.071,44.542,27.482,72.446,27.482C416.822,212.972,444.263,200.592,463.833,180.719z
				"/>
		</g>
		<path style="fill:#E8E4E0;" d="M389.645,113.572c-6.673,0.045-13.147,1.975-19.35,5.197c7.859,3.953,15.311,9.991,22.179,17.005
			c24.58,25.106,12.024,67.938-22.345,75.235c-0.932,0.198-1.869,0.384-2.811,0.558c6.31,1.084,12.801,1.646,19.434,1.601
			c30.407-0.206,57.764-12.772,77.199-32.778C449.438,155.753,421.463,113.356,389.645,113.572z"/>
		<g>
			<path style="fill:#FC9086;" d="M389.982,139.226c31.819,0,59.506,16.759,73.851,41.493c18.68-18.969,30.191-44.763,30.191-73.208
				c0-58.245-48.179-105.461-107.61-105.461s-107.61,47.216-107.61,105.461c0,30.898,13.561,58.691,35.164,77.979
				c0.504-1.543,1.18-3.073,2.044-4.573C330.324,156.073,358.077,139.226,389.982,139.226z"/>
		</g>
		<g>
			<path style="fill:#F57A73;" d="M386.414,2.05c-5.208,0-10.327,0.37-15.337,1.071c52.166,7.296,92.273,51.249,92.273,104.39
				c0,19.711-5.531,38.148-15.142,53.925c6.178,5.616,11.465,12.111,15.625,19.283c18.68-18.969,30.191-44.763,30.191-73.208
				C494.024,49.266,445.845,2.05,386.414,2.05z"/>
		</g>
		<g>
			<ellipse style="fill:#FFD5CC;" cx="388.354" cy="73.42" rx="25.217" ry="31.957"/>
		</g>
	</g>
</g>
<g>
</g>
<g>
</g>
<g>
</g>
<g>
</g>
<g>
</g>
<g>
</g>
<g>
</g>
<g>
</g>
<g>
</g>
<g>
</g>
<g>
</g>
<g>
</g>
<g>
</g>
<g>
</g>
<g>
</g>
</svg>
