<?xml version="1.0" encoding="iso-8859-1"?>
<!-- Generator: Adobe Illustrator 21.0.0, SVG Export Plug-In . SVG Version: 6.00 Build 0)  -->
<svg version="1.1" id="Capa_1" xmlns="http://www.w3.org/2000/svg" xmlns:xlink="http://www.w3.org/1999/xlink" x="0px" y="0px"
	 viewBox="0 0 491.26 491.26" style="enable-background:new 0 0 491.26 491.26;" xml:space="preserve">
<g>
	<g>
		<path style="fill:#BE7511;" d="M457.588,325.383l-7.366-73.997H277.159l-7.467,73.977c-0.892,8.835,6.044,16.506,14.924,16.506
			h158.045C451.534,341.869,458.467,334.211,457.588,325.383z"/>
	</g>
	
		<ellipse transform="matrix(0.9363 -0.3513 0.3513 0.9363 -95.8909 36.7803)" style="fill:#FFD5CC;" cx="53.405" cy="282.625" rx="24.196" ry="24.196"/>
	
		<ellipse transform="matrix(0.9363 -0.3513 0.3513 0.9363 -86.4206 88.9725)" style="fill:#FFD5CC;" cx="201.96" cy="282.625" rx="24.196" ry="24.196"/>
	<g>
		<circle style="fill:#FFF4F1;" cx="237.703" cy="80.041" r="80.041"/>
	</g>
	<g>
		<path style="fill:#E6E2DD;" d="M237.703,0c-5.067,0-10.017,0.492-14.822,1.392c37.12,6.954,65.219,39.51,65.219,78.649
			S260,151.736,222.88,158.69c4.806,0.9,9.755,1.393,14.822,1.393c44.205,0,80.041-35.836,80.041-80.041S281.908,0,237.703,0z"/>
	</g>
	<g>
		<circle style="fill:#FFF4F1;" cx="358.258" cy="112.651" r="15.811"/>
	</g>
	<g>
		<circle style="fill:#FFF4F1;" cx="120.789" cy="125.89" r="15.811"/>
	</g>
	<g>
		<path style="fill:#F86654;" d="M257.511,51.818c-8.599,0-16.061,4.853-19.808,11.966c-3.747-7.114-11.209-11.966-19.808-11.966
			c-12.36,0-22.379,10.019-22.379,22.379c0,3.425,0.626,6.744,2.145,9.574c7.518,14.002,40.042,30.675,40.042,30.675
			s32.569-16.473,40.042-30.675c1.496-2.843,2.145-6.148,2.145-9.574C279.89,61.837,269.87,51.818,257.511,51.818z"/>
	</g>
	<g>
		<path style="fill:#EA543C;" d="M257.511,51.818c-5.687,0-10.868,2.131-14.814,5.626c4.628,4.1,7.548,10.084,7.548,16.753
			c0,3.426-0.65,6.731-2.145,9.574c-4.061,7.718-15.528,16.101-25.158,22.152c8.037,5.073,14.761,8.523,14.761,8.523
			s32.569-16.473,40.042-30.675c1.496-2.843,2.145-6.148,2.145-9.574C279.89,61.837,269.87,51.818,257.511,51.818z"/>
	</g>
	<g>
		<path style="fill:#5E8EE1;" d="M218.624,476.26v-55.414c0-36.024-29.203-65.226-65.226-65.226h-47.861
			c-35.875,0-65.226,29.352-65.226,65.226v55.414c0,8.284,6.716,15,15,15h14.286l60.101-20l58.479,20h15.448
			C211.909,491.26,218.624,484.544,218.624,476.26z"/>
	</g>
	<g>
		<path style="fill:#467BFF;" d="M153.398,355.619h-32.609c37.505,0,68.191,27.721,68.191,65.226v70.414h14.645
			c8.284,0,15-6.716,15-15v-55.414C218.624,384.822,189.422,355.619,153.398,355.619z"/>
	</g>
	<g>
		<circle style="fill:#FFD5CC;" cx="129.068" cy="365.342" r="37.291"/>
	</g>
	<g>
		<path style="fill:#FFD5CC;" d="M56.975,237.217l0.19,63.409c0.119,39.819,32.796,72.3,72.614,72.181h0
			c39.819-0.119,72.3-32.796,72.18-72.614l-0.189-62.975H56.975z"/>
	</g>
	<g>
		
			<ellipse transform="matrix(1 -0.003 0.003 1 -0.9072 0.2994)" style="fill:#FC9086;" cx="99.457" cy="302.87" rx="8.408" ry="8.408"/>
	</g>
	<g>
		
			<ellipse transform="matrix(1 -0.003 0.003 1 -0.9064 0.4774)" style="fill:#FC9086;" cx="158.849" cy="302.692" rx="8.408" ry="8.408"/>
	</g>
	<g>
		<path style="fill:#FDC1BB;" d="M201.771,237.217h-29.645l0.189,62.975c0.104,34.81-24.707,64.16-57.554,71.072
			c4.852,1.019,9.873,1.557,15.018,1.542h0c39.819-0.119,72.3-32.796,72.18-72.614L201.771,237.217z"/>
	</g>
	<g>
		<path style="fill:#DC8839;" d="M183.288,178.293c-11.092,0.405-20.899,5.518-27.578,13.344
			c-6.588-5.818-15.326-9.224-24.802-8.878c-10.953,0.4-20.564,5.721-26.792,13.755c-6.605-13.148-20.429-21.951-36.094-21.379
			c-21.413,0.782-38.138,18.774-37.357,40.187c0.782,21.413,18.774,38.139,40.187,37.357c12.733-0.465,23.807-7.016,30.53-16.752
			c6.357,11.068,18.476,18.335,32.118,17.837c9.477-0.346,17.943-4.38,24.089-10.663c7.232,7.318,17.386,11.703,28.478,11.298
			c21.016-0.767,37.431-18.426,36.664-39.442C221.963,193.942,204.304,177.526,183.288,178.293z"/>
	</g>
	<g>
		<path style="fill:#BE7511;" d="M222.73,214.957c-0.767-21.016-18.426-37.431-39.442-36.664c-4.766,0.174-9.292,1.222-13.437,2.976
			c13.199,5.587,22.676,18.419,23.234,33.688c0.593,16.249-9.089,30.483-23.224,36.463c4.967,2.103,10.458,3.189,16.205,2.979
			C207.082,253.632,223.497,235.974,222.73,214.957z"/>
	</g>
	<g>
		<path style="fill:#FFF4F1;" d="M188.176,491.26c0-32.745-26.545-59.29-59.29-59.29s-59.29,26.545-59.29,59.29"/>
	</g>
	<g>
		<path style="fill:#E3DED9;" d="M128.886,431.97c-5.118,0-10.085,0.649-14.822,1.868c25.572,6.582,44.467,29.795,44.467,57.422
			h29.645C188.176,458.515,161.631,431.97,128.886,431.97z"/>
	</g>
	<g>
		<path style="fill:#FC9086;" d="M129.043,348.965c-5.803,0-11.351-2.155-15.631-6.073c-2.487-2.277-2.657-6.138-0.38-8.624
			c2.276-2.487,6.138-2.656,8.624-0.381c2.022,1.851,4.645,2.87,7.389,2.87c0.011,0,0.022,0,0.033,0
			c2.756-0.008,5.386-1.043,7.405-2.913c2.473-2.291,6.335-2.142,8.626,0.331c2.291,2.473,2.143,6.335-0.331,8.626
			c-4.274,3.958-9.836,6.147-15.664,6.164C129.09,348.965,129.066,348.965,129.043,348.965z"/>
	</g>
	
		<ellipse transform="matrix(0.9363 -0.3513 0.3513 0.9363 -80.8528 119.6578)" style="fill:#FFD5CC;" cx="289.3" cy="282.625" rx="24.196" ry="24.196"/>
	
		<ellipse transform="matrix(0.9363 -0.3513 0.3513 0.9363 -71.3825 171.8501)" style="fill:#FFD5CC;" cx="437.854" cy="282.625" rx="24.196" ry="24.196"/>
	<g>
		<path style="fill:#5E8EE1;" d="M454.519,476.26v-52.45c0-37.661-30.53-68.191-68.191-68.191h-41.932
			c-37.505,0-68.191,30.686-68.191,68.191v52.45c0,8.284,6.716,15,15,15h14.286l60.101-20l58.479,20h15.448
			C447.803,491.26,454.519,484.544,454.519,476.26z"/>
	</g>
	<g>
		<path style="fill:#467BFF;" d="M389.292,355.619h-32.609c37.505,0,68.191,27.721,68.191,65.226v70.414h14.645
			c8.284,0,15-6.716,15-15v-55.414C454.519,384.822,425.316,355.619,389.292,355.619z"/>
	</g>
	<g>
		<circle style="fill:#FFD5CC;" cx="364.962" cy="365.342" r="37.291"/>
	</g>
	<g>
		<path style="fill:#FFD5CC;" d="M292.869,237.217l0.19,63.409c0.119,39.819,32.796,72.3,72.614,72.181h0
			c39.819-0.119,72.3-32.796,72.18-72.614l-0.189-62.975H292.869z"/>
	</g>
	<g>
		
			<ellipse transform="matrix(1 -0.003 0.003 1 -0.9062 1.0064)" style="fill:#FC9086;" cx="335.352" cy="302.87" rx="8.408" ry="8.408"/>
	</g>
	<g>
		
			<ellipse transform="matrix(1 -0.003 0.003 1 -0.9054 1.1844)" style="fill:#FC9086;" cx="394.744" cy="302.692" rx="8.408" ry="8.408"/>
	</g>
	<g>
		<path style="fill:#FDC1BB;" d="M437.665,237.217h-29.645l0.189,62.975c0.104,34.81-24.707,64.16-57.554,71.072
			c4.852,1.019,9.874,1.557,15.018,1.542h0c39.819-0.119,72.3-32.796,72.18-72.614L437.665,237.217z"/>
	</g>
	<g>
		<path style="fill:#FFF4F1;" d="M424.07,491.26c0-32.745-26.545-59.29-59.29-59.29s-59.29,26.545-59.29,59.29"/>
	</g>
	<g>
		<path style="fill:#E3DED9;" d="M364.78,431.97c-5.118,0-10.085,0.649-14.822,1.868c25.572,6.582,44.467,29.795,44.467,57.422
			h29.645C424.07,458.515,397.525,431.97,364.78,431.97z"/>
	</g>
	<g>
		<path style="fill:#FC9086;" d="M364.937,348.965c-5.803,0-11.351-2.155-15.631-6.073c-2.487-2.277-2.657-6.138-0.38-8.624
			c2.276-2.487,6.138-2.656,8.624-0.381c2.022,1.851,4.645,2.87,7.389,2.87c0.011,0,0.022,0,0.033,0
			c2.756-0.008,5.386-1.043,7.405-2.913c2.473-2.291,6.335-2.142,8.626,0.331c2.291,2.473,2.143,6.335-0.331,8.626
			c-4.274,3.958-9.836,6.147-15.664,6.164C364.985,348.965,364.96,348.965,364.937,348.965z"/>
	</g>
	<g>
		<path style="fill:#DC8839;" d="M453.71,263.019l-0.025-8.333c-0.149-49.566-40.824-89.999-90.391-89.85h0
			c-49.566,0.148-89.999,40.824-89.85,90.39l0.023,7.792H453.71z"/>
	</g>
	<g>
		<path style="fill:#BE7511;" d="M453.685,254.686c-0.149-49.566-40.824-89.999-90.391-89.85h0
			c-4.953,0.015-9.813,0.441-14.553,1.234c42.471,7.106,75.165,44.189,75.298,88.616l0.025,8.333h29.645L453.685,254.686z"/>
	</g>
</g>
<g>
</g>
<g>
</g>
<g>
</g>
<g>
</g>
<g>
</g>
<g>
</g>
<g>
</g>
<g>
</g>
<g>
</g>
<g>
</g>
<g>
</g>
<g>
</g>
<g>
</g>
<g>
</g>
<g>
</g>
</svg>
