<?xml version="1.0" encoding="iso-8859-1"?>
<!-- Generator: Adobe Illustrator 21.0.0, SVG Export Plug-In . SVG Version: 6.00 Build 0)  -->
<svg version="1.1" id="Capa_1" xmlns="http://www.w3.org/2000/svg" xmlns:xlink="http://www.w3.org/1999/xlink" x="0px" y="0px"
	 viewBox="0 0 485.339 485.339" style="enable-background:new 0 0 485.339 485.339;" xml:space="preserve">
<g>
	<g>
		<path style="fill:#FFF4F1;" d="M50.675,369.238H16.905C7.607,369.238,0,361.63,0,352.333V34.349
			c0-9.298,7.607-16.905,16.905-16.905h451.529c9.298,0,16.905,7.607,16.905,16.905v317.984c0,9.298-7.607,16.905-16.905,16.905
			H80.675"/>
	</g>
	<g>
		<rect x="165.978" y="343.798" style="fill:#9A9999;" width="153.382" height="101.528"/>
	</g>
	<g>
		<rect x="289.36" y="343.797" style="fill:#696867;" width="30" height="101.528"/>
	</g>
	<g>
		<polygon style="fill:#5E8EE1;" points="205.733,318 205.733,57.729 102.867,47.729 0,57.729 0,318 108.307,328 		"/>
	</g>
	<g>
		<polygon style="fill:#467BFF;" points="205.733,318 205.733,57.729 190.733,47.729 175.733,57.729 175.733,318 190.733,328 		"/>
	</g>
	<g>
		<path style="fill:#E3DED9;" d="M485.338,57.378V34.185c0-9.207-7.325-16.741-16.278-16.741H16.278C7.325,17.445,0,24.978,0,34.185
			v23.193H485.338z"/>
	</g>
	<g>
		<path style="fill:#E3DED9;" d="M0,318.052v33.638c0,9.651,6.988,17.548,15.53,17.548h454.279c8.541,0,15.53-7.896,15.53-17.548
			v-33.638H0z"/>
	</g>
	<g>
		<path style="fill:#EEEBE8;" d="M468.434,17.445h-30c9.297,0,16.905,7.607,16.905,16.905v317.984
			c0,9.297-7.607,16.904-16.905,16.904h30c9.297,0,16.905-7.607,16.905-16.904V34.349C485.339,25.052,477.731,17.445,468.434,17.445
			z"/>
	</g>
	<g>
		<path style="fill:#B4B4B4;" d="M469.06,17.444h-30c8.953,0,16.278,7.533,16.278,16.741v23.193h30V34.185
			C485.338,24.978,478.013,17.444,469.06,17.444z"/>
	</g>
	<g>
		<path style="fill:#D0CFD1;" d="M345.271,467.894c9.327,0,15.59-9.519,11.96-18.111c-7.62-18.035-25.457-30.768-46.122-30.768
			h-136.88c-20.665,0-38.502,12.734-46.122,30.768c-3.63,8.591,2.633,18.111,11.96,18.111H345.271z"/>
	</g>
	<g>
		<path style="fill:#B4B4B4;" d="M455.338,318.052v33.638c0,9.651-6.988,17.548-15.53,17.548h30c8.541,0,15.53-7.896,15.53-17.548
			v-33.638H455.338z"/>
	</g>
	<g>
		<circle style="fill:#9DDBDF;" cx="49.59" cy="98.84" r="14.347"/>
	</g>
	<g>
		<circle style="fill:#FFF4F1;" cx="49.59" cy="158.221" r="14.347"/>
	</g>
	<g>
		<circle style="fill:#FFE056;" cx="49.59" cy="158.221" r="14.347"/>
	</g>
	<g>
		<circle style="fill:#FC9086;" cx="49.59" cy="217.602" r="14.347"/>
	</g>
	<g>
		<circle style="fill:#467BFF;" cx="49.59" cy="276.982" r="14.347"/>
	</g>
	<g>
		<path style="fill:#FFE056;" d="M289.656,199.258h151.656c8.103,0,14.672,6.569,14.672,14.672v0
			c0,8.103-6.569,14.672-14.672,14.672h-14.866l-14.789,14.333c-2.715,2.631-7.028,2.631-9.743,0l-14.79-14.333h-97.469
			c-8.103,0-14.672-6.569-14.672-14.672v0C274.984,205.827,281.553,199.258,289.656,199.258z"/>
	</g>
	<g>
		<path style="fill:#FC9086;" d="M329.656,96.688h111.656c8.103,0,14.672,6.569,14.672,14.672v0c0,8.103-6.569,14.672-14.672,14.672
			h-14.866l-14.789,14.333c-2.715,2.631-7.028,2.631-9.743,0l-14.79-14.333h-57.469c-8.103,0-14.672-6.569-14.672-14.672v0
			C314.984,103.257,321.553,96.688,329.656,96.688z"/>
	</g>
	<g>
		<path style="fill:#E3DED9;" d="M443.404,283.854c0-4.14,3.36-7.5,7.5-7.5l0,0c4.14,0,7.5,3.36,7.5,7.5l0,0
			c0,4.15-3.36,7.5-7.5,7.5l0,0C446.764,291.354,443.404,288.003,443.404,283.854z M417.404,283.854c0-4.14,3.36-7.5,7.5-7.5l0,0
			c4.14,0,7.5,3.36,7.5,7.5l0,0c0,4.15-3.36,7.5-7.5,7.5l0,0C420.764,291.354,417.404,288.003,417.404,283.854z M391.404,283.854
			c0-4.14,3.36-7.5,7.5-7.5l0,0c4.14,0,7.5,3.36,7.5,7.5l0,0c0,4.15-3.36,7.5-7.5,7.5l0,0
			C394.764,291.354,391.404,288.003,391.404,283.854z"/>
	</g>
	<g>
		<path style="fill:#2970D6;" d="M157.85,105.368H88.655c-4.142,0-7.5-3.358-7.5-7.5s3.358-7.5,7.5-7.5h69.195
			c4.142,0,7.5,3.358,7.5,7.5S161.992,105.368,157.85,105.368z"/>
	</g>
	<g>
		<path style="fill:#2970D6;" d="M157.85,164.859H88.655c-4.142,0-7.5-3.358-7.5-7.5s3.358-7.5,7.5-7.5h69.195
			c4.142,0,7.5,3.358,7.5,7.5S161.992,164.859,157.85,164.859z"/>
	</g>
	<g>
		<path style="fill:#2970D6;" d="M157.85,224.35H88.655c-4.142,0-7.5-3.358-7.5-7.5s3.358-7.5,7.5-7.5h69.195
			c4.142,0,7.5,3.358,7.5,7.5S161.992,224.35,157.85,224.35z"/>
	</g>
	<g>
		<path style="fill:#2970D6;" d="M157.85,283.841H88.655c-4.142,0-7.5-3.358-7.5-7.5s3.358-7.5,7.5-7.5h69.195
			c4.142,0,7.5,3.358,7.5,7.5S161.992,283.841,157.85,283.841z"/>
	</g>
</g>
<g>
</g>
<g>
</g>
<g>
</g>
<g>
</g>
<g>
</g>
<g>
</g>
<g>
</g>
<g>
</g>
<g>
</g>
<g>
</g>
<g>
</g>
<g>
</g>
<g>
</g>
<g>
</g>
<g>
</g>
</svg>
