<?xml version="1.0" encoding="iso-8859-1"?>
<!-- Generator: Adobe Illustrator 21.0.0, SVG Export Plug-In . SVG Version: 6.00 Build 0)  -->
<svg version="1.1" id="Capa_1" xmlns="http://www.w3.org/2000/svg" xmlns:xlink="http://www.w3.org/1999/xlink" x="0px" y="0px"
	 viewBox="0 0 505.448 505.448" style="enable-background:new 0 0 505.448 505.448;" xml:space="preserve">
<g>
	<g>
		<path style="fill:#E3DED9;" d="M468.043,188.671h-74.33c-4.322,0-7.824-3.503-7.824-7.824c0-4.321,3.503-7.824,7.824-7.824h66.506
			v-47.809c0-4.321,3.503-7.824,7.824-7.824s7.824,3.503,7.824,7.824v55.633C475.867,185.167,472.364,188.671,468.043,188.671z"/>
	</g>
	<g>
		<path style="fill:#E3DED9;" d="M468.043,387.36c-4.322,0-7.824-3.503-7.824-7.824v-47.809h-66.506
			c-4.322,0-7.824-3.503-7.824-7.824c0-4.321,3.503-7.824,7.824-7.824h74.33c4.322,0,7.824,3.503,7.824,7.824v55.633
			C475.867,383.857,472.364,387.36,468.043,387.36z"/>
	</g>
	<g>
		<circle style="fill:#5E8EE1;" cx="466.848" cy="411.252" r="38.599"/>
	</g>
	<g>
		<path style="fill:#467BFF;" d="M466.848,372.653c-5.572,0-10.864,1.19-15.648,3.316c13.518,6.005,22.951,19.539,22.951,35.284
			s-9.433,29.279-22.951,35.284c4.784,2.125,10.076,3.316,15.648,3.316c21.318,0,38.599-17.282,38.599-38.599
			C505.448,389.934,488.166,372.653,466.848,372.653z"/>
	</g>
	<g>
		<circle style="fill:#FFD5CC;" cx="466.848" cy="93.497" r="38.599"/>
	</g>
	<g>
		<path style="fill:#FDBBB5;" d="M466.848,54.897c-5.572,0-10.864,1.19-15.648,3.315c13.518,6.005,22.951,19.539,22.951,35.284
			c0,15.745-9.433,29.279-22.951,35.284c4.784,2.125,10.076,3.315,15.648,3.315c21.318,0,38.599-17.282,38.599-38.599
			S488.166,54.897,466.848,54.897z"/>
	</g>
	<g>
		<path style="fill:#E3DED9;" d="M113.17,188.671H38.84c-4.322,0-7.824-3.503-7.824-7.824v-55.633c0-4.321,3.503-7.824,7.824-7.824
			s7.824,3.503,7.824,7.824v47.809h66.506c4.322,0,7.824,3.503,7.824,7.824C120.994,185.167,117.491,188.671,113.17,188.671z"/>
	</g>
	<g>
		<path style="fill:#E3DED9;" d="M38.84,387.36c-4.322,0-7.824-3.503-7.824-7.824v-55.633c0-4.321,3.503-7.824,7.824-7.824h74.33
			c4.322,0,7.824,3.503,7.824,7.824c0,4.321-3.503,7.824-7.824,7.824H46.664v47.809C46.664,383.857,43.161,387.36,38.84,387.36z"/>
	</g>
	<g>
		<path style="fill:#F7EE7D;" d="M288.593,60.014V30.604c0-8.607-7.042-15.648-15.648-15.648h-36.847
			c-8.607,0-15.648,7.042-15.648,15.648v29.411H288.593z"/>
	</g>
	<g>
		<path style="fill:#F9CD45;" d="M272.944,14.955h-31.297c8.607,0,15.648,7.042,15.648,15.648v29.411h31.297V30.604
			C288.593,21.997,281.551,14.955,272.944,14.955z"/>
	</g>
	<g>
		<path style="fill:#FFF4F1;" d="M370.028,490.492H141.938c-15.95,0-29-13.05-29-29v-358.16c0-15.95,13.05-29,29-29h228.089
			c15.95,0,29,13.05,29,29v358.16C399.028,477.442,385.978,490.492,370.028,490.492z"/>
	</g>
	<g>
		<path style="fill:#E8E4E0;" d="M368.774,74.332h-31.297c16.639,0,30.254,13.614,30.254,30.254v355.653
			c0,16.639-13.614,30.254-30.254,30.254h31.297c16.639,0,30.254-13.614,30.254-30.254V104.585
			C399.028,87.946,385.414,74.332,368.774,74.332z"/>
	</g>
	<g>
		<path style="fill:#FFE056;" d="M311.613,105.783H200.353c-8.25,0-15-6.75-15-15V61.177c0-8.25,6.75-15,15-15h111.259
			c8.25,0,15,6.75,15,15v29.607C326.613,99.033,319.863,105.783,311.613,105.783z"/>
	</g>
	<g>
		<path style="fill:#F9CD45;" d="M310.964,46.176h-31.297c8.607,0,15.648,7.042,15.648,15.648v28.31
			c0,8.607-7.042,15.648-15.648,15.648h31.297c8.607,0,15.648-7.042,15.648-15.648v-28.31
			C326.613,53.218,319.571,46.176,310.964,46.176z"/>
	</g>
	<g>
		<circle style="fill:#9DDBDF;" cx="183.817" cy="173.764" r="20.372"/>
	</g>
	<g>
		<circle style="fill:#9DDBDF;" cx="183.817" cy="258.266" r="20.372"/>
	</g>
	<g>
		<circle style="fill:#9DDBDF;" cx="183.817" cy="342.767" r="20.372"/>
	</g>
	<g>
		<circle style="fill:#9DDBDF;" cx="183.817" cy="427.269" r="20.372"/>
	</g>
	<g>
		<path style="fill:#E3DED9;" d="M259.342,166.682h-20.869c-4.322,0-7.824-3.503-7.824-7.824c0-4.321,3.503-7.824,7.824-7.824
			h20.869c4.322,0,7.824,3.503,7.824,7.824C267.166,163.179,263.664,166.682,259.342,166.682z"/>
	</g>
	<g>
		<path style="fill:#E3DED9;" d="M348.521,191.526H238.473c-4.322,0-7.824-3.503-7.824-7.824c0-4.321,3.503-7.824,7.824-7.824
			h110.047c4.322,0,7.824,3.503,7.824,7.824C356.345,188.023,352.842,191.526,348.521,191.526z"/>
	</g>
	<g>
		<path style="fill:#E3DED9;" d="M259.342,251.184h-20.869c-4.322,0-7.824-3.503-7.824-7.824c0-4.321,3.503-7.824,7.824-7.824
			h20.869c4.322,0,7.824,3.503,7.824,7.824C267.166,247.681,263.664,251.184,259.342,251.184z"/>
	</g>
	<g>
		<path style="fill:#E3DED9;" d="M348.521,276.027H238.473c-4.322,0-7.824-3.503-7.824-7.824c0-4.321,3.503-7.824,7.824-7.824
			h110.047c4.322,0,7.824,3.503,7.824,7.824C356.345,272.524,352.842,276.027,348.521,276.027z"/>
	</g>
	<g>
		<path style="fill:#E3DED9;" d="M259.342,335.685h-20.869c-4.322,0-7.824-3.503-7.824-7.824s3.503-7.824,7.824-7.824h20.869
			c4.322,0,7.824,3.503,7.824,7.824S263.664,335.685,259.342,335.685z"/>
	</g>
	<g>
		<path style="fill:#E3DED9;" d="M348.521,360.529H238.473c-4.322,0-7.824-3.503-7.824-7.824c0-4.321,3.503-7.824,7.824-7.824
			h110.047c4.322,0,7.824,3.503,7.824,7.824C356.345,357.026,352.842,360.529,348.521,360.529z"/>
	</g>
	<g>
		<path style="fill:#E3DED9;" d="M259.342,420.187h-20.869c-4.322,0-7.824-3.503-7.824-7.824s3.503-7.824,7.824-7.824h20.869
			c4.322,0,7.824,3.503,7.824,7.824S263.664,420.187,259.342,420.187z"/>
	</g>
	<g>
		<path style="fill:#E3DED9;" d="M348.521,445.03H238.473c-4.322,0-7.824-3.503-7.824-7.824c0-4.321,3.503-7.824,7.824-7.824
			h110.047c4.322,0,7.824,3.503,7.824,7.824C356.345,441.527,352.842,445.03,348.521,445.03z"/>
	</g>
	<g>
		<circle style="fill:#F7EE7D;" cx="38.599" cy="414.145" r="38.599"/>
	</g>
	<g>
		<path style="fill:#F9CD45;" d="M38.599,375.545c-5.572,0-10.864,1.19-15.648,3.316c13.518,6.005,22.951,19.539,22.951,35.284
			s-9.433,29.279-22.951,35.284c4.784,2.125,10.076,3.316,15.648,3.316c21.318,0,38.599-17.282,38.599-38.599
			C77.199,392.827,59.917,375.545,38.599,375.545z"/>
	</g>
	<g>
		<circle style="fill:#FC9086;" cx="38.992" cy="93.497" r="38.599"/>
	</g>
	<g>
		<path style="fill:#F57A73;" d="M38.992,54.897c-5.572,0-10.864,1.19-15.648,3.315c13.518,6.005,22.951,19.539,22.951,35.284
			c0,15.745-9.433,29.279-22.951,35.284c4.784,2.125,10.076,3.315,15.648,3.315c21.318,0,38.599-17.282,38.599-38.599
			S60.309,54.897,38.992,54.897z"/>
	</g>
</g>
<g>
</g>
<g>
</g>
<g>
</g>
<g>
</g>
<g>
</g>
<g>
</g>
<g>
</g>
<g>
</g>
<g>
</g>
<g>
</g>
<g>
</g>
<g>
</g>
<g>
</g>
<g>
</g>
<g>
</g>
</svg>
