<?xml version="1.0" encoding="iso-8859-1"?>
<!-- Generator: Adobe Illustrator 21.0.0, SVG Export Plug-In . SVG Version: 6.00 Build 0)  -->
<svg version="1.1" id="Capa_1" xmlns="http://www.w3.org/2000/svg" xmlns:xlink="http://www.w3.org/1999/xlink" x="0px" y="0px"
	 viewBox="0 0 500.576 500.576" style="enable-background:new 0 0 500.576 500.576;" xml:space="preserve">
<g>
	<g>
		<path style="fill:#E3DED9;" d="M421.378,188.997H251.649v-86.072c0-4.142-3.358-7.5-7.5-7.5s-7.5,3.358-7.5,7.5v86.072H65.837
			c-12.57,0-22.796,10.227-22.796,22.796v22.92c0,4.142,3.358,7.5,7.5,7.5s7.5-3.358,7.5-7.5v-22.92
			c0-4.299,3.498-7.796,7.796-7.796h170.812v25.257c0,4.142,3.358,7.5,7.5,7.5s7.5-3.358,7.5-7.5v-25.257h169.729
			c4.299,0,7.796,3.498,7.796,7.796v19.645c0,4.142,3.358,7.5,7.5,7.5s7.5-3.358,7.5-7.5v-19.645
			C444.174,199.223,433.948,188.997,421.378,188.997z"/>
		<path style="fill:#E3DED9;" d="M101.646,442.325H65.837c-4.299,0-7.796-3.498-7.796-7.796v-97.146c0-4.142-3.358-7.5-7.5-7.5
			s-7.5,3.358-7.5,7.5v97.146c0,12.57,10.227,22.796,22.796,22.796h35.808c4.142,0,7.5-3.358,7.5-7.5
			S105.788,442.325,101.646,442.325z"/>
		<path style="fill:#E3DED9;" d="M436.674,326.607c-4.142,0-7.5,3.358-7.5,7.5v100.421c0,4.299-3.497,7.796-7.796,7.796h-37.409
			c-4.142,0-7.5,3.358-7.5,7.5s3.358,7.5,7.5,7.5h37.409c12.57,0,22.796-10.227,22.796-22.796V334.107
			C444.174,329.965,440.816,326.607,436.674,326.607z"/>
	</g>
	<g>
		<path style="fill:#FFE056;" d="M87.558,338.26H15c-8.284,0-15-6.716-15-15v-72.558c0-8.284,6.716-15,15-15h72.558
			c8.284,0,15,6.716,15,15v72.558C102.558,331.545,95.842,338.26,87.558,338.26z"/>
	</g>
	<g>
		<path style="fill:#F9CD45;" d="M86.423,235.703h-32.27c8.911,0,16.135,7.224,16.135,16.135v70.288
			c0,8.911-7.224,16.135-16.135,16.135h32.27c8.911,0,16.135-7.224,16.135-16.135v-70.288
			C102.558,242.927,95.334,235.703,86.423,235.703z"/>
	</g>
	<g>
		<circle style="fill:#FC9086;" cx="244.428" cy="287.288" r="60.114"/>
	</g>
	<g>
		<path style="fill:#F57A73;" d="M244.428,227.174c-6.041,0-11.87,0.901-17.371,2.559c24.729,7.454,42.743,30.396,42.743,57.555
			c0,27.159-18.015,50.101-42.743,57.555c5.501,1.658,11.33,2.559,17.371,2.559c33.2,0,60.115-26.914,60.115-60.114
			C304.543,254.088,277.628,227.174,244.428,227.174z"/>
	</g>
	<g>
		<path style="fill:#5E8EE1;" d="M401.469,109.047H89.515c-8.25,0-15-6.75-15-15V27.91c0-8.25,6.75-15,15-15h311.955
			c8.25,0,15,6.75,15,15v66.137C416.469,102.297,409.719,109.047,401.469,109.047z"/>
	</g>
	<g>
		<path style="fill:#467BFF;" d="M401.469,12.91h-30c8.25,0,15,6.75,15,15v66.137c0,8.25-6.75,15-15,15h30c8.25,0,15-6.75,15-15
			V27.91C416.469,19.66,409.719,12.91,401.469,12.91z"/>
	</g>
	<g>
		<path style="fill:#FFEEC6;" d="M374.339,487.666H116.645c-8.25,0-15-6.75-15-15v-50.882c0-8.25,6.75-15,15-15h257.693
			c8.25,0,15,6.75,15,15v50.882C389.339,480.916,382.589,487.666,374.339,487.666z"/>
	</g>
	<g>
		<path style="fill:#FFE89F;" d="M374.339,406.784h-30c8.25,0,15,6.75,15,15v50.882c0,8.25-6.75,15-15,15h30c8.25,0,15-6.75,15-15
			v-50.882C389.339,413.534,382.589,406.784,374.339,406.784z"/>
	</g>
	<g>
		<path style="fill:#467BFF;" d="M352.26,69.141h-221.41c-4.142,0-7.5-3.358-7.5-7.5s3.358-7.5,7.5-7.5h221.41
			c4.142,0,7.5,3.358,7.5,7.5S356.402,69.141,352.26,69.141z"/>
	</g>
	<g>
		<path style="fill:#FFE056;" d="M311.961,447.219c0-4.14,3.36-7.5,7.5-7.5l0,0c4.14,0,7.5,3.36,7.5,7.5l0,0
			c0,4.15-3.36,7.5-7.5,7.5l0,0C315.321,454.719,311.961,451.369,311.961,447.219z M278.961,447.219c0-4.14,3.36-7.5,7.5-7.5l0,0
			c4.14,0,7.5,3.36,7.5,7.5l0,0c0,4.15-3.36,7.5-7.5,7.5l0,0C282.321,454.719,278.961,451.369,278.961,447.219z M245.961,447.219
			c0-4.14,3.36-7.5,7.5-7.5l0,0c4.14,0,7.5,3.36,7.5,7.5l0,0c0,4.15-3.36,7.5-7.5,7.5l0,0
			C249.321,454.719,245.961,451.369,245.961,447.219z M212.961,447.219c0-4.14,3.36-7.5,7.5-7.5l0,0c4.14,0,7.5,3.36,7.5,7.5l0,0
			c0,4.15-3.36,7.5-7.5,7.5l0,0C216.321,454.719,212.961,451.369,212.961,447.219z M179.961,447.219c0-4.14,3.36-7.5,7.5-7.5l0,0
			c4.14,0,7.5,3.36,7.5,7.5l0,0c0,4.15-3.36,7.5-7.5,7.5l0,0C183.321,454.719,179.961,451.369,179.961,447.219z M146.961,447.219
			c0-4.14,3.36-7.5,7.5-7.5l0,0c4.14,0,7.5,3.36,7.5,7.5l0,0c0,4.15-3.36,7.5-7.5,7.5l0,0
			C150.321,454.719,146.961,451.369,146.961,447.219z"/>
	</g>
	<path style="fill:#9DDBDF;" d="M499.571,328.032l-56.065-97.108c-1.34-2.32-3.815-3.75-6.495-3.75s-5.155,1.43-6.495,3.75
		l-56.065,97.108c-0.67,1.16-1.005,2.455-1.005,3.75s0.335,2.59,1.005,3.75c1.34,2.32,3.815,3.75,6.495,3.75h112.131
		c2.68,0,5.155-1.43,6.495-3.75c0.67-1.16,1.005-2.455,1.005-3.75S500.241,329.192,499.571,328.032z"/>
	<path style="fill:#7CD6E6;" d="M499.571,328.032l-56.065-97.108c-1.34-2.32-3.815-3.75-6.495-3.75s-5.155,1.43-6.495,3.75
		l-8.505,14.731l47.561,82.377c0.67,1.16,1.005,2.455,1.005,3.75s-0.335,2.59-1.005,3.75c-1.34,2.32-3.815,3.75-6.495,3.75h30
		c2.68,0,5.155-1.43,6.495-3.75c0.67-1.16,1.005-2.455,1.005-3.75S500.241,329.192,499.571,328.032z"/>
</g>
<g>
</g>
<g>
</g>
<g>
</g>
<g>
</g>
<g>
</g>
<g>
</g>
<g>
</g>
<g>
</g>
<g>
</g>
<g>
</g>
<g>
</g>
<g>
</g>
<g>
</g>
<g>
</g>
<g>
</g>
</svg>
