<?xml version="1.0" encoding="iso-8859-1"?>
<!-- Generator: Adobe Illustrator 21.0.0, SVG Export Plug-In . SVG Version: 6.00 Build 0)  -->
<svg version="1.1" id="Capa_1" xmlns="http://www.w3.org/2000/svg" xmlns:xlink="http://www.w3.org/1999/xlink" x="0px" y="0px"
	 viewBox="0 0 502.17 502.17" style="enable-background:new 0 0 502.17 502.17;" xml:space="preserve">
<g>
	<g>
		<g>
			<path style="fill:#E3DED9;" d="M77.686,208.304c-4.41,0-7.985-3.575-7.985-7.985v-63.694c0-4.41,3.575-7.985,7.985-7.985
				s7.985,3.575,7.985,7.985v63.694C85.67,204.729,82.095,208.304,77.686,208.304z"/>
		</g>
		<g>
			<path style="fill:#E3DED9;" d="M250.959,208.304c-4.41,0-7.985-3.575-7.985-7.985v-63.694c0-4.41,3.574-7.985,7.985-7.985
				s7.985,3.575,7.985,7.985v63.694C258.944,204.729,255.37,208.304,250.959,208.304z"/>
		</g>
		<g>
			<path style="fill:#E3DED9;" d="M424.233,208.304c-4.41,0-7.985-3.575-7.985-7.985v-63.694c0-4.41,3.574-7.985,7.985-7.985
				s7.985,3.575,7.985,7.985v63.694C432.218,204.729,428.644,208.304,424.233,208.304z"/>
		</g>
		<g>
			<g>
				<path style="fill:#FFF4F1;" d="M480.588,128.021c-10.255-17.681-30.046-48.124-52.792-48.124
					c-22.807,0-42.647,30.506-52.877,48.266c-0.618,1.072-1.101,2.166-1.461,3.269c13.668,12.203,31.841,19.645,51.788,19.645
					C446.982,151.077,466.598,142.227,480.588,128.021z"/>
			</g>
			<path style="fill:#E3DED9;" d="M427.554,80.021c-4.77,0.032-9.398,1.412-13.832,3.715c5.618,2.826,10.945,7.142,15.855,12.156
				c17.571,17.947,8.595,48.566-15.973,53.782c-0.667,0.142-1.336,0.275-2.009,0.399c4.51,0.775,9.151,1.176,13.893,1.144
				c21.737-0.148,41.292-9.13,55.185-23.432C470.298,110.174,450.3,79.867,427.554,80.021z"/>
			<g>
				<path style="fill:#FC9086;" d="M427.796,98.36c22.746,0,42.538,11.98,52.792,29.661c13.353-13.56,21.582-31.999,21.582-52.333
					c0-41.636-34.441-75.389-76.925-75.389S348.32,34.052,348.32,75.688c0,22.087,9.694,41.955,25.137,55.743
					c0.36-1.103,0.843-2.197,1.461-3.269C385.149,110.403,404.988,98.36,427.796,98.36z"/>
			</g>
			<g>
				<path style="fill:#F57A73;" d="M425.245,0.299c-3.723,0-7.382,0.265-10.963,0.766c37.291,5.216,65.962,36.636,65.962,74.623
					c0,14.091-3.954,27.27-10.824,38.548c4.416,4.015,8.196,8.658,11.169,13.785c13.353-13.56,21.582-31.999,21.582-52.333
					C502.17,34.052,467.729,0.299,425.245,0.299z"/>
			</g>
			<g>
				<ellipse style="fill:#FFD5CC;" cx="426.632" cy="51.318" rx="18.027" ry="22.845"/>
			</g>
		</g>
		<g>
			<g>
				<path style="fill:#FFF4F1;" d="M306.428,128.021c-10.255-17.681-30.046-48.124-52.792-48.124
					c-22.807,0-42.647,30.506-52.877,48.266c-0.618,1.072-1.101,2.166-1.461,3.269c13.668,12.203,31.841,19.645,51.788,19.645
					C272.822,151.077,292.438,142.227,306.428,128.021z"/>
			</g>
			<path style="fill:#E3DED9;" d="M253.394,80.021c-4.77,0.032-9.398,1.412-13.832,3.715c5.618,2.826,10.945,7.142,15.855,12.156
				c17.571,17.947,8.595,48.566-15.973,53.782c-0.667,0.142-1.336,0.275-2.009,0.399c4.51,0.775,9.151,1.176,13.893,1.144
				c21.737-0.148,41.292-9.13,55.185-23.432C296.138,110.174,276.14,79.867,253.394,80.021z"/>
			<g>
				<path style="fill:#9DDBDF;" d="M253.636,98.36c22.746,0,42.538,11.98,52.792,29.661c13.353-13.56,21.582-31.999,21.582-52.333
					c0-41.636-34.441-75.389-76.925-75.389S174.16,34.052,174.16,75.688c0,22.087,9.694,41.955,25.137,55.743
					c0.36-1.103,0.843-2.197,1.461-3.269C210.989,110.403,230.828,98.36,253.636,98.36z"/>
			</g>
			<g>
				<path style="fill:#7CD6E6;" d="M251.085,0.299c-3.723,0-7.382,0.265-10.963,0.766c37.291,5.216,65.962,36.636,65.962,74.623
					c0,14.091-3.954,27.27-10.824,38.548c4.416,4.015,8.196,8.658,11.169,13.785c13.353-13.56,21.582-31.999,21.582-52.333
					C328.01,34.052,293.57,0.299,251.085,0.299z"/>
			</g>
			<g>
				<ellipse style="fill:#FFD5CC;" cx="252.472" cy="51.318" rx="18.027" ry="22.845"/>
			</g>
		</g>
		<g>
			<g>
				<path style="fill:#FFF4F1;" d="M132.268,128.021c-10.255-17.681-30.046-48.124-52.792-48.124
					c-22.807,0-42.647,30.506-52.877,48.266c-0.618,1.072-1.101,2.166-1.461,3.269c13.668,12.203,31.841,19.645,51.788,19.645
					C98.662,151.077,118.278,142.227,132.268,128.021z"/>
			</g>
			<path style="fill:#E3DED9;" d="M79.235,80.021c-4.77,0.032-9.398,1.412-13.832,3.715c5.618,2.826,10.945,7.142,15.855,12.156
				c17.571,17.947,8.595,48.566-15.973,53.782c-0.667,0.142-1.336,0.275-2.009,0.399c4.51,0.775,9.151,1.176,13.893,1.144
				c21.737-0.148,41.292-9.13,55.185-23.432C121.978,110.174,101.98,79.867,79.235,80.021z"/>
			<g>
				<path style="fill:#FFE056;" d="M79.476,98.36c22.746,0,42.538,11.98,52.792,29.661c13.353-13.56,21.582-31.999,21.582-52.333
					c0-41.636-34.441-75.389-76.925-75.389S0,34.052,0,75.688c0,22.087,9.694,41.955,25.137,55.743
					c0.36-1.103,0.843-2.197,1.461-3.269C36.829,110.403,56.669,98.36,79.476,98.36z"/>
			</g>
			<g>
				<path style="fill:#F9CD45;" d="M76.925,0.299c-3.723,0-7.382,0.265-10.963,0.766c37.291,5.216,65.962,36.636,65.962,74.623
					c0,14.091-3.954,27.27-10.824,38.548c4.416,4.015,8.196,8.658,11.169,13.785c13.353-13.56,21.582-31.999,21.582-52.333
					C153.85,34.052,119.41,0.299,76.925,0.299z"/>
			</g>
			<g>
				<ellipse style="fill:#FFD5CC;" cx="78.312" cy="51.318" rx="18.027" ry="22.845"/>
			</g>
		</g>
	</g>
	<g>
		<path style="fill:#9DDBDF;" d="M465.326,501.87H40.319c-8.82,0-15.97-7.15-15.97-15.97V212.285c0-8.82,7.15-15.97,15.97-15.97
			l208.927,42.585l216.08-42.585c8.82,0,15.97,7.15,15.97,15.97v273.616C481.295,494.721,474.145,501.87,465.326,501.87z"/>
	</g>
	<g>
		<path style="fill:#7CD6E6;" d="M465.326,196.315h-31.939c8.82,0,15.97,7.15,15.97,15.97v273.616c0,8.82-7.15,15.97-15.97,15.97
			h31.939c8.82,0,15.97-7.149,15.97-15.97V212.285C481.295,203.465,474.145,196.315,465.326,196.315z"/>
	</g>
	<g>
		<path style="fill:#7CD6E6;" d="M481.295,215.081v-2.796c0-8.82-7.15-15.97-15.97-15.97H40.319c-8.82,0-15.97,7.15-15.97,15.97
			v0.667l203.833,121.993c14.33,7.348,31.304,7.423,45.699,0.203L481.295,215.081z"/>
	</g>
	<g>
		<path style="fill:#5E8EE1;" d="M24.349,456.389v29.511c0,8.82,7.15,15.97,15.97,15.97h425.007c8.82,0,15.97-7.149,15.97-15.97
			v-29.511H24.349z"/>
	</g>
	<g>
		<path style="fill:#467BFF;" d="M449.356,456.389v29.511c0,8.82-7.15,15.97-15.97,15.97h31.939c8.82,0,15.97-7.149,15.97-15.97
			v-29.511H449.356z"/>
	</g>
	<g>
		<g>
			<path style="fill:#FFF4F1;" d="M313.136,398.219c-10.255-17.681-30.046-48.124-52.792-48.124
				c-22.807,0-42.647,30.506-52.877,48.266c-0.618,1.072-1.101,2.166-1.461,3.269c13.668,12.203,31.841,19.645,51.788,19.645
				C279.53,421.276,299.146,412.426,313.136,398.219z"/>
		</g>
		<path style="fill:#E3DED9;" d="M260.102,350.22c-4.77,0.032-9.398,1.412-13.832,3.715c5.618,2.826,10.945,7.142,15.855,12.156
			c17.571,17.947,8.595,48.566-15.973,53.781c-0.667,0.142-1.336,0.275-2.009,0.399c4.51,0.775,9.151,1.176,13.893,1.144
			c21.737-0.148,41.292-9.13,55.185-23.432C302.846,380.373,282.848,350.065,260.102,350.22z"/>
		<g>
			<path style="fill:#FFD5CC;" d="M260.343,368.558c22.746,0,42.538,11.98,52.792,29.661c13.353-13.56,21.582-31.999,21.582-52.333
				c0-41.636-34.441-75.389-76.925-75.389s-76.925,33.753-76.925,75.389c0,22.087,9.694,41.955,25.137,55.743
				c0.36-1.103,0.843-2.197,1.461-3.269C217.697,380.601,237.536,368.558,260.343,368.558z"/>
		</g>
		<g>
			<path style="fill:#FFCCC4;" d="M257.793,270.498c-3.723,0-7.382,0.265-10.963,0.766c37.291,5.216,65.962,36.635,65.962,74.623
				c0,14.091-3.954,27.27-10.824,38.548c4.416,4.015,8.196,8.658,11.169,13.785c13.353-13.56,21.582-31.999,21.582-52.332
				C334.718,304.251,300.277,270.498,257.793,270.498z"/>
		</g>
		<g>
			<ellipse style="fill:#FFF4F1;" cx="259.18" cy="321.517" rx="18.027" ry="22.845"/>
		</g>
	</g>
</g>
<g>
</g>
<g>
</g>
<g>
</g>
<g>
</g>
<g>
</g>
<g>
</g>
<g>
</g>
<g>
</g>
<g>
</g>
<g>
</g>
<g>
</g>
<g>
</g>
<g>
</g>
<g>
</g>
<g>
</g>
</svg>
