<?xml version="1.0" encoding="iso-8859-1"?>
<!-- Generator: Adobe Illustrator 21.0.0, SVG Export Plug-In . SVG Version: 6.00 Build 0)  -->
<svg version="1.1" id="Capa_1" xmlns="http://www.w3.org/2000/svg" xmlns:xlink="http://www.w3.org/1999/xlink" x="0px" y="0px"
	 viewBox="0 0 496.832 496.832" style="enable-background:new 0 0 496.832 496.832;" xml:space="preserve">
<g>
	<g>
		<path style="fill:#5E8EE1;" d="M243.336,64.78V30h106.715v34.78l16.641,10l13.359-10V15c0-8.284-6.716-15-15-15H228.336
			c-8.284,0-15,6.716-15,15v49.78l10.77,10L243.336,64.78z"/>
	</g>
	<path style="fill:#DC8839;" d="M480.464,64.841l-186.813,40l-181.716-40c-8.284,0-15,6.716-15,15v29.353v210.75
		c0,8.285,6.716,15,15,15h368.529c8.284,0,15-6.715,15-15V111.86v-32.02C495.464,71.556,488.749,64.841,480.464,64.841z"/>
	<g>
		<path style="fill:#BE7511;" d="M495.464,78.861L495.464,78.861c0-7.743-6.277-14.02-14.02-14.02H296.2H110.955
			c-7.743,0-14.02,6.277-14.02,14.02v0c0,63.748,51.678,115.425,115.426,115.425h167.678
			C443.787,194.286,495.464,142.608,495.464,78.861z"/>
	</g>
	<g>
		<path style="fill:#BE7511;" d="M480.464,64.841h-30c8.284,0,15,6.716,15,15v240.103c0,8.285-6.716,15-15,15h30
			c8.284,0,15-6.715,15-15V79.841C495.464,71.556,488.749,64.841,480.464,64.841z"/>
	</g>
	<g>
		<path style="fill:#B06911;" d="M481.444,64.841h-30c7.743,0,14.02,6.277,14.02,14.02l0,0c0,63.748-51.678,115.425-115.426,115.425
			h30c63.748,0,115.426-51.678,115.426-115.425l0,0C495.464,71.117,489.188,64.841,481.444,64.841z"/>
	</g>
	<g>
		<path style="fill:#FFE056;" d="M312.287,222.695h-37.271c-8.284,0-15-6.716-15-15v-18.664c0-8.284,6.716-15,15-15h37.271
			c8.284,0,15,6.716,15,15v18.664C327.287,215.979,320.572,222.695,312.287,222.695z"/>
	</g>
	<g>
		<g>
			<path style="fill:#FFF4F1;" d="M125.406,328.943c-9.617-16.581-28.177-45.13-49.508-45.13c-21.388,0-39.993,28.608-49.587,45.263
				c-0.579,1.005-1.033,2.031-1.37,3.066c12.818,11.444,29.86,18.423,48.566,18.423C93.89,350.565,112.286,342.266,125.406,328.943z
				"/>
		</g>
		<path style="fill:#E3DED9;" d="M75.672,283.93c-4.473,0.03-8.813,1.324-12.972,3.484c5.269,2.65,10.264,6.698,14.868,11.4
			c16.478,16.83,8.061,45.544-14.98,50.435c-0.625,0.133-1.253,0.258-1.884,0.374c4.23,0.726,8.581,1.103,13.028,1.073
			c20.384-0.138,38.723-8.562,51.752-21.974C115.756,312.207,97.002,283.785,75.672,283.93z"/>
		<g>
			<path style="fill:#FFE056;" d="M75.898,301.128c21.331,0,39.891,11.234,49.508,27.816c12.522-12.716,20.239-30.008,20.239-49.076
				c0-39.046-32.298-70.698-72.139-70.698S1.367,240.821,1.367,279.867c0,20.713,9.091,39.345,23.573,52.275
				c0.338-1.034,0.791-2.06,1.37-3.066C35.905,312.422,54.51,301.128,75.898,301.128z"/>
		</g>
		<g>
			<path style="fill:#F9CD45;" d="M73.506,209.169c-3.491,0-6.923,0.248-10.281,0.718c34.97,4.891,61.858,34.356,61.858,69.98
				c0,13.214-3.708,25.573-10.151,36.15c4.142,3.765,7.686,8.119,10.474,12.927c12.522-12.716,20.239-30.008,20.239-49.076
				C145.645,240.821,113.347,209.169,73.506,209.169z"/>
		</g>
		<g>
			<ellipse style="fill:#FFCCC4;" cx="74.806" cy="257.013" rx="16.905" ry="21.423"/>
		</g>
	</g>
	<g>
		<g>
			<path style="fill:#FFF4F1;" d="M202.843,397.509c-9.617-16.581-28.177-45.13-49.508-45.13c-21.388,0-39.993,28.608-49.587,45.263
				c-0.579,1.005-1.033,2.031-1.37,3.066c12.818,11.444,29.86,18.423,48.566,18.423
				C171.328,419.131,189.723,410.832,202.843,397.509z"/>
		</g>
		<path style="fill:#E3DED9;" d="M153.109,352.496c-4.473,0.03-8.813,1.324-12.972,3.484c5.269,2.65,10.264,6.698,14.868,11.4
			c16.478,16.83,8.061,45.544-14.98,50.435c-0.625,0.133-1.253,0.257-1.884,0.374c4.23,0.726,8.581,1.103,13.028,1.073
			c20.384-0.138,38.723-8.562,51.752-21.974C193.193,380.773,174.439,352.351,153.109,352.496z"/>
		<g>
			<path style="fill:#5E8EE1;" d="M153.335,369.693c21.331,0,39.891,11.234,49.508,27.816
				c12.522-12.716,20.239-30.008,20.239-49.076c0-39.046-32.298-70.698-72.139-70.698s-72.139,31.653-72.139,70.698
				c0,20.713,9.091,39.345,23.573,52.275c0.338-1.034,0.791-2.06,1.37-3.066C113.342,380.987,131.947,369.693,153.335,369.693z"/>
		</g>
		<g>
			<path style="fill:#467BFF;" d="M150.943,277.734c-3.491,0-6.923,0.248-10.281,0.718c34.97,4.891,61.858,34.356,61.858,69.98
				c0,13.214-3.708,25.573-10.151,36.15c4.142,3.765,7.686,8.119,10.474,12.927c12.522-12.716,20.239-30.008,20.239-49.076
				C223.082,309.387,190.784,277.734,150.943,277.734z"/>
		</g>
		<g>
			<ellipse style="fill:#FFCCC4;" cx="152.244" cy="325.579" rx="16.905" ry="21.423"/>
		</g>
	</g>
	<g>
		<g>
			<path style="fill:#FFF4F1;" d="M280.486,475.077c-9.617-16.581-28.177-45.13-49.508-45.13c-21.388,0-39.993,28.608-49.587,45.263
				c-0.579,1.005-1.033,2.031-1.37,3.066c12.818,11.444,29.86,18.423,48.565,18.423C248.971,496.699,267.367,488.4,280.486,475.077z
				"/>
		</g>
		<path style="fill:#E3DED9;" d="M230.752,430.064c-4.473,0.03-8.813,1.324-12.972,3.484c5.269,2.65,10.264,6.698,14.868,11.4
			c16.478,16.83,8.061,45.544-14.98,50.435c-0.625,0.133-1.253,0.258-1.884,0.374c4.23,0.726,8.581,1.103,13.028,1.073
			c20.384-0.138,38.723-8.562,51.752-21.974C270.836,458.341,252.082,429.919,230.752,430.064z"/>
		<g>
			<path style="fill:#9DDBDF;" d="M230.978,447.261c21.331,0,39.891,11.234,49.508,27.816
				c12.522-12.716,20.239-30.008,20.239-49.076c0-39.046-32.298-70.698-72.139-70.698S156.448,386.955,156.448,426
				c0,20.713,9.091,39.345,23.573,52.275c0.338-1.034,0.791-2.06,1.37-3.066C190.985,458.555,209.59,447.261,230.978,447.261z"/>
		</g>
		<g>
			<path style="fill:#7CD6E6;" d="M228.586,355.302c-3.491,0-6.923,0.248-10.281,0.718c34.97,4.891,61.858,34.356,61.858,69.98
				c0,13.214-3.708,25.573-10.151,36.15c4.142,3.765,7.686,8.119,10.474,12.927c12.522-12.716,20.239-30.008,20.239-49.076
				C300.725,386.955,268.428,355.302,228.586,355.302z"/>
		</g>
		<g>
			<ellipse style="fill:#FFCCC4;" cx="229.887" cy="403.147" rx="16.905" ry="21.423"/>
		</g>
	</g>
</g>
<g>
</g>
<g>
</g>
<g>
</g>
<g>
</g>
<g>
</g>
<g>
</g>
<g>
</g>
<g>
</g>
<g>
</g>
<g>
</g>
<g>
</g>
<g>
</g>
<g>
</g>
<g>
</g>
<g>
</g>
</svg>
