<?xml version="1.0" encoding="iso-8859-1"?>
<!-- Generator: Adobe Illustrator 21.0.0, SVG Export Plug-In . SVG Version: 6.00 Build 0)  -->
<svg version="1.1" id="Capa_1" xmlns="http://www.w3.org/2000/svg" xmlns:xlink="http://www.w3.org/1999/xlink" x="0px" y="0px"
	 viewBox="0 0 506.657 506.657" style="enable-background:new 0 0 506.657 506.657;" xml:space="preserve">
<path style="fill:#18191B;" d="M256.836,103.102c15.885,0,28.809-12.923,28.809-28.809s-12.924-28.809-28.809-28.809
	s-28.809,12.923-28.809,28.809S240.952,103.102,256.836,103.102z M256.836,60.485c7.614,0,13.809,6.194,13.809,13.809
	s-6.194,13.809-13.809,13.809s-13.809-6.194-13.809-13.809S249.222,60.485,256.836,60.485z"/>
<path style="fill:#18191B;" d="M190.515,109.693c2.054,3.651,5.58,6.256,9.675,7.146c2.26,0.493,4.581,0.438,6.774-0.126
	c6.28,7.351,14.167,13.292,22.945,17.279c0.228,2.033,0.878,4.019,1.938,5.82c2.126,3.614,5.702,6.15,9.813,6.958
	c4.778,0.938,9.685,1.415,14.588,1.415c4.925,0,9.854-0.48,14.652-1.428c4.111-0.812,7.686-3.352,9.809-6.968
	c0.96-1.636,1.583-3.424,1.858-5.261c9.889-4.245,18.641-10.909,25.397-19.334c2.061,0.394,4.205,0.348,6.284-0.166
	c4.073-1.006,7.526-3.712,9.474-7.423c4.529-8.628,7.42-18.301,8.359-27.973c0.406-4.175-1.001-8.333-3.859-11.407
	c-1.827-1.965-4.14-3.372-6.666-4.105c-1.337-8.55-4.354-16.708-8.908-24.088c1.464-2.073,2.383-4.513,2.627-7.092
	c0.396-4.177-1.018-8.331-3.878-11.396c-6.646-7.122-14.822-13.044-23.645-17.127c-3.807-1.762-8.196-1.806-12.041-0.123
	c-2.728,1.194-5.003,3.178-6.558,5.655c-8.519-1.633-17.391-1.549-25.882,0.256c-1.564-2.573-3.898-4.63-6.709-5.85
	c-3.852-1.671-8.239-1.613-12.042,0.161c-8.808,4.11-16.965,10.059-23.59,17.202c-2.852,3.074-4.252,7.232-3.843,11.408
	c0.287,2.939,1.453,5.697,3.302,7.933c-4.529,7.659-7.42,16.113-8.532,24.959c-2.607,0.772-4.979,2.261-6.819,4.333
	c-2.781,3.132-4.094,7.314-3.603,11.473C182.602,91.679,185.657,101.055,190.515,109.693z M198.865,80.411
	c4.07-0.004,7.395-3.254,7.49-7.323c0.249-10.544,3.711-20.569,10.014-28.991c1.203-1.608,1.711-3.631,1.41-5.617
	c-0.3-1.985-1.385-3.768-3.01-4.947l-2.593-1.881c5.191-5.529,11.524-10.148,18.356-13.388l1.062,3.252
	c0.618,1.895,1.965,3.466,3.743,4.366c1.779,0.9,3.842,1.054,5.734,0.431c9.85-3.247,20.579-3.357,30.451-0.35
	c3.916,1.196,8.065-0.975,9.323-4.87l0.939-2.91c6.843,3.219,13.189,7.818,18.396,13.329l-1.84,1.344
	c-1.634,1.194-2.717,2.997-3.002,5.001c-0.284,2.004,0.253,4.038,1.489,5.639c6.274,8.125,9.884,17.811,10.439,28.011
	c0.218,3.986,3.516,7.092,7.486,7.092c0.062,0,0.123,0,0.186-0.002l2.175-0.053c-0.778,7.519-3.023,15.029-6.507,21.766l-0.89-0.612
	c-1.665-1.148-3.721-1.573-5.708-1.182c-1.984,0.392-3.727,1.569-4.83,3.263c-6.334,9.719-15.858,17.026-26.82,20.577
	c-1.895,0.614-3.467,1.955-4.371,3.729c-0.904,1.774-1.066,3.834-0.45,5.728l0.098,0.299c-7.436,1.422-15.273,1.427-22.725,0.011
	l0.214-0.661c1.26-3.889-0.826-8.071-4.691-9.403c-10.124-3.488-19.067-10.286-25.185-19.141c-1.149-1.664-2.922-2.793-4.916-3.131
	c-1.99-0.34-4.04,0.142-5.674,1.334l-1.245,0.908c-3.727-6.714-6.094-13.982-7.041-21.614L198.865,80.411z"/>
<path style="fill:#18191B;" d="M105.971,225.687c17.521,0,31.246-18.314,31.246-41.694c0-23.38-13.725-41.695-31.246-41.695
	s-31.247,18.314-31.247,41.695C74.724,207.373,88.45,225.687,105.971,225.687z M105.971,157.298
	c8.807,0,16.246,12.225,16.246,26.695c0,14.47-7.439,26.694-16.246,26.694s-16.247-12.225-16.247-26.694
	C89.724,169.523,97.165,157.298,105.971,157.298z"/>
<path style="fill:#18191B;" d="M400.686,225.687c17.521,0,31.246-18.314,31.246-41.694c0-23.38-13.725-41.695-31.246-41.695
	s-31.246,18.314-31.246,41.695C369.44,207.373,383.165,225.687,400.686,225.687z M400.686,157.298
	c8.807,0,16.246,12.225,16.246,26.695c0,14.47-7.439,26.694-16.246,26.694s-16.246-12.225-16.246-26.694
	C384.44,169.523,391.879,157.298,400.686,157.298z"/>
<path style="fill:#18191B;" d="M504.34,443.628c-5.721-5.47-12.785-8.788-20.138-9.983c-0.409-0.517-0.886-0.992-1.443-1.4
	l-55.126-40.425l4.112-18.078c0.089-0.39,0.136-0.778,0.162-1.165c8.336-7.117,13.089-17.565,12.055-27.853
	c-0.007-0.066-0.021-0.129-0.03-0.194c0.04-0.312,0.067-0.627,0.067-0.95v-7.928c0-4.142-3.357-7.5-7.5-7.5s-7.5,3.358-7.5,7.5
	v0.428h-52.273v-58.945c0-0.807,0.042-1.649,0.124-2.506c0.203-2.104-0.491-4.197-1.913-5.762c-1.421-1.565-3.438-2.458-5.552-2.458
	h-83.081c-4.236,0-7.683-3.447-7.683-7.683c0-4.236,3.446-7.683,7.683-7.683h114.827c0.128,0,0.255-0.003,0.383-0.01
	c0.446-0.023,0.896-0.035,1.349-0.035c14.412,0,26.137,11.725,26.137,26.137v28.517c0,4.142,3.357,7.5,7.5,7.5s7.5-3.358,7.5-7.5
	v-28.517c0-22.683-18.454-41.137-41.137-41.137c-0.642,0-1.279,0.015-1.914,0.044h-65.816c-2.306-9.526-6.243-18.694-11.591-26.968
	c2.415-2.738,3.934-6.195,4.284-9.891c0.469-4.955-1.208-9.882-4.602-13.518c-8.932-9.57-19.916-17.527-31.765-23.01
	c-4.516-2.09-9.722-2.143-14.283-0.146c-3.84,1.681-6.924,4.68-8.72,8.41c-12.711-2.748-26.053-2.618-38.724,0.402
	c-1.782-3.883-4.946-7.005-8.907-8.724c-4.568-1.982-9.773-1.913-14.283,0.191c-11.832,5.521-22.792,13.513-31.694,23.111
	c-3.382,3.646-5.043,8.579-4.558,13.533c0.407,4.165,2.3,8.021,5.283,10.883c-4.933,7.933-8.581,16.664-10.768,25.726h-59.097
	c-0.635-0.029-1.272-0.044-1.914-0.044c-22.683,0-41.137,18.454-41.137,41.137v17.693c0,4.142,3.357,7.5,7.5,7.5s7.5-3.358,7.5-7.5
	v-17.693c0-14.412,11.725-26.137,26.137-26.137c0.452,0,0.902,0.012,1.349,0.035c0.128,0.006,0.255,0.01,0.383,0.01h114.827
	c4.236,0,7.683,3.447,7.683,7.683c0,4.236-3.446,7.683-7.683,7.683h-83.081c-2.114,0-4.131,0.893-5.552,2.458
	c-1.422,1.565-2.116,3.658-1.913,5.762c0.082,0.856,0.124,1.699,0.124,2.506v58.945H77.658v-11.252c0-4.142-3.357-7.5-7.5-7.5
	s-7.5,3.358-7.5,7.5v18.752c0,0.111,0.012,0.219,0.017,0.329c-0.965,10.414,3.779,21.181,11.918,28.433l4.432,19.478l-55.126,40.425
	c-0.557,0.408-1.033,0.883-1.442,1.399c-7.354,1.195-14.417,4.513-20.139,9.984c-1.458,1.395-2.293,3.318-2.316,5.336
	c-0.022,2.018,0.77,3.96,2.196,5.387l43.365,43.365c1.408,1.407,3.315,2.197,5.304,2.197c0.028,0,0.057,0,0.084,0
	c2.019-0.022,3.942-0.858,5.337-2.316c9.475-9.91,12.509-23.841,9.183-36.341l52.758-38.689c6.251-4.584,9.914-11.949,9.798-19.696
	l-0.01-0.646l14.992,8.091l8.48,55.435c0.001,0.135,0.003,0.265,0.007,0.381c0.074,2.843,0.718,5.625,1.868,8.198
	c-4.485,6.101-7.22,13.553-7.4,21.598c-0.045,2.018,0.725,3.969,2.136,5.412s3.344,2.256,5.362,2.256h61.327
	c2.019,0,3.951-0.813,5.362-2.256s2.181-3.394,2.136-5.412c-0.378-16.867-11.952-31.148-27.448-35.752l-1.4-62.761
	c-0.167-5.608-2.667-10.956-6.856-14.672l-1.32-1.173l-40.384-37.121c0.033-0.285,0.054-0.574,0.054-0.868v-62.171h6.632
	c2.162,7.887,5.269,15.488,9.297,22.646c2.437,4.331,6.62,7.421,11.479,8.478c3.269,0.71,6.641,0.458,9.721-0.673
	c8.945,10.94,20.513,19.669,33.451,25.241c0.059,2.963,0.87,5.897,2.404,8.504c2.521,4.287,6.764,7.295,11.64,8.253
	c6.416,1.26,13.007,1.899,19.595,1.899c6.614,0,13.236-0.646,19.682-1.918c4.876-0.963,9.116-3.976,11.635-8.266
	c1.409-2.402,2.207-5.081,2.368-7.804c14.412-5.861,27.103-15.54,36.623-27.925c2.935,0.864,6.076,0.952,9.108,0.204
	c4.832-1.193,8.929-4.403,11.24-8.806c3.313-6.312,5.948-12.964,7.882-19.835h14.038v62.171c0,0.239,0.014,0.474,0.036,0.707
	l-40.372,37.288l-1.314,1.167c-4.19,3.718-6.689,9.066-6.857,14.729l-1.399,62.705c-15.497,4.604-27.07,18.885-27.448,35.752
	c-0.045,2.018,0.725,3.969,2.136,5.412s3.344,2.256,5.362,2.256h61.327c2.019,0,3.951-0.813,5.362-2.256s2.181-3.394,2.136-5.412
	c-0.181-8.078-2.938-15.559-7.456-21.674c0.119-0.392,0.212-0.795,0.266-1.212c0.375-2.453,7.049-43.736,10.118-62.711l15.017-8.105
	l-0.01,0.644c-0.115,7.75,3.548,15.115,9.799,19.698l52.758,38.689c-3.327,12.501-0.292,26.432,9.184,36.341
	c1.395,1.459,3.319,2.294,5.337,2.316c0.028,0,0.056,0,0.084,0c1.988,0,3.896-0.79,5.304-2.197l43.365-43.365
	c1.427-1.427,2.219-3.369,2.196-5.387C506.633,446.947,505.798,445.023,504.34,443.628z M49.8,480.742l-30.629-30.629
	c8.54-3.805,18.979-2.211,25.91,4.72C52.012,461.765,53.606,472.205,49.8,480.742z M113.028,403.093
	c0.043,2.903-1.329,5.661-3.671,7.379l-50.668,37.157c-0.924-1.179-1.918-2.319-3-3.401c-3.494-3.494-7.533-6.156-11.854-8
	l48.031-35.222c2.41-1.767,3.541-4.797,2.878-7.711l-2.341-10.29l20.494,11.061L113.028,403.093z M205.783,488.595h-43.315
	c3.346-8.728,11.855-14.984,21.658-14.984S202.437,479.868,205.783,488.595z M175.255,392.745l1.371,1.217
	c1.11,0.985,1.773,2.406,1.816,3.843l1.363,61.063c-4.832,0.557-9.411,2.028-13.545,4.247l-8.592-56.162
	c0.525-3.12-0.976-6.297-3.835-7.84l-63.896-34.484c-0.137-0.073-0.274-0.143-0.415-0.208c-5.478-2.533-9.75-7.798-11.319-13.34
	h51.724l45.23,41.577C175.19,392.687,175.222,392.717,175.255,392.745z M193.196,207.536c-0.3-1.985-1.385-3.768-3.01-4.947
	l-3.976-2.885c-0.77-0.559-0.952-1.325-0.992-1.732c-0.039-0.404-0.01-1.183,0.628-1.871c7.597-8.19,16.947-15.009,27.04-19.718
	c0.848-0.396,1.598-0.184,1.968-0.023c0.376,0.163,1.051,0.572,1.347,1.478l1.617,4.957c0.618,1.895,1.965,3.465,3.743,4.366
	c1.777,0.899,3.842,1.056,5.734,0.431c7.337-2.417,14.963-3.644,22.667-3.644c7.168,0,14.272,1.057,21.116,3.142
	c3.922,1.193,8.064-0.976,9.323-4.871l1.447-4.484c0.292-0.906,0.966-1.317,1.342-1.482c0.369-0.162,1.118-0.376,1.969,0.018
	c10.106,4.677,19.477,11.465,27.099,19.631c0.641,0.686,0.672,1.465,0.634,1.869c-0.039,0.407-0.218,1.174-0.986,1.736l-2.936,2.145
	c-1.634,1.194-2.716,2.997-3.001,5c-0.284,2.003,0.253,4.037,1.489,5.639c5.479,7.096,9.615,15.208,12.152,23.754h-19.076
	c-8.325-20.496-28.258-34.061-50.572-34.061c-22.498,0-42.28,13.509-50.584,34.061h-19.053c2.428-8.216,6.32-16.021,11.461-22.891
	C192.989,211.545,193.497,209.522,193.196,207.536z M243.036,258.726c0-12.507-10.176-22.683-22.683-22.683h-4.261
	c7.043-11.687,19.716-19.061,33.871-19.061c14.084,0,26.861,7.456,33.921,19.192c-11.372,1.213-20.261,10.863-20.261,22.552
	c0,10.759,7.532,19.786,17.599,22.102c-7.377,9.533-18.785,15.326-31.258,15.326c-12.115,0-23.357-5.575-30.773-14.745h1.163
	C232.86,281.409,243.036,271.234,243.036,258.726z M326.525,294.272c-0.437,0.831-1.161,1.118-1.555,1.215
	c-0.397,0.097-1.181,0.183-1.964-0.357l-1.63-1.123c-1.667-1.148-3.723-1.573-5.709-1.182c-1.984,0.392-3.727,1.569-4.83,3.263
	c-9.103,13.968-22.795,24.472-38.556,29.577c-1.894,0.614-3.467,1.956-4.371,3.729c-0.903,1.774-1.065,3.835-0.448,5.729
	l0.284,0.874c0.294,0.905-0.01,1.632-0.217,1.985c-0.205,0.349-0.686,0.961-1.604,1.143c-10.947,2.163-22.514,2.17-33.479,0.016
	c-0.917-0.18-1.397-0.792-1.603-1.14c-0.208-0.353-0.512-1.08-0.219-1.986l0.446-1.377c1.26-3.889-0.826-8.071-4.691-9.402
	c-14.554-5.014-27.41-14.785-36.202-27.512c-1.149-1.664-2.922-2.793-4.915-3.131c-1.996-0.339-4.039,0.142-5.674,1.333
	l-2.115,1.542c-0.764,0.558-1.548,0.498-1.946,0.41c-0.397-0.086-1.132-0.354-1.595-1.175c-2.745-4.879-4.984-10-6.716-15.292
	h34.154c9.309,18.164,28.053,29.745,48.591,29.745c20.701,0,39.301-11.534,48.597-29.745H332
	C330.519,285.837,328.694,290.141,326.525,294.272z M300.874,488.595c3.346-8.728,11.854-14.984,21.657-14.984
	s18.313,6.256,21.658,14.984H300.874z M352.824,399.113c-2.845,1.536-4.345,4.688-3.843,7.793
	c-5.128,31.698-7.725,47.753-9.043,55.976c-4.014-2.086-8.431-3.477-13.086-4.014l1.362-61.008c0.044-1.492,0.707-2.914,1.816-3.898
	l1.37-1.215c0.038-0.033,0.075-0.067,0.112-0.101l45.003-41.565h52.135c-1.343,5.451-5.65,10.628-11.517,13.34
	c-0.141,0.065-0.278,0.134-0.415,0.208L352.824,399.113z M397.3,410.471c-2.342-1.718-3.715-4.477-3.672-7.381l0.133-9.026
	l20.494-11.061l-2.341,10.29c-0.663,2.915,0.468,5.944,2.878,7.711l48.031,35.222c-4.321,1.844-8.359,4.506-11.853,8
	c-1.083,1.083-2.077,2.223-3.001,3.402L397.3,410.471z M456.856,480.743c-3.805-8.538-2.212-18.978,4.721-25.91
	c4.483-4.484,10.435-6.734,16.391-6.734c3.25,0,6.504,0.671,9.518,2.015L456.856,480.743z"/>
<g>
</g>
<g>
</g>
<g>
</g>
<g>
</g>
<g>
</g>
<g>
</g>
<g>
</g>
<g>
</g>
<g>
</g>
<g>
</g>
<g>
</g>
<g>
</g>
<g>
</g>
<g>
</g>
<g>
</g>
</svg>
