<?xml version="1.0" encoding="iso-8859-1"?>
<!-- Generator: Adobe Illustrator 21.0.0, SVG Export Plug-In . SVG Version: 6.00 Build 0)  -->
<svg version="1.1" id="Capa_1" xmlns="http://www.w3.org/2000/svg" xmlns:xlink="http://www.w3.org/1999/xlink" x="0px" y="0px"
	 viewBox="0 0 504.543 504.543" style="enable-background:new 0 0 504.543 504.543;" xml:space="preserve">
<path style="fill:#18191B;" d="M322.699,97.583c15.249,0,27.655-14.822,27.655-33.042S337.948,31.5,322.699,31.5
	s-27.654,14.822-27.654,33.042S307.45,97.583,322.699,97.583z M322.699,46.5c6.86,0,12.655,8.262,12.655,18.042
	s-5.795,18.042-12.655,18.042c-6.859,0-12.654-8.262-12.654-18.042S315.84,46.5,322.699,46.5z"/>
<path style="fill:#18191B;" d="M112.575,97.583c15.249,0,27.655-14.822,27.655-33.042S127.824,31.5,112.575,31.5
	S84.921,46.322,84.921,64.542S97.326,97.583,112.575,97.583z M112.575,46.5c6.86,0,12.655,8.262,12.655,18.042
	s-5.795,18.042-12.655,18.042c-6.859,0-12.654-8.262-12.654-18.042S105.716,46.5,112.575,46.5z"/>
<path style="fill:#18191B;" d="M285.157,489.543H16.612V263.777c0-4.142-3.357-7.5-7.5-7.5s-7.5,3.358-7.5,7.5v233.267
	c0,4.142,3.357,7.5,7.5,7.5h276.045c4.143,0,7.5-3.358,7.5-7.5S289.3,489.543,285.157,489.543z"/>
<path style="fill:#18191B;" d="M495.431,143.716h-97.213c10.666-15.192,16.437-33.165,16.437-51.928
	C414.655,41.176,372.708,0,321.148,0s-93.506,41.176-93.506,91.789c0,18.654,5.837,36.762,16.424,51.928h-55.972
	c10.666-15.192,16.437-33.165,16.437-51.928C204.531,41.176,162.584,0,111.024,0S17.518,41.176,17.518,91.789
	c0,18.654,5.837,36.762,16.424,51.928H9.112c-4.143,0-7.5,3.358-7.5,7.5v82.561c0,4.142,3.357,7.5,7.5,7.5s7.5-3.358,7.5-7.5
	v-75.061h28.927c0.457,0,0.903-0.047,1.338-0.126l1.251,1.117c17.241,15.393,39.578,23.87,62.896,23.87
	c24.028,0,46.565-8.796,63.96-24.861h82.157l1.11,0.991c17.241,15.393,39.578,23.87,62.896,23.87
	c24.056,0,46.617-8.817,64.021-24.917c0.291,0.034,0.585,0.057,0.885,0.057h101.878v330.827H315.157c-4.143,0-7.5,3.358-7.5,7.5
	s3.357,7.5,7.5,7.5h180.274c4.143,0,7.5-3.358,7.5-7.5V151.216C502.931,147.074,499.574,143.716,495.431,143.716z M321.148,15
	c43.289,0,78.507,34.447,78.507,76.788c0,9.319-1.729,18.618-5.11,27.304c-1.737,4.462-3.901,8.757-6.451,12.809
	c-3.889,6.181-4.994,4.822-9.665,0.166c-5.199-5.183-11.092-9.584-17.558-13.066c-12.657-6.816-27.242-10.145-41.605-9.258
	c-21.971,1.357-43.617,12.642-56.656,30.484c-0.199,0.272-0.393,0.547-0.588,0.822c-0.163,0.23-0.331,0.455-0.491,0.687
	c-12.097-13.836-18.888-31.583-18.888-49.948C242.642,49.447,277.86,15,321.148,15z M111.024,15
	c43.289,0,78.507,34.447,78.507,76.789c0,8.183-1.329,16.356-3.949,24.11c-2.08,6.156-6.274,18.495-12.122,21.833
	c-5.375-4.925-9.642-10.311-15.754-14.51c-5.873-4.035-12.321-7.223-19.076-9.489c-13.344-4.476-27.886-5.335-41.633-2.259
	c-17.785,3.98-34.418,14.525-45.099,29.577c-0.163,0.23-0.331,0.455-0.491,0.687c-12.097-13.836-18.888-31.583-18.888-49.948
	C32.518,49.447,67.736,15,111.024,15z M111.024,168.577c-17.704,0-34.726-5.796-48.524-16.423
	c10.332-16.282,29.463-26.655,48.613-27.516c19.822-0.891,40.337,8.376,52.09,24.501
	C148.817,161.716,130.508,168.577,111.024,168.577z M321.148,168.616c-17.344-0.021-34.643-5.871-48.411-16.426
	c10.746-18.374,33.951-28.643,54.728-27.483c17.854,0.996,35.089,10.164,45.895,24.411c-13.715,11.91-31.608,18.908-49.764,19.463
	C322.78,168.605,321.964,168.617,321.148,168.616z"/>
<path style="fill:#18191B;" d="M61.912,256.683h215.411c4.143,0,7.5-3.358,7.5-7.5s-3.357-7.5-7.5-7.5H61.912
	c-4.143,0-7.5,3.358-7.5,7.5S57.769,256.683,61.912,256.683z"/>
<path style="fill:#18191B;" d="M441.807,358.978h-99.869c-4.143,0-7.5,3.358-7.5,7.5s3.357,7.5,7.5,7.5h99.869
	c4.143,0,7.5-3.358,7.5-7.5S445.95,358.978,441.807,358.978z"/>
<path style="fill:#18191B;" d="M441.807,391.163h-99.869c-4.143,0-7.5,3.358-7.5,7.5s3.357,7.5,7.5,7.5h99.869
	c4.143,0,7.5-3.358,7.5-7.5S445.95,391.163,441.807,391.163z"/>
<path style="fill:#18191B;" d="M441.807,423.347h-99.869c-4.143,0-7.5,3.358-7.5,7.5s3.357,7.5,7.5,7.5h99.869
	c4.143,0,7.5-3.358,7.5-7.5S445.95,423.347,441.807,423.347z"/>
<path style="fill:#18191B;" d="M61.912,223.783h215.411c4.143,0,7.5-3.358,7.5-7.5s-3.357-7.5-7.5-7.5H61.912
	c-4.143,0-7.5,3.358-7.5,7.5S57.769,223.783,61.912,223.783z"/>
<path style="fill:#18191B;" d="M52.827,445.218c0,4.142,3.357,7.5,7.5,7.5h42.198h42.197h42.198h42.197h42.198
	c4.143,0,7.5-3.358,7.5-7.5v-50.78c0-4.142-3.357-7.5-7.5-7.5h-34.698v-21.108c0-4.142-3.357-7.5-7.5-7.5h-34.697v-10.38
	c0-4.142-3.357-7.5-7.5-7.5h-34.698v-19.678c0-4.142-3.357-7.5-7.5-7.5h-34.697v-16.817c0-4.142-3.357-7.5-7.5-7.5H60.327
	c-4.143,0-7.5,3.358-7.5,7.5V445.218z M263.816,401.938v35.78h-27.198v-35.78H263.816z M221.618,373.329v21.108v43.28h-27.197
	v-64.389H221.618z M179.421,355.449v10.38v71.889h-27.198v-82.269H179.421z M137.222,328.271v19.678v89.769h-27.197V328.271H137.222
	z M67.827,303.953h27.198v16.817v116.947H67.827V303.953z"/>
<path style="fill:#18191B;" d="M391.873,200.87c-33.714,0-61.142,27.428-61.142,61.141s27.428,61.141,61.142,61.141
	s61.142-27.428,61.142-61.141S425.587,200.87,391.873,200.87z M437.645,256.277h-38.272v-39.788
	C419.402,219.778,435.119,236.005,437.645,256.277z M384.373,216.489v39.788H346.1C348.626,236.005,364.344,219.778,384.373,216.489
	z M346.666,271.277h37.707v36.256C365.52,304.438,350.475,289.883,346.666,271.277z M399.373,307.533v-36.256h37.707
	C433.271,289.883,418.226,304.438,399.373,307.533z"/>
<g>
</g>
<g>
</g>
<g>
</g>
<g>
</g>
<g>
</g>
<g>
</g>
<g>
</g>
<g>
</g>
<g>
</g>
<g>
</g>
<g>
</g>
<g>
</g>
<g>
</g>
<g>
</g>
<g>
</g>
</svg>
