<?xml version="1.0" encoding="iso-8859-1"?>
<!-- Generator: Adobe Illustrator 21.0.0, SVG Export Plug-In . SVG Version: 6.00 Build 0)  -->
<svg version="1.1" id="Capa_1" xmlns="http://www.w3.org/2000/svg" xmlns:xlink="http://www.w3.org/1999/xlink" x="0px" y="0px"
	 viewBox="0 0 510.521 510.521" style="enable-background:new 0 0 510.521 510.521;" xml:space="preserve">
<path style="fill:#18191B;" d="M159.513,78.023c12.617,0,22.881-12.108,22.881-26.992c0-14.884-10.264-26.992-22.881-26.992
	s-22.881,12.108-22.881,26.992C136.632,65.915,146.897,78.023,159.513,78.023z M159.513,39.039c4.198,0,7.881,5.604,7.881,11.992
	s-3.683,11.992-7.881,11.992s-7.881-5.604-7.881-11.992S155.315,39.039,159.513,39.039z"/>
<path style="fill:#18191B;" d="M393.613,209.096c12.591,0,22.834-12.082,22.834-26.932c0-14.851-10.243-26.932-22.834-26.932
	c-12.59,0-22.833,12.082-22.833,26.932C370.779,197.014,381.022,209.096,393.613,209.096z M393.613,170.232
	c4.173,0,7.834,5.576,7.834,11.932c0,6.356-3.661,11.932-7.834,11.932c-3.705,0-7.833-4.9-7.833-11.932
	S389.907,170.232,393.613,170.232z"/>
<path style="fill:#18191B;" d="M201.265,232.696c0-14.851-10.243-26.932-22.833-26.932s-22.833,12.082-22.833,26.932
	c0,14.85,10.243,26.932,22.833,26.932S201.265,247.546,201.265,232.696z M170.598,232.696c0-6.356,3.661-11.932,7.833-11.932
	s7.833,5.576,7.833,11.932c0,6.356-3.661,11.932-7.833,11.932S170.598,239.052,170.598,232.696z"/>
<path style="fill:#18191B;" d="M437.957,258.822c2.403-1.897,4.714-3.937,6.895-6.152l4.014-4.076l-0.129-0.222
	c10.752-12.802,16.628-28.738,16.628-45.479c0-39.495-32.718-71.626-72.933-71.626c-11.03,0-21.49,2.43-30.871,6.754
	c-1.646-7.299-5.83-14.631-11.893-20.54c-12.861-12.534-39.786-11.578-42.815-11.426c-3.923,0.195-7.032,3.384-7.126,7.312
	c-0.072,3.031-0.337,29.974,12.523,42.507c5.14,5.009,11.258,8.632,17.468,10.512c-6.482,10.699-10.219,23.181-10.219,36.508
	c0,10.758,2.507,21.272,7.136,30.81l-42.213,42.213V83.211c9.149-0.449,19.095-4.945,27.309-13.159
	c13.551-13.55,12.893-42.441,12.774-45.69c-0.145-3.925-3.294-7.075-7.219-7.219c-3.252-0.119-32.141-0.776-45.69,12.774
	c-14.782,14.782-17.546,35.176-6.293,46.429c1.262,1.262,2.648,2.333,4.12,3.245v58.098L227.355,95.62
	c2.701-7.557,4.11-15.581,4.11-23.796C231.465,32.22,198.656,0,158.33,0c-18.666,0-35.712,6.912-48.649,18.255
	c-6.151-3.21-13.463-4.939-21.181-4.939c-19.164,0-39.127,20.893-41.34,23.275c-2.674,2.878-2.674,7.332,0,10.21
	c2.088,2.248,19.976,20.963,38.085,23.073c-0.018,0.65-0.05,1.295-0.05,1.949c0,18.538,7.376,36.375,20.363,49.693l-0.066,0.201
	l3.646,3.255c0.003,0.003,0.006,0.006,0.009,0.008c0.003,0.003,0.007,0.006,0.011,0.009c13.482,12.032,30.944,18.658,49.172,18.658
	c19.983,0,38.651-7.781,52.564-21.91l4.014-4.076l-0.129-0.222c2.039-2.427,3.901-4.964,5.583-7.6l49,49
	c0.019,0.02,0.041,0.036,0.061,0.055v2.408c-4.2-3.04-9.389-5.339-15.253-6.522v0c-15.772-3.185-35.377,10.492-37.56,12.062
	c-3.19,2.292-4.071,6.658-2.02,10.008c1.405,2.294,14.18,22.5,29.945,25.682c2.811,0.567,5.577,0.838,8.252,0.838
	c6.255,0,11.998-1.496,16.636-4.16v117.924l-28.606-28.606c6.101-10.616,9.368-22.635,9.368-35.103
	c0-39.495-32.718-71.626-72.933-71.626c-14.292,0-28.133,4.061-40.027,11.742c-3.479,2.247-4.479,6.89-2.231,10.369
	c2.247,3.48,6.89,4.479,10.369,2.231c9.464-6.112,20.492-9.343,31.89-9.343c31.944,0,57.933,25.402,57.933,56.626
	c0,11.683-3.633,22.884-10.368,32.315c-11.049-12.858-27.654-20.531-45.396-20.531c-18.996,0-36.665,8.78-47.632,23.301
	c-8.006-9.929-12.47-22.305-12.47-35.085c0-9.11,2.143-17.805,6.37-25.842c1.928-3.667,0.519-8.201-3.147-10.129
	c-3.667-1.928-8.2-0.519-10.129,3.147c-5.294,10.069-8.093,21.419-8.093,32.824c0,9.391,1.916,18.596,5.478,27.13
	c-4.302,2.207-8.374,5.167-11.991,8.784c-13.551,13.55-12.893,42.441-12.774,45.69c0.145,3.925,3.294,7.075,7.219,7.219
	c0.435,0.016,1.326,0.042,2.578,0.042c8.12,0,31.373-1.076,43.112-12.815c3.364-3.364,6.211-7.176,8.38-11.192
	c9.594,4.416,20.123,6.769,30.931,6.769c19.928,0,38.544-7.76,52.419-21.85l2.286-2.321l37.466,37.467v8.23h-70.775
	c-12.407,0-22.5,10.093-22.5,22.5v18.433c0,10.346,7.021,19.077,16.546,21.694l13.814,82.499
	c0.368,10.439,8.975,18.817,19.502,18.817h108.686c10.527,0,19.134-8.378,19.502-18.817l13.814-82.499
	c9.526-2.617,16.546-11.349,16.546-21.694v-18.433c0-12.407-10.093-22.5-22.5-22.5h-77.636v-49.448l50.382-50.382
	c1.557,1.976,3.222,3.876,4.993,5.693l-0.066,0.201l3.654,3.263c11.646,10.397,26.273,16.74,41.794,18.254
	c1.067,8.747,5.695,17.846,12.905,25.055c11.74,11.74,34.994,12.815,43.112,12.815c1.252,0,2.145-0.026,2.579-0.042
	c3.925-0.145,7.075-3.293,7.219-7.219c0.119-3.25,0.777-32.14-12.775-45.691C438.134,258.99,438.044,258.908,437.957,258.822z
	 M63.495,41.697c6.67-5.849,17.07-13.38,25.006-13.38c3.691,0,7.252,0.593,10.445,1.663c-5.433,7.416-9.462,15.88-11.705,25.027
	C79.489,54.286,69.816,47.24,63.495,41.697z M158.33,15c32.056,0,58.135,25.491,58.135,56.824c0,11.733-3.652,22.983-10.42,32.453
	c-11.08-12.906-27.738-20.609-45.538-20.609c-19.058,0-36.783,8.813-47.779,23.387c-8.045-9.967-12.532-22.396-12.532-35.231
	C100.195,40.491,126.274,15,158.33,15z M123.822,117.554h-0.162c8.066-11.721,21.882-18.886,36.846-18.886
	c13.983,0,26.982,6.266,35.207,16.662c-10.453,8.629-23.516,13.318-37.384,13.318C145.822,128.648,133.776,124.742,123.822,117.554z
	 M265.567,181.928c-0.873,4.329-8.783,7.773-18.065,5.9c-5.141-1.037-11.285-7.025-15.806-12.721
	c6.161-3.363,14.274-6.676,19.507-5.623C260.483,171.357,266.44,177.598,265.567,181.928z M127.335,318.869
	c-5.612,5.612-18.294,7.64-27.143,8.22c0.581-8.852,2.609-21.532,8.22-27.143c2.621-2.621,5.539-4.728,8.581-6.234
	c2.266,3.274,4.811,6.373,7.624,9.259l-0.066,0.202l3.654,3.263c1.667,1.488,3.395,2.892,5.177,4.212
	C131.882,313.568,129.826,316.378,127.335,318.869z M142.994,299.087h-0.328c8.031-11.715,21.82-18.877,36.756-18.877
	c13.925,0,26.871,6.237,35.067,16.585c-10.414,8.589-23.425,13.257-37.236,13.257C164.841,310.052,152.888,306.191,142.994,299.087z
	 M369.559,369.078v18.433c0,4.135-3.364,7.5-7.5,7.5H246.608c-4.142,0-7.5,3.358-7.5,7.5s3.358,7.5,7.5,7.5h106.062l-13.355,79.757
	c-0.068,0.41-0.103,0.824-0.103,1.239c0,2.447-2.067,4.514-4.514,4.514H226.01c-2.447,0-4.514-2.067-4.514-4.514
	c0-0.415-0.035-0.829-0.103-1.239l-13.355-79.757h8.57c4.142,0,7.5-3.358,7.5-7.5s-3.358-7.5-7.5-7.5h-17.96
	c-4.136,0-7.5-3.365-7.5-7.5v-18.433c0-4.136,3.364-7.5,7.5-7.5h163.412C366.195,361.578,369.559,364.942,369.559,369.078z
	 M282.203,40.523c5.612-5.612,18.294-7.64,27.143-8.22c-0.581,8.852-2.609,21.532-8.22,27.143
	c-7.452,7.452-19.64,11.868-25.216,6.293C270.334,60.163,274.751,47.975,282.203,40.523z M392.433,259.52
	c-12.501,0-24.541-3.914-34.476-11.117c8.046-11.623,21.775-18.726,36.646-18.726c13.925,0,26.871,6.237,35.067,16.585
	C419.255,254.852,406.244,259.52,392.433,259.52z M450.366,202.894c0,11.683-3.633,22.884-10.367,32.315
	c-11.049-12.858-27.654-20.531-45.396-20.531c-18.996,0-36.667,8.782-47.633,23.301c-8.006-9.929-12.47-22.305-12.47-35.085
	c0-31.224,25.989-56.626,57.933-56.626S450.366,171.669,450.366,202.894z M339.607,152.844c-5.34,0.211-11.806-2.761-16.887-7.712
	c-4.72-4.601-7.004-15.247-7.736-24.006c8.044,0.464,19.175,2.185,24.216,7.098c5.054,4.926,8.175,11.293,8.145,16.617
	c-0.003,0.576,0.065,1.135,0.185,1.675c-2.543,1.958-4.954,4.073-7.211,6.339C340.083,152.841,339.846,152.835,339.607,152.844z
	 M408.692,288.606c-4.308-4.307-7.29-9.585-8.338-14.511c8.568-0.901,16.792-3.261,24.387-6.958
	c0.992,0.795,1.962,1.635,2.874,2.547c5.612,5.612,7.64,18.294,8.22,27.143C426.984,296.247,414.303,294.218,408.692,288.606z"/>
<g>
</g>
<g>
</g>
<g>
</g>
<g>
</g>
<g>
</g>
<g>
</g>
<g>
</g>
<g>
</g>
<g>
</g>
<g>
</g>
<g>
</g>
<g>
</g>
<g>
</g>
<g>
</g>
<g>
</g>
</svg>
