<?xml version="1.0" encoding="iso-8859-1"?>
<!-- Generator: Adobe Illustrator 21.0.0, SVG Export Plug-In . SVG Version: 6.00 Build 0)  -->
<svg version="1.1" id="Capa_1" xmlns="http://www.w3.org/2000/svg" xmlns:xlink="http://www.w3.org/1999/xlink" x="0px" y="0px"
	 viewBox="0 0 506.798 506.798" style="enable-background:new 0 0 506.798 506.798;" xml:space="preserve">
<path style="fill:#18191B;" d="M132.252,168.15c-45.342,0-82.23,36.219-82.23,80.738c0,21.048,8.447,41.304,23.325,56.321
	l-0.054,0.164l3.654,3.263c15.161,13.536,34.802,20.99,55.305,20.99c22.472,0,43.463-8.749,59.108-24.636l4.014-4.076l-0.117-0.202
	c12.425-14.524,19.225-32.708,19.225-51.823C214.482,204.369,177.594,168.15,132.252,168.15z M132.252,183.15
	c37.071,0,67.23,29.49,67.23,65.738c0,12.877-3.86,28.369-12.66,38.184c-3.742-1.856-7.155-6.866-10.681-9.551
	c-4.003-3.048-8.343-5.651-12.909-7.764c-9.356-4.329-19.684-6.6-30.002-6.372c-19.178,0.426-42.54,10.299-52.827,27.36
	c-9.708-11.815-15.382-26.497-15.382-41.858C65.021,212.64,95.181,183.15,132.252,183.15z M91.417,301.112
	c0.039-0.059,0.073-0.122,0.112-0.18c8.91-13.355,24.821-21.752,40.761-22.493c16.104-0.748,32.723,6.285,42.933,18.854
	c0.26,0.319,0.524,0.635,0.775,0.961c0.083,0.108,0.159,0.223,0.242,0.332c-12.212,10.384-27.617,16.041-43.988,16.041
	C117.396,314.625,103.103,309.862,91.417,301.112z"/>
<path style="fill:#18191B;" d="M133.599,254.906c13.792,0,25.012-13.32,25.012-29.693s-11.22-29.693-25.012-29.693
	s-25.012,13.32-25.012,29.693S119.807,254.906,133.599,254.906z M133.599,210.52c5.427,0,10.012,6.729,10.012,14.693
	s-4.585,14.693-10.012,14.693s-10.012-6.729-10.012-14.693S128.172,210.52,133.599,210.52z"/>
<path style="fill:#18191B;" d="M402.667,39.142c-35.455,0-64.299,28.335-64.299,63.165c0,16.103,6.329,31.6,17.485,43.264
	l-0.074,0.227l3.654,3.263c11.853,10.583,27.207,16.411,43.233,16.411c17.566,0,33.976-6.84,46.207-19.262l4.014-4.076l-0.139-0.24
	c9.202-11.199,14.217-25.05,14.217-39.586C466.966,67.478,438.122,39.142,402.667,39.142z M402.667,54.142
	c27.183,0,49.298,21.606,49.298,48.165c0,9.226-2.708,18.757-8.048,26.335c-11.851-10.416-24.888-17.694-41.341-17.083
	c-13.76,0.51-31.714,7.357-39.195,19.666c-6.825-7.411-10.013-19.038-10.013-28.918C353.369,75.749,375.484,54.142,402.667,54.142z
	 M374.128,141.582c0.108-0.148,0.212-0.299,0.323-0.445c6.433-8.475,16.878-13.782,27.444-14.517
	c10.778-0.75,21.961,3.245,29.613,10.919c0.355,0.356,0.706,0.716,1.046,1.087c0.188,0.205,0.371,0.415,0.554,0.624
	c0.162,0.185,0.317,0.377,0.475,0.566c-8.73,6.909-19.501,10.655-30.916,10.655C392.361,150.471,382.426,147.348,374.128,141.582z"
	/>
<path style="fill:#18191B;" d="M403.691,108.681c11.475,0,20.81-10.931,20.81-24.368s-9.335-24.368-20.81-24.368
	c-11.475,0-20.811,10.932-20.811,24.368S392.216,108.681,403.691,108.681z M403.691,74.945c2.743,0,5.81,4.006,5.81,9.368
	c0,5.361-3.067,9.368-5.81,9.368s-5.811-4.006-5.811-9.368C397.881,78.951,400.949,74.945,403.691,74.945z"/>
<path style="fill:#18191B;" d="M264.078,41.113c-29.832,0-58.853,7.746-84.522,22.433l3.424-14.138
	c0.975-4.026-1.498-8.08-5.523-9.055c-4.028-0.979-8.08,1.499-9.055,5.523l-8.118,33.516c-0.509,2.102-0.086,4.322,1.161,6.089
	c1.247,1.768,3.196,2.911,5.347,3.136l30.111,3.155c0.266,0.028,0.529,0.042,0.791,0.042c3.791,0,7.046-2.865,7.45-6.719
	c0.432-4.12-2.558-7.809-6.677-8.241l-10.119-1.06c23.068-12.894,49.043-19.681,75.73-19.681c4.142,0,7.5-3.358,7.5-7.5
	S268.22,41.113,264.078,41.113z"/>
<path style="fill:#18191B;" d="M132.252,120.407c-18.93,0-37.272,4.182-54.519,12.429c-3.737,1.787-5.318,6.265-3.531,10.001
	c1.787,3.737,6.265,5.317,10.001,3.531c15.21-7.273,31.376-10.961,48.048-10.961c63.534,0,117.209,55.507,117.209,121.21
	c0,27.009-21.718,75.777-39.937,111.932c-22.036,43.73-48.148,87.788-66.173,117.047c-2.428,3.941-6.474,6.202-11.1,6.202
	c-4.626,0-8.672-2.26-11.1-6.202c-18.025-29.259-44.137-73.317-66.173-117.047c-18.219-36.155-39.937-84.923-39.937-111.932
	c0-35.942,16.684-71.267,44.63-94.494c3.186-2.648,3.622-7.376,0.974-10.562c-2.648-3.186-7.377-3.621-10.562-0.974
	C18.75,176.63,0.042,216.268,0.042,256.617c0,24.05,13.977,63.98,41.542,118.682c22.274,44.203,48.619,88.657,66.797,118.165
	c5.144,8.35,14.068,13.334,23.871,13.334c9.804,0,18.728-4.985,23.872-13.334c18.178-29.508,44.522-73.961,66.797-118.165
	c27.565-54.702,41.542-94.632,41.542-118.682c0-34.985-14.073-69.746-38.609-95.371
	C200.634,134.911,167.393,120.407,132.252,120.407z"/>
<path style="fill:#18191B;" d="M476.383,32.152C456.529,11.418,430.35,0,402.667,0c-27.683,0-53.862,11.418-73.716,32.152
	c-19.302,20.158-30.373,47.507-30.373,75.035c0,41.513,52.729,133.306,84.16,184.327c4.294,6.971,11.744,11.132,19.928,11.132
	c8.185,0,15.634-4.161,19.929-11.132c8.405-13.644,21.113-34.766,33.919-57.904c2.006-3.624,0.694-8.188-2.93-10.194
	c-3.625-2.006-8.188-0.694-10.194,2.93c-12.667,22.885-25.245,43.792-33.567,57.3c-1.565,2.542-4.174,3.999-7.157,3.999
	c-2.982,0-5.591-1.458-7.157-3.999c-73.948-120.038-81.932-163.392-81.932-176.46c0-49.971,40.798-92.187,89.089-92.187
	s89.088,42.216,89.088,92.187c0,11.915-5.834,37.476-33.626,91.584c-1.893,3.685-0.44,8.206,3.245,10.098
	c3.686,1.894,8.206,0.439,10.098-3.245c23.413-45.581,35.284-78.7,35.284-98.438C506.756,79.659,495.685,52.31,476.383,32.152z"/>
<path style="fill:#18191B;" d="M369.985,336.92l-29.949-4.444c-4.099-0.607-7.912,2.221-8.52,6.318
	c-0.608,4.097,2.221,7.912,6.318,8.52l11.654,1.729c-20.12,15.744-43.859,26.342-68.922,30.705c-4.081,0.71-6.813,4.594-6.102,8.675
	c0.635,3.646,3.802,6.215,7.38,6.215c0.427,0,0.86-0.037,1.295-0.113c26.222-4.566,51.115-15.355,72.501-31.318l-3.512,12.19
	c-1.147,3.98,1.15,8.137,5.13,9.283c0.694,0.2,1.393,0.295,2.08,0.295c3.257,0,6.256-2.139,7.203-5.425l9.548-33.136
	c0.599-2.078,0.271-4.314-0.898-6.133C374.023,338.463,372.125,337.238,369.985,336.92z"/>
<g>
</g>
<g>
</g>
<g>
</g>
<g>
</g>
<g>
</g>
<g>
</g>
<g>
</g>
<g>
</g>
<g>
</g>
<g>
</g>
<g>
</g>
<g>
</g>
<g>
</g>
<g>
</g>
<g>
</g>
</svg>
