<?xml version="1.0" encoding="iso-8859-1"?>
<!-- Generator: Adobe Illustrator 21.0.0, SVG Export Plug-In . SVG Version: 6.00 Build 0)  -->
<svg version="1.1" id="Capa_1" xmlns="http://www.w3.org/2000/svg" xmlns:xlink="http://www.w3.org/1999/xlink" x="0px" y="0px"
	 viewBox="0 0 505.165 505.165" style="enable-background:new 0 0 505.165 505.165;" xml:space="preserve">
<path style="fill:#18191B;" d="M119.043,179.929c19.602,0,34.956-20.661,34.956-47.037c0-26.375-15.354-47.037-34.956-47.037
	s-34.957,20.661-34.957,47.037C84.086,159.268,99.441,179.929,119.043,179.929z M119.043,100.855
	c10.817,0,19.956,14.671,19.956,32.037s-9.139,32.037-19.956,32.037s-19.957-14.671-19.957-32.037S108.226,100.855,119.043,100.855z
	"/>
<path style="fill:#18191B;" d="M386.122,179.929c19.602,0,34.956-20.661,34.956-47.037c0-26.375-15.354-47.037-34.956-47.037
	s-34.956,20.661-34.956,47.037C351.166,159.268,366.52,179.929,386.122,179.929z M386.122,100.855
	c10.817,0,19.956,14.671,19.956,32.037s-9.139,32.037-19.956,32.037s-19.956-14.671-19.956-32.037S375.305,100.855,386.122,100.855z
	"/>
<path style="fill:#18191B;" d="M502.849,428.814c-6.559-6.271-14.685-10.027-23.126-11.307c-0.459-0.658-1.026-1.256-1.709-1.757
	l-64.359-47.195l5.336-23.456c10.068-8.463,15.559-21.179,13.728-33.36v-25.59c0-4.142-3.357-7.5-7.5-7.5s-7.5,3.358-7.5,7.5v18.638
	h-62.784v-64.393c0-1.989-0.79-3.897-2.196-5.303l-82.528-82.528c5.809-3.673,10.488-8.82,13.613-14.827l72.804,72.804
	c2.714,2.713,7.038,2.942,10.023,0.526c5.653-4.578,12.458-6.998,19.676-6.998c17.31,0,31.393,14.083,31.393,31.392v20.688
	c0,4.142,3.357,7.5,7.5,7.5s7.5-3.358,7.5-7.5v-20.688c0-25.581-20.812-46.392-46.393-46.392c-8.266,0-16.408,2.258-23.509,6.448
	l-74.194-74.195c-0.149-0.149-0.306-0.286-0.464-0.42c0.009-0.399,0.017-0.799,0.014-1.201
	c-0.129-16.21-10.493-30.695-25.791-36.042c-3.663-1.28-7.681-0.936-11.074,0.874c-3.566-2.026-7.859-2.405-11.711-0.954
	c-15.165,5.717-25.175,20.448-24.911,36.657c0.015,0.938,0.069,1.87,0.151,2.794l-72.488,72.487
	c-7.101-4.19-15.243-6.448-23.509-6.448c-25.581,0-46.392,20.812-46.392,46.392v20.688c0,4.142,3.358,7.5,7.5,7.5s7.5-3.358,7.5-7.5
	v-20.688c0-17.31,14.083-31.392,31.392-31.392c7.218,0,14.022,2.42,19.676,6.998c2.984,2.416,7.308,2.188,10.022-0.526
	l71.457-71.457c3.423,5.824,8.35,10.723,14.345,14.095l-81.913,81.913c-1.407,1.406-2.197,3.314-2.197,5.303v64.393H87.447V286.15
	c0-4.142-3.358-7.5-7.5-7.5s-7.5,3.358-7.5,7.5v26.138c0,0.395,0.04,0.78,0.098,1.158c-0.022,0.144-0.05,0.285-0.064,0.432
	c-1.111,11.527,4.278,23.254,13.69,31.205l5.34,23.472L27.153,415.75c-0.683,0.501-1.25,1.099-1.71,1.757
	c-8.442,1.279-16.568,5.036-23.126,11.307c-1.459,1.395-2.294,3.319-2.316,5.337s0.769,3.96,2.196,5.387l50.14,50.141
	c1.407,1.407,3.315,2.197,5.303,2.197c0.028,0,0.056,0,0.084,0c2.018-0.022,3.942-0.857,5.336-2.316
	c10.862-11.359,14.206-27.413,10.125-41.679l61.649-45.209c6.922-5.076,10.979-13.231,10.851-21.813l-0.04-2.743l19.605,10.581
	l9.906,64.762c0,0.172,0.003,0.342,0.007,0.499c0.089,3.375,0.899,6.641,2.344,9.638c-5.294,6.967-8.531,15.568-8.74,24.869
	c-0.045,2.018,0.725,3.969,2.136,5.412s3.344,2.256,5.362,2.256h152.634c2.019,0,3.951-0.813,5.362-2.256
	c1.411-1.443,2.181-3.394,2.136-5.412c-0.199-8.884-3.165-17.126-8.043-23.92c0.181-0.483,0.319-0.988,0.399-1.519l11.169-74.333
	l19.598-10.577l-0.04,2.742c-0.128,8.582,3.929,16.737,10.851,21.813l61.65,45.209c-4.081,14.266-0.737,30.319,10.124,41.678
	c1.395,1.459,3.318,2.294,5.337,2.316c0.028,0,0.056,0,0.084,0c1.988,0,3.896-0.79,5.304-2.197l50.141-50.141
	c1.427-1.427,2.219-3.369,2.196-5.387C505.142,432.133,504.307,430.209,502.849,428.814z M273.172,119.822
	c0.074,9.375-5.474,17.892-13.952,21.663l-0.34-43.104C267.417,102.017,273.098,110.446,273.172,119.822z M243.452,98.213
	l0.703,43.099c-8.567-3.565-14.319-11.946-14.472-21.319C229.53,110.618,235.005,102.054,243.452,98.213z M56.746,472.875
	L19,435.129c10.559-5.497,24-3.813,32.781,4.965C60.561,448.874,62.244,462.317,56.746,472.875z M130.687,381.08
	c0.056,3.736-1.71,7.285-4.723,9.495l-59.505,43.637c-1.225-1.651-2.579-3.232-4.071-4.724c-4.449-4.449-9.681-7.702-15.273-9.774
	l57.238-41.973c2.41-1.768,3.541-4.798,2.878-7.712l-3.279-14.415l26.573,14.342L130.687,381.08z M102.26,337.656
	c-0.136-0.073-0.274-0.143-0.415-0.208c-1.353-0.625-2.628-1.372-3.833-2.198c-0.431-0.406-0.912-0.752-1.424-1.045
	c-4.803-3.783-8.1-9.044-8.994-14.417h61.96l52.589,48.38c0.033,0.031,0.066,0.061,0.1,0.091l1.584,1.405
	c1.525,1.353,2.435,3.303,2.494,5.294l1.6,71.684c-6.418,0.576-12.457,2.592-17.783,5.726c-0.014-0.196-0.034-0.392-0.064-0.586
	l-10.132-66.238c0.614-3.176-0.889-6.444-3.803-8.017L102.26,337.656z M185.03,481.132c3.578-11.353,14.273-19.668,26.69-19.668
	s23.112,8.315,26.69,19.668H185.03z M252.582,476.251c-4.476-13.689-15.706-24.428-29.628-28.26l-1.639-73.422
	c-0.183-6.162-2.929-12.04-7.534-16.125l-1.533-1.36l-47.156-43.381c0.087-0.458,0.137-0.93,0.137-1.414v-68.786l86.746-86.746
	c0.22-0.22,0.418-0.454,0.605-0.693c0.187,0.239,0.385,0.473,0.605,0.693l86.746,86.746v68.786c0,0.341,0.031,0.675,0.075,1.004
	l-47.107,43.805l-1.518,1.346c-4.604,4.084-7.352,9.961-7.537,16.181l-1.637,73.367
	C268.288,451.823,257.059,462.562,252.582,476.251z M266.755,481.132c3.577-11.353,14.273-19.668,26.689-19.668
	s23.112,8.315,26.69,19.668H266.755z M329.025,377.528c-2.917,1.574-4.42,4.849-3.801,8.029l-10.052,66.896
	c-5.362-3.183-11.454-5.228-17.929-5.81l1.598-71.627c0.061-2.048,0.971-3.999,2.496-5.352l1.584-1.405
	c0.044-0.039,0.087-0.078,0.13-0.118l51.998-48.353h62.692c-1.333,7.166-6.781,14.126-14.423,17.66
	c-0.141,0.065-0.278,0.134-0.415,0.208l-39.218,21.166c-0.013,0.007-0.026,0.014-0.04,0.021L329.025,377.528z M379.201,390.575
	c-3.014-2.21-4.779-5.759-4.724-9.496l0.164-11.124l26.573-14.341l-3.279,14.415c-0.663,2.914,0.468,5.944,2.878,7.712
	l57.238,41.973c-5.592,2.072-10.825,5.325-15.274,9.774c-1.491,1.492-2.846,3.073-4.071,4.724L379.201,390.575z M448.419,472.875
	c-5.498-10.558-3.815-24,4.964-32.78c5.412-5.411,12.594-8.126,19.781-8.126c4.474,0,8.949,1.052,13,3.162L448.419,472.875z"/>
<path style="fill:#18191B;" d="M170.971,83.746c1.464,1.465,3.384,2.197,5.303,2.197s3.839-0.732,5.303-2.197l3.806-3.806
	l3.806,3.806c1.464,1.465,3.384,2.197,5.303,2.197s3.839-0.732,5.303-2.197c2.929-2.929,2.929-7.678,0-10.606l-3.806-3.806
	l3.806-3.806c2.929-2.929,2.929-7.677,0-10.606c-2.928-2.929-7.677-2.929-10.606,0l-3.806,3.806l-3.806-3.806
	c-2.929-2.93-7.678-2.929-10.606,0c-2.929,2.929-2.929,7.678,0,10.606l3.806,3.806l-3.806,3.806
	C168.041,76.068,168.041,80.817,170.971,83.746z"/>
<path style="fill:#18191B;" d="M279.031,40.055c1.465,1.464,3.385,2.197,5.304,2.197s3.839-0.732,5.304-2.197l3.806-3.806
	l3.806,3.806c1.465,1.464,3.385,2.197,5.304,2.197s3.839-0.732,5.304-2.197c2.929-2.929,2.929-7.678,0-10.606l-3.806-3.806
	l3.806-3.806c2.929-2.929,2.929-7.678,0-10.606c-2.93-2.929-7.678-2.929-10.607,0l-3.806,3.806l-3.806-3.806
	c-2.93-2.929-7.678-2.929-10.607,0c-2.929,2.929-2.929,7.678,0,10.606l3.806,3.806l-3.806,3.806
	C276.103,32.378,276.103,37.127,279.031,40.055z"/>
<path style="fill:#18191B;" d="M262.401,221.041l3.806-3.806c2.929-2.929,2.929-7.678,0-10.606c-2.93-2.929-7.678-2.929-10.607,0
	l-3.806,3.806l-3.806-3.806c-2.929-2.929-7.678-2.929-10.606,0c-2.929,2.929-2.929,7.678,0,10.606l3.806,3.806l-3.806,3.806
	c-2.929,2.929-2.929,7.678,0,10.606c1.464,1.464,3.384,2.197,5.303,2.197s3.839-0.732,5.303-2.197l3.806-3.806l3.806,3.806
	c1.465,1.464,3.385,2.197,5.304,2.197s3.839-0.732,5.304-2.197c2.929-2.929,2.929-7.678,0-10.606L262.401,221.041z"/>
<g>
</g>
<g>
</g>
<g>
</g>
<g>
</g>
<g>
</g>
<g>
</g>
<g>
</g>
<g>
</g>
<g>
</g>
<g>
</g>
<g>
</g>
<g>
</g>
<g>
</g>
<g>
</g>
<g>
</g>
</svg>
