<?xml version="1.0" encoding="iso-8859-1"?>
<!-- Generator: Adobe Illustrator 21.0.0, SVG Export Plug-In . SVG Version: 6.00 Build 0)  -->
<svg version="1.1" id="Capa_1" xmlns="http://www.w3.org/2000/svg" xmlns:xlink="http://www.w3.org/1999/xlink" x="0px" y="0px"
	 viewBox="0 0 503.803 503.803" style="enable-background:new 0 0 503.803 503.803;" xml:space="preserve">
<g>
	<path style="fill:#18191B;" d="M274.057,52.671c0-14.682-10.135-26.626-22.593-26.626s-22.593,11.945-22.593,26.626
		s10.135,26.626,22.593,26.626S274.057,67.353,274.057,52.671z M243.871,52.671c0-6.852,4.002-11.626,7.593-11.626
		s7.593,4.775,7.593,11.626s-4.002,11.626-7.593,11.626S243.871,59.523,243.871,52.671z"/>
	<path style="fill:#18191B;" d="M201.948,125.34L201.948,125.34L201.948,125.34c13.257,11.835,30.43,18.354,48.354,18.354
		c19.646,0,38.001-7.65,51.68-21.541c13.042-13.244,20.225-30.674,20.225-49.077c0-38.939-32.256-70.619-71.904-70.619
		c-18.181,0-35.534,6.68-48.862,18.809c-3.063,2.788-3.287,7.531-0.499,10.595c2.787,3.064,7.53,3.286,10.595,0.499
		c10.561-9.61,24.328-14.903,38.767-14.903c31.377,0,56.904,24.95,56.904,55.619c0,11.424-3.537,22.379-10.095,31.617
		c-10.898-12.613-27.229-20.136-44.674-20.136c-18.684,0-36.065,8.612-46.888,22.861c-7.804-9.732-12.153-21.84-12.153-34.342
		c0-6.485,1.13-12.835,3.357-18.874c1.434-3.886-0.554-8.198-4.44-9.632c-3.883-1.433-8.198,0.554-9.632,4.44
		c-2.844,7.706-4.285,15.803-4.285,24.065C178.397,92.927,186.981,111.977,201.948,125.34z M252.438,99.556
		c13.627,0,26.295,6.085,34.344,16.185c-10.214,8.388-22.954,12.953-36.48,12.953c-12.24,0-24.022-3.828-33.764-10.859
		C224.446,106.487,237.884,99.556,252.438,99.556z"/>
	<path style="fill:#18191B;" d="M228.871,410.324c0,14.682,10.135,26.626,22.593,26.626s22.593-11.945,22.593-26.626
		s-10.135-26.626-22.593-26.626S228.871,395.642,228.871,410.324z M259.057,410.324c0,6.852-4.002,11.626-7.593,11.626
		s-7.593-4.775-7.593-11.626s4.002-11.626,7.593-11.626S259.057,403.473,259.057,410.324z"/>
	<path style="fill:#18191B;" d="M306.153,398.395c-3.775,1.703-5.456,6.144-3.753,9.92c3.189,7.071,4.807,14.612,4.807,22.413
		c0,11.424-3.537,22.379-10.095,31.617c-10.898-12.613-27.229-20.136-44.674-20.136c-18.684,0-36.065,8.612-46.888,22.861
		c-7.804-9.732-12.153-21.84-12.153-34.342c0-30.668,25.527-55.619,56.905-55.619c13.198,0,25.581,4.285,35.81,12.391
		c3.245,2.573,7.963,2.027,10.536-1.219c2.572-3.246,2.026-7.964-1.22-10.536c-12.723-10.083-28.748-15.635-45.126-15.635
		c-39.648,0-71.905,31.679-71.905,70.619c0,19.852,8.584,38.902,23.551,52.265l0,0l0,0c13.257,11.835,30.43,18.353,48.354,18.353
		c19.646,0,38.001-7.65,51.68-21.541c13.042-13.244,20.225-30.674,20.225-49.077c0-9.941-2.063-19.557-6.133-28.58
		C314.37,398.372,309.928,396.692,306.153,398.395z M216.539,475.487c7.907-11.347,21.345-18.278,35.9-18.278
		c13.627,0,26.295,6.085,34.344,16.185c-10.214,8.388-22.954,12.953-36.48,12.953C238.063,486.347,226.28,482.519,216.539,475.487z"
		/>
	<path style="fill:#18191B;" d="M73.065,203.323c-12.458,0-22.593,11.945-22.593,26.627c0,14.682,10.135,26.626,22.593,26.626
		s22.593-11.945,22.593-26.626C95.658,215.268,85.523,203.323,73.065,203.323z M73.065,241.576c-3.591,0-7.593-4.775-7.593-11.626
		c0-6.852,4.002-11.627,7.593-11.627s7.593,4.775,7.593,11.627C80.658,236.802,76.656,241.576,73.065,241.576z"/>
	<path style="fill:#18191B;" d="M71.904,179.735C32.256,179.735,0,211.414,0,250.354c0,19.853,8.584,38.903,23.551,52.265
		c0.002,0.002,0.004,0.003,0.006,0.005c13.255,11.832,30.424,18.348,48.347,18.348c19.646,0,37.997-7.649,51.676-21.538
		c0.001-0.001,0.003-0.002,0.004-0.004c13.043-13.245,20.226-30.674,20.226-49.077C143.81,211.414,111.553,179.735,71.904,179.735z
		 M38.141,295.113c7.908-11.347,21.346-18.278,35.899-18.278c13.627,0,26.295,6.085,34.344,16.185
		c-10.214,8.388-22.954,12.952-36.48,12.952C59.664,305.972,47.882,302.145,38.141,295.113z M118.714,281.97
		c-10.898-12.613-27.229-20.135-44.674-20.135c-18.682,0-36.063,8.61-46.887,22.861C19.35,274.965,15,262.856,15,250.354
		c0-30.668,25.527-55.619,56.904-55.619c31.378,0,56.905,24.95,56.905,55.619C128.81,261.778,125.273,272.732,118.714,281.97z"/>
	<path style="fill:#18191B;" d="M433.06,256.576c12.458,0,22.593-11.945,22.593-26.626c0-14.682-10.135-26.627-22.593-26.627
		s-22.593,11.945-22.593,26.627C410.467,244.632,420.602,256.576,433.06,256.576z M433.06,218.323c3.591,0,7.593,4.775,7.593,11.627
		c0,6.852-4.002,11.626-7.593,11.626s-7.593-4.775-7.593-11.626C425.467,223.098,429.469,218.323,433.06,218.323z"/>
	<path style="fill:#18191B;" d="M503.803,250.354c0-38.939-32.256-70.619-71.904-70.619s-71.905,31.679-71.905,70.619
		c0,19.852,8.584,38.902,23.551,52.265l0,0l0,0c13.257,11.835,30.43,18.353,48.354,18.353c19.643,0,37.993-7.648,51.671-21.534
		c0.002-0.003,0.005-0.005,0.008-0.007C496.62,286.187,503.803,268.758,503.803,250.354z M374.993,250.354
		c0-30.668,25.527-55.619,56.905-55.619c31.377,0,56.904,24.95,56.904,55.619c0,11.424-3.537,22.38-10.095,31.617
		c-10.898-12.613-27.229-20.135-44.674-20.135c-18.684,0-36.066,8.612-46.888,22.861
		C379.343,274.964,374.993,262.856,374.993,250.354z M398.135,295.113c7.907-11.347,21.345-18.278,35.9-18.278
		c13.627,0,26.295,6.085,34.343,16.185c-10.214,8.388-22.954,12.952-36.479,12.952C419.659,305.972,407.876,302.145,398.135,295.113
		z"/>
	<path style="fill:#18191B;" d="M96.971,135.171c1.391,1.12,3.051,1.67,4.711,1.67c2.189,0,4.359-0.95,5.84-2.79
		c2.6-3.22,2.1-7.94-1.12-10.54c-3.22-2.61-7.94-2.11-10.55,1.11C93.251,127.841,93.751,132.561,96.971,135.171z"/>
	<path style="fill:#18191B;" d="M124.551,113.091c1.75,0,3.5-0.6,4.931-1.85c3.12-2.72,3.439-7.46,0.71-10.58
		c-2.721-3.12-7.46-3.44-10.58-0.71c-3.12,2.72-3.44,7.46-0.72,10.58C120.381,112.231,122.461,113.091,124.551,113.091z"/>
	<path style="fill:#18191B;" d="M79.631,163.231c1.15,0.64,2.4,0.94,3.63,0.94c2.641,0,5.2-1.4,6.57-3.87
		c2-3.62,0.69-8.19-2.93-10.19c-3.62-2.01-8.19-0.7-10.19,2.92C74.701,156.651,76.011,161.221,79.631,163.231z"/>
	<path style="fill:#18191B;" d="M155.041,92.571c3.54-2.15,4.68-6.76,2.53-10.3c-2.14-3.54-6.75-4.68-10.3-2.53
		c-3.54,2.14-4.681,6.75-2.53,10.3c1.41,2.32,3.88,3.61,6.42,3.61C152.481,93.651,153.821,93.301,155.041,92.571z"/>
	<path style="fill:#18191B;" d="M368.031,110.101c1.38,1.12,3.05,1.66,4.71,1.66c2.18,0,4.35-0.95,5.83-2.78
		c2.61-3.22,2.11-7.94-1.11-10.55c-3.22-2.6-7.95-2.1-10.55,1.12C364.301,102.771,364.801,107.491,368.031,110.101z"/>
	<path style="fill:#18191B;" d="M415.941,161.241c1.319,0,2.66-0.35,3.87-1.09c3.54-2.14,4.68-6.75,2.529-10.3
		c-2.14-3.54-6.75-4.68-10.3-2.53c-3.54,2.14-4.67,6.75-2.53,10.3C410.921,159.951,413.401,161.241,415.941,161.241z"/>
	<path style="fill:#18191B;" d="M396.491,134.621c1.75,0,3.51-0.6,4.93-1.85c3.12-2.72,3.44-7.46,0.71-10.58
		c-2.72-3.12-7.46-3.44-10.58-0.72c-3.119,2.73-3.439,7.47-0.72,10.59C392.321,133.751,394.401,134.621,396.491,134.621z"/>
	<path style="fill:#18191B;" d="M345.401,93.351c2.64,0,5.2-1.4,6.569-3.87c2.011-3.62,0.7-8.19-2.92-10.19
		c-3.63-2.01-8.189-0.7-10.199,2.92c-2.011,3.62-0.7,8.19,2.93,10.2C342.932,93.041,344.171,93.351,345.401,93.351z"/>
	<path style="fill:#18191B;" d="M402.531,369.491c-3.22-2.6-7.94-2.1-10.55,1.12c-2.601,3.22-2.101,7.94,1.12,10.54
		c1.39,1.13,3.05,1.67,4.71,1.67c2.189,0,4.359-0.95,5.84-2.78C406.251,376.821,405.751,372.091,402.531,369.491z"/>
	<path style="fill:#18191B;" d="M419.871,341.431c-3.62-2.01-8.189-0.7-10.2,2.92c-2,3.63-0.689,8.19,2.931,10.2
		c1.149,0.64,2.399,0.94,3.63,0.94c2.64,0,5.2-1.39,6.569-3.86c-0.01,0-0.01,0-0.01,0
		C424.801,348.001,423.491,343.441,419.871,341.431z"/>
	<path style="fill:#18191B;" d="M370.021,393.411c-3.12,2.73-3.44,7.47-0.721,10.59c1.49,1.69,3.57,2.56,5.66,2.56
		c1.75,0,3.5-0.61,4.931-1.85c3.119-2.72,3.439-7.46,0.71-10.58C377.881,391.011,373.142,390.691,370.021,393.411z"/>
	<path style="fill:#18191B;" d="M344.461,412.091c-3.54,2.14-4.68,6.75-2.529,10.3c1.409,2.33,3.88,3.62,6.42,3.62
		c1.319,0,2.659-0.35,3.88-1.09c3.54-2.14,4.67-6.75,2.529-10.3C352.621,411.081,348.011,409.941,344.461,412.091z"/>
	<path style="fill:#18191B;" d="M98.081,371.881c-3.12,2.73-3.439,7.47-0.71,10.59c1.48,1.69,3.561,2.56,5.65,2.56
		c1.75,0,3.51-0.61,4.93-1.85c3.12-2.72,3.44-7.46,0.72-10.58C105.941,369.481,101.201,369.161,98.081,371.881z"/>
	<path style="fill:#18191B;" d="M131.471,394.561c-3.22-2.6-7.939-2.1-10.55,1.12c-2.6,3.22-2.1,7.94,1.12,10.55
		c1.391,1.12,3.061,1.66,4.71,1.66c2.19,0,4.36-0.95,5.84-2.78C135.191,401.891,134.691,397.161,131.471,394.561z"/>
	<path style="fill:#18191B;" d="M79.691,344.511c-3.55,2.14-4.681,6.75-2.54,10.3c0.01,0,0.01,0,0.01,0
		c1.4,2.33,3.88,3.61,6.42,3.61c1.32,0,2.66-0.35,3.87-1.08c3.55-2.14,4.68-6.76,2.54-10.3
		C87.841,343.501,83.231,342.361,79.691,344.511z"/>
	<path style="fill:#18191B;" d="M157.721,412.251c-3.619-2.01-8.18-0.7-10.189,2.93c-2.01,3.62-0.7,8.19,2.92,10.19
		c1.15,0.64,2.4,0.94,3.63,0.94c2.64,0.01,5.2-1.39,6.57-3.86C162.661,418.821,161.352,414.261,157.721,412.251z"/>
	<path style="fill:#18191B;" d="M312.652,198.438h-19.57v-2.569c0-4.142-3.357-7.5-7.5-7.5h-72.529c-4.143,0-7.5,3.358-7.5,7.5
		v2.569h-18.681c-5.936,0-10.764,4.828-10.764,10.763v13.318c0,18.898,14.306,34.511,32.655,36.598
		c5.516,13.569,17.646,23.761,32.369,26.559V298.5c-13.159,3.349-22.922,15.297-22.922,29.484v0.637c0,4.142,3.357,7.5,7.5,7.5
		h45.845c4.143,0,7.5-3.358,7.5-7.5v-0.637c0-14.187-9.763-26.135-22.923-29.484v-12.578c15.306-2.404,27.997-12.771,33.702-26.712
		c18.792-1.657,33.581-17.475,33.581-36.691v-13.318C323.416,203.266,318.588,198.438,312.652,198.438z M191.108,222.519v-9.081
		h14.444v29.253c0,0.128,0.009,0.254,0.01,0.382C197.144,240.037,191.108,231.97,191.108,222.519z M262.442,321.121h-27.618
		c2.529-5.069,7.769-8.559,13.809-8.559S259.913,316.052,262.442,321.121z M249.317,271.455c-15.861,0-28.765-12.904-28.765-28.765
		v-39.322h57.529v15.181h-32.309c-4.143,0-7.5,3.358-7.5,7.5s3.357,7.5,7.5,7.5h32.309v9.141
		C278.082,258.551,265.179,271.455,249.317,271.455z M308.416,222.519c0,9.785-6.467,18.088-15.351,20.858
		c0.003-0.229,0.017-0.456,0.017-0.687v-29.253h15.334V222.519z"/>
</g>
<g>
</g>
<g>
</g>
<g>
</g>
<g>
</g>
<g>
</g>
<g>
</g>
<g>
</g>
<g>
</g>
<g>
</g>
<g>
</g>
<g>
</g>
<g>
</g>
<g>
</g>
<g>
</g>
<g>
</g>
</svg>
