<?xml version="1.0" encoding="iso-8859-1"?>
<!-- Generator: Adobe Illustrator 21.0.0, SVG Export Plug-In . SVG Version: 6.00 Build 0)  -->
<svg version="1.1" id="Capa_1" xmlns="http://www.w3.org/2000/svg" xmlns:xlink="http://www.w3.org/1999/xlink" x="0px" y="0px"
	 viewBox="0 0 505.886 505.886" style="enable-background:new 0 0 505.886 505.886;" xml:space="preserve">
<path style="fill:#18191B;" d="M186.386,170.39c13.693,0,25.987,7.624,32.086,19.896c1.843,3.708,6.344,5.222,10.055,3.378
	c3.709-1.843,5.222-6.345,3.379-10.054c-8.65-17.407-26.093-28.22-45.52-28.22c-28.014,0-50.804,22.791-50.804,50.804
	s22.79,50.804,50.804,50.804c19.783,0,37.908-11.617,46.177-29.596c1.731-3.763,0.084-8.217-3.68-9.948
	c-3.766-1.73-8.217-0.083-9.947,3.68c-5.829,12.674-18.605,20.864-32.55,20.864c-19.742,0-35.804-16.062-35.804-35.804
	S166.644,170.39,186.386,170.39z"/>
<path style="fill:#18191B;" d="M498.386,197.354h-20.463l6.92-7.296c2.851-3.005,2.726-7.752-0.28-10.603
	c-3.004-2.851-7.752-2.726-10.603,0.28l-16.71,17.618h-84.694c-4.632-98.684-86.361-177.545-186.17-177.545
	c-35.209,0-69.497,9.868-99.156,28.537c-3.506,2.207-4.559,6.837-2.353,10.342c2.207,3.505,6.838,4.56,10.343,2.352
	c27.264-17.16,58.788-26.231,91.166-26.231c91.537,0,166.543,72.135,171.159,162.545h-23.552
	c-4.589-77.44-69.035-139.039-147.607-139.039c-81.541,0-147.88,66.338-147.88,147.879s66.339,147.879,147.88,147.879
	c79.477,0,144.499-63.025,147.741-141.72h23.521c-3.256,91.659-78.823,165.226-171.262,165.226
	C91.884,377.579,15,300.696,15,206.194c0-50.261,21.954-97.812,60.234-130.458c3.151-2.688,3.527-7.422,0.839-10.573
	c-2.687-3.152-7.421-3.527-10.573-0.84C23.874,99.824,0,151.534,0,206.194c0,68.79,37.463,128.989,93.055,161.283l-35.209,91.829
	c-1.482,3.868,0.45,8.205,4.317,9.688l43.255,16.585c0.866,0.332,1.776,0.497,2.686,0.497c1.042,0,2.083-0.217,3.053-0.649
	c1.817-0.81,3.238-2.308,3.95-4.166l35.342-92.173c0.832,0.163,1.663,0.328,2.499,0.48v89.008c0,4.142,3.357,7.5,7.5,7.5h46.326
	c4.143,0,7.5-3.358,7.5-7.5v-88.084c0.436-0.066,0.87-0.137,1.305-0.205l34.881,90.975c0.712,1.857,2.133,3.355,3.95,4.166
	c0.97,0.432,2.011,0.649,3.053,0.649c0.909,0,1.819-0.166,2.686-0.497l43.256-16.585c3.867-1.483,5.8-5.82,4.317-9.688
	l-33.944-88.529c57.14-30.464,96.64-89.81,98.88-158.424h46.307l21.003,15.377c1.336,0.978,2.887,1.449,4.425,1.449
	c2.31,0,4.588-1.063,6.058-3.07c2.446-3.342,1.721-8.035-1.621-10.482l-4.473-3.275h54.03c4.143,0,7.5-3.358,7.5-7.5
	S502.528,197.354,498.386,197.354z M103.786,468.889l-29.25-11.215l31.88-83.145c9.369,4.469,19.165,8.182,29.313,11.052
	L103.786,468.889z M199.273,471.077h-31.326v-79.409c6.067,0.599,12.217,0.912,18.438,0.912c4.333,0,8.628-0.161,12.888-0.454
	V471.077z M291.031,457.674l-29.251,11.215l-31.285-81.597c10.265-2.5,20.199-5.851,29.725-9.977L291.031,457.674z M186.386,339.073
	c-73.271,0-132.88-59.609-132.88-132.879s59.609-132.879,132.88-132.879c70.298,0,128.012,54.876,132.578,124.039h-27.746
	c-4.505-53.89-49.798-96.367-104.832-96.367c-58.012,0-105.207,47.196-105.207,105.207s47.195,105.207,105.207,105.207
	c55.944,0,101.822-43.893,105.022-99.047h27.709C315.887,282.775,257.59,339.073,186.386,339.073z M188.702,212.354h87.676
	c-3.177,46.878-42.323,84.047-89.992,84.047c-49.74,0-90.207-40.467-90.207-90.207s40.467-90.207,90.207-90.207
	c46.758,0,85.317,35.76,89.773,81.367h-87.457c-4.143,0-7.5,3.358-7.5,7.5S184.56,212.354,188.702,212.354z"/>
<g>
</g>
<g>
</g>
<g>
</g>
<g>
</g>
<g>
</g>
<g>
</g>
<g>
</g>
<g>
</g>
<g>
</g>
<g>
</g>
<g>
</g>
<g>
</g>
<g>
</g>
<g>
</g>
<g>
</g>
</svg>
