<?xml version="1.0" encoding="iso-8859-1"?>
<!-- Generator: Adobe Illustrator 21.0.0, SVG Export Plug-In . SVG Version: 6.00 Build 0)  -->
<svg version="1.1" id="Capa_1" xmlns="http://www.w3.org/2000/svg" xmlns:xlink="http://www.w3.org/1999/xlink" x="0px" y="0px"
	 viewBox="0 0 486.338 486.338" style="enable-background:new 0 0 486.338 486.338;" xml:space="preserve">
<g>
	<g>
		<rect x="166.478" y="343.739" style="fill:#9A9999;" width="153.382" height="101.528"/>
	</g>
	<g>
		<rect x="289.86" y="343.739" style="fill:#696867;" width="30" height="101.528"/>
	</g>
	<g>
		<path style="fill:#FFF8F7;" d="M468.934,369.179H17.404c-9.298,0-16.905-7.607-16.905-16.905V34.291
			c0-9.298,7.607-16.905,16.905-16.905h451.529c9.298,0,16.905,7.607,16.905,16.905v317.984
			C485.838,361.572,478.231,369.179,468.934,369.179z"/>
		<path style="fill:#FFF4F1;" d="M468.934,369.679H17.404C7.808,369.679,0,361.871,0,352.274V34.29
			c0-9.597,7.808-17.405,17.404-17.405h451.529c9.597,0,17.404,7.808,17.404,17.405v317.984
			C486.338,361.871,478.53,369.679,468.934,369.679z"/>
	</g>
	<g>
		<path style="fill:#D0CFD1;" d="M485.838,57.319V34.127c0-9.207-7.325-16.741-16.278-16.741H16.778
			C7.825,17.386,0.5,24.919,0.5,34.127v23.193H485.838z"/>
	</g>
	<g>
		<path style="fill:#EEEBE8;" d="M468.934,17.386h-30c9.297,0,16.905,7.607,16.905,16.905v317.984
			c0,9.298-7.607,16.905-16.905,16.905h30c9.297,0,16.905-7.607,16.905-16.905V34.291C485.838,24.993,478.231,17.386,468.934,17.386
			z"/>
	</g>
	<g>
		<path style="fill:#B4B4B4;" d="M469.56,17.386h-30c8.953,0,16.279,7.533,16.279,16.741v23.193h30V34.127
			C485.838,24.919,478.513,17.386,469.56,17.386z"/>
	</g>
	<g>
		<path style="fill:#D0CFD1;" d="M0.5,318.493v33.638c0,9.651,6.988,17.548,15.53,17.548h454.279c8.541,0,15.53-7.897,15.53-17.548
			v-33.638H0.5z"/>
	</g>
	<g>
		<path style="fill:#B4B4B4;" d="M455.838,318.493v33.638c0,9.651-6.988,17.548-15.53,17.548h30c8.542,0,15.53-7.896,15.53-17.548
			v-33.638H455.838z"/>
	</g>
	<g>
		<path style="fill:#D0CFD1;" d="M349.189,469.452c11.982,0,19.78-12.728,14.214-23.339c-8.951-17.067-26.81-28.773-47.268-28.773
			H170.202c-20.458,0-38.316,11.706-47.268,28.773c-5.565,10.611,2.232,23.339,14.214,23.339H349.189z"/>
	</g>
	<path style="fill:#B4B4B4;" d="M363.403,446.113c-8.951-17.067-26.81-28.773-47.268-28.773h-30
		c20.458,0,38.316,11.706,47.268,28.773c5.565,10.611-2.232,23.339-14.214,23.339h30
		C361.171,469.452,368.969,456.724,363.403,446.113z"/>
	<g>
		<g>
			<path style="fill:#9DDBDF;" d="M189.139,136.859H55.483c-10.312,0-18.672,8.36-18.672,18.672v0
				c0,10.312,8.36,18.672,18.672,18.672h10.866l19.661,21.054l19.661-21.054h83.469c10.312,0,18.672-8.36,18.672-18.672v0
				C207.811,145.218,199.452,136.859,189.139,136.859z"/>
		</g>
		<g>
			<path style="fill:#7CD6E6;" d="M189.139,136.859h-30c10.312,0,18.672,8.36,18.672,18.672v0c0,10.312-8.36,18.672-18.672,18.672
				h30c10.312,0,18.672-8.36,18.672-18.672v0C207.811,145.218,199.452,136.859,189.139,136.859z"/>
		</g>
		<g>
			<path style="fill:#9DDBDF;" d="M189.139,223.32H55.483c-10.312,0-18.672,8.36-18.672,18.672v0
				c0,10.312,8.36,18.672,18.672,18.672h10.866l19.661,21.054l19.661-21.054h83.469c10.312,0,18.672-8.36,18.672-18.672v0
				C207.811,231.679,199.452,223.32,189.139,223.32z"/>
		</g>
		<g>
			<path style="fill:#7CD6E6;" d="M189.139,223.32h-30c10.312,0,18.672,8.36,18.672,18.672v0c0,10.312-8.36,18.672-18.672,18.672h30
				c10.312,0,18.672-8.36,18.672-18.672v0C207.811,231.679,199.452,223.32,189.139,223.32z"/>
		</g>
		<g>
			<path style="fill:#FFE056;" d="M297.198,98.859h133.656c10.312,0,18.672,8.36,18.672,18.672v0
				c0,10.312-8.36,18.672-18.672,18.672h-10.866l-19.661,21.054l-19.661-21.054h-83.469c-10.312,0-18.672-8.36-18.672-18.672v0
				C278.527,107.218,286.886,98.859,297.198,98.859z"/>
		</g>
		<g>
			<path style="fill:#F9CD45;" d="M430.855,98.859h-30c10.312,0,18.672,8.36,18.672,18.672v0c0,10.312-8.36,18.672-18.672,18.672
				h-10.866l-4.661,4.991l15,16.063l19.661-21.054h10.866c10.312,0,18.672-8.36,18.672-18.672v0
				C449.527,107.218,441.167,98.859,430.855,98.859z"/>
		</g>
		<g>
			<path style="fill:#FFE056;" d="M287.198,200.859h143.656c10.312,0,18.672,8.36,18.672,18.672v0
				c0,10.312-8.36,18.672-18.672,18.672h-10.866l-19.661,21.054l-19.661-21.054h-93.469c-10.312,0-18.672-8.36-18.672-18.672v0
				C268.527,209.218,276.886,200.859,287.198,200.859z"/>
		</g>
		<g>
			<path style="fill:#F9CD45;" d="M430.855,200.859h-30c10.312,0,18.672,8.36,18.672,18.672v0c0,10.312-8.36,18.672-18.672,18.672
				h-10.866l-4.661,4.991l15,16.063l19.661-21.054h10.866c10.312,0,18.672-8.36,18.672-18.672v0
				C449.527,209.218,441.167,200.859,430.855,200.859z"/>
		</g>
	</g>
	<g>
		<circle style="fill:#9A9999;" cx="244.582" cy="343.586" r="7.64"/>
	</g>
	<g>
		<path style="fill:#E3DED9;" d="M337.246,275.087c0-3.59,2.909-6.5,6.5-6.5l0,0c3.59,0,6.5,2.91,6.5,6.5l0,0
			c0,3.59-2.91,6.5-6.5,6.5l0,0C340.155,281.587,337.246,278.677,337.246,275.087z M310.246,275.087c0-3.59,2.909-6.5,6.5-6.5l0,0
			c3.59,0,6.5,2.91,6.5,6.5l0,0c0,3.59-2.91,6.5-6.5,6.5l0,0C313.155,281.587,310.246,278.677,310.246,275.087z M283.246,275.087
			c0-3.59,2.909-6.5,6.5-6.5l0,0c3.59,0,6.5,2.91,6.5,6.5l0,0c0,3.59-2.91,6.5-6.5,6.5l0,0
			C286.155,281.587,283.246,278.677,283.246,275.087z"/>
	</g>
</g>
<g>
</g>
<g>
</g>
<g>
</g>
<g>
</g>
<g>
</g>
<g>
</g>
<g>
</g>
<g>
</g>
<g>
</g>
<g>
</g>
<g>
</g>
<g>
</g>
<g>
</g>
<g>
</g>
<g>
</g>
</svg>
