<?xml version="1.0" encoding="iso-8859-1"?>
<!-- Generator: Adobe Illustrator 21.0.0, SVG Export Plug-In . SVG Version: 6.00 Build 0)  -->
<svg version="1.1" id="Capa_1" xmlns="http://www.w3.org/2000/svg" xmlns:xlink="http://www.w3.org/1999/xlink" x="0px" y="0px"
	 viewBox="0 0 488.736 488.736" style="enable-background:new 0 0 488.736 488.736;" xml:space="preserve">
<g>
	<g>
		<path style="fill:#FFF4F1;" d="M377.447,416.673H111.943c-8.284,0-15-6.716-15-15V15c0-8.284,6.716-15,15-15h265.504
			c8.284,0,15,6.716,15,15v386.673C392.447,409.958,385.731,416.673,377.447,416.673z"/>
	</g>
	<g>
		<path style="fill:#ECE8E5;" d="M377.447,0h-30c8.284,0,15,6.716,15,15v386.673c0,8.284-6.716,15-15,15h30c8.284,0,15-6.716,15-15
			V15C392.447,6.716,385.731,0,377.447,0z"/>
	</g>
	<g>
		<path style="fill:#F45A3C;" d="M181.327,313.64h-20.376c-4.418,0-8-3.582-8-8v-9.271c0-4.971,4.029-9,9-9h18.376
			c4.971,0,9,4.029,9,9l10,4.136l-10,5.136C189.327,310.058,185.745,313.64,181.327,313.64z"/>
	</g>
	<g>
		<path style="fill:#FFD5CC;" d="M217.703,313.64h-20.376c-4.418,0-8-3.582-8-8v-24.765c0-4.971,4.029-9,9-9h18.376
			c4.971,0,9,4.029,9,9l10,11.882l-10,12.882C225.703,310.058,222.121,313.64,217.703,313.64z"/>
	</g>
	<g>
		<path style="fill:#5E8EE1;" d="M254.079,313.64h-20.376c-4.418,0-8-3.582-8-8v-39.585c0-4.971,4.029-9,9-9h18.376
			c4.971,0,9,4.029,9,9l10,19.292l-10,20.292C262.079,310.058,258.497,313.64,254.079,313.64z"/>
	</g>
	<g>
		<path style="fill:#7CD6E6;" d="M290.455,313.64h-20.376c-4.418,0-8-3.582-8-8v-51.036c0-4.971,4.029-9,9-9h18.376
			c4.971,0,9,4.029,9,9l10,25.018l-10,26.018C298.455,310.058,294.873,313.64,290.455,313.64z"/>
	</g>
	<g>
		<path style="fill:#FFE056;" d="M326.831,313.64h-20.376c-4.418,0-8-3.582-8-8v-66.53c0-4.971,4.029-9,9-9h18.376
			c4.971,0,9,4.029,9,9v66.53C334.831,310.058,331.249,313.64,326.831,313.64z"/>
	</g>
	<g>
		<path style="fill:#E3DED9;" d="M206.788,65.435h-58.926c-4.142,0-7.5-3.358-7.5-7.5s3.358-7.5,7.5-7.5h58.926
			c4.142,0,7.5,3.358,7.5,7.5S210.93,65.435,206.788,65.435z"/>
	</g>
	<g>
		<path style="fill:#E3DED9;" d="M333.354,114.435H147.862c-4.142,0-7.5-3.358-7.5-7.5s3.358-7.5,7.5-7.5h185.492
			c4.143,0,7.5,3.358,7.5,7.5S337.497,114.435,333.354,114.435z"/>
	</g>
	<g>
		<path style="fill:#E3DED9;" d="M333.354,144.435H147.862c-4.142,0-7.5-3.358-7.5-7.5s3.358-7.5,7.5-7.5h185.492
			c4.143,0,7.5,3.358,7.5,7.5S337.497,144.435,333.354,144.435z"/>
	</g>
	<g>
		<path style="fill:#E3DED9;" d="M333.354,174.435H147.862c-4.142,0-7.5-3.358-7.5-7.5s3.358-7.5,7.5-7.5h185.492
			c4.143,0,7.5,3.358,7.5,7.5S337.497,174.435,333.354,174.435z"/>
	</g>
	<g>
		<path style="fill:#E3DED9;" d="M333.354,204.435H147.862c-4.142,0-7.5-3.358-7.5-7.5s3.358-7.5,7.5-7.5h185.492
			c4.143,0,7.5,3.358,7.5,7.5S337.497,204.435,333.354,204.435z"/>
	</g>
	<path style="fill:#E3DED9;" d="M339.459,318.898H153.081c-3.459,0-6.29-2.83-6.29-6.29l0,0c0-3.459,2.83-6.29,6.29-6.29h186.378
		c3.459,0,6.29,2.83,6.29,6.29l0,0C345.749,316.068,342.919,318.898,339.459,318.898z"/>
	<g>
		<g>
			<path style="fill:#FFF4F1;" d="M122.519,467.447c-9.411-16.227-27.574-44.164-48.449-44.164
				c-20.931,0-39.138,27.996-48.527,44.295c-0.567,0.984-1.011,1.988-1.341,3c12.544,11.199,29.221,18.029,47.527,18.029
				C91.678,488.606,109.681,480.484,122.519,467.447z"/>
		</g>
		<path style="fill:#E8E4E0;" d="M73.849,423.396c-4.377,0.03-8.625,1.296-12.694,3.409c5.156,2.593,10.045,6.554,14.55,11.156
			c16.126,16.47,7.888,44.57-14.659,49.357c-0.612,0.13-1.226,0.252-1.844,0.366c4.139,0.711,8.398,1.08,12.75,1.05
			c19.948-0.135,37.895-8.379,50.645-21.504C113.076,451.068,94.723,423.254,73.849,423.396z"/>
		<g>
			<path style="fill:#F7EE7D;" d="M74.071,440.226c20.875,0,39.038,10.994,48.449,27.221c12.255-12.444,19.806-29.366,19.806-48.027
				c0-38.211-31.607-69.186-70.596-69.186S1.134,381.209,1.134,419.42c0,20.27,8.896,38.503,23.069,51.157
				c0.33-1.012,0.774-2.016,1.341-3C34.933,451.278,53.14,440.226,74.071,440.226z"/>
		</g>
		<g>
			<path style="fill:#FFE056;" d="M71.73,350.234c-3.416,0-6.775,0.243-10.061,0.703c34.223,4.786,60.535,33.621,60.535,68.484
				c0,12.931-3.629,25.026-9.934,35.376c4.053,3.685,7.522,7.946,10.25,12.65c12.255-12.444,19.806-29.366,19.806-48.027
				C142.326,381.209,110.719,350.234,71.73,350.234z"/>
		</g>
		<g>
			<ellipse style="fill:#FFD5CC;" cx="73.002" cy="397.055" rx="16.544" ry="20.965"/>
		</g>
	</g>
	<g>
		<g>
			<path style="fill:#FFF4F1;" d="M295.485,467.447c-9.411-16.227-27.574-44.164-48.449-44.164
				c-20.931,0-39.138,27.996-48.527,44.295c-0.567,0.984-1.011,1.988-1.341,3c12.544,11.199,29.221,18.029,47.527,18.029
				C264.643,488.606,282.646,480.484,295.485,467.447z"/>
		</g>
		<path style="fill:#E8E4E0;" d="M246.814,423.396c-4.378,0.03-8.625,1.296-12.694,3.409c5.156,2.593,10.045,6.554,14.55,11.156
			c16.126,16.47,7.888,44.57-14.659,49.357c-0.612,0.13-1.226,0.252-1.844,0.366c4.139,0.711,8.398,1.08,12.75,1.05
			c19.948-0.135,37.895-8.379,50.645-21.504C286.041,451.068,267.688,423.254,246.814,423.396z"/>
		<g>
			<path style="fill:#FC9086;" d="M247.036,440.226c20.875,0,39.038,10.994,48.449,27.221
				c12.255-12.444,19.806-29.366,19.806-48.027c0-38.211-31.607-69.186-70.596-69.186s-70.596,30.976-70.596,69.186
				c0,20.27,8.896,38.503,23.069,51.157c0.33-1.012,0.774-2.016,1.341-3C207.898,451.278,226.105,440.226,247.036,440.226z"/>
		</g>
		<g>
			<path style="fill:#F57A73;" d="M244.695,350.234c-3.416,0-6.775,0.243-10.061,0.703c34.223,4.786,60.535,33.621,60.535,68.484
				c0,12.931-3.629,25.026-9.934,35.376c4.053,3.685,7.522,7.946,10.25,12.65c12.255-12.444,19.806-29.366,19.806-48.027
				C315.291,381.209,283.684,350.234,244.695,350.234z"/>
		</g>
		<g>
			<ellipse style="fill:#FFD5CC;" cx="245.967" cy="397.055" rx="16.544" ry="20.965"/>
		</g>
	</g>
	<g>
		<g>
			<path style="fill:#FFF4F1;" d="M467.796,467.447c-9.411-16.227-27.574-44.164-48.449-44.164
				c-20.931,0-39.138,27.996-48.527,44.295c-0.567,0.984-1.011,1.988-1.341,3c12.544,11.199,29.221,18.029,47.527,18.029
				C436.955,488.606,454.957,480.484,467.796,467.447z"/>
		</g>
		<path style="fill:#E8E4E0;" d="M419.126,423.396c-4.377,0.03-8.625,1.296-12.694,3.409c5.156,2.593,10.045,6.554,14.55,11.156
			c16.126,16.47,7.888,44.57-14.659,49.357c-0.612,0.13-1.226,0.252-1.844,0.366c4.139,0.711,8.398,1.08,12.75,1.05
			c19.948-0.135,37.895-8.379,50.645-21.504C458.353,451.068,440,423.254,419.126,423.396z"/>
		<g>
			<path style="fill:#9DDBDF;" d="M419.347,440.226c20.875,0,39.038,10.994,48.449,27.221
				c12.255-12.444,19.806-29.366,19.806-48.027c0-38.211-31.607-69.186-70.596-69.186s-70.596,30.976-70.596,69.186
				c0,20.27,8.896,38.503,23.069,51.157c0.33-1.012,0.774-2.016,1.341-3C380.209,451.278,398.416,440.226,419.347,440.226z"/>
		</g>
		<g>
			<path style="fill:#7CD6E6;" d="M417.006,350.234c-3.416,0-6.775,0.243-10.061,0.703c34.223,4.786,60.535,33.621,60.535,68.484
				c0,12.931-3.629,25.026-9.934,35.376c4.053,3.685,7.522,7.946,10.25,12.65c12.255-12.444,19.806-29.366,19.806-48.027
				C487.602,381.209,455.996,350.234,417.006,350.234z"/>
		</g>
		<g>
			<ellipse style="fill:#FFD5CC;" cx="418.279" cy="397.055" rx="16.544" ry="20.965"/>
		</g>
	</g>
</g>
<g>
</g>
<g>
</g>
<g>
</g>
<g>
</g>
<g>
</g>
<g>
</g>
<g>
</g>
<g>
</g>
<g>
</g>
<g>
</g>
<g>
</g>
<g>
</g>
<g>
</g>
<g>
</g>
<g>
</g>
</svg>
