<?xml version="1.0" encoding="iso-8859-1"?>
<!-- Generator: Adobe Illustrator 21.0.0, SVG Export Plug-In . SVG Version: 6.00 Build 0)  -->
<svg version="1.1" id="Capa_1" xmlns="http://www.w3.org/2000/svg" xmlns:xlink="http://www.w3.org/1999/xlink" x="0px" y="0px"
	 viewBox="0 0 497.929 497.929" style="enable-background:new 0 0 497.929 497.929;" xml:space="preserve">
<g>
	<g>
		<path style="fill:#FFF4F1;" d="M245.464,172.194h236.194c8.949,0,16.27,7.322,16.27,16.27v258.242
			c0,14.022-17.526,20.377-26.513,9.615l-24.858-29.767H245.464c-8.949,0-16.27-7.322-16.27-16.27V188.464
			C229.194,179.515,236.516,172.194,245.464,172.194z"/>
	</g>
	<path style="fill:#E3DED9;" d="M481.659,172.194h-30c8.948,0,16.27,7.322,16.27,16.27v258.241c0,1.649-0.25,3.188-0.693,4.61
		l4.179,5.005c8.988,10.762,26.513,4.407,26.513-9.615V188.464C497.929,179.515,490.607,172.194,481.659,172.194z"/>
	<g>
		<path style="fill:#FFD5CC;" d="M341.029,394.07H296.16c-8.25,0-15-6.75-15-15v-17.247c0-8.25,6.75-15,15-15h44.869
			c8.25,0,15,6.75,15,15v17.247C356.029,387.32,349.279,394.07,341.029,394.07z"/>
	</g>
	<g>
		<path style="fill:#FDA59D;" d="M341.029,346.823h-30c8.25,0,15,6.75,15,15v17.247c0,8.25-6.75,15-15,15h30c8.25,0,15-6.75,15-15
			v-17.247C356.029,353.573,349.279,346.823,341.029,346.823z"/>
	</g>
	<g>
		<g>
			<circle style="fill:#FFE056;" cx="417.9" cy="275.14" r="34.06"/>
		</g>
		<g>
			<path style="fill:#F9CD45;" d="M417.9,241.08c-4.982,0-9.709,1.079-13.974,3.001c11.839,5.335,20.086,17.23,20.086,31.059
				s-8.246,25.724-20.086,31.059c4.265,1.922,8.992,3.001,13.974,3.001c18.811,0,34.06-15.249,34.06-34.06
				S436.711,241.08,417.9,241.08z"/>
		</g>
	</g>
	<g>
		<path style="fill:#E3DED9;" d="M450.019,218.028H284.104c-4.143,0-7.5-3.358-7.5-7.5s3.357-7.5,7.5-7.5h165.915
			c4.143,0,7.5,3.358,7.5,7.5S454.162,218.028,450.019,218.028z"/>
	</g>
	<g>
		<path style="fill:#E3DED9;" d="M454.46,357.198h-74.625c-4.143,0-7.5-3.358-7.5-7.5s3.357-7.5,7.5-7.5h74.625
			c4.143,0,7.5,3.358,7.5,7.5S458.603,357.198,454.46,357.198z"/>
	</g>
	<g>
		<path style="fill:#E3DED9;" d="M454.46,389.633h-74.625c-4.143,0-7.5-3.358-7.5-7.5s3.357-7.5,7.5-7.5h74.625
			c4.143,0,7.5,3.358,7.5,7.5S458.603,389.633,454.46,389.633z"/>
	</g>
	<g>
		<path style="fill:#E3DED9;" d="M364.133,252.293h-78.588c-4.143,0-7.5-3.358-7.5-7.5s3.357-7.5,7.5-7.5h78.588
			c4.143,0,7.5,3.358,7.5,7.5S368.275,252.293,364.133,252.293z"/>
	</g>
	<g>
		<path style="fill:#E3DED9;" d="M364.133,286.558h-78.588c-4.143,0-7.5-3.358-7.5-7.5s3.357-7.5,7.5-7.5h78.588
			c4.143,0,7.5,3.358,7.5,7.5S368.275,286.558,364.133,286.558z"/>
	</g>
	<g>
		<path style="fill:#E3DED9;" d="M364.133,318.299h-78.588c-4.143,0-7.5-3.358-7.5-7.5s3.357-7.5,7.5-7.5h78.588
			c4.143,0,7.5,3.358,7.5,7.5S368.275,318.299,364.133,318.299z"/>
	</g>
	<g>
		<path style="fill:#FFF4F1;" d="M252.464,36.194H16.27C7.322,36.194,0,43.515,0,52.464v258.242
			c0,14.022,17.526,20.377,26.513,9.615l24.858-29.767h201.093c8.949,0,16.27-7.322,16.27-16.27V52.464
			C268.734,43.515,261.413,36.194,252.464,36.194z"/>
	</g>
	<g>
		<path style="fill:#E3DED9;" d="M252.464,36.194h-30c8.948,0,16.27,7.322,16.27,16.27v221.819c0,8.948-7.322,16.27-16.27,16.27h30
			c8.948,0,16.27-7.321,16.27-16.27V52.464C268.734,43.515,261.413,36.194,252.464,36.194z"/>
	</g>
	<g>
		<circle style="fill:#FC9086;" cx="142.545" cy="160.972" r="79.734"/>
	</g>
	<g>
		<path style="fill:#F57A73;" d="M142.545,81.239c-5.13,0-10.14,0.503-15,1.429c36.862,7.02,64.734,39.399,64.734,78.305
			c0,38.906-27.872,71.284-64.734,78.305c4.86,0.926,9.87,1.429,15,1.429c44.036,0,79.734-35.698,79.734-79.734
			C222.279,116.937,186.581,81.239,142.545,81.239z"/>
	</g>
	<g>
		<path style="fill:#FFF4F1;" d="M150.957,154.651c-5.056,3.953-5.147,6.71-5.147,11.49c0,1.746-0.92,3.769-5.424,3.769
			c-3.769,0-5.055-1.379-5.055-6.159c0-7.905,3.492-11.674,6.158-13.972c3.033-2.574,8.181-5.423,8.181-10.387
			c0-4.229-3.677-6.25-8.272-6.25c-9.376,0-7.354,7.078-12.317,7.078c-2.481,0-5.515-1.655-5.515-5.239
			c0-4.964,5.698-12.317,18.107-12.317c11.766,0,19.579,6.526,19.579,15.166C161.252,146.471,153.438,152.721,150.957,154.651z
			 M147.556,183.33c0,3.769-3.125,7.078-7.078,7.078c-3.952,0-6.985-3.31-6.985-7.078c0-3.86,3.125-7.078,6.985-7.078
			C144.339,176.252,147.556,179.47,147.556,183.33z"/>
	</g>
</g>
<g>
</g>
<g>
</g>
<g>
</g>
<g>
</g>
<g>
</g>
<g>
</g>
<g>
</g>
<g>
</g>
<g>
</g>
<g>
</g>
<g>
</g>
<g>
</g>
<g>
</g>
<g>
</g>
<g>
</g>
</svg>
