<?xml version="1.0" encoding="iso-8859-1"?>
<!-- Generator: Adobe Illustrator 21.0.0, SVG Export Plug-In . SVG Version: 6.00 Build 0)  -->
<svg version="1.1" id="Capa_1" xmlns="http://www.w3.org/2000/svg" xmlns:xlink="http://www.w3.org/1999/xlink" x="0px" y="0px"
	 viewBox="0 0 489.627 489.627" style="enable-background:new 0 0 489.627 489.627;" xml:space="preserve">
<g>
	<g>
		<path style="fill:#9DDBDF;" d="M442.7,111.599C419.95,78.457,381.792,56.72,338.555,56.72
			c-69.721,0-126.242,56.52-126.242,126.242c0,3.05,0.113,6.075,0.326,9.071c0.008,0.111,0.012,0.222,0.012,0.334v94.939
			c0,80.413,65.188,145.601,145.601,145.601h0c18.199,0,32.952-14.753,32.952-32.952v-26.678c0-11.192,9.073-20.264,20.264-20.264
			h32.346c11.192,0,20.264-9.073,20.264-20.264v-56.166c0-2.908,2.357-5.264,5.264-5.264h0c14.203,0,23.999-14.231,18.929-27.498
			l-23.152-60.585c-0.219-0.574-0.332-1.184-0.339-1.799C464.474,155.533,456.368,131.508,442.7,111.599"/>
	</g>
	<g>
		<path style="fill:#FFD5CC;" d="M46.927,111.599c22.75-33.141,60.908-54.878,104.145-54.878
			c69.721,0,126.242,56.52,126.242,126.242c0,3.05-0.113,6.075-0.326,9.071c-0.008,0.111-0.012,0.222-0.012,0.334v94.939
			c0,80.413-65.188,145.601-145.601,145.601h0c-18.199,0-32.952-14.753-32.952-32.952v-26.678c0-11.192-9.073-20.264-20.264-20.264
			H45.812c-11.192,0-20.264-9.073-20.264-20.264v-56.166c0-2.908-2.357-5.264-5.264-5.264h0c-14.203,0-23.999-14.231-18.929-27.498
			l23.152-60.585c0.219-0.574,0.332-1.184,0.339-1.799C25.153,155.533,33.259,131.508,46.927,111.599"/>
	</g>
	<path style="fill:#FC9086;" d="M244.814,378.573c20.114-24.969,32.162-56.708,32.162-91.267v-94.939
		c0-0.111,0.004-0.223,0.012-0.334c0.213-2.996,0.326-6.02,0.326-9.071c0-32.522-12.301-62.168-32.5-84.549
		c-20.199,22.381-32.5,52.027-32.5,84.549c0,3.05,0.113,6.074,0.326,9.071c0.008,0.111,0.012,0.222,0.012,0.334v94.939
		C212.651,321.865,224.7,353.604,244.814,378.573z"/>
	<g>
		<path style="fill:#7CD6E6;" d="M361.205,373.276v26.678c0,14.855-9.832,27.411-23.342,31.524
			c6.664,0.934,13.468,1.428,20.389,1.428l0,0c18.199,0,32.952-14.753,32.952-32.952v-26.678c0-11.192,9.073-20.264,20.264-20.264
			h-30C370.277,353.012,361.205,362.084,361.205,373.276z"/>
		<path style="fill:#7CD6E6;" d="M488.273,243.819l-23.152-60.585c-0.219-0.574-0.332-1.184-0.339-1.799
			c-0.307-25.901-8.414-49.927-22.081-69.836C419.95,78.457,381.792,56.72,338.555,56.72c-5.08,0-10.087,0.309-15.01,0.892
			c36.986,4.377,69.074,24.733,89.156,53.986c13.667,19.91,21.774,43.935,22.081,69.836c0.007,0.615,0.12,1.225,0.339,1.799
			l23.152,60.585c5.07,13.267-4.727,27.498-18.93,27.498l0,0c-2.907,0-5.264,2.357-5.264,5.265v56.166
			c0,11.192-9.073,20.265-20.264,20.265h30c11.192,0,20.264-9.073,20.264-20.265v-56.166c0-2.907,2.357-5.265,5.264-5.265l0,0
			C483.546,271.317,493.343,257.086,488.273,243.819z"/>
	</g>
	<path style="fill:#F57A73;" d="M244.814,98.413c-5.651,6.261-10.682,13.091-15,20.393c11.117,18.8,17.5,40.732,17.5,64.156
		c0,3.05-0.113,6.074-0.326,9.071c-0.008,0.111-0.012,0.222-0.012,0.334v94.939c0,24.815-6.212,48.176-17.162,68.621
		c4.3,8.028,9.329,15.606,15,22.646c20.114-24.969,32.162-56.708,32.162-91.267v-94.939c0-0.111,0.004-0.223,0.012-0.334
		c0.213-2.996,0.326-6.02,0.326-9.071C277.314,150.44,265.013,120.794,244.814,98.413z"/>
	<g>
		<path style="fill:#55E08F;" d="M334.2,186.075c-17.504,17.504-45.453,17.936-45.453,17.936s0.431-27.949,17.936-45.453
			s45.453-17.936,45.453-17.936S351.704,168.571,334.2,186.075z"/>
	</g>
	<g>
		<path style="fill:#55E08F;" d="M156.592,147.308c17.504,17.504,45.453,17.936,45.453,17.936s-0.431-27.949-17.936-45.453
			s-45.453-17.936-45.453-17.936S139.088,129.803,156.592,147.308z"/>
	</g>
</g>
<g>
</g>
<g>
</g>
<g>
</g>
<g>
</g>
<g>
</g>
<g>
</g>
<g>
</g>
<g>
</g>
<g>
</g>
<g>
</g>
<g>
</g>
<g>
</g>
<g>
</g>
<g>
</g>
<g>
</g>
</svg>
