<?xml version="1.0" encoding="iso-8859-1"?>
<!-- Generator: Adobe Illustrator 21.0.0, SVG Export Plug-In . SVG Version: 6.00 Build 0)  -->
<svg version="1.1" id="Capa_1" xmlns="http://www.w3.org/2000/svg" xmlns:xlink="http://www.w3.org/1999/xlink" x="0px" y="0px"
	 viewBox="0 0 491.549 491.549" style="enable-background:new 0 0 491.549 491.549;" xml:space="preserve">
<g>
	<g>
		<path style="fill:#9A9999;" d="M260.006,0h-28.464c-8.284,0-15,6.716-15,15v104.653c0,8.284,6.716,15,15,15h28.464
			c8.284,0,15-6.716,15-15V15C275.006,6.716,268.291,0,260.006,0z"/>
	</g>
	<g>
		<path style="fill:#696867;" d="M259.867,0h-27.959c-0.391,0-0.775,0.029-1.159,0.058c7.818,0.589,13.98,7.045,13.98,14.942
			v104.653c0,7.897-6.162,14.354-13.98,14.942c0.384,0.029,0.768,0.058,1.159,0.058h27.959c8.361,0,15.139-6.716,15.139-15V15
			C275.006,6.716,268.228,0,259.867,0z"/>
	</g>
	<g>
		<path style="fill:#FFF4F1;" d="M459.754,491.549H31.795c-15.95,0-29-13.05-29-29V174.259c0-15.95,13.05-29,29-29h427.96
			c15.95,0,29,13.05,29,29v288.289C488.754,478.499,475.704,491.549,459.754,491.549z"/>
	</g>
	<g>
		<path style="fill:#E3DED9;" d="M459.754,145.259h-30c15.95,0,29,13.05,29,29v288.289c0,15.95-13.05,29-29,29h30
			c15.95,0,29-13.05,29-29V174.259C488.754,158.309,475.704,145.259,459.754,145.259z"/>
	</g>
	<g>
		<path style="fill:#B4B4B4;" d="M216.542,111.509v53.684c0,8.284,6.716,15,15,15h28.464c8.284,0,15-6.716,15-15v-53.684H216.542z"
			/>
	</g>
	<g>
		<path style="fill:#9A9999;" d="M245.006,111.509v53.684c0,8.025-6.307,14.559-14.232,14.961c0.256,0.013,0.509,0.039,0.768,0.039
			h28.464c8.284,0,15-6.716,15-15v-53.684H245.006z"/>
	</g>
	<g>
		<path style="fill:#E3DED9;" d="M442.688,392.747H48.208c-4.142,0-7.5-3.358-7.5-7.5s3.358-7.5,7.5-7.5h394.48
			c4.143,0,7.5,3.358,7.5,7.5S446.83,392.747,442.688,392.747z"/>
	</g>
	<g>
		<path style="fill:#E3DED9;" d="M197.819,430.245H48.208c-4.142,0-7.5-3.358-7.5-7.5s3.358-7.5,7.5-7.5h149.612
			c4.142,0,7.5,3.358,7.5,7.5S201.962,430.245,197.819,430.245z"/>
	</g>
	<g>
		<path style="fill:#E3DED9;" d="M442.688,430.245H293.076c-4.143,0-7.5-3.358-7.5-7.5s3.357-7.5,7.5-7.5h149.611
			c4.143,0,7.5,3.358,7.5,7.5S446.83,430.245,442.688,430.245z"/>
	</g>
	<g>
		<g>
			<path style="fill:#FFF4F1;" d="M144.974,324.497c-7.872-13.573-23.065-36.943-40.526-36.943
				c-17.508,0-32.738,23.418-40.592,37.051c-0.474,0.823-0.845,1.663-1.122,2.509c10.493,9.368,24.443,15.081,39.755,15.081
				C119.176,342.196,134.234,335.402,144.974,324.497z"/>
		</g>
		<path style="fill:#E8E4E0;" d="M104.262,287.65c-3.662,0.025-7.214,1.084-10.618,2.852c4.313,2.169,8.402,5.482,12.171,9.332
			c13.489,13.777,6.598,37.282-12.262,41.286c-0.512,0.109-1.026,0.211-1.542,0.306c3.462,0.595,7.025,0.903,10.665,0.878
			c16.686-0.113,31.698-7.009,42.363-17.987C137.074,310.797,121.723,287.531,104.262,287.65z"/>
		<g>
			<path style="fill:#F7EE7D;" d="M104.447,301.727c17.461,0,32.654,9.196,40.526,22.77c10.251-10.409,16.567-24.564,16.567-40.173
				c0-31.962-26.438-57.873-59.052-57.873s-59.052,25.91-59.052,57.873c0,16.956,7.441,32.207,19.297,42.792
				c0.276-0.847,0.647-1.686,1.122-2.509C71.709,310.972,86.939,301.727,104.447,301.727z"/>
		</g>
		<g>
			<path style="fill:#FFE056;" d="M102.489,226.451c-2.858,0-5.667,0.203-8.416,0.588c28.626,4.004,50.636,28.123,50.636,57.285
				c0,10.817-3.035,20.934-8.309,29.592c3.39,3.082,6.292,6.646,8.574,10.582c10.251-10.409,16.567-24.564,16.567-40.173
				C161.541,252.361,135.103,226.451,102.489,226.451z"/>
		</g>
		<g>
			<ellipse style="fill:#FFD5CC;" cx="103.554" cy="265.616" rx="13.838" ry="17.537"/>
		</g>
	</g>
	<g>
		<g>
			<path style="fill:#FFF4F1;" d="M289.89,324.497c-7.872-13.573-23.065-36.943-40.526-36.943
				c-17.508,0-32.738,23.418-40.592,37.051c-0.474,0.823-0.845,1.663-1.122,2.509c10.493,9.368,24.443,15.081,39.755,15.081
				C264.092,342.196,279.151,335.402,289.89,324.497z"/>
		</g>
		<path style="fill:#E8E4E0;" d="M249.179,287.65c-3.662,0.025-7.214,1.084-10.618,2.852c4.313,2.169,8.402,5.482,12.171,9.332
			c13.489,13.777,6.598,37.282-12.262,41.286c-0.512,0.109-1.026,0.211-1.542,0.306c3.462,0.595,7.025,0.903,10.665,0.878
			c16.686-0.113,31.698-7.009,42.363-17.987C281.991,310.797,266.639,287.531,249.179,287.65z"/>
		<g>
			<path style="fill:#FC9086;" d="M249.364,301.727c17.461,0,32.654,9.196,40.526,22.77c10.251-10.409,16.567-24.564,16.567-40.173
				c0-31.962-26.438-57.873-59.052-57.873s-59.052,25.91-59.052,57.873c0,16.956,7.441,32.207,19.297,42.792
				c0.276-0.847,0.647-1.686,1.122-2.509C216.626,310.972,231.856,301.727,249.364,301.727z"/>
		</g>
		<g>
			<path style="fill:#F57A73;" d="M247.406,226.451c-2.858,0-5.667,0.203-8.416,0.588c28.626,4.004,50.636,28.123,50.636,57.285
				c0,10.817-3.035,20.934-8.309,29.592c3.39,3.082,6.292,6.646,8.574,10.582c10.251-10.409,16.567-24.564,16.567-40.173
				C306.458,252.361,280.019,226.451,247.406,226.451z"/>
		</g>
		<g>
			<ellipse style="fill:#FFD5CC;" cx="248.47" cy="265.616" rx="13.838" ry="17.537"/>
		</g>
	</g>
	<g>
		<g>
			<path style="fill:#FFF4F1;" d="M427.694,324.497c-7.872-13.573-23.065-36.943-40.526-36.943
				c-17.508,0-32.738,23.418-40.592,37.051c-0.474,0.823-0.845,1.663-1.122,2.509c10.493,9.368,24.443,15.081,39.755,15.081
				C401.896,342.196,416.955,335.402,427.694,324.497z"/>
		</g>
		<path style="fill:#E8E4E0;" d="M386.983,287.65c-3.662,0.025-7.215,1.084-10.618,2.852c4.313,2.169,8.402,5.482,12.171,9.332
			c13.489,13.777,6.598,37.282-12.262,41.286c-0.512,0.109-1.026,0.211-1.542,0.306c3.462,0.595,7.025,0.903,10.665,0.878
			c16.686-0.113,31.698-7.009,42.363-17.987C419.795,310.797,404.443,287.531,386.983,287.65z"/>
		<g>
			<path style="fill:#9DDBDF;" d="M387.168,301.727c17.461,0,32.654,9.196,40.526,22.77c10.251-10.409,16.567-24.564,16.567-40.173
				c0-31.962-26.438-57.873-59.052-57.873s-59.052,25.91-59.052,57.873c0,16.956,7.441,32.207,19.297,42.792
				c0.276-0.847,0.647-1.686,1.122-2.509C354.43,310.972,369.66,301.727,387.168,301.727z"/>
		</g>
		<g>
			<path style="fill:#7CD6E6;" d="M385.21,226.451c-2.858,0-5.667,0.203-8.416,0.588c28.626,4.004,50.636,28.123,50.636,57.285
				c0,10.817-3.035,20.934-8.309,29.592c3.39,3.082,6.292,6.646,8.574,10.582c10.251-10.409,16.567-24.564,16.567-40.173
				C444.262,252.361,417.823,226.451,385.21,226.451z"/>
		</g>
		<g>
			<ellipse style="fill:#FFD5CC;" cx="386.274" cy="265.616" rx="13.838" ry="17.537"/>
		</g>
	</g>
</g>
<g>
</g>
<g>
</g>
<g>
</g>
<g>
</g>
<g>
</g>
<g>
</g>
<g>
</g>
<g>
</g>
<g>
</g>
<g>
</g>
<g>
</g>
<g>
</g>
<g>
</g>
<g>
</g>
<g>
</g>
</svg>
