<?xml version="1.0" encoding="iso-8859-1"?>
<!-- Generator: Adobe Illustrator 21.0.0, SVG Export Plug-In . SVG Version: 6.00 Build 0)  -->
<svg version="1.1" id="Capa_1" xmlns="http://www.w3.org/2000/svg" xmlns:xlink="http://www.w3.org/1999/xlink" x="0px" y="0px"
	 viewBox="0 0 507.044 507.044" style="enable-background:new 0 0 507.044 507.044;" xml:space="preserve">
<g>
	<g>
		<g>
			<g>
				<path style="fill:#FFF4F1;" d="M137.582,432.982c-10.561-18.21-30.945-49.563-54.371-49.563
					c-23.489,0-43.922,31.418-54.458,49.709c-0.636,1.104-1.134,2.231-1.505,3.367c14.077,12.568,32.793,20.233,53.336,20.233
					C102.971,456.728,123.173,447.614,137.582,432.982z"/>
			</g>
			<path style="fill:#E8E4E0;" d="M82.962,383.548c-4.913,0.033-9.679,1.454-14.246,3.826c5.786,2.91,11.273,7.355,16.329,12.52
				c18.097,18.483,8.852,50.018-16.451,55.389c-0.686,0.146-1.376,0.283-2.069,0.411c4.645,0.798,9.424,1.212,14.308,1.178
				c22.387-0.152,42.527-9.403,56.835-24.132C126.984,414.602,106.388,383.389,82.962,383.548z"/>
			<g>
				<path style="fill:#9DDBDF;" d="M83.211,402.434c23.426,0,43.809,12.338,54.371,30.548
					c13.752-13.965,22.227-32.956,22.227-53.897c0-42.881-35.47-77.643-79.225-77.643S1.359,336.204,1.359,379.085
					c0,22.748,9.984,43.209,25.889,57.41c0.371-1.136,0.869-2.263,1.505-3.367C39.289,414.838,59.722,402.434,83.211,402.434z"/>
			</g>
			<g>
				<path style="fill:#7CD6E6;" d="M80.584,301.442c-3.834,0-7.603,0.273-11.291,0.789c38.406,5.372,67.934,37.731,67.934,76.854
					c0,14.512-4.072,28.085-11.148,39.7c4.548,4.135,8.441,8.917,11.503,14.197c13.752-13.965,22.227-32.956,22.227-53.897
					C159.809,336.204,124.338,301.442,80.584,301.442z"/>
			</g>
			<g>
				<ellipse style="fill:#FFD5CC;" cx="82.012" cy="353.987" rx="18.566" ry="23.528"/>
			</g>
		</g>
		<g>
			<g>
				<path style="fill:#FFF4F1;" d="M484.345,432.982c-10.561-18.21-30.945-49.563-54.371-49.563
					c-23.489,0-43.922,31.418-54.458,49.709c-0.636,1.104-1.134,2.231-1.505,3.367c14.077,12.568,32.793,20.233,53.336,20.233
					C449.734,456.728,469.937,447.614,484.345,432.982z"/>
			</g>
			<path style="fill:#E8E4E0;" d="M429.725,383.548c-4.913,0.033-9.679,1.454-14.246,3.826c5.786,2.91,11.273,7.355,16.329,12.52
				c18.097,18.483,8.852,50.018-16.451,55.389c-0.686,0.146-1.376,0.283-2.069,0.411c4.645,0.798,9.424,1.212,14.308,1.178
				c22.387-0.152,42.527-9.403,56.835-24.132C473.747,414.602,453.151,383.389,429.725,383.548z"/>
			<g>
				<path style="fill:#9DDBDF;" d="M429.974,402.434c23.426,0,43.809,12.338,54.371,30.548
					c13.752-13.965,22.227-32.956,22.227-53.897c0-42.881-35.47-77.643-79.225-77.643s-79.225,34.762-79.225,77.643
					c0,22.748,9.984,43.209,25.889,57.41c0.371-1.136,0.869-2.263,1.505-3.367C386.052,414.838,406.485,402.434,429.974,402.434z"/>
			</g>
			<g>
				<path style="fill:#7CD6E6;" d="M427.347,301.442c-3.834,0-7.603,0.273-11.291,0.789c38.406,5.372,67.934,37.731,67.934,76.854
					c0,14.512-4.072,28.085-11.148,39.7c4.548,4.135,8.441,8.917,11.503,14.197c13.752-13.965,22.227-32.956,22.227-53.897
					C506.572,336.204,471.102,301.442,427.347,301.442z"/>
			</g>
			<g>
				<ellipse style="fill:#FFD5CC;" cx="428.775" cy="353.987" rx="18.566" ry="23.528"/>
			</g>
		</g>
	</g>
	<g>
		<g>
			<path style="fill:#E3DED9;" d="M171.592,98.4H35.394C15.927,98.4,0,114.328,0,133.795v0c0,19.467,15.927,35.394,35.394,35.394
				h38.7c1.241,0,2.388,0.662,3.009,1.737l7.11,12.316c4.666,8.082,16.331,8.082,20.997,0l7.111-12.316
				c0.621-1.075,1.767-1.737,3.009-1.737h56.262c19.467,0,35.394-15.927,35.394-35.394v0C206.986,114.328,191.059,98.4,171.592,98.4
				z"/>
		</g>
		<g>
			<path style="fill:#D0CFD1;" d="M171.592,98.4h-30c19.467,0,35.394,15.927,35.394,35.394v0c0,19.467-15.927,35.394-35.394,35.394
				h30c19.467,0,35.394-15.927,35.394-35.394v0C206.986,114.328,191.059,98.4,171.592,98.4z"/>
		</g>
		<g>
			<path style="fill:#E3DED9;" d="M471.649,98.4H335.452c-19.467,0-35.394,15.927-35.394,35.394v0
				c0,19.467,15.927,35.394,35.394,35.394h38.7c1.241,0,2.388,0.662,3.009,1.737l7.11,12.316c4.666,8.082,16.331,8.082,20.997,0
				l7.111-12.316c0.621-1.075,1.767-1.737,3.009-1.737h56.262c19.467,0,35.394-15.927,35.394-35.394v0
				C507.044,114.328,491.116,98.4,471.649,98.4z"/>
		</g>
		<g>
			<path style="fill:#D0CFD1;" d="M471.649,98.4h-30c19.467,0,35.394,15.927,35.394,35.394v0c0,19.467-15.927,35.394-35.394,35.394
				h30c19.467,0,35.394-15.927,35.394-35.394v0C507.044,114.328,491.116,98.4,471.649,98.4z"/>
		</g>
		<g>
			<path style="fill:#FFF4F1;" d="M430.916,49.414H64.911c-20.62,0-37.49,16.871-37.49,37.49v0c0,20.62,16.871,37.49,37.49,37.49
				H226.53l15.957,27.638c4.776,8.272,16.716,8.272,21.492,0l15.957-27.638h150.981c20.62,0,37.49-16.871,37.49-37.49v0
				C468.406,66.284,451.536,49.414,430.916,49.414z"/>
		</g>
		<g>
			<path style="fill:#D0CFD1;" d="M442.224,49.413h-30.658c20.62,0,37.49,16.871,37.49,37.49v0c0,20.62-16.871,37.49-37.49,37.49
				h30.658c20.62,0,37.49-16.871,37.49-37.49v0C479.714,66.284,462.843,49.413,442.224,49.413z"/>
		</g>
		<g>
			<path style="fill:#E3DED9;" d="M370.527,87.694c0-4.256,3.454-7.71,7.71-7.71l0,0c4.256,0,7.71,3.454,7.71,7.71l0,0
				c0,4.266-3.454,7.71-7.71,7.71l0,0C373.981,95.404,370.527,91.96,370.527,87.694z M326.324,87.694c0-4.256,3.444-7.71,7.71-7.71
				l0,0c4.256,0,7.71,3.454,7.71,7.71l0,0c0,4.266-3.454,7.71-7.71,7.71l0,0C329.768,95.404,326.324,91.96,326.324,87.694z
				 M282.122,87.694c0-4.256,3.444-7.71,7.71-7.71l0,0c4.256,0,7.71,3.454,7.71,7.71l0,0c0,4.266-3.454,7.71-7.71,7.71l0,0
				C285.566,95.404,282.122,91.96,282.122,87.694z M237.92,87.694c0-4.256,3.444-7.71,7.71-7.71l0,0c4.256,0,7.71,3.454,7.71,7.71
				l0,0c0,4.266-3.454,7.71-7.71,7.71l0,0C241.364,95.404,237.92,91.96,237.92,87.694z M193.718,87.694
				c0-4.256,3.444-7.71,7.71-7.71l0,0c4.256,0,7.71,3.454,7.71,7.71l0,0c0,4.266-3.454,7.71-7.71,7.71l0,0
				C197.161,95.404,193.718,91.96,193.718,87.694z M149.515,87.694c0-4.256,3.444-7.71,7.71-7.71l0,0c4.256,0,7.71,3.454,7.71,7.71
				l0,0c0,4.266-3.454,7.71-7.71,7.71l0,0C152.959,95.404,149.515,91.96,149.515,87.694z M105.313,87.694
				c0-4.256,3.444-7.71,7.71-7.71l0,0c4.256,0,7.71,3.454,7.71,7.71l0,0c0,4.266-3.454,7.71-7.71,7.71l0,0
				C108.757,95.404,105.313,91.96,105.313,87.694z"/>
		</g>
	</g>
	<g>
		<g>
			<path style="fill:#FFF4F1;" d="M345.32,422.249c-15.64-26.967-45.826-73.397-80.518-73.397
				c-34.785,0-65.044,46.527-80.647,73.614c-0.942,1.635-1.679,3.304-2.228,4.986c20.847,18.612,48.563,29.963,78.985,29.963
				C294.065,457.414,323.983,443.917,345.32,422.249z"/>
		</g>
		<path style="fill:#E8E4E0;" d="M264.434,349.041c-7.275,0.049-14.334,2.153-21.097,5.666c8.569,4.31,16.694,10.893,24.181,18.54
			c26.799,27.372,13.11,74.071-24.362,82.026c-1.017,0.216-2.038,0.419-3.064,0.609c6.879,1.181,13.956,1.794,21.189,1.745
			c33.152-0.225,62.978-13.925,84.168-35.737C329.625,395.03,299.125,348.806,264.434,349.041z"/>
		<g>
			<path style="fill:#9DDBDF;" d="M264.802,377.01c34.692,0,64.878,18.271,80.518,45.239c20.366-20.681,32.916-48.804,32.916-79.816
				c0-63.503-52.528-114.981-117.324-114.981S143.588,278.93,143.588,342.433c0,33.687,14.785,63.989,38.339,85.019
				c0.549-1.682,1.286-3.351,2.228-4.986C199.758,395.379,230.017,377.01,264.802,377.01z"/>
		</g>
		<g>
			<path style="fill:#7CD6E6;" d="M260.912,227.451c-5.678,0-11.259,0.404-16.721,1.168
				c56.875,7.955,100.603,55.876,100.603,113.814c0,21.491-6.031,41.592-16.509,58.792c6.736,6.124,12.5,13.205,17.035,21.024
				c20.366-20.681,32.916-48.804,32.916-79.816C378.236,278.93,325.708,227.451,260.912,227.451z"/>
		</g>
		<g>
			<ellipse style="fill:#FFD5CC;" cx="263.027" cy="305.264" rx="27.494" ry="34.842"/>
		</g>
	</g>
</g>
<g>
</g>
<g>
</g>
<g>
</g>
<g>
</g>
<g>
</g>
<g>
</g>
<g>
</g>
<g>
</g>
<g>
</g>
<g>
</g>
<g>
</g>
<g>
</g>
<g>
</g>
<g>
</g>
<g>
</g>
</svg>
