<?xml version="1.0" encoding="iso-8859-1"?>
<!-- Generator: Adobe Illustrator 21.0.0, SVG Export Plug-In . SVG Version: 6.00 Build 0)  -->
<svg version="1.1" id="Capa_1" xmlns="http://www.w3.org/2000/svg" xmlns:xlink="http://www.w3.org/1999/xlink" x="0px" y="0px"
	 viewBox="0 0 499.855 499.855" style="enable-background:new 0 0 499.855 499.855;" xml:space="preserve">
<g>
	<g>
		
			<ellipse transform="matrix(0.002 -1 1 0.002 253.4194 511.1538)" style="fill:#5E8EE1;" cx="382.795" cy="128.615" rx="117.06" ry="117.06"/>
	</g>
	<g>
		
			<ellipse transform="matrix(0.002 -1 1 0.002 253.4194 511.1538)" style="fill:#FFF4F1;" cx="382.795" cy="128.615" rx="78.311" ry="78.311"/>
	</g>
	<g>
		<path style="fill:#467BFF;" d="M383.028,11.555c-5.27-0.01-10.457,0.334-15.544,0.998
			c57.287,7.716,101.405,56.852,101.287,116.233c-0.118,59.38-44.431,108.34-101.749,115.829c5.084,0.685,10.27,1.049,15.54,1.06
			c64.65,0.129,117.164-52.177,117.293-116.827C499.984,64.197,447.678,11.684,383.028,11.555z"/>
	</g>
	<g>
		<path style="fill:#FFF4F1;" d="M382.951,50.305c-5.322-0.011-10.519,0.515-15.545,1.517c35.789,7.281,62.691,38.96,62.616,76.887
			s-27.103,69.498-62.921,76.637c5.022,1.022,10.217,1.568,15.539,1.579c43.25,0.086,78.38-34.905,78.466-78.155
			C461.192,85.521,426.201,50.391,382.951,50.305z"/>
	</g>
	<g>
		<path style="fill:#FFD5CC;" d="M14.645,320.603L14.645,320.603c-10.275-0.02-17.341-10.33-13.655-19.92l27.762-72.217
			c0.477-71.955,59.02-130.069,131.054-129.925c72.241,0.144,130.687,58.823,130.543,131.063c-0.006,3.219-0.134,6.41-0.369,9.57
			l-0.217,109.291c-0.154,77.383-63.01,139.99-140.393,139.836h0c-24.792-0.049-44.85-20.187-44.801-44.98l0.023-11.437
			c0.029-14.611-11.792-26.479-26.403-26.508h0c-27.091-0.054-49.009-22.059-48.955-49.15l0.042-20.934
			C29.291,327.196,22.741,320.619,14.645,320.603z"/>
	</g>
	<g>
		<path style="fill:#FFD5CC;" d="M490.22,376.604L490.22,376.604c5.585,0.011,9.449-5.578,7.466-10.799l-14.935-39.317
			c-0.104-39.116-31.802-70.833-70.96-70.911c-39.27-0.078-71.168,31.693-71.247,70.964c-0.003,1.75,0.059,3.485,0.18,5.203
			l-0.118,59.411c-0.084,42.066,33.95,76.235,76.015,76.318h0c13.477,0.027,24.424-10.877,24.451-24.354l0.012-6.217
			c0.016-7.942,6.467-14.368,14.41-14.353h0c14.727,0.029,26.689-11.885,26.718-26.612l0.023-11.38
			C482.244,380.156,485.819,376.595,490.22,376.604z"/>
	</g>
	<path style="fill:#FECECA;" d="M159.806,98.54c-5.163-0.01-10.255,0.289-15.263,0.86c65.286,7.454,115.94,62.946,115.806,130.203
		c-0.006,3.219-0.134,6.41-0.369,9.571l-0.217,109.291c-0.141,70.812-52.79,129.24-121.026,138.536
		c3.409,0.836,6.967,1.292,10.633,1.3h0c77.383,0.154,140.239-62.453,140.393-139.836l0.217-109.291
		c0.235-3.16,0.363-6.351,0.369-9.571C290.493,157.363,232.047,98.684,159.806,98.54z"/>
	<path style="fill:#FECECA;" d="M497.686,365.804l-14.935-39.317c-0.104-39.116-31.802-70.833-70.96-70.911
		c-5.194-0.01-10.254,0.551-15.134,1.599c32.01,6.879,56.004,35.291,56.094,69.312l14.935,39.317
		c2.296,6.044-3.242,12.58-10.216,10.354c-2.836-0.905-5.22,0.984-5.226,3.961l-0.031,15.817
		c-0.029,14.727-11.991,26.641-26.718,26.612l0,0c-7.943-0.016-14.394,6.41-14.41,14.353l-0.012,6.217
		c-0.019,9.606-5.588,17.901-13.665,21.866c6.137,1.609,12.574,2.475,19.214,2.488h0c13.485,0,24.424-10.918,24.451-24.403
		l0.012-6.168c0.016-7.942,6.467-14.368,14.41-14.353l0,0c14.727,0.029,26.689-11.885,26.718-26.612l0.023-11.625
		c0.009-4.406,3.615-7.698,8.021-7.709C495.822,376.59,499.665,371.014,497.686,365.804z"/>
	<g>
		<path style="fill:#FC9086;" d="M388.118,184.011c-1.241-0.002-2.467,0.054-3.686,0.136c-8.56-17.252-26.329-29.133-46.897-29.174
			c-10.313-0.021-19.928,2.949-28.049,8.073c-8.1-5.157-17.704-8.164-28.017-8.185c-20.622-0.041-38.479,11.83-47.082,29.122
			c-1.783-0.187-3.593-0.286-5.424-0.29c-28.967-0.058-52.495,23.378-52.553,52.344c-0.058,28.967,23.378,52.495,52.344,52.553
			c0.679,0.001,1.351-0.023,2.023-0.047c6.222,21.966,26.386,38.084,50.35,38.132c10.313,0.021,19.928-2.949,28.049-8.074
			c8.1,5.157,17.704,8.165,28.017,8.185c23.948,0.048,44.164-15.968,50.488-37.886c0.076,0,0.151,0.006,0.228,0.006
			c28.967,0.058,52.495-23.378,52.553-52.344C440.52,207.597,417.085,184.068,388.118,184.011z"/>
	</g>
	<g>
		<path style="fill:#F57A73;" d="M388.118,184.01c-1.241-0.002-2.467,0.054-3.686,0.136c-8.56-17.252-26.329-29.133-46.897-29.174
			c-5.41-0.011-10.626,0.808-15.537,2.323c13.738,4.294,25.044,14.08,31.35,26.789c1.219-0.083,2.445-0.139,3.686-0.136
			c28.966,0.058,52.402,23.586,52.344,52.553c-0.058,28.967-23.587,52.402-52.553,52.344c-0.076,0-0.151-0.005-0.228-0.006
			c-4.894,16.96-18.109,30.379-34.931,35.563c4.905,1.534,10.117,2.374,15.527,2.384c23.948,0.048,44.164-15.968,50.488-37.886
			c0.076,0.001,0.151,0.006,0.228,0.006c28.966,0.058,52.495-23.378,52.553-52.344S417.085,184.068,388.118,184.01z"/>
	</g>
	<path style="fill:#D0CFD1;" d="M403.157,121.949l-10.921-0.022l0.048-24.317c0.009-4.292-3.463-7.778-7.756-7.786
		c-4.292-0.009-7.778,3.464-7.786,7.756l-0.061,30.807c-0.07,0.417-0.116,0.843-0.117,1.281c-0.009,4.292,3.463,7.778,7.756,7.786
		l18.806,0.037c4.292,0.009,7.778-3.464,7.786-7.756C410.921,125.444,407.449,121.958,403.157,121.949z"/>
	<g>
		<path style="fill:#F57A73;" d="M262.776,212.162c-1.44-0.003-2.895-0.405-4.194-1.244c-3.606-2.328-4.64-7.139-2.312-10.744
			c6.658-10.308,17.952-16.447,30.209-16.423c9.578,0.019,18.575,3.767,25.333,10.553c3.029,3.041,3.019,7.961-0.023,10.99
			c-3.04,3.028-7.96,3.018-10.99-0.023c-3.828-3.844-8.925-5.967-14.351-5.978c-6.945-0.014-13.346,3.468-17.122,9.313
			C267.837,210.913,265.331,212.168,262.776,212.162z"/>
	</g>
	<g>
		<path style="fill:#F57A73;" d="M386.72,246.829c-2.402-0.005-4.77-1.12-6.285-3.215c-3.182-4.395-7.884-7.288-13.242-8.147
			c-6.857-1.097-13.724,1.34-18.367,6.524c-2.862,3.197-7.776,3.468-10.973,0.605c-3.197-2.863-3.468-7.776-0.605-10.973
			c8.186-9.14,20.293-13.445,32.403-11.502c9.457,1.515,17.758,6.622,23.373,14.38c2.517,3.477,1.738,8.335-1.739,10.852
			C389.904,246.352,388.305,246.832,386.72,246.829z"/>
	</g>
	<path style="fill:#FDB0A9;" d="M153.08,153.578l3.952-3.936c3.041-3.029,3.051-7.949,0.022-10.99
		c-3.029-3.041-7.949-3.051-10.99-0.022l-3.952,3.936l-3.936-3.952c-3.029-3.042-7.949-3.05-10.99-0.022
		c-3.041,3.029-3.051,7.949-0.022,10.99l3.936,3.952l-3.952,3.936c-3.041,3.029-3.051,7.949-0.022,10.99
		c1.514,1.521,3.502,2.283,5.49,2.287s3.979-0.751,5.499-2.265l3.952-3.936l3.936,3.952c1.514,1.521,3.502,2.283,5.49,2.287
		c1.989,0.004,3.979-0.751,5.499-2.265c3.041-3.029,3.051-7.949,0.022-10.99L153.08,153.578z"/>
	<g>
		<path style="fill:#E3DED9;" d="M229.132,58.848l3.952-3.936c3.041-3.029,3.051-7.949,0.022-10.99
			c-3.029-3.041-7.949-3.05-10.99-0.022l-3.952,3.936l-3.936-3.952c-3.028-3.041-7.949-3.051-10.99-0.022
			c-3.041,3.028-3.051,7.949-0.022,10.99l3.936,3.952l-3.952,3.936c-3.041,3.029-3.051,7.949-0.022,10.99
			c1.514,1.521,3.502,2.283,5.49,2.287c1.989,0.004,3.979-0.751,5.499-2.265l3.952-3.936l3.936,3.952
			c1.514,1.521,3.502,2.283,5.49,2.287c1.988,0.004,3.979-0.751,5.499-2.265c3.041-3.029,3.051-7.949,0.022-10.99L229.132,58.848z"
			/>
		<path style="fill:#E3DED9;" d="M139.639,17.268c-3.028-3.041-7.949-3.051-10.99-0.022l-3.952,3.936l-3.936-3.952
			c-3.029-3.042-7.949-3.05-10.99-0.022c-3.041,3.029-3.051,7.949-0.022,10.99l3.936,3.952l-3.952,3.936
			c-3.041,3.029-3.051,7.949-0.022,10.99c1.514,1.521,3.502,2.283,5.49,2.287c1.989,0.004,3.979-0.751,5.499-2.265l3.952-3.936
			l3.936,3.952c1.514,1.521,3.502,2.283,5.49,2.287c1.989,0.004,3.979-0.751,5.499-2.265c3.041-3.029,3.051-7.949,0.022-10.99
			l-3.936-3.952l3.952-3.936C142.659,25.229,142.668,20.309,139.639,17.268z"/>
	</g>
</g>
<g>
</g>
<g>
</g>
<g>
</g>
<g>
</g>
<g>
</g>
<g>
</g>
<g>
</g>
<g>
</g>
<g>
</g>
<g>
</g>
<g>
</g>
<g>
</g>
<g>
</g>
<g>
</g>
<g>
</g>
</svg>
