<?xml version="1.0" encoding="iso-8859-1"?>
<!-- Generator: Adobe Illustrator 21.0.0, SVG Export Plug-In . SVG Version: 6.00 Build 0)  -->
<svg version="1.1" id="Capa_1" xmlns="http://www.w3.org/2000/svg" xmlns:xlink="http://www.w3.org/1999/xlink" x="0px" y="0px"
	 viewBox="0 0 502.392 502.392" style="enable-background:new 0 0 502.392 502.392;" xml:space="preserve">
<g>
	<g>
		<g>
			<rect x="243.023" y="275.788" style="fill:#E3DED9;" width="15" height="37.18"/>
		</g>
		<g>
			<path style="fill:#E3DED9;" d="M279.726,260.368c-3.786,0-6.854-3.069-6.854-6.855c0-3.786,3.068-6.854,6.854-6.854
				c11.007,0,19.963-8.955,19.963-19.963v-8.299h-17.728c-3.786,0-6.855-3.069-6.855-6.854c0-3.786,3.068-6.854,6.855-6.854h21.601
				c5.424,0,9.836,4.413,9.836,9.837v12.171C313.397,245.263,298.293,260.368,279.726,260.368z"/>
		</g>
		<g>
			<path style="fill:#E3DED9;" d="M222.689,260.368c3.786,0,6.855-3.069,6.855-6.855c0-3.786-3.068-6.854-6.855-6.854
				c-11.007,0-19.963-8.955-19.963-19.963v-8.299h17.728c3.786,0,6.854-3.069,6.854-6.854c0-3.786-3.068-6.854-6.854-6.854h-21.601
				c-5.424,0-9.836,4.413-9.836,9.837v12.171C189.017,245.263,204.122,260.368,222.689,260.368z"/>
		</g>
		<g>
			<path style="fill:#FFE056;" d="M214.943,213.497v31.822c0,19.945,16.319,36.264,36.264,36.264h0
				c19.945,0,36.264-16.319,36.264-36.264v-31.822c0-8.284-6.716-15-15-15h-42.529C221.659,198.497,214.943,205.213,214.943,213.497
				z"/>
		</g>
		<g>
			<path style="fill:#FFE056;" d="M273.271,331.469c2.272,0,4.037-2.076,3.569-4.3c-2.564-12.167-13.416-21.374-26.316-21.374
				c-12.901,0-23.753,9.207-26.316,21.374c-0.468,2.224,1.296,4.3,3.569,4.3H273.271z"/>
		</g>
		<path style="fill:#F9CD45;" d="M272.472,198.497h-30c8.284,0,15,6.716,15,15v31.822c0,14.602-8.752,27.251-21.264,32.986
			c4.579,2.098,9.657,3.279,15,3.279h0c19.946,0,36.264-16.319,36.264-36.264v-31.822
			C287.472,205.213,280.756,198.497,272.472,198.497z"/>
		<path style="fill:#F9CD45;" d="M276.84,327.169c-2.563-12.167-13.416-21.374-26.316-21.374c-5.546,0-10.707,1.71-15,4.616
			c5.693,3.855,9.855,9.821,11.316,16.758c0.469,2.224-1.296,4.3-3.569,4.3h30C275.543,331.469,277.308,329.392,276.84,327.169z"/>
		<g>
			<g>
				<path style="fill:#FFF4F1;" d="M299.948,113.37c-8.951-15.433-26.226-42.005-46.08-42.005
					c-19.907,0-37.224,26.627-46.154,42.129c-0.539,0.936-0.961,1.891-1.275,2.853c11.931,10.652,27.792,17.147,45.203,17.147
					C270.615,133.495,287.737,125.771,299.948,113.37z"/>
			</g>
			<path style="fill:#E8E4E0;" d="M253.658,71.474c-4.163,0.028-8.203,1.232-12.073,3.243c4.904,2.467,9.554,6.234,13.839,10.61
				c15.337,15.665,7.503,42.39-13.942,46.943c-0.582,0.124-1.166,0.24-1.754,0.348c3.937,0.676,7.987,1.027,12.126,0.999
				c18.973-0.129,36.042-7.969,48.169-20.452C290.966,97.793,273.511,71.339,253.658,71.474z"/>
			<g>
				<path style="fill:#9DDBDF;" d="M253.868,87.481c19.854,0,37.129,10.457,46.08,25.89c11.655-11.836,18.838-27.93,18.838-45.678
					c0-36.342-30.061-65.803-67.144-65.803s-67.144,29.461-67.144,65.803c0,19.279,8.461,36.62,21.941,48.656
					c0.314-0.963,0.736-1.918,1.275-2.853C216.644,97.993,233.961,87.481,253.868,87.481z"/>
			</g>
			<g>
				<path style="fill:#7CD6E6;" d="M251.642,1.889c-3.249,0-6.443,0.231-9.569,0.668c32.549,4.552,57.575,31.977,57.575,65.135
					c0,12.299-3.451,23.803-9.448,33.647c3.855,3.504,7.154,7.557,9.749,12.032c11.655-11.836,18.838-27.93,18.838-45.678
					C318.786,31.35,288.724,1.889,251.642,1.889z"/>
			</g>
			<g>
				<ellipse style="fill:#FFD5CC;" cx="252.852" cy="46.42" rx="15.735" ry="19.94"/>
			</g>
		</g>
		<g>
			<g>
				<path style="fill:#FFF4F1;" d="M115.45,299.081c-8.951-15.433-26.226-42.005-46.08-42.005
					c-19.907,0-37.224,26.627-46.154,42.129c-0.539,0.936-0.961,1.891-1.275,2.853c11.931,10.652,27.792,17.147,45.203,17.147
					C86.117,319.205,103.239,311.481,115.45,299.081z"/>
			</g>
			<path style="fill:#E8E4E0;" d="M69.16,257.184c-4.163,0.028-8.203,1.232-12.073,3.243c4.904,2.467,9.554,6.234,13.839,10.61
				c15.337,15.665,7.503,42.39-13.942,46.943c-0.582,0.124-1.166,0.24-1.754,0.348c3.937,0.676,7.987,1.027,12.126,0.999
				c18.973-0.129,36.042-7.969,48.169-20.452C106.468,283.503,89.013,257.049,69.16,257.184z"/>
			<g>
				<path style="fill:#5E8EE1;" d="M69.37,273.191c19.854,0,37.129,10.457,46.08,25.89c11.655-11.836,18.838-27.93,18.838-45.678
					c0-36.342-30.061-65.803-67.144-65.803S0,217.06,0,253.402c0,19.279,8.461,36.62,21.941,48.656
					c0.314-0.963,0.736-1.918,1.275-2.853C32.146,283.703,49.463,273.191,69.37,273.191z"/>
			</g>
			<g>
				<path style="fill:#467BFF;" d="M67.144,187.599c-3.249,0-6.443,0.231-9.569,0.668c32.549,4.552,57.575,31.977,57.575,65.135
					c0,12.299-3.451,23.803-9.448,33.647c3.855,3.504,7.154,7.557,9.749,12.032c11.655-11.836,18.838-27.93,18.838-45.678
					C134.288,217.06,104.227,187.599,67.144,187.599z"/>
			</g>
			<g>
				<ellipse style="fill:#FFD5CC;" cx="68.355" cy="232.131" rx="15.735" ry="19.94"/>
			</g>
		</g>
		<g>
			<g>
				<path style="fill:#FFF4F1;" d="M483.555,299.081c-8.951-15.433-26.226-42.005-46.08-42.005
					c-19.907,0-37.224,26.627-46.154,42.129c-0.539,0.936-0.961,1.891-1.275,2.853c11.931,10.652,27.792,17.147,45.203,17.147
					C454.222,319.205,471.344,311.481,483.555,299.081z"/>
			</g>
			<path style="fill:#E8E4E0;" d="M437.264,257.184c-4.163,0.028-8.203,1.232-12.073,3.243c4.904,2.467,9.554,6.234,13.839,10.61
				c15.337,15.665,7.503,42.39-13.942,46.943c-0.582,0.124-1.166,0.24-1.754,0.348c3.937,0.676,7.987,1.027,12.126,0.999
				c18.973-0.129,36.042-7.969,48.169-20.452C474.573,283.503,457.118,257.049,437.264,257.184z"/>
			<g>
				<path style="fill:#5E8EE1;" d="M437.475,273.191c19.854,0,37.129,10.457,46.08,25.89c11.655-11.836,18.838-27.93,18.838-45.678
					c0-36.342-30.061-65.803-67.144-65.803s-67.144,29.461-67.144,65.803c0,19.279,8.461,36.62,21.941,48.656
					c0.314-0.963,0.736-1.918,1.275-2.853C400.251,283.703,417.568,273.191,437.475,273.191z"/>
			</g>
			<g>
				<path style="fill:#467BFF;" d="M435.248,187.599c-3.249,0-6.443,0.231-9.569,0.668c32.549,4.552,57.575,31.977,57.575,65.135
					c0,12.299-3.451,23.803-9.448,33.647c3.855,3.504,7.154,7.557,9.749,12.032c11.655-11.836,18.838-27.93,18.838-45.678
					C502.392,217.06,472.331,187.599,435.248,187.599z"/>
			</g>
			<g>
				<ellipse style="fill:#FFD5CC;" cx="436.459" cy="232.131" rx="15.735" ry="19.94"/>
			</g>
		</g>
		<g>
			<g>
				<path style="fill:#FFF4F1;" d="M299.948,480.255c-8.951-15.433-26.226-42.005-46.08-42.005
					c-19.907,0-37.224,26.627-46.154,42.129c-0.539,0.936-0.961,1.891-1.275,2.853c11.931,10.652,27.792,17.147,45.203,17.147
					C270.615,500.38,287.737,492.656,299.948,480.255z"/>
			</g>
			<path style="fill:#E8E4E0;" d="M253.658,438.359c-4.163,0.028-8.203,1.232-12.073,3.243c4.904,2.467,9.554,6.234,13.839,10.61
				c15.337,15.665,7.503,42.39-13.942,46.943c-0.582,0.124-1.166,0.24-1.754,0.348c3.937,0.676,7.987,1.027,12.126,0.999
				c18.973-0.129,36.042-7.969,48.169-20.452C290.966,464.678,273.511,438.224,253.658,438.359z"/>
			<g>
				<path style="fill:#9DDBDF;" d="M253.868,454.366c19.854,0,37.129,10.457,46.08,25.89c11.655-11.836,18.838-27.93,18.838-45.678
					c0-36.342-30.061-65.803-67.144-65.803s-67.144,29.461-67.144,65.803c0,19.279,8.461,36.62,21.941,48.656
					c0.314-0.963,0.736-1.918,1.275-2.853C216.644,464.877,233.961,454.366,253.868,454.366z"/>
			</g>
			<g>
				<path style="fill:#7CD6E6;" d="M251.642,368.774c-3.249,0-6.443,0.231-9.569,0.668c32.549,4.552,57.575,31.977,57.575,65.135
					c0,12.299-3.451,23.803-9.448,33.647c3.855,3.504,7.154,7.557,9.749,12.032c11.655-11.836,18.838-27.93,18.838-45.678
					C318.786,398.235,288.724,368.774,251.642,368.774z"/>
			</g>
			<g>
				<ellipse style="fill:#FFD5CC;" cx="252.852" cy="413.305" rx="15.735" ry="19.94"/>
			</g>
		</g>
	</g>
	<g>
		<g>
			<path style="fill:#D0CFD1;" d="M81.522,165.855c-3.62-2.01-4.93-6.57-2.92-10.2l0,0c2-3.62,6.57-4.93,10.189-2.92l0,0
				c3.62,2.01,4.931,6.57,2.931,10.19l0,0c-1.37,2.48-3.931,3.87-6.57,3.87l0,0C83.922,166.795,82.672,166.495,81.522,165.855z
				 M98.861,137.795c-3.22-2.6-3.72-7.33-1.12-10.55l0,0c2.61-3.22,7.33-3.72,10.55-1.11l0,0c3.221,2.6,3.721,7.32,1.12,10.54l0,0
				c-1.489,1.84-3.649,2.79-5.84,2.79l0,0C101.911,139.465,100.251,138.915,98.861,137.795z M120.781,113.155
				c-2.72-3.12-2.399-7.86,0.72-10.58l0,0c3.12-2.73,7.86-2.41,10.58,0.71l0,0c2.73,3.12,2.41,7.86-0.71,10.59l0,0
				c-1.43,1.24-3.18,1.85-4.93,1.85l0,0C124.352,115.725,122.272,114.855,120.781,113.155z M146.632,92.665
				c-2.15-3.55-1.011-8.16,2.529-10.31l0,0c0,0,0,0,0,0.01l0,0c3.54-2.15,8.16-1.01,10.3,2.53l0,0c2.15,3.54,1.011,8.16-2.529,10.3
				l0,0c-1.221,0.73-2.561,1.08-3.88,1.08l0,0C150.512,96.275,148.041,94.995,146.632,92.665z"/>
		</g>
		<g>
			<path style="fill:#D0CFD1;" d="M411.401,160.245c-2.15-3.55-1.01-8.16,2.53-10.3l0,0c3.55-2.15,8.16-1.01,10.3,2.53l0,0
				c2.15,3.55,1.01,8.16-2.53,10.3l0,0c-1.22,0.74-2.55,1.09-3.88,1.09l0,0C415.291,163.865,412.812,162.575,411.401,160.245z
				 M392.722,134.685L392.722,134.685c-2.721-3.12-2.4-7.86,0.72-10.58l0,0c3.12-2.73,7.86-2.41,10.58,0.71l0,0l0,0l0,0
				c2.729,3.12,2.41,7.86-0.71,10.59l0,0c-1.43,1.24-3.19,1.85-4.94,1.85l0,0C396.281,137.255,394.201,136.385,392.722,134.685z
				 M369.911,112.725c-3.22-2.61-3.71-7.33-1.109-10.55l0,0c2.6-3.22,7.319-3.72,10.55-1.12l0,0c3.22,2.61,3.72,7.33,1.109,10.55
				l0,0c-1.479,1.83-3.649,2.79-5.829,2.79l0,0C372.972,114.395,371.302,113.845,369.911,112.725z M343.661,95.035
				c-3.62-2.01-4.93-6.58-2.92-10.2l0,0c2.01-3.62,6.57-4.93,10.19-2.92l0,0c0,0,0,0,0.01,0l0,0c3.62,2,4.93,6.57,2.92,10.19l0,0
				c-1.37,2.47-3.93,3.87-6.57,3.87l0,0C346.062,95.975,344.821,95.665,343.661,95.035z"/>
		</g>
		<g>
			<path style="fill:#D0CFD1;" d="M343.821,425.015c-2.149-3.54-1.01-8.15,2.53-10.3l0,0c3.55-2.14,8.16-1.01,10.3,2.53l0,0
				c2.14,3.55,1.01,8.16-2.53,10.3l0,0c-1.22,0.74-2.56,1.09-3.88,1.09l0,0C347.701,428.635,345.232,427.345,343.821,425.015z
				 M371.191,406.625c-2.72-3.12-2.4-7.86,0.72-10.59l0,0c3.12-2.72,7.86-2.4,10.58,0.72l0,0c2.73,3.12,2.41,7.86-0.71,10.58l0,0
				c-1.43,1.24-3.18,1.85-4.93,1.85l0,0C374.762,409.185,372.682,408.315,371.191,406.625z M394.991,383.775
				c-3.22-2.6-3.72-7.32-1.12-10.54l0,0c2.61-3.22,7.33-3.72,10.551-1.12l0,0c3.22,2.6,3.72,7.33,1.119,10.55l0,0
				c-1.489,1.83-3.649,2.78-5.84,2.78l0,0C398.041,385.445,396.382,384.905,394.991,383.775z M414.491,357.175
				c-3.62-2.01-4.93-6.57-2.93-10.19l0,0c2.01-3.63,6.57-4.94,10.2-2.93l0,0c3.62,2.01,4.93,6.57,2.92,10.2l0,0c0,0,0,0,0.01,0l0,0
				c-1.37,2.47-3.93,3.86-6.57,3.86l0,0C416.892,358.115,415.642,357.815,414.491,357.175z"/>
		</g>
		<g>
			<path style="fill:#D0CFD1;" d="M152.342,427.995c-3.62-2-4.931-6.57-2.92-10.19l0,0c2.01-3.62,6.569-4.93,10.189-2.93l0,0
				c3.63,2.01,4.94,6.58,2.93,10.2l0,0c-1.369,2.47-3.93,3.87-6.569,3.87l0,0C154.741,428.945,153.491,428.635,152.342,427.995z
				 M123.932,408.855L123.932,408.855L123.932,408.855c-3.221-2.61-3.721-7.33-1.11-10.55l0,0c2.601-3.22,7.32-3.72,10.54-1.12l0,0
				c3.22,2.61,3.72,7.33,1.12,10.55l0,0c-1.48,1.83-3.65,2.78-5.84,2.78l0,0C126.991,410.515,125.321,409.975,123.932,408.855z
				 M99.262,385.095c-2.73-3.12-2.41-7.86,0.71-10.59l0,0c3.12-2.72,7.859-2.4,10.59,0.72l0,0c2.72,3.12,2.399,7.86-0.72,10.59l0,0
				c-1.42,1.24-3.181,1.85-4.931,1.85l0,0C102.821,387.665,100.741,386.795,99.262,385.095z M79.041,357.435
				c-2.14-3.55-1-8.16,2.54-10.3l0,0c3.54-2.15,8.16-1.01,10.301,2.53l0,0c2.14,3.55,1.01,8.16-2.54,10.3l0,0
				c-1.21,0.74-2.551,1.09-3.87,1.09l0,0C82.932,361.055,80.451,359.765,79.041,357.435z"/>
		</g>
	</g>
</g>
<g>
</g>
<g>
</g>
<g>
</g>
<g>
</g>
<g>
</g>
<g>
</g>
<g>
</g>
<g>
</g>
<g>
</g>
<g>
</g>
<g>
</g>
<g>
</g>
<g>
</g>
<g>
</g>
<g>
</g>
</svg>
