<?xml version="1.0" encoding="iso-8859-1"?>
<!-- Generator: Adobe Illustrator 21.0.0, SVG Export Plug-In . SVG Version: 6.00 Build 0)  -->
<svg version="1.1" id="Capa_1" xmlns="http://www.w3.org/2000/svg" xmlns:xlink="http://www.w3.org/1999/xlink" x="0px" y="0px"
	 viewBox="0 0 498.385 498.385" style="enable-background:new 0 0 498.385 498.385;" xml:space="preserve">
<g>
	<g>
		<path style="fill:#DC8839;" d="M279.213,463.612l-15.244,5.845c-7.735,2.966-16.41-0.9-19.376-8.636l-77.834-202.998
			l43.256-16.585l77.834,202.998C290.814,451.971,286.948,460.646,279.213,463.612z"/>
	</g>
	<path style="fill:#BE7511;" d="M287.848,444.235l-77.834-202.998l-26.155,10.028l73.989,192.969
		c2.966,7.735-0.901,16.41-8.636,19.376l-2.513,0.964c3.938,5.139,10.917,7.317,17.269,4.881l15.244-5.845
		C286.948,460.646,290.814,451.971,287.848,444.235z"/>
	<g>
		<path style="fill:#DC8839;" d="M71.354,463.612l15.244,5.845c7.735,2.966,16.41-0.9,19.376-8.636l77.834-202.998l-43.256-16.585
			L62.718,444.236C59.752,451.971,63.618,460.646,71.354,463.612z"/>
	</g>
	<g>
		<path style="fill:#DC8839;" d="M184.273,474.827h-16.326c-8.284,0-15-6.716-15-15V242.418h46.326v217.408
			C199.273,468.111,192.557,474.827,184.273,474.827z"/>
	</g>
	<path style="fill:#BE7511;" d="M140.552,241.238l-3.845,10.028l17.101,6.557L75.974,460.821c-0.53,1.383-1.25,2.636-2.106,3.754
		l12.73,4.881c7.735,2.966,16.41-0.9,19.376-8.636l77.834-202.998L140.552,241.238z"/>
	<path style="fill:#BE7511;" d="M169.273,242.419v217.408c0,5.819-3.32,10.853-8.163,13.34c2.052,1.054,4.372,1.66,6.837,1.66
		h16.326c8.284,0,15-6.716,15-15V242.419H169.273z"/>
	<g>
		<circle style="fill:#FFF4F1;" cx="178.885" cy="202.444" r="178.885"/>
	</g>
	<g>
		<path style="fill:#E3DED9;" d="M178.885,23.559c-5.053,0-10.053,0.221-15,0.632c91.775,7.621,163.885,84.511,163.885,178.254
			c0,93.743-72.11,170.633-163.885,178.253c4.947,0.411,9.947,0.632,15,0.632c98.795,0,178.885-80.09,178.885-178.885
			C357.77,103.648,277.681,23.559,178.885,23.559z"/>
	</g>
	<g>
		<circle style="fill:#F86654;" cx="178.885" cy="202.444" r="140.379"/>
	</g>
	<g>
		<path style="fill:#EA543C;" d="M178.885,62.065c-5.068,0-10.071,0.275-15,0.799c70.476,7.487,125.379,67.119,125.379,139.581
			c0,72.461-54.904,132.093-125.379,139.581c4.929,0.523,9.932,0.799,15,0.799c77.529,0,140.379-62.85,140.379-140.379
			C319.264,124.914,256.414,62.065,178.885,62.065z"/>
	</g>
	<g>
		<circle style="fill:#FFF4F1;" cx="178.885" cy="202.444" r="97.707"/>
	</g>
	<g>
		<circle style="fill:#F86654;" cx="178.885" cy="202.444" r="43.304"/>
	</g>
	<g>
		<path style="fill:#EA543C;" d="M178.885,159.14c-5.274,0-10.326,0.945-15,2.671c16.522,6.102,28.304,21.99,28.304,40.633
			c0,18.642-11.781,34.531-28.304,40.632c4.674,1.726,9.726,2.671,15,2.671c23.916,0,43.304-19.388,43.304-43.304
			S202.801,159.14,178.885,159.14z"/>
	</g>
	<path style="fill:#B4B4B4;" d="M490.885,193.604h-20.463l6.92-7.296c2.851-3.005,2.726-7.752-0.28-10.603
		c-3.004-2.851-7.752-2.726-10.603,0.28l-16.71,17.618H181.202c-4.143,0-7.5,3.358-7.5,7.5s3.357,7.5,7.5,7.5h230.263l21.003,15.377
		c1.336,0.978,2.887,1.449,4.425,1.449c2.31,0,4.588-1.063,6.058-3.07c2.446-3.342,1.721-8.035-1.621-10.482l-4.473-3.275h54.03
		c4.143,0,7.5-3.358,7.5-7.5S495.028,193.604,490.885,193.604z"/>
</g>
<g>
</g>
<g>
</g>
<g>
</g>
<g>
</g>
<g>
</g>
<g>
</g>
<g>
</g>
<g>
</g>
<g>
</g>
<g>
</g>
<g>
</g>
<g>
</g>
<g>
</g>
<g>
</g>
<g>
</g>
</svg>
