<?xml version="1.0" encoding="iso-8859-1"?>
<!-- Generator: Adobe Illustrator 21.0.0, SVG Export Plug-In . SVG Version: 6.00 Build 0)  -->
<svg version="1.1" id="Capa_1" xmlns="http://www.w3.org/2000/svg" xmlns:xlink="http://www.w3.org/1999/xlink" x="0px" y="0px"
	 viewBox="0 0 486.316 486.316" style="enable-background:new 0 0 486.316 486.316;" xml:space="preserve">
<g>
	<g>
		<path style="fill:#FFF4F1;" d="M348.864,486.316h-327c-8.284,0-15-6.716-15-15V15c0-8.284,6.716-15,15-15h327
			c8.284,0,15,6.716,15,15v456.316C363.864,479.6,357.148,486.316,348.864,486.316z"/>
	</g>
	<g>
		<path style="fill:#E9E5E1;" d="M348.864,0h-30c8.284,0,15,6.715,15,15v456.316c0,8.284-6.716,15-15,15h30c8.284,0,15-6.716,15-15
			V15C363.864,6.716,357.148,0,348.864,0z"/>
	</g>
	<g>
		<path style="fill:#B4B4B4;" d="M467.159,328.752l-4.221,0.102c-1.1-20.16-8.405-38.686-20.019-53.728l3.548-2.592
			c5.803-4.24,6.609-12.608,1.706-17.862c-10.066-10.785-22.221-19.59-35.575-25.771c-6.526-3.02-14.227,0.37-16.436,7.213
			l-1.749,5.419c-8.917-2.716-18.371-4.19-28.165-4.19c-10.557,0-20.715,1.722-30.235,4.859l-1.955-5.991
			c-2.23-6.836-9.943-10.202-16.459-7.161c-13.335,6.223-25.463,15.067-35.495,25.884c-4.887,5.269-4.054,13.635,1.762,17.856
			l4.805,3.488c-11.664,15.586-18.717,34.796-19.207,55.6l-4.744,0.005c-7.177,0.008-12.747,6.277-11.904,13.404
			c1.746,14.763,6.357,28.917,13.635,41.853c3.52,6.257,11.721,8.035,17.522,3.806l2.555-1.863
			c11.657,16.876,28.525,29.873,48.263,36.673l-0.539,1.665c-2.213,6.832,2.031,14.082,9.077,15.467
			c7.193,1.413,14.529,2.126,21.93,2.126c0.003,0,0.003,0,0.007,0c7.437,0,14.807-0.72,22.033-2.147
			c7.047-1.392,11.287-8.646,9.066-15.477l-0.345-1.062c21.311-6.903,39.398-21.003,51.403-39.424l1.971,1.357
			c5.918,4.078,14.083,2.076,17.423-4.288c6.856-13.062,11.154-27.443,12.578-42.089
			C480.091,334.728,474.348,328.578,467.159,328.752z M366.249,391.101c-31.382,0-56.913-25.531-56.913-56.913
			s25.531-56.913,56.913-56.913s56.913,25.531,56.913,56.913S397.63,391.101,366.249,391.101z"/>
	</g>
	<g>
		<path style="fill:#9A9999;" d="M467.159,328.753l-4.221,0.102c-1.1-20.16-8.405-38.686-20.019-53.728l3.548-2.592
			c5.803-4.24,6.609-12.608,1.706-17.862c-10.066-10.785-22.221-19.59-35.575-25.771c-6.526-3.02-14.227,0.371-16.436,7.213
			l-1.749,5.418c-1.411-0.43-2.84-0.816-4.277-1.183c24.844,21.02,46.622,64.42,46.622,99.511
			c0,55.812-45.904,90.296-98.737,100.499c1.48,1.228,3.271,2.128,5.307,2.528c7.193,1.413,14.529,2.126,21.93,2.126
			c0.003,0,0.003,0,0.007,0c7.437,0,14.807-0.72,22.033-2.147c7.047-1.392,11.287-8.646,9.066-15.477l-0.345-1.062
			c21.311-6.903,39.398-21.002,51.403-39.424l1.971,1.357c5.918,4.077,14.083,2.076,17.423-4.288
			c6.856-13.063,11.154-27.443,12.578-42.089C480.091,334.728,474.348,328.578,467.159,328.753z"/>
	</g>
	<g>
		<circle style="fill:#FFE056;" cx="75.438" cy="140.583" r="20.348"/>
	</g>
	<g>
		<circle style="fill:#FFE056;" cx="75.438" cy="233.622" r="20.348"/>
	</g>
	<g>
		<circle style="fill:#FFE056;" cx="75.438" cy="326.66" r="20.348"/>
	</g>
	<g>
		<circle style="fill:#FFE056;" cx="75.438" cy="419.698" r="20.348"/>
	</g>
	<g>
		<path style="fill:#9DDBDF;" d="M294.919,86.673H71.178c-8.25,0-15-6.75-15-15v-5.133c0-8.25,6.75-15,15-15h223.741
			c8.25,0,15,6.75,15,15v5.133C309.919,79.923,303.169,86.673,294.919,86.673z"/>
	</g>
	<g>
		<path style="fill:#9DDBDF;" d="M294.919,51.539h-30c8.25,0,15,6.75,15,15v5.134c0,8.25-6.75,15-15,15h30c8.25,0,15-6.75,15-15
			v-5.134C309.919,58.289,303.169,51.539,294.919,51.539z"/>
	</g>
	<g>
		<path style="fill:#E3DED9;" d="M300.22,132.041H129.108c-4.142,0-7.5-3.358-7.5-7.5c0-4.142,3.358-7.5,7.5-7.5H300.22
			c4.142,0,7.5,3.358,7.5,7.5C307.72,128.683,304.362,132.041,300.22,132.041z"/>
	</g>
	<g>
		<path style="fill:#E3DED9;" d="M228.798,158.066h-99.69c-4.142,0-7.5-3.358-7.5-7.5s3.358-7.5,7.5-7.5h99.69
			c4.142,0,7.5,3.358,7.5,7.5S232.94,158.066,228.798,158.066z"/>
	</g>
	<g>
		<path style="fill:#E3DED9;" d="M280.22,225.079H129.108c-4.142,0-7.5-3.358-7.5-7.5s3.358-7.5,7.5-7.5H280.22
			c4.142,0,7.5,3.358,7.5,7.5S284.362,225.079,280.22,225.079z"/>
	</g>
	<g>
		<path style="fill:#E3DED9;" d="M198.798,251.104h-69.69c-4.142,0-7.5-3.358-7.5-7.5s3.358-7.5,7.5-7.5h69.69
			c4.142,0,7.5,3.358,7.5,7.5S202.94,251.104,198.798,251.104z"/>
	</g>
	<g>
		<path style="fill:#E3DED9;" d="M230.22,318.117H129.108c-4.142,0-7.5-3.358-7.5-7.5s3.358-7.5,7.5-7.5H230.22
			c4.142,0,7.5,3.358,7.5,7.5S234.362,318.117,230.22,318.117z"/>
	</g>
	<g>
		<path style="fill:#E3DED9;" d="M198.798,344.142h-69.69c-4.142,0-7.5-3.358-7.5-7.5s3.358-7.5,7.5-7.5h69.69
			c4.142,0,7.5,3.358,7.5,7.5S202.94,344.142,198.798,344.142z"/>
	</g>
	<g>
		<path style="fill:#E3DED9;" d="M160.22,411.156h-31.113c-4.142,0-7.5-3.358-7.5-7.5s3.358-7.5,7.5-7.5h31.113
			c4.142,0,7.5,3.358,7.5,7.5S164.362,411.156,160.22,411.156z"/>
	</g>
	<g>
		<path style="fill:#E3DED9;" d="M208.798,437.181h-79.69c-4.142,0-7.5-3.358-7.5-7.5s3.358-7.5,7.5-7.5h79.69
			c4.142,0,7.5,3.358,7.5,7.5S212.94,437.181,208.798,437.181z"/>
	</g>
	<g>
		<path style="fill:#E3DED9;" d="M465.188,181.498l3.806-3.806c2.929-2.929,2.929-7.678,0-10.606c-2.929-2.93-7.678-2.929-10.606,0
			l-3.806,3.806l-3.806-3.806c-2.928-2.929-7.677-2.929-10.606,0c-2.929,2.929-2.929,7.677,0,10.606l3.806,3.806l-3.806,3.807
			c-2.929,2.929-2.929,7.678,0,10.606c1.464,1.464,3.384,2.197,5.303,2.197s3.839-0.732,5.303-2.197l3.806-3.806l3.806,3.806
			c1.464,1.465,3.384,2.197,5.303,2.197c1.919,0,3.839-0.732,5.303-2.197c2.929-2.929,2.929-7.677,0-10.606L465.188,181.498z"/>
		<path style="fill:#E3DED9;" d="M419.474,97.012c-2.929-2.929-7.678-2.929-10.606,0l-3.806,3.806l-3.806-3.806
			c-2.929-2.929-7.678-2.929-10.606,0c-2.929,2.929-2.929,7.678,0,10.606l3.806,3.806l-3.806,3.806
			c-2.929,2.929-2.929,7.678,0,10.606c1.464,1.464,3.384,2.197,5.303,2.197s3.839-0.732,5.303-2.197l3.806-3.806l3.806,3.806
			c1.464,1.464,3.384,2.197,5.303,2.197s3.839-0.732,5.303-2.197c2.929-2.929,2.929-7.678,0-10.606l-3.806-3.806l3.806-3.806
			C422.403,104.69,422.403,99.941,419.474,97.012z"/>
		<path style="fill:#E3DED9;" d="M438.649,47.838c1.464,1.464,3.384,2.197,5.303,2.197s3.839-0.732,5.303-2.197l3.806-3.806
			l3.806,3.806c1.464,1.464,3.384,2.197,5.303,2.197s3.839-0.732,5.303-2.197c2.929-2.929,2.929-7.678,0-10.606l-3.806-3.806
			l3.806-3.806c2.929-2.929,2.929-7.678,0-10.606c-2.929-2.929-7.678-2.929-10.606,0l-3.806,3.806l-3.806-3.806
			c-2.929-2.929-7.678-2.929-10.606,0c-2.929,2.929-2.929,7.678,0,10.606l3.806,3.806l-3.806,3.806
			C435.719,40.16,435.719,44.909,438.649,47.838z"/>
	</g>
	<g>
		<g>
			<path style="fill:#FFF4F1;" d="M414.732,378.771c-8.827-15.22-25.864-41.426-45.444-41.426c-19.633,0-36.711,26.26-45.518,41.548
				c-0.532,0.923-0.948,1.865-1.258,2.814c11.766,10.505,27.409,16.911,44.58,16.911C385.803,398.618,402.689,391,414.732,378.771z"
				/>
		</g>
		<path style="fill:#E3DED9;" d="M369.08,337.452c-4.106,0.028-8.09,1.215-11.907,3.198c4.836,2.433,9.422,6.148,13.648,10.464
			c15.126,15.449,7.399,41.806-13.75,46.296c-0.574,0.122-1.15,0.236-1.73,0.344c3.883,0.667,7.877,1.013,11.959,0.985
			c18.711-0.127,35.545-7.859,47.504-20.17C405.874,363.408,388.659,337.319,369.08,337.452z"/>
		<g>
			<path style="fill:#FC9086;" d="M369.288,353.238c19.58,0,36.617,10.312,45.444,25.533c11.495-11.673,18.578-27.545,18.578-45.049
				c0-35.841-29.647-64.896-66.218-64.896s-66.218,29.055-66.218,64.896c0,19.013,8.345,36.115,21.639,47.985
				c0.31-0.949,0.726-1.891,1.258-2.814C332.577,363.605,349.655,353.238,369.288,353.238z"/>
		</g>
		<g>
			<path style="fill:#F57A73;" d="M367.092,268.826c-3.205,0-6.354,0.228-9.437,0.659c32.1,4.49,56.781,31.536,56.781,64.237
				c0,12.129-3.404,23.474-9.318,33.183c3.802,3.456,7.055,7.453,9.615,11.866c11.495-11.673,18.578-27.545,18.578-45.049
				C433.31,297.881,403.663,268.826,367.092,268.826z"/>
		</g>
		<g>
			<ellipse style="fill:#FFD5CC;" cx="368.286" cy="312.744" rx="15.518" ry="19.665"/>
		</g>
	</g>
</g>
<g>
</g>
<g>
</g>
<g>
</g>
<g>
</g>
<g>
</g>
<g>
</g>
<g>
</g>
<g>
</g>
<g>
</g>
<g>
</g>
<g>
</g>
<g>
</g>
<g>
</g>
<g>
</g>
<g>
</g>
</svg>
