<?xml version="1.0" encoding="iso-8859-1"?>
<!-- Generator: Adobe Illustrator 21.0.0, SVG Export Plug-In . SVG Version: 6.00 Build 0)  -->
<svg version="1.1" id="Capa_1" xmlns="http://www.w3.org/2000/svg" xmlns:xlink="http://www.w3.org/1999/xlink" x="0px" y="0px"
	 viewBox="0 0 502.879 502.879" style="enable-background:new 0 0 502.879 502.879;" xml:space="preserve">
<g>
	<g>
		<polygon style="fill:#E3DED9;" points="392.606,155.198 262.985,49.824 273.184,39.576 402.806,144.95 		"/>
	</g>
	<g>
		<polygon style="fill:#E3DED9;" points="102.506,155.198 232.127,49.824 221.928,39.576 92.306,144.95 		"/>
	</g>
	<g>
		<path style="fill:#FFF4F1;" d="M454.356,502.879H48.523c-8.284,0-15-6.716-15-15V151.423c0-8.284,6.716-15,15-15h405.833
			c8.284,0,15,6.716,15,15v336.456C469.356,496.163,462.64,502.879,454.356,502.879z"/>
	</g>
	<g>
		<path style="fill:#E3DED9;" d="M454.356,133.251h-30c8.284,0,15,6.716,15,15v336.456c0,8.284-6.716,15-15,15h30
			c8.284,0,15-6.716,15-15V148.251C469.356,139.967,462.64,133.251,454.356,133.251z"/>
	</g>
	<g>
		<path style="fill:#5E8EE1;" d="M469.356,176.112v-27.861c0-8.284-6.716-15-15-15H48.523c-8.284,0-15,6.716-15,15v27.861H469.356z"
			/>
	</g>
	<g>
		<path style="fill:#467BFF;" d="M454.356,133.251h-30c8.284,0,15,6.716,15,15v27.861h30v-27.861
			C469.356,139.967,462.64,133.251,454.356,133.251z"/>
	</g>
	<g>
		<path style="fill:#F7EE7D;" d="M399.764,281.356H155.269V239.2h244.495c8.284,0,15,6.716,15,15v12.156
			C414.764,274.64,408.048,281.356,399.764,281.356z"/>
	</g>
	<g>
		<path style="fill:#F9CD45;" d="M399.764,239.2h-30c8.284,0,15,6.716,15,15v12.156c0,8.284-6.716,15-15,15h30
			c8.284,0,15-6.716,15-15V254.2C414.764,245.916,408.048,239.2,399.764,239.2z"/>
	</g>
	<g>
		<path style="fill:#9DDBDF;" d="M259.244,361.807h-88.974c-8.284,0-15-6.716-15-15v-12.156c0-8.284,6.716-15,15-15h88.974
			c8.284,0,15,6.716,15,15v12.156C274.244,355.092,267.528,361.807,259.244,361.807z"/>
	</g>
	<g>
		<path style="fill:#7CD6E6;" d="M259.244,319.651h-30c8.284,0,15,6.715,15,15v12.156c0,8.285-6.716,15-15,15h30
			c8.284,0,15-6.715,15-15v-12.156C274.244,326.367,267.528,319.651,259.244,319.651z"/>
	</g>
	<g>
		<path style="fill:#FC9086;" d="M399.764,442.259H282.686c-8.284,0-15-6.716-15-15v-12.156c0-8.284,6.716-15,15-15h117.078
			c8.284,0,15,6.716,15,15v12.156C414.764,435.543,408.048,442.259,399.764,442.259z"/>
	</g>
	<g>
		<path style="fill:#F57A73;" d="M400.218,400.103h-30.454c8.284,0,15,6.716,15,15v12.156c0,8.284-6.716,15-15,15h30.454
			c8.284,0,15-6.716,15-15v-12.156C415.218,406.818,408.502,400.103,400.218,400.103z"/>
	</g>
	<g>
		<circle style="fill:#FFE056;" cx="100.717" cy="254.356" r="20.579"/>
	</g>
	<g>
		<circle style="fill:#9DDBDF;" cx="100.717" cy="340.954" r="20.579"/>
	</g>
	<g>
		<circle style="fill:#FC9086;" cx="100.717" cy="426.946" r="20.579"/>
	</g>
	<path style="fill:#467BFF;" d="M246.814,0c-18.716,0-33.941,15.226-33.941,33.941s15.226,33.941,33.941,33.941
		s33.941-15.226,33.941-33.941S265.53,0,246.814,0z"/>
	<g>
		<path style="fill:#D0CFD1;" d="M156.89,468.549c-4.143,0-7.5-3.358-7.5-7.5v-249.14c0-4.142,3.357-7.5,7.5-7.5s7.5,3.358,7.5,7.5
			v249.14C164.39,465.191,161.032,468.549,156.89,468.549z"/>
	</g>
</g>
<g>
</g>
<g>
</g>
<g>
</g>
<g>
</g>
<g>
</g>
<g>
</g>
<g>
</g>
<g>
</g>
<g>
</g>
<g>
</g>
<g>
</g>
<g>
</g>
<g>
</g>
<g>
</g>
<g>
</g>
</svg>
