<?xml version="1.0" encoding="iso-8859-1"?>
<!-- Generator: Adobe Illustrator 21.0.0, SVG Export Plug-In . SVG Version: 6.00 Build 0)  -->
<svg version="1.1" id="Capa_1" xmlns="http://www.w3.org/2000/svg" xmlns:xlink="http://www.w3.org/1999/xlink" x="0px" y="0px"
	 viewBox="0 0 502.1 502.1" style="enable-background:new 0 0 502.1 502.1;" xml:space="preserve">
<g>
	<g>
		<path style="fill:#FFE056;" d="M343.464,210.443c0-51.039-41.375-92.414-92.414-92.414s-92.414,41.375-92.414,92.414
			c0,42.092,28.143,77.607,66.638,88.766v48.814h51.552v-48.814C315.321,288.05,343.464,252.535,343.464,210.443z"/>
	</g>
	<g>
		<path style="fill:#F9CD45;" d="M251.05,118.029c-5.108,0-10.117,0.421-15,1.218c43.904,7.167,77.414,45.265,77.414,91.196
			c0,42.092-28.143,77.607-66.638,88.766v48.814h30v-48.814c38.495-11.159,66.638-46.674,66.638-88.766
			C343.464,159.404,302.089,118.029,251.05,118.029z"/>
	</g>
	<path style="fill:#D0CFD1;" d="M217.764,328.21v38.052c0,18.367,14.942,33.31,33.31,33.31c19.301,0,33.31-14.009,33.31-33.31
		V328.21H217.764z"/>
	<path style="fill:#B4B4B4;" d="M254.383,328.21v38.052c0,13.649-7.011,24.643-17.939,29.917c4.419,2.17,9.383,3.393,14.63,3.393
		c19.301,0,33.31-14.009,33.31-33.31V328.21H254.383z"/>
	<g>
		<path style="fill:#F9CD45;" d="M284.075,214.317c0,34.248-34.383,62.012-34.383,62.012s-34.383-27.764-34.383-62.012
			s34.383-62.012,34.383-62.012S284.075,180.068,284.075,214.317z"/>
	</g>
	<g>
		<path style="fill:#F8B53C;" d="M249.692,152.305c0,0-7.194,5.82-15,15.4c9.261,11.365,19.383,28.028,19.383,46.612
			c0,18.584-10.122,35.247-19.383,46.612c7.806,9.58,15,15.4,15,15.4s34.383-27.764,34.383-62.012
			C284.075,180.068,249.692,152.305,249.692,152.305z"/>
	</g>
	<g>
		<path style="fill:#9A9999;" d="M284.656,334.287h-67.213c-4.142,0-7.5-3.358-7.5-7.5s3.358-7.5,7.5-7.5h67.213
			c4.142,0,7.5,3.358,7.5,7.5S288.798,334.287,284.656,334.287z"/>
	</g>
	<g>
		<g>
			<path style="fill:#FFF4F1;" d="M131.57,132.561c-9.097-15.685-26.655-42.692-46.833-42.692
				c-20.233,0-37.833,27.062-46.909,42.818c-0.548,0.951-0.977,1.922-1.296,2.9c12.126,10.826,28.247,17.428,45.942,17.428
				C101.757,153.015,119.16,145.164,131.57,132.561z"/>
		</g>
		<path style="fill:#E8E4E0;" d="M84.523,89.98c-4.232,0.029-8.337,1.252-12.271,3.296c4.984,2.507,9.71,6.336,14.065,10.784
			c15.588,15.921,7.625,43.084-14.17,47.711c-0.591,0.126-1.185,0.244-1.782,0.354c4.001,0.687,8.118,1.044,12.325,1.015
			c19.283-0.131,36.631-8.1,48.956-20.787C122.441,116.729,104.701,89.843,84.523,89.98z"/>
		<g>
			<path style="fill:#9DDBDF;" d="M84.737,106.248c20.178,0,37.736,10.628,46.833,26.313c11.846-12.029,19.146-28.387,19.146-46.425
				c0-36.936-30.553-66.879-68.242-66.879S14.232,49.2,14.232,86.136c0,19.594,8.6,37.219,22.3,49.451
				c0.319-0.978,0.748-1.949,1.296-2.9C46.904,116.932,64.504,106.248,84.737,106.248z"/>
		</g>
		<g>
			<path style="fill:#7CD6E6;" d="M82.474,19.257c-3.302,0-6.549,0.235-9.726,0.679c33.081,4.627,58.516,32.5,58.516,66.2
				c0,12.5-3.508,24.192-9.603,34.197c3.918,3.562,7.271,7.681,9.909,12.229c11.846-12.029,19.146-28.387,19.146-46.425
				C150.716,49.2,120.163,19.257,82.474,19.257z"/>
		</g>
		<g>
			<ellipse style="fill:#FFD5CC;" cx="83.705" cy="64.517" rx="15.992" ry="20.266"/>
		</g>
	</g>
	<g>
		<g>
			<path style="fill:#FFF4F1;" d="M463.318,132.561c-9.097-15.685-26.655-42.692-46.833-42.692
				c-20.233,0-37.833,27.062-46.909,42.818c-0.548,0.951-0.977,1.922-1.296,2.9c12.126,10.826,28.247,17.428,45.942,17.428
				C433.505,153.015,450.907,145.164,463.318,132.561z"/>
		</g>
		<path style="fill:#E8E4E0;" d="M416.271,89.98c-4.232,0.029-8.337,1.252-12.271,3.296c4.984,2.507,9.71,6.336,14.065,10.784
			c15.588,15.921,7.625,43.084-14.17,47.711c-0.591,0.126-1.185,0.244-1.782,0.354c4.001,0.687,8.118,1.044,12.325,1.015
			c19.283-0.131,36.631-8.1,48.956-20.787C454.189,116.729,436.449,89.843,416.271,89.98z"/>
		<g>
			<path style="fill:#5E8EE1;" d="M416.485,106.248c20.178,0,37.736,10.628,46.833,26.313
				c11.846-12.029,19.146-28.387,19.146-46.425c0-36.936-30.553-66.879-68.242-66.879S345.98,49.2,345.98,86.136
				c0,19.594,8.6,37.219,22.3,49.451c0.319-0.978,0.748-1.949,1.296-2.9C378.652,116.932,396.252,106.248,416.485,106.248z"/>
		</g>
		<g>
			<path style="fill:#467BFF;" d="M414.222,19.257c-3.302,0-6.549,0.235-9.726,0.679c33.081,4.627,58.516,32.5,58.516,66.2
				c0,12.5-3.508,24.192-9.603,34.197c3.918,3.562,7.271,7.681,9.909,12.229c11.846-12.029,19.146-28.387,19.146-46.425
				C482.464,49.2,451.911,19.257,414.222,19.257z"/>
		</g>
		<g>
			<ellipse style="fill:#FFD5CC;" cx="415.452" cy="64.517" rx="15.992" ry="20.266"/>
		</g>
	</g>
	<g>
		<g>
			<path style="fill:#FFF4F1;" d="M131.57,469.41c-9.097-15.685-26.655-42.692-46.833-42.692c-20.233,0-37.833,27.062-46.909,42.818
				c-0.548,0.951-0.977,1.922-1.296,2.9c12.126,10.826,28.247,17.428,45.942,17.428C101.757,489.863,119.16,482.013,131.57,469.41z"
				/>
		</g>
		<path style="fill:#E8E4E0;" d="M84.523,426.828c-4.232,0.029-8.337,1.252-12.271,3.296c4.984,2.507,9.71,6.336,14.065,10.784
			c15.588,15.921,7.625,43.084-14.17,47.711c-0.591,0.126-1.185,0.244-1.782,0.354c4.001,0.687,8.118,1.044,12.325,1.015
			c19.283-0.131,36.631-8.1,48.956-20.787C122.441,453.578,104.701,426.691,84.523,426.828z"/>
		<g>
			<path style="fill:#5E8EE1;" d="M84.737,443.097c20.178,0,37.736,10.628,46.833,26.313c11.846-12.029,19.146-28.387,19.146-46.425
				c0-36.936-30.553-66.879-68.242-66.879s-68.242,29.943-68.242,66.879c0,19.594,8.6,37.219,22.3,49.451
				c0.319-0.978,0.748-1.949,1.296-2.9C46.904,453.781,64.504,443.097,84.737,443.097z"/>
		</g>
		<g>
			<path style="fill:#467BFF;" d="M82.474,356.106c-3.302,0-6.549,0.235-9.726,0.679c33.081,4.627,58.516,32.5,58.516,66.2
				c0,12.5-3.508,24.192-9.603,34.197c3.918,3.562,7.271,7.681,9.909,12.229c11.846-12.029,19.146-28.387,19.146-46.425
				C150.716,386.048,120.163,356.106,82.474,356.106z"/>
		</g>
		<g>
			<ellipse style="fill:#FFD5CC;" cx="83.705" cy="401.365" rx="15.992" ry="20.266"/>
		</g>
	</g>
	<g>
		<g>
			<path style="fill:#FFF4F1;" d="M463.318,469.41c-9.097-15.685-26.655-42.692-46.833-42.692
				c-20.233,0-37.833,27.062-46.909,42.818c-0.548,0.951-0.977,1.922-1.296,2.9c12.126,10.826,28.247,17.428,45.942,17.428
				C433.505,489.863,450.907,482.013,463.318,469.41z"/>
		</g>
		<path style="fill:#E8E4E0;" d="M416.271,426.828c-4.232,0.029-8.337,1.252-12.271,3.296c4.984,2.507,9.71,6.336,14.065,10.784
			c15.588,15.921,7.625,43.084-14.17,47.711c-0.591,0.126-1.185,0.244-1.782,0.354c4.001,0.687,8.118,1.044,12.325,1.015
			c19.283-0.131,36.631-8.1,48.956-20.787C454.189,453.578,436.449,426.691,416.271,426.828z"/>
		<g>
			<path style="fill:#9DDBDF;" d="M416.485,443.097c20.178,0,37.736,10.628,46.833,26.313
				c11.846-12.029,19.146-28.387,19.146-46.425c0-36.936-30.553-66.879-68.242-66.879s-68.242,29.943-68.242,66.879
				c0,19.594,8.6,37.219,22.3,49.451c0.319-0.978,0.748-1.949,1.296-2.9C378.652,453.781,396.252,443.097,416.485,443.097z"/>
		</g>
		<g>
			<path style="fill:#7CD6E6;" d="M414.222,356.106c-3.302,0-6.549,0.235-9.726,0.679c33.081,4.627,58.516,32.5,58.516,66.2
				c0,12.5-3.508,24.192-9.603,34.197c3.918,3.562,7.271,7.681,9.909,12.229c11.846-12.029,19.146-28.387,19.146-46.425
				C482.464,386.048,451.911,356.106,414.222,356.106z"/>
		</g>
		<g>
			<ellipse style="fill:#FFD5CC;" cx="415.452" cy="401.365" rx="15.992" ry="20.266"/>
		</g>
	</g>
	<g>
		<g>
			<path style="fill:#D0CFD1;" d="M150.44,29.065c-1.59-3.83,0.21-8.22,4.04-9.81l0,0c3.82-1.6,8.21,0.21,9.81,4.03l0,0
				c1.59,3.83-0.22,8.22-4.04,9.81l0,0c-0.94,0.39-1.92,0.58-2.88,0.58l0,0C154.43,33.675,151.64,31.935,150.44,29.065z
				 M341.57,32.975L341.57,32.975c-3.83-1.59-5.64-5.98-4.05-9.8l0,0c1.59-3.82,5.98-5.64,9.81-4.05l0,0l0,0l0,0
				c3.82,1.59,5.63,5.98,4.04,9.81l0,0c-1.2,2.88-3.99,4.62-6.93,4.62l0,0C343.49,33.555,342.51,33.375,341.57,32.975z
				 M180.38,17.795c-1.08-4,1.29-8.12,5.29-9.2l0,0c0,0,0,0,0,0.01l0,0c4-1.08,8.12,1.29,9.19,5.29l0,0c1.08,4-1.29,8.11-5.29,9.19
				l0,0c-0.65,0.18-1.31,0.26-1.95,0.26l0,0C184.31,23.345,181.28,21.135,180.38,17.795z M312.23,23.005c-4-1.07-6.37-5.18-5.3-9.18
				l0,0c1.07-4,5.18-6.38,9.18-5.31l0,0c4,1.07,6.38,5.18,5.31,9.18l0,0c-0.9,3.36-3.93,5.57-7.24,5.57l0,0
				C313.53,23.265,312.88,23.175,312.23,23.005z M211.54,10.575c-0.54-4.11,2.35-7.88,6.46-8.42l0,0l0,0l0,0
				c4.11-0.54,7.87,2.35,8.41,6.46l0,0c0.54,4.11-2.35,7.87-6.45,8.42l0,0c-0.34,0.04-0.67,0.06-0.99,0.06l0,0
				C215.26,17.095,212.04,14.345,211.54,10.575z M281.83,16.995c-4.11-0.54-7-4.3-6.47-8.41l0,0c0.54-4.11,4.3-7,8.41-6.47l0,0
				c4.11,0.53,7,4.3,6.47,8.41l0,0c-0.49,3.78-3.72,6.53-7.43,6.53l0,0C282.49,17.055,282.16,17.035,281.83,16.995z M243.39,7.505
				c-0.01-4.14,3.35-7.5,7.49-7.5l0,0c4.14-0.01,7.5,3.35,7.51,7.49l0,0c0,4.14-3.36,7.5-7.5,7.51l0,0
				C246.75,15.005,243.39,11.645,243.39,7.505z"/>
		</g>
		<g>
			<path style="fill:#D0CFD1;" d="M243.71,494.605c0-4.15,3.36-7.51,7.5-7.51l0,0c4.14,0,7.5,3.35,7.5,7.49l0,0
				c0.01,4.15-3.35,7.51-7.49,7.51l0,0C247.08,502.095,243.72,498.745,243.71,494.605z M218.33,499.985c-4.11-0.54-7-4.3-6.47-8.41
				l0,0c0.54-4.11,4.3-7,8.41-6.47l0,0c4.1,0.54,7,4.3,6.47,8.41l0,0c-0.5,3.78-3.72,6.53-7.43,6.53l0,0
				C218.99,500.045,218.66,500.025,218.33,499.985z M275.69,493.485c-0.54-4.11,2.35-7.88,6.45-8.42l0,0
				c4.11-0.54,7.88,2.35,8.42,6.46l0,0c0.54,4.11-2.35,7.87-6.46,8.41l0,0c-0.33,0.05-0.66,0.07-0.99,0.07l0,0
				C279.4,500.005,276.18,497.255,275.69,493.485z M185.99,493.585c-4-1.07-6.38-5.19-5.31-9.19l0,0c1.07-4,5.19-6.38,9.19-5.3l0,0
				c4,1.07,6.37,5.18,5.3,9.18l0,0c-0.89,3.35-3.93,5.56-7.24,5.56l0,0C187.29,493.835,186.64,493.755,185.99,493.585z
				 M307.24,488.205c-1.08-4,1.29-8.12,5.29-9.19l0,0c4-1.08,8.11,1.29,9.19,5.29l0,0c1.08,4-1.29,8.11-5.29,9.19l0,0
				c-0.66,0.18-1.31,0.26-1.96,0.26l0,0C311.17,493.755,308.14,491.545,307.24,488.205z M154.77,482.965
				c-3.82-1.59-5.63-5.97-4.04-9.8l0,0c1.59-3.82,5.97-5.64,9.8-4.05l0,0c3.83,1.59,5.64,5.98,4.05,9.81l0,0
				c-1.2,2.88-3.99,4.62-6.93,4.62l0,0C156.69,483.545,155.71,483.365,154.77,482.965z M337.81,478.815
				c-1.59-3.83,0.22-8.22,4.04-9.81l0,0c3.82-1.6,8.21,0.21,9.81,4.03l0,0c1.59,3.82-0.21,8.22-4.04,9.81l0,0
				c-0.94,0.39-1.92,0.58-2.88,0.58l0,0C341.8,483.425,339.02,481.695,337.81,478.815z"/>
		</g>
		<g>
			<path style="fill:#D0CFD1;" d="M473.17,351.375c-3.83-1.59-5.64-5.98-4.05-9.81l0,0c1.59-3.82,5.98-5.63,9.8-4.04l0,0
				c3.83,1.59,5.64,5.97,4.05,9.8l0,0c-1.2,2.88-3.99,4.62-6.93,4.62l0,0C475.08,351.945,474.11,351.765,473.17,351.375z
				 M484.4,321.415c-4-1.07-6.38-5.18-5.31-9.18l0,0c1.07-4,5.18-6.38,9.19-5.31l0,0c4,1.07,6.37,5.18,5.3,9.18l0,0
				c-0.9,3.36-3.93,5.57-7.24,5.57l0,0C485.7,321.675,485.05,321.585,484.4,321.415z M491.58,290.235c-4.11-0.53-7.01-4.3-6.47-8.4
				l0,0c0.53-4.11,4.3-7.01,8.4-6.47l0,0c4.11,0.53,7.01,4.3,6.47,8.4l0,0c-0.49,3.78-3.72,6.54-7.43,6.54l0,0
				C492.23,290.305,491.9,290.285,491.58,290.235z M487.1,250.895c-0.01-4.15,3.35-7.51,7.49-7.51l0,0c4.14,0,7.5,3.35,7.51,7.49
				l0,0c0,4.15-3.36,7.51-7.5,7.51l0,0C490.46,258.385,487.1,255.035,487.1,250.895z M485.07,219.955
				c-0.54-4.11,2.35-7.87,6.46-8.41l0,0c4.1-0.54,7.87,2.35,8.41,6.45l0,0c0.54,4.11-2.35,7.88-6.46,8.42l0,0
				c-0.33,0.04-0.66,0.06-0.98,0.06l0,0C488.79,226.475,485.56,223.735,485.07,219.955z M479.01,189.565c-1.07-4,1.3-8.11,5.3-9.19
				l0,0c4-1.07,8.11,1.3,9.19,5.3l0,0c1.07,4-1.3,8.11-5.3,9.19l0,0c-0.65,0.17-1.3,0.26-1.95,0.26l0,0
				C482.94,195.125,479.91,192.915,479.01,189.565z M469,160.245L469,160.245c-1.59-3.82,0.22-8.21,4.04-9.8l0,0
				c3.82-1.6,8.21,0.21,9.81,4.03l0,0l0,0l0,0c1.59,3.82-0.21,8.21-4.04,9.81l0,0c-0.94,0.39-1.92,0.58-2.88,0.58l0,0
				C472.99,164.865,470.2,163.125,469,160.245z"/>
		</g>
		<g>
			<path style="fill:#D0CFD1;" d="M19.25,347.625L19.25,347.625L19.25,347.625c-1.59-3.83,0.21-8.22,4.04-9.81l0,0
				c3.82-1.6,8.21,0.21,9.81,4.03l0,0c1.59,3.83-0.21,8.22-4.04,9.81l0,0c-0.94,0.4-1.92,0.58-2.88,0.58l0,0
				C23.24,352.235,20.45,350.505,19.25,347.625z M8.6,316.425c-1.07-4,1.3-8.12,5.3-9.19l0,0c4-1.08,8.11,1.29,9.19,5.29l0,0
				c1.07,4-1.3,8.12-5.3,9.19l0,0c-0.65,0.18-1.3,0.26-1.95,0.26l0,0C12.53,321.975,9.5,319.775,8.6,316.425z M2.16,284.095
				c-0.54-4.1,2.35-7.87,6.46-8.41l0,0c4.1-0.54,7.87,2.35,8.41,6.46l0,0c0.54,4.1-2.35,7.87-6.46,8.41l0,0
				c-0.33,0.04-0.66,0.07-0.99,0.07l0,0C5.88,290.615,2.66,287.875,2.16,284.095z M0,251.215c0-4.14,3.36-7.5,7.5-7.5l0,0
				c4.14-0.01,7.5,3.35,7.5,7.49l0,0c0.01,4.14-3.35,7.5-7.49,7.51l0,0C3.37,258.715,0.01,255.355,0,251.215z M8.59,226.735
				c-4.11-0.54-7.01-4.3-6.47-8.41l0,0c0.53-4.1,4.29-7,8.4-6.47l0,0c4.11,0.54,7.01,4.3,6.47,8.41l0,0
				c-0.49,3.78-3.71,6.53-7.42,6.53l0,0C9.24,226.795,8.92,226.775,8.59,226.735z M13.82,195.175c-4-1.07-6.37-5.19-5.3-9.19l0,0
				c1.07-4,5.18-6.37,9.18-5.3l0,0c4,1.07,6.38,5.18,5.31,9.18l0,0c-0.9,3.35-3.93,5.56-7.24,5.56l0,0
				C15.13,195.425,14.47,195.345,13.82,195.175z M23.18,164.575c-3.83-1.59-5.64-5.98-4.05-9.8l0,0c1.59-3.83,5.98-5.64,9.8-4.05
				l0,0c3.83,1.59,5.64,5.98,4.05,9.8l0,0c-1.2,2.89-3.99,4.63-6.93,4.63l0,0C25.09,165.155,24.12,164.965,23.18,164.575z"/>
		</g>
	</g>
</g>
<g>
</g>
<g>
</g>
<g>
</g>
<g>
</g>
<g>
</g>
<g>
</g>
<g>
</g>
<g>
</g>
<g>
</g>
<g>
</g>
<g>
</g>
<g>
</g>
<g>
</g>
<g>
</g>
<g>
</g>
</svg>
