<?xml version="1.0" encoding="iso-8859-1"?>
<!-- Generator: Adobe Illustrator 21.0.0, SVG Export Plug-In . SVG Version: 6.00 Build 0)  -->
<svg version="1.1" id="Capa_1" xmlns="http://www.w3.org/2000/svg" xmlns:xlink="http://www.w3.org/1999/xlink" x="0px" y="0px"
	 viewBox="0 0 490.657 490.657" style="enable-background:new 0 0 490.657 490.657;" xml:space="preserve">
<g>
	<g>
		<path style="fill:#D0CFD1;" d="M385.019,490.657H102.861c-8.284,0-15-6.716-15-15V15c0-8.284,6.716-15,15-15h282.158
			c8.284,0,15,6.716,15,15v460.657C400.019,483.941,393.304,490.657,385.019,490.657z"/>
	</g>
	<path style="fill:#B4B4B4;" d="M385.019,0h-30c8.284,0,15,6.716,15,15v460.657c0,8.284-6.716,15-15,15h30c8.284,0,15-6.716,15-15
		V15C400.019,6.716,393.304,0,385.019,0z"/>
	<g>
		<path style="fill:#FFF4F1;" d="M123.861,405.83V56.587c0-8.284,6.716-15,15-15H349.02c8.284,0,15,6.716,15,15V405.83
			c0,8.284-6.716,15-15,15H138.861C130.577,420.83,123.861,414.114,123.861,405.83z"/>
	</g>
	<g>
		<path style="fill:#EEEBE7;" d="M349.02,41.587h-30c8.284,0,15,6.716,15,15V405.83c0,8.284-6.716,15-15,15h30
			c8.284,0,15-6.716,15-15V56.587C364.02,48.303,357.304,41.587,349.02,41.587z"/>
	</g>
	<g>
		<path style="fill:#E3DED9;" d="M237.334,208.167H39.064c-14.507,0-26.376,11.869-26.376,26.376v0
			c0,14.507,11.869,26.376,26.376,26.376h113.844l15.738,27.258c3.024,5.238,10.585,5.238,13.61,0l15.738-27.258h39.341
			c14.507,0,26.376-11.869,26.376-26.376v0C263.71,220.036,251.841,208.167,237.334,208.167z"/>
	</g>
	<g>
		<path style="fill:#D0CFD1;" d="M237.334,208.167h-30c14.507,0,26.376,11.869,26.376,26.376v0
			c0,14.507-11.869,26.376-26.376,26.376h30c14.507,0,26.376-11.869,26.376-26.376v0
			C263.71,220.036,251.841,208.167,237.334,208.167z"/>
	</g>
	<g>
		<circle style="fill:#B4B4B4;" cx="243.94" cy="454.354" r="16.349"/>
	</g>
	<g>
		<path style="fill:#E3DED9;" d="M403.125,82.665h-198.27c-14.507,0-26.376,11.869-26.376,26.376v0
			c0,14.507,11.869,26.376,26.376,26.376h76.593l15.738,27.258c3.024,5.238,10.585,5.238,13.61,0l15.738-27.258h76.593
			c14.507,0,26.376-11.869,26.376-26.376v0C429.5,94.534,417.631,82.665,403.125,82.665z"/>
	</g>
	<g>
		<path style="fill:#D0CFD1;" d="M403.125,82.665h-30c14.507,0,26.376,11.869,26.376,26.376v0c0,14.507-11.869,26.376-26.376,26.376
			h30c14.507,0,26.376-11.869,26.376-26.376v0C429.5,94.534,417.631,82.665,403.125,82.665z"/>
	</g>
	<g>
		<path style="fill:#E3DED9;" d="M451.593,305.13H253.322c-14.507,0-26.376,11.869-26.376,26.376v0
			c0,14.507,11.869,26.376,26.376,26.376h16.564l15.738,27.258c3.024,5.238,10.585,5.238,13.61,0l15.738-27.258h136.621
			c14.507,0,26.376-11.869,26.376-26.376v0C477.969,316.999,466.1,305.13,451.593,305.13z"/>
	</g>
	<g>
		<path style="fill:#D0CFD1;" d="M451.593,305.13h-30c14.507,0,26.376,11.869,26.376,26.376v0c0,14.507-11.869,26.376-26.376,26.376
			h30c14.507,0,26.376-11.869,26.376-26.376v0C477.969,316.999,466.1,305.13,451.593,305.13z"/>
	</g>
</g>
<g>
</g>
<g>
</g>
<g>
</g>
<g>
</g>
<g>
</g>
<g>
</g>
<g>
</g>
<g>
</g>
<g>
</g>
<g>
</g>
<g>
</g>
<g>
</g>
<g>
</g>
<g>
</g>
<g>
</g>
</svg>
