<?xml version="1.0" encoding="iso-8859-1"?>
<!-- Generator: Adobe Illustrator 21.0.0, SVG Export Plug-In . SVG Version: 6.00 Build 0)  -->
<svg version="1.1" id="Capa_1" xmlns="http://www.w3.org/2000/svg" xmlns:xlink="http://www.w3.org/1999/xlink" x="0px" y="0px"
	 viewBox="0 0 507.965 507.965" style="enable-background:new 0 0 507.965 507.965;" xml:space="preserve">
<path style="fill:#18191B;" d="M480.284,407.266h-14.75c-25.134-46.718-38.811-96.403-40.638-147.718l-0.753-21.147
	c8.217-3.078,14.083-11.009,14.083-20.287v-2.319c0-8.501-4.926-15.87-12.071-19.413c12.365-9.741,20.327-24.832,20.327-41.758
	c0-29.308-23.844-53.151-53.151-53.151s-53.15,23.843-53.15,53.151c0,17.131,8.155,32.385,20.777,42.112
	c-6.771,3.666-11.381,10.834-11.381,19.059v2.319c0,9.834,6.592,18.153,15.587,20.785l-0.735,20.649
	c-1.523,42.775-11.309,84.488-29.115,124.297c-24.526-50.338-37.936-103.435-39.884-158.152l-1.014-25.918
	c9.674-3.498,16.607-12.772,16.607-23.637v-0.581c0-10.498-6.474-19.508-15.637-23.26c15.308-11.073,25.295-29.069,25.295-49.363
	c0-33.582-27.32-60.902-60.902-60.902c-7.236,0-14.321,1.258-21.056,3.74c-3.887,1.432-5.877,5.744-4.444,9.631
	c1.432,3.886,5.745,5.875,9.63,4.444c5.069-1.868,10.409-2.815,15.87-2.815c25.311,0,45.902,20.591,45.902,45.902
	s-20.592,45.902-45.902,45.902s-45.902-20.592-45.902-45.902c0-10.169,3.255-19.801,9.413-27.853
	c2.516-3.291,1.889-7.998-1.402-10.514c-3.29-2.517-7.997-1.888-10.514,1.401c-8.176,10.691-12.497,23.473-12.497,36.965
	c0,20.516,10.208,38.682,25.8,49.722c-8.722,3.946-14.808,12.723-14.808,22.901v0.581c0,11.512,7.785,21.234,18.365,24.195
	l-0.993,25.386c-2.154,60.486-18.323,119.016-48.051,174.028h-0.685c-22.628-44.554-34.979-91.704-36.705-140.199l-0.753-21.147
	c8.217-3.078,14.083-11.009,14.083-20.287v-2.319c0-8.501-4.926-15.871-12.072-19.413c12.365-9.741,20.326-24.832,20.326-41.758
	c0-29.308-23.843-53.151-53.15-53.151s-53.151,23.843-53.151,53.151c0,17.131,8.155,32.385,20.778,42.112
	c-6.771,3.666-11.38,10.834-11.38,19.059v2.319c0,9.834,6.591,18.153,15.586,20.785l-0.736,20.649
	c-0.797,22.382-3.936,44.849-9.331,66.774c-0.989,4.022,1.469,8.085,5.491,9.075c0.602,0.148,1.204,0.219,1.798,0.219
	c3.371,0,6.436-2.29,7.277-5.71c5.64-22.923,8.922-46.416,9.755-69.825l0.723-20.311h29.041l0.724,20.311
	c1.719,48.28,13.497,95.256,35.021,139.801c-6.774,0.599-12.96,3.271-17.914,7.384H57.612c7.731-15.153,14.407-30.765,19.865-46.572
	c1.353-3.915-0.726-8.185-4.641-9.537c-3.922-1.353-8.187,0.727-9.537,4.641c-6.054,17.531-13.667,34.819-22.62,51.468H27.682
	C12.418,407.266,0,419.683,0,434.947v3.306c0,15.264,12.418,27.681,27.682,27.681h137.409v-0.104h194.885
	c1.223,0,2.429-0.073,3.618-0.205c0.673,0.198,1.384,0.309,2.122,0.309h114.568c15.263,0,27.681-12.417,27.681-27.681v-3.306
	C507.965,419.683,495.547,407.266,480.284,407.266z M72.083,154.624c0-21.037,17.114-38.151,38.151-38.151
	c21.036,0,38.15,17.114,38.15,38.151s-17.114,38.151-38.15,38.151C89.197,192.775,72.083,175.661,72.083,154.624z M81.48,215.795
	c0-3.671,2.986-6.657,6.656-6.657h45.336c3.671,0,6.657,2.986,6.657,6.657v2.319c0,3.604-2.881,6.542-6.46,6.647
	c-0.114-0.005-0.227-0.017-0.342-0.017c-0.091,0-0.181,0.001-0.271,0.005c-0.086,0.003-0.169,0.016-0.255,0.022H88.137
	c-3.67,0-6.656-2.986-6.656-6.657V215.795z M355.181,154.624c0-21.037,17.114-38.151,38.15-38.151
	c21.037,0,38.151,17.114,38.151,38.151s-17.114,38.151-38.151,38.151C372.295,192.775,355.181,175.661,355.181,154.624z
	 M364.577,215.795c0-3.671,2.986-6.657,6.657-6.657h45.335c3.671,0,6.657,2.986,6.657,6.657v2.319c0,3.67-2.986,6.657-6.657,6.657
	h-45.335c-3.671,0-6.657-2.986-6.657-6.657V215.795z M379.419,260.081l0.723-20.311h29.041l0.723,20.312
	c1.817,51.036,14.824,100.499,38.683,147.184h-67.804c-5.652-4.693-12.907-7.519-20.81-7.519h-15.516
	C365.943,355.248,377.702,308.325,379.419,260.081z M224.868,176.138v-0.581c0-5.584,4.543-10.127,10.127-10.127h50.901
	c5.583,0,10.126,4.543,10.126,10.127v0.581c0,5.583-4.543,10.126-10.126,10.126h-50.901
	C229.411,186.264,224.868,181.721,224.868,176.138z M242.229,226.278l0.979-25.014h36.255l0.978,24.989
	c2.144,60.207,17.637,118.515,46.068,173.494H196.162C224.594,344.767,240.087,286.459,242.229,226.278z M164.727,414.747h195.249
	c9.72,0,17.627,7.908,17.627,17.627v0.828c0,9.72-7.907,17.627-17.627,17.627H164.727c-9.72,0-17.627-7.908-17.627-17.627v-0.828
	C147.1,422.654,155.007,414.747,164.727,414.747z M15,438.252v-3.306c0-6.992,5.688-12.681,12.682-12.681h17.418
	c0.016,0,0.031,0.003,0.047,0.003c0.015,0,0.03-0.003,0.044-0.003h88.519c-1.041,3.185-1.611,6.581-1.611,10.108v0.828
	c0,6.535,1.938,12.622,5.26,17.731H27.682C20.688,450.934,15,445.245,15,438.252z M492.965,438.252
	c0,6.992-5.688,12.681-12.681,12.681h-92.942c3.322-5.109,5.26-11.197,5.26-17.731v-0.828c0-3.528-0.57-6.924-1.611-10.108h89.292
	c6.992,0,12.681,5.689,12.681,12.681V438.252z"/>
<g>
</g>
<g>
</g>
<g>
</g>
<g>
</g>
<g>
</g>
<g>
</g>
<g>
</g>
<g>
</g>
<g>
</g>
<g>
</g>
<g>
</g>
<g>
</g>
<g>
</g>
<g>
</g>
<g>
</g>
</svg>
