<?xml version="1.0" encoding="iso-8859-1"?>
<!-- Generator: Adobe Illustrator 21.0.0, SVG Export Plug-In . SVG Version: 6.00 Build 0)  -->
<svg version="1.1" id="Capa_1" xmlns="http://www.w3.org/2000/svg" xmlns:xlink="http://www.w3.org/1999/xlink" x="0px" y="0px"
	 viewBox="0 0 505.258 505.258" style="enable-background:new 0 0 505.258 505.258;" xml:space="preserve">
<path style="fill:#18191B;" d="M420.743,130.758c14.27,0,25.879-13.813,25.879-30.792s-11.609-30.792-25.879-30.792
	c-14.27,0-25.879,13.813-25.879,30.792S406.473,130.758,420.743,130.758z M420.743,84.175c5.897,0,10.879,7.231,10.879,15.792
	s-4.982,15.792-10.879,15.792c-5.897,0-10.879-7.231-10.879-15.792S414.846,84.175,420.743,84.175z"/>
<path style="fill:#18191B;" d="M67.014,162.801c11.689,0,21.2-11.152,21.2-24.861s-9.51-24.861-21.2-24.861
	s-21.2,11.152-21.2,24.861S55.324,162.801,67.014,162.801z M67.014,128.079c2.932,0,6.2,4.05,6.2,9.861s-3.268,9.861-6.2,9.861
	s-6.2-4.05-6.2-9.861S64.082,128.079,67.014,128.079z"/>
<path style="fill:#18191B;" d="M82.62,409.853c12.779,0,23.176-12.276,23.176-27.366s-10.396-27.366-23.176-27.366
	s-23.176,12.276-23.176,27.366S69.84,409.853,82.62,409.853z M82.62,370.121c4.355,0,8.176,5.778,8.176,12.366
	s-3.82,12.366-8.176,12.366s-8.176-5.778-8.176-12.366S78.264,370.121,82.62,370.121z"/>
<path style="fill:#18191B;" d="M419.329,328.473c-20.706,0-39.386,8.643-52.53,22.434h-17.302c-4.142,0-7.5,3.358-7.5,7.5
	s3.358,7.5,7.5,7.5h6.337c-5.409,9.92-8.487,21.242-8.487,33.259c0,18.22,7.24,35.752,19.988,48.854l-0.067,0.204l3.646,3.255
	c0.003,0.002,0.006,0.005,0.009,0.008c0.003,0.003,0.007,0.005,0.011,0.009c0.478,0.426,0.971,0.831,1.459,1.243
	c-12.707,10.629-28.128,17.547-44.457,19.948V359.451V140.854h7.046c3.195,16.125,11.146,31.118,22.946,42.966l-0.051,0.156
	l3.656,3.265c12.147,10.845,27.051,17.938,43,20.664v95.521c0,4.142,3.358,7.5,7.5,7.5s7.5-3.358,7.5-7.5v-94.255
	c23.407-0.053,45.265-9.187,61.565-25.74l4.014-4.076L485,179.161c13.092-15.209,20.259-34.288,20.259-54.348
	c0-46.518-38.548-84.363-85.929-84.363c-47.382,0-85.93,37.845-85.93,84.363c0,0.348,0.01,0.694,0.014,1.042h-5.478V24.119
	c0-4.142-3.358-7.5-7.5-7.5h-87.566c-4.142,0-7.5,3.358-7.5,7.5s3.358,7.5,7.5,7.5h80.066v320.332H178.358V31.619h24.511
	c4.142,0,7.5-3.358,7.5-7.5s-3.358-7.5-7.5-7.5h-32.011c-4.142,0-7.5,3.358-7.5,7.5v31.736H74.292c-4.142,0-7.5,3.358-7.5,7.5
	v28.334c-0.278-0.003-0.553-0.021-0.832-0.021C29.589,91.668,0,120.733,0,156.46c0,16.559,6.525,32.495,18.023,44.47l-0.073,0.223
	l3.657,3.265c12.16,10.856,27.911,16.835,44.352,16.835c18.016,0,34.848-7.015,47.395-19.752c0.003-0.002,0.005-0.005,0.008-0.007
	c0.003-0.003,0.006-0.007,0.01-0.01l4.004-4.066l-0.137-0.237c2.141-2.594,4.07-5.322,5.762-8.172h16.144c4.142,0,7.5-3.358,7.5-7.5
	s-3.358-7.5-7.5-7.5h-9.689c1.614-5.649,2.463-11.54,2.463-17.548c0-1.14-0.032-2.273-0.091-3.399h7.317c4.142,0,7.5-3.358,7.5-7.5
	s-3.358-7.5-7.5-7.5h-8.036c-0.638,0-1.254,0.088-1.846,0.238c-2.312-7.761-6.059-14.922-10.949-21.186h20.831
	c4.142,0,7.5-3.358,7.5-7.5s-3.358-7.5-7.5-7.5h-35.036c-0.659,0-1.294,0.094-1.903,0.253c-6.164-3.999-13.046-7.008-20.415-8.799
	V70.855h81.567v288.596v113.821c-13.02-1.152-25.461-5.08-36.708-11.598c2.891-2.188,5.644-4.595,8.233-7.224l4.014-4.076
	l-0.127-0.219c11.015-13.073,17.037-29.362,17.037-46.476c0-40.16-33.169-72.848-74.017-73.049v-85.998c0-4.142-3.358-7.5-7.5-7.5
	s-7.5,3.358-7.5,7.5v87.413c-34.043,6.691-59.772,36.263-59.772,71.634c0,18.885,7.526,37.056,20.773,50.609l-0.064,0.198
	l3.655,3.263c13.716,12.245,31.483,18.989,50.03,18.989c10.803,0,21.219-2.256,30.74-6.508
	c17.212,11.875,37.261,18.203,58.324,18.391c0.127,0.006,0.252,0.019,0.38,0.019h149.577c0.722,0,1.418-0.108,2.078-0.298
	c23.276-1.687,45.424-11.19,62.728-26.916c10.392,5.494,22.067,8.436,34.087,8.436c19.664,0,38.034-7.656,51.727-21.558
	c0.002-0.002,0.005-0.004,0.008-0.007c0.003-0.003,0.007-0.007,0.01-0.011l4.004-4.065l-0.13-0.224
	c10.581-12.626,16.363-28.332,16.363-44.829C491.311,360.186,459.02,328.473,419.329,328.473z M465.846,176.797
	c0.055,0.073,0.111,0.146,0.166,0.219c-12.927,11.107-29.287,17.16-46.683,17.16c-15.791,0-30.982-5.103-43.362-14.47
	c0.046-0.07,0.09-0.141,0.136-0.21c0.202-0.298,0.41-0.592,0.614-0.888h-0.016c9.91-14.39,26.871-23.18,45.228-23.18
	c16.882,0,32.601,7.45,42.725,19.852h-0.016C465.047,175.78,465.453,176.283,465.846,176.797z M419.329,55.45
	c39.11,0,70.929,31.116,70.929,69.363c0,14.962-4.861,29.279-13.841,41.147c-12.943-15.953-33.002-25.533-54.487-25.533
	c-22.958,0-44.261,10.918-57.021,28.86c-10.582-12.402-16.509-28.168-16.509-44.475C348.399,86.566,380.218,55.45,419.329,55.45z
	 M65.959,106.668c28.1,0,50.96,22.336,50.96,49.792c0,9.93-2.985,19.463-8.535,27.578c-10.016-11.196-24.759-17.849-40.487-17.849
	c-16.864,0-32.577,7.634-42.563,20.318C18.691,177.917,15,167.356,15,156.46C15,129.004,37.86,106.668,65.959,106.668z
	 M36.277,196.937c0.136-0.188,0.268-0.378,0.407-0.562c0.204-0.27,0.409-0.539,0.62-0.802c0.26-0.325,0.529-0.641,0.799-0.956
	c0.252-0.293,0.502-0.588,0.763-0.874c7.193-7.876,17.736-12.553,29.032-12.553c11.918,0,23.003,5.221,30.195,13.908
	c-9.054,7.231-20.258,11.155-32.133,11.155C55.231,206.252,44.89,202.978,36.277,196.937z M81.414,345.621
	c32.75,0,59.395,26.045,59.395,58.059c0,12.051-3.771,23.603-10.755,33.309c-11.264-13.205-28.258-21.093-46.421-21.093
	c-19.442,0-37.521,9.021-48.692,23.926c-8.293-10.208-12.921-22.965-12.921-36.141C22.019,371.666,48.663,345.621,81.414,345.621z
	 M45.933,450.243c0.18-0.262,0.373-0.513,0.558-0.771c0.186-0.247,0.367-0.498,0.553-0.744h-0.014
	c8.366-11.104,21.942-17.833,36.601-17.833c13.388,0,25.895,5.617,34.337,15.06h-0.001c0.19,0.213,0.365,0.44,0.552,0.656
	c0.405,0.472,0.814,0.939,1.199,1.428c-3.093,2.565-6.416,4.781-9.914,6.65c-0.293,0.132-0.575,0.29-0.85,0.46
	c-8.386,4.308-17.767,6.588-27.54,6.588C68.54,461.738,56.146,457.691,45.933,450.243z M312.936,473.639h-60.273V366.951h60.273
	V473.639z M237.662,366.951v106.688h-59.304V366.951H237.662z M419.329,343.473c31.42,0,56.981,24.984,56.981,55.693
	c0,11.443-3.544,22.417-10.116,31.669c-10.91-12.631-27.26-20.165-44.728-20.165c-18.707,0-36.11,8.625-46.942,22.894
	c-7.819-9.747-12.177-21.875-12.177-34.398C362.348,368.457,387.909,343.473,419.329,343.473z M385.507,443.99
	c0.228-0.328,0.465-0.649,0.703-0.97c0.237-0.315,0.464-0.639,0.708-0.948h-0.004c8.05-10.234,20.809-16.402,34.554-16.402
	c12.71,0,24.59,5.286,32.673,14.183h0c0.355,0.391,0.688,0.801,1.03,1.204c0.233,0.277,0.473,0.549,0.699,0.833
	c-10.229,8.402-22.994,12.97-36.54,12.97C407.069,454.86,395.263,451.035,385.507,443.99z"/>
<path style="fill:#18191B;" d="M420.492,405.388c12.467,0,22.61-11.955,22.61-26.649s-10.143-26.649-22.61-26.649
	c-12.468,0-22.611,11.955-22.611,26.649S408.024,405.388,420.492,405.388z M420.492,367.089c3.6,0,7.61,4.784,7.61,11.649
	s-4.011,11.649-7.61,11.649s-7.611-4.784-7.611-11.649S416.892,367.089,420.492,367.089z"/>
<path style="fill:#18191B;" d="M230.905,66.166h-28.036c-4.142,0-7.5,3.358-7.5,7.5s3.358,7.5,7.5,7.5h28.036
	c4.142,0,7.5-3.358,7.5-7.5S235.047,66.166,230.905,66.166z"/>
<path style="fill:#18191B;" d="M261.915,81.166h28.037c4.142,0,7.5-3.358,7.5-7.5s-3.358-7.5-7.5-7.5h-28.037
	c-4.142,0-7.5,3.358-7.5,7.5S257.773,81.166,261.915,81.166z"/>
<path style="fill:#18191B;" d="M111.109,224.956h28.036c4.142,0,7.5-3.358,7.5-7.5s-3.358-7.5-7.5-7.5h-28.036
	c-4.142,0-7.5,3.358-7.5,7.5S106.967,224.956,111.109,224.956z"/>
<path style="fill:#18191B;" d="M111.109,260.903h28.036c4.142,0,7.5-3.358,7.5-7.5s-3.358-7.5-7.5-7.5h-28.036
	c-4.142,0-7.5,3.358-7.5,7.5S106.967,260.903,111.109,260.903z"/>
<path style="fill:#18191B;" d="M111.109,296.85h28.036c4.142,0,7.5-3.358,7.5-7.5s-3.358-7.5-7.5-7.5h-28.036
	c-4.142,0-7.5,3.358-7.5,7.5S106.967,296.85,111.109,296.85z"/>
<path style="fill:#18191B;" d="M111.109,332.798h28.036c4.142,0,7.5-3.358,7.5-7.5s-3.358-7.5-7.5-7.5h-28.036
	c-4.142,0-7.5,3.358-7.5,7.5S106.967,332.798,111.109,332.798z"/>
<path style="fill:#18191B;" d="M377.533,207.118h-28.036c-4.142,0-7.5,3.358-7.5,7.5s3.358,7.5,7.5,7.5h28.036
	c4.142,0,7.5-3.358,7.5-7.5S381.675,207.118,377.533,207.118z"/>
<path style="fill:#18191B;" d="M377.533,243.065h-28.036c-4.142,0-7.5,3.358-7.5,7.5s3.358,7.5,7.5,7.5h28.036
	c4.142,0,7.5-3.358,7.5-7.5S381.675,243.065,377.533,243.065z"/>
<path style="fill:#18191B;" d="M377.533,279.012h-28.036c-4.142,0-7.5,3.358-7.5,7.5s3.358,7.5,7.5,7.5h28.036
	c4.142,0,7.5-3.358,7.5-7.5S381.675,279.012,377.533,279.012z"/>
<path style="fill:#18191B;" d="M377.533,314.959h-28.036c-4.142,0-7.5,3.358-7.5,7.5s3.358,7.5,7.5,7.5h28.036
	c4.142,0,7.5-3.358,7.5-7.5S381.675,314.959,377.533,314.959z"/>
<path style="fill:#18191B;" d="M230.905,104.822h-28.036c-4.142,0-7.5,3.358-7.5,7.5s3.358,7.5,7.5,7.5h28.036
	c4.142,0,7.5-3.358,7.5-7.5S235.047,104.822,230.905,104.822z"/>
<path style="fill:#18191B;" d="M261.915,119.822h28.037c4.142,0,7.5-3.358,7.5-7.5s-3.358-7.5-7.5-7.5h-28.037
	c-4.142,0-7.5,3.358-7.5,7.5S257.773,119.822,261.915,119.822z"/>
<path style="fill:#18191B;" d="M230.905,143.478h-28.036c-4.142,0-7.5,3.358-7.5,7.5s3.358,7.5,7.5,7.5h28.036
	c4.142,0,7.5-3.358,7.5-7.5S235.047,143.478,230.905,143.478z"/>
<path style="fill:#18191B;" d="M261.915,158.478h28.037c4.142,0,7.5-3.358,7.5-7.5s-3.358-7.5-7.5-7.5h-28.037
	c-4.142,0-7.5,3.358-7.5,7.5S257.773,158.478,261.915,158.478z"/>
<path style="fill:#18191B;" d="M230.905,182.134h-28.036c-4.142,0-7.5,3.358-7.5,7.5s3.358,7.5,7.5,7.5h28.036
	c4.142,0,7.5-3.358,7.5-7.5S235.047,182.134,230.905,182.134z"/>
<path style="fill:#18191B;" d="M261.915,197.134h28.037c4.142,0,7.5-3.358,7.5-7.5s-3.358-7.5-7.5-7.5h-28.037
	c-4.142,0-7.5,3.358-7.5,7.5S257.773,197.134,261.915,197.134z"/>
<path style="fill:#18191B;" d="M230.905,220.79h-28.036c-4.142,0-7.5,3.358-7.5,7.5s3.358,7.5,7.5,7.5h28.036
	c4.142,0,7.5-3.358,7.5-7.5S235.047,220.79,230.905,220.79z"/>
<path style="fill:#18191B;" d="M261.915,235.79h28.037c4.142,0,7.5-3.358,7.5-7.5s-3.358-7.5-7.5-7.5h-28.037
	c-4.142,0-7.5,3.358-7.5,7.5S257.773,235.79,261.915,235.79z"/>
<path style="fill:#18191B;" d="M230.905,259.446h-28.036c-4.142,0-7.5,3.358-7.5,7.5s3.358,7.5,7.5,7.5h28.036
	c4.142,0,7.5-3.358,7.5-7.5S235.047,259.446,230.905,259.446z"/>
<path style="fill:#18191B;" d="M261.915,274.446h28.037c4.142,0,7.5-3.358,7.5-7.5s-3.358-7.5-7.5-7.5h-28.037
	c-4.142,0-7.5,3.358-7.5,7.5S257.773,274.446,261.915,274.446z"/>
<path style="fill:#18191B;" d="M230.905,298.102h-28.036c-4.142,0-7.5,3.358-7.5,7.5s3.358,7.5,7.5,7.5h28.036
	c4.142,0,7.5-3.358,7.5-7.5S235.047,298.102,230.905,298.102z"/>
<path style="fill:#18191B;" d="M261.915,313.102h28.037c4.142,0,7.5-3.358,7.5-7.5s-3.358-7.5-7.5-7.5h-28.037
	c-4.142,0-7.5,3.358-7.5,7.5S257.773,313.102,261.915,313.102z"/>
<path style="fill:#18191B;" d="M274.68,429.242c4.142,0,7.5-3.358,7.5-7.5v-13.556c0-4.142-3.358-7.5-7.5-7.5s-7.5,3.358-7.5,7.5
	v13.556C267.18,425.884,270.538,429.242,274.68,429.242z"/>
<path style="fill:#18191B;" d="M214.68,429.242c4.142,0,7.5-3.358,7.5-7.5v-13.556c0-4.142-3.358-7.5-7.5-7.5s-7.5,3.358-7.5,7.5
	v13.556C207.18,425.884,210.538,429.242,214.68,429.242z"/>
<g>
</g>
<g>
</g>
<g>
</g>
<g>
</g>
<g>
</g>
<g>
</g>
<g>
</g>
<g>
</g>
<g>
</g>
<g>
</g>
<g>
</g>
<g>
</g>
<g>
</g>
<g>
</g>
<g>
</g>
</svg>
