<?xml version="1.0" encoding="iso-8859-1"?>
<!-- Generator: Adobe Illustrator 21.0.0, SVG Export Plug-In . SVG Version: 6.00 Build 0)  -->
<svg version="1.1" id="Capa_1" xmlns="http://www.w3.org/2000/svg" xmlns:xlink="http://www.w3.org/1999/xlink" x="0px" y="0px"
	 viewBox="0 0 502.1 502.1" style="enable-background:new 0 0 502.1 502.1;" xml:space="preserve">
<g>
	<path style="fill:#18191B;" d="M157.37,33.675c0.96,0,1.94-0.19,2.88-0.58c3.82-1.59,5.63-5.98,4.04-9.81
		c-1.6-3.82-5.99-5.63-9.81-4.03c-3.83,1.59-5.63,5.98-4.04,9.81C151.64,31.935,154.43,33.675,157.37,33.675z"/>
	<path style="fill:#18191B;" d="M341.57,32.975c0.94,0.4,1.92,0.58,2.87,0.58c2.94,0,5.73-1.74,6.93-4.62
		c1.59-3.83-0.22-8.22-4.04-9.81c-3.83-1.59-8.22,0.23-9.81,4.05C335.93,26.995,337.74,31.385,341.57,32.975z"/>
	<path style="fill:#18191B;" d="M218.97,17.095c0.32,0,0.65-0.02,0.99-0.06c4.1-0.55,6.99-4.31,6.45-8.42
		c-0.54-4.11-4.3-7-8.41-6.46c-4.11,0.54-7,4.31-6.46,8.42C212.04,14.345,215.26,17.095,218.97,17.095z"/>
	<path style="fill:#18191B;" d="M312.23,23.005c0.65,0.17,1.3,0.26,1.95,0.26c3.31,0,6.34-2.21,7.24-5.57
		c1.07-4-1.31-8.11-5.31-9.18c-4-1.07-8.11,1.31-9.18,5.31S308.23,21.935,312.23,23.005z"/>
	<path style="fill:#18191B;" d="M187.62,23.345c0.64,0,1.3-0.08,1.95-0.26c4-1.08,6.37-5.19,5.29-9.19c-1.07-4-5.19-6.37-9.19-5.29
		c0-0.01,0-0.01,0-0.01c-4,1.08-6.37,5.2-5.29,9.2C181.28,21.135,184.31,23.345,187.62,23.345z"/>
	<path style="fill:#18191B;" d="M281.83,16.995c0.33,0.04,0.66,0.06,0.98,0.06c3.71,0,6.94-2.75,7.43-6.53
		c0.53-4.11-2.36-7.88-6.47-8.41c-4.11-0.53-7.87,2.36-8.41,6.47C274.83,12.695,277.72,16.455,281.83,16.995z"/>
	<path style="fill:#18191B;" d="M250.89,15.005c4.14-0.01,7.5-3.37,7.5-7.51c-0.01-4.14-3.37-7.5-7.51-7.49
		c-4.14,0-7.5,3.36-7.49,7.5C243.39,11.645,246.75,15.005,250.89,15.005z"/>
	<path style="fill:#18191B;" d="M341.85,469.005c-3.82,1.59-5.63,5.98-4.04,9.81c1.21,2.88,3.99,4.61,6.93,4.61
		c0.96,0,1.94-0.19,2.88-0.58c3.83-1.59,5.63-5.99,4.04-9.81C350.06,469.215,345.67,467.405,341.85,469.005z"/>
	<path style="fill:#18191B;" d="M282.14,485.065c-4.1,0.54-6.99,4.31-6.45,8.42c0.49,3.77,3.71,6.52,7.42,6.52
		c0.33,0,0.66-0.02,0.99-0.07c4.11-0.54,7-4.3,6.46-8.41C290.02,487.415,286.25,484.525,282.14,485.065z"/>
	<path style="fill:#18191B;" d="M312.53,479.015c-4,1.07-6.37,5.19-5.29,9.19c0.9,3.34,3.93,5.55,7.23,5.55
		c0.65,0,1.3-0.08,1.96-0.26c4-1.08,6.37-5.19,5.29-9.19S316.53,477.935,312.53,479.015z"/>
	<path style="fill:#18191B;" d="M220.27,485.105c-4.11-0.53-7.87,2.36-8.41,6.47c-0.53,4.11,2.36,7.87,6.47,8.41
		c0.33,0.04,0.66,0.06,0.98,0.06c3.71,0,6.93-2.75,7.43-6.53C227.27,489.405,224.37,485.645,220.27,485.105z"/>
	<path style="fill:#18191B;" d="M251.21,487.095c-4.14,0-7.5,3.36-7.5,7.51c0.01,4.14,3.37,7.49,7.51,7.49s7.5-3.36,7.49-7.51
		C258.71,490.445,255.35,487.095,251.21,487.095z"/>
	<path style="fill:#18191B;" d="M160.53,469.115c-3.83-1.59-8.21,0.23-9.8,4.05c-1.59,3.83,0.22,8.21,4.04,9.8
		c0.94,0.4,1.92,0.58,2.88,0.58c2.94,0,5.73-1.74,6.93-4.62C166.17,475.095,164.36,470.705,160.53,469.115z"/>
	<path style="fill:#18191B;" d="M189.87,479.095c-4-1.08-8.12,1.3-9.19,5.3s1.31,8.12,5.31,9.19c0.65,0.17,1.3,0.25,1.94,0.25
		c3.31,0,6.35-2.21,7.24-5.56C196.24,484.275,193.87,480.165,189.87,479.095z"/>
	<path style="fill:#18191B;" d="M83.653,93.697c12.583,0,22.821-12.074,22.821-26.916S96.237,39.866,83.653,39.866
		S60.833,51.94,60.833,66.782S71.07,93.697,83.653,93.697z M83.653,54.866c3.699,0,7.821,4.894,7.821,11.916
		c0,7.022-4.122,11.916-7.821,11.916s-7.821-4.894-7.821-11.916C75.833,59.759,79.954,54.866,83.653,54.866z"/>
	<path style="fill:#18191B;" d="M33.465,140.464c0.002,0.002,0.004,0.003,0.006,0.005c13.435,11.992,30.837,18.597,49.003,18.597
		c19.912,0,38.512-7.753,52.375-21.829c0.001-0.001,0.003-0.002,0.004-0.004c13.219-13.423,20.499-31.088,20.499-49.74
		c0-39.465-32.693-71.573-72.878-71.573c-40.186,0-72.878,32.107-72.878,71.573C9.596,107.614,18.296,126.921,33.465,140.464z
		 M48.041,132.956c8.039-11.604,21.75-18.694,36.601-18.694c13.908,0,26.837,6.227,35.025,16.559
		c-10.403,8.578-23.397,13.245-37.192,13.245C69.987,144.066,57.967,140.15,48.041,132.956z M82.475,30.921
		c31.914,0,57.878,25.378,57.878,56.573c0,11.669-3.628,22.857-10.353,32.278c-11.042-12.845-27.631-20.51-45.358-20.51
		c-18.979,0-36.634,8.771-47.592,23.277c-7.995-9.918-12.454-22.28-12.454-35.046C24.596,56.299,50.561,30.921,82.475,30.921z"/>
	<path style="fill:#18191B;" d="M424.611,93.697c12.583,0,22.821-12.074,22.821-26.916s-10.237-26.916-22.821-26.916
		s-22.821,12.074-22.821,26.916S412.028,93.697,424.611,93.697z M424.611,54.866c3.699,0,7.821,4.894,7.821,11.916
		c0,7.022-4.122,11.916-7.821,11.916s-7.821-4.894-7.821-11.916C416.791,59.759,420.912,54.866,424.611,54.866z"/>
	<path style="fill:#18191B;" d="M374.423,140.464c0.002,0.002,0.004,0.003,0.006,0.005c13.435,11.992,30.837,18.597,49.003,18.597
		c19.912,0,38.512-7.753,52.375-21.829c0.001-0.001,0.003-0.002,0.004-0.004c13.219-13.423,20.499-31.087,20.499-49.74
		c0-39.465-32.693-71.573-72.878-71.573c-40.186,0-72.878,32.107-72.878,71.573C350.554,107.614,359.254,126.921,374.423,140.464z
		 M388.999,132.956c8.039-11.604,21.75-18.694,36.601-18.694c13.907,0,26.836,6.227,35.024,16.559
		c-10.403,8.578-23.397,13.245-37.192,13.245C410.945,144.066,398.925,140.15,388.999,132.956z M423.433,30.921
		c31.914,0,57.878,25.378,57.878,56.573c0,11.669-3.628,22.857-10.353,32.278c-11.042-12.845-27.631-20.51-45.357-20.51
		c-18.98,0-36.634,8.771-47.593,23.277c-7.995-9.918-12.454-22.28-12.454-35.046C365.554,56.299,391.519,30.921,423.433,30.921z"/>
	<path style="fill:#18191B;" d="M83.653,432.536c12.583,0,22.821-12.074,22.821-26.916s-10.237-26.916-22.821-26.916
		s-22.821,12.074-22.821,26.916S71.07,432.536,83.653,432.536z M83.653,393.705c3.699,0,7.821,4.894,7.821,11.916
		c0,7.022-4.122,11.916-7.821,11.916s-7.821-4.894-7.821-11.916C75.833,398.598,79.954,393.705,83.653,393.705z"/>
	<path style="fill:#18191B;" d="M155.353,426.332c0-39.465-32.693-71.573-72.878-71.573c-40.186,0-72.878,32.107-72.878,71.573
		c0,20.12,8.7,39.427,23.869,52.971c0.002,0.002,0.004,0.003,0.006,0.005c13.435,11.992,30.837,18.597,49.003,18.597
		c19.912,0,38.512-7.752,52.375-21.829c0.001-0.001,0.003-0.002,0.004-0.004C148.073,462.648,155.353,444.984,155.353,426.332z
		 M24.596,426.332c0-31.194,25.964-56.573,57.878-56.573s57.878,25.378,57.878,56.573c0,11.669-3.628,22.857-10.353,32.278
		c-11.042-12.845-27.631-20.51-45.358-20.51c-18.979,0-36.634,8.771-47.592,23.277C29.055,451.46,24.596,439.098,24.596,426.332z
		 M48.041,471.795c8.039-11.604,21.75-18.694,36.601-18.694c13.908,0,26.837,6.227,35.025,16.559
		c-10.403,8.578-23.397,13.245-37.192,13.245C69.987,482.905,57.967,478.989,48.041,471.795z"/>
	<path style="fill:#18191B;" d="M447.432,405.62c0-14.841-10.237-26.916-22.821-26.916s-22.821,12.074-22.821,26.916
		s10.237,26.916,22.821,26.916S447.432,420.462,447.432,405.62z M416.791,405.62c0-7.022,4.122-11.916,7.821-11.916
		s7.821,4.894,7.821,11.916c0,7.022-4.122,11.916-7.821,11.916S416.791,412.642,416.791,405.62z"/>
	<path style="fill:#18191B;" d="M423.433,354.76c-16.627,0-32.286,5.356-45.282,15.489c-3.267,2.547-3.85,7.26-1.303,10.526
		c2.547,3.266,7.258,3.85,10.526,1.303c10.336-8.059,22.806-12.319,36.06-12.319c31.914,0,57.878,25.378,57.878,56.573
		c0,11.669-3.628,22.857-10.353,32.278c-11.042-12.845-27.631-20.51-45.357-20.51c-18.98,0-36.634,8.771-47.593,23.277
		c-7.995-9.918-12.454-22.28-12.454-35.046c0-8.206,1.755-16.116,5.218-23.511c1.756-3.751,0.139-8.216-3.612-9.972
		c-3.752-1.757-8.216-0.139-9.973,3.613c-4.401,9.401-6.633,19.451-6.633,29.871c0,20.12,8.7,39.427,23.869,52.971
		c0.002,0.002,0.004,0.003,0.006,0.005c13.435,11.992,30.837,18.597,49.003,18.597c19.912,0,38.512-7.752,52.375-21.829
		c0.001-0.001,0.003-0.002,0.004-0.004c13.219-13.423,20.499-31.087,20.499-49.74C496.311,386.867,463.618,354.76,423.433,354.76z
		 M388.999,471.795c8.039-11.604,21.75-18.694,36.601-18.694c13.907,0,26.836,6.227,35.024,16.559
		c-10.403,8.578-23.397,13.245-37.192,13.245C410.945,482.905,398.925,478.989,388.999,471.795z"/>
	<path style="fill:#18191B;" d="M251.05,110.527c-17.85,0-35.371,4.766-50.669,13.784c-3.568,2.103-4.756,6.701-2.652,10.27
		c2.104,3.568,6.701,4.757,10.27,2.652c12.991-7.658,27.878-11.706,43.052-11.706c46.822,0,84.914,38.092,84.914,84.914
		c0,37.573-25.177,71.113-61.226,81.563c-3.206,0.929-5.412,3.865-5.412,7.203v20.034h-36.553v-20.034
		c0-3.338-2.206-6.274-5.412-7.203c-36.049-10.45-61.226-43.99-61.226-81.563c0-20.118,7.161-39.629,20.164-54.938
		c2.682-3.157,2.296-7.89-0.861-10.572c-3.156-2.681-7.89-2.296-10.571,0.861c-15.304,18.018-23.731,40.977-23.731,64.649
		c0,22.083,7.061,43.015,20.42,60.531c11.77,15.433,28.026,27.249,46.218,33.696v14.616h-0.331c-4.142,0-7.5,3.358-7.5,7.5
		s3.358,7.5,7.5,7.5h0.321v12.855h-0.321c-4.142,0-7.5,3.358-7.5,7.5s3.358,7.5,7.5,7.5h0.321v4.119
		c0,18.367,14.942,33.31,33.31,33.31c19.301,0,33.31-14.009,33.31-33.31v-4.119h0.272c4.142,0,7.5-3.358,7.5-7.5s-3.358-7.5-7.5-7.5
		h-0.272v-12.855h0.272c4.142,0,7.5-3.358,7.5-7.5s-3.358-7.5-7.5-7.5h-0.329v-14.616c18.192-6.448,34.448-18.263,46.218-33.696
		c13.359-17.517,20.42-38.448,20.42-60.531C350.964,155.349,306.143,110.527,251.05,110.527z M269.383,366.26
		c0,12.648-9.196,18.31-18.31,18.31c-10.096,0-18.31-8.214-18.31-18.31v-4.119h36.619V366.26z M269.383,347.141h-36.619v-12.855
		h36.619V347.141z"/>
	<path style="fill:#18191B;" d="M244.98,282.162c1.375,1.11,3.043,1.665,4.712,1.665c1.668,0,3.337-0.555,4.712-1.665
		c1.518-1.226,37.171-30.445,37.171-67.847s-35.653-66.621-37.171-67.847c-2.749-2.22-6.675-2.22-9.424,0
		c-1.518,1.226-37.17,30.445-37.17,67.847C207.81,251.717,243.463,280.936,244.98,282.162z M249.692,162.431
		c8.813,8.572,26.883,28.948,26.883,51.884c0,17.477-10.491,33.461-19.383,43.874v-28.525c0-4.142-3.358-7.5-7.5-7.5
		s-7.5,3.358-7.5,7.5v28.568c-8.892-10.388-19.382-26.36-19.382-43.917C222.81,191.378,240.884,171,249.692,162.431z"/>
	<path style="fill:#18191B;" d="M491.53,211.545c-4.11,0.54-7,4.3-6.46,8.41c0.49,3.78,3.72,6.52,7.43,6.52
		c0.32,0,0.65-0.02,0.98-0.06c4.11-0.54,7-4.31,6.46-8.42C499.4,213.895,495.63,211.005,491.53,211.545z"/>
	<path style="fill:#18191B;" d="M479.01,189.565c0.9,3.35,3.93,5.56,7.24,5.56c0.65,0,1.3-0.09,1.95-0.26c4-1.08,6.37-5.19,5.3-9.19
		c-1.08-4-5.19-6.37-9.19-5.3C480.31,181.455,477.94,185.565,479.01,189.565z"/>
	<path style="fill:#18191B;" d="M473.04,150.445c-3.82,1.59-5.63,5.98-4.04,9.8c1.2,2.88,3.99,4.62,6.93,4.62
		c0.96,0,1.94-0.19,2.88-0.58c3.83-1.6,5.63-5.99,4.04-9.81C481.25,150.655,476.86,148.845,473.04,150.445z"/>
	<path style="fill:#18191B;" d="M493.51,275.365c-4.1-0.54-7.87,2.36-8.4,6.47c-0.54,4.1,2.36,7.87,6.47,8.4
		c0.32,0.05,0.65,0.07,0.97,0.07c3.71,0,6.94-2.76,7.43-6.54C500.52,279.665,497.62,275.895,493.51,275.365z"/>
	<path style="fill:#18191B;" d="M473.17,351.375c0.94,0.39,1.91,0.57,2.87,0.57c2.94,0,5.73-1.74,6.93-4.62
		c1.59-3.83-0.22-8.21-4.05-9.8c-3.82-1.59-8.21,0.22-9.8,4.04C467.53,345.395,469.34,349.785,473.17,351.375z"/>
	<path style="fill:#18191B;" d="M486.34,321.675c3.31,0,6.34-2.21,7.24-5.57c1.07-4-1.3-8.11-5.3-9.18
		c-4.01-1.07-8.12,1.31-9.19,5.31c-1.07,4,1.31,8.11,5.31,9.18C485.05,321.585,485.7,321.675,486.34,321.675z"/>
	<path style="fill:#18191B;" d="M494.59,243.385c-4.14,0-7.5,3.36-7.49,7.51c0,4.14,3.36,7.49,7.5,7.49s7.5-3.36,7.5-7.51
		C502.09,246.735,498.73,243.385,494.59,243.385z"/>
	<path style="fill:#18191B;" d="M32.98,160.525c1.59-3.82-0.22-8.21-4.05-9.8c-3.82-1.59-8.21,0.22-9.8,4.05
		c-1.59,3.82,0.22,8.21,4.05,9.8c0.94,0.39,1.91,0.58,2.87,0.58C28.99,165.155,31.78,163.415,32.98,160.525z"/>
	<path style="fill:#18191B;" d="M13.82,195.175c0.65,0.17,1.31,0.25,1.95,0.25c3.31,0,6.34-2.21,7.24-5.56
		c1.07-4-1.31-8.11-5.31-9.18s-8.11,1.3-9.18,5.3C7.45,189.985,9.82,194.105,13.82,195.175z"/>
	<path style="fill:#18191B;" d="M19.25,347.625c1.2,2.88,3.99,4.61,6.93,4.61c0.96,0,1.94-0.18,2.88-0.58
		c3.83-1.59,5.63-5.98,4.04-9.81c-1.6-3.82-5.99-5.63-9.81-4.03C19.46,339.405,17.66,343.795,19.25,347.625z"/>
	<path style="fill:#18191B;" d="M10.57,290.555c4.11-0.54,7-4.31,6.46-8.41c-0.54-4.11-4.31-7-8.41-6.46
		c-4.11,0.54-7,4.31-6.46,8.41c0.5,3.78,3.72,6.52,7.42,6.53C9.91,290.625,10.24,290.595,10.57,290.555z"/>
	<path style="fill:#18191B;" d="M15.84,321.975c0.65,0,1.3-0.08,1.95-0.26c4-1.07,6.37-5.19,5.3-9.19c-1.08-4-5.19-6.37-9.19-5.29
		c-4,1.07-6.37,5.19-5.3,9.19C9.5,319.775,12.53,321.975,15.84,321.975z"/>
	<path style="fill:#18191B;" d="M7.51,258.715c4.14-0.01,7.5-3.37,7.49-7.51c0-4.14-3.36-7.5-7.5-7.49c-4.14,0-7.5,3.36-7.5,7.5
		C0.01,255.355,3.37,258.715,7.51,258.715z"/>
	<path style="fill:#18191B;" d="M8.59,226.735c0.33,0.04,0.65,0.06,0.98,0.06c3.71,0,6.93-2.75,7.42-6.53
		c0.54-4.11-2.36-7.87-6.47-8.41c-4.11-0.53-7.87,2.37-8.4,6.47C1.58,222.435,4.48,226.195,8.59,226.735z"/>
</g>
<g>
</g>
<g>
</g>
<g>
</g>
<g>
</g>
<g>
</g>
<g>
</g>
<g>
</g>
<g>
</g>
<g>
</g>
<g>
</g>
<g>
</g>
<g>
</g>
<g>
</g>
<g>
</g>
<g>
</g>
</svg>
