<?xml version="1.0" encoding="iso-8859-1"?>
<!-- Generator: Adobe Illustrator 21.0.0, SVG Export Plug-In . SVG Version: 6.00 Build 0)  -->
<svg version="1.1" id="Capa_1" xmlns="http://www.w3.org/2000/svg" xmlns:xlink="http://www.w3.org/1999/xlink" x="0px" y="0px"
	 viewBox="0 0 507.167 507.167" style="enable-background:new 0 0 507.167 507.167;" xml:space="preserve">
<path style="fill:#18191B;" d="M149.732,219.998c0-4.792-0.864-9.494-2.513-13.902h65.364c4.142,0,7.5-3.358,7.5-7.5v-49.518
	c3.579,1.044,7.313,1.579,11.118,1.579c21.885,0,39.69-17.805,39.69-39.69s-17.805-39.69-39.69-39.69
	c-3.805,0-7.539,0.535-11.118,1.579V23.337c0-4.142-3.358-7.5-7.5-7.5H20.237C9.078,15.837,0,24.916,0,36.074v162.522
	c0,4.142,3.358,7.5,7.5,7.5h65.364c-1.649,4.407-2.513,9.11-2.513,13.902c0,21.885,17.805,39.69,39.69,39.69
	S149.732,241.883,149.732,219.998z M85.352,219.998c0-6.059,2.22-11.888,6.252-16.413c1.966-2.207,2.453-5.361,1.244-8.058
	s-3.889-4.432-6.844-4.432H15V36.074c0-2.888,2.349-5.237,5.237-5.237h184.847v53.877c0,2.806,1.566,5.377,4.06,6.665
	c2.492,1.286,5.495,1.075,7.784-0.55c4.192-2.979,9.128-4.553,14.274-4.553c13.614,0,24.69,11.076,24.69,24.69
	s-11.076,24.69-24.69,24.69c-5.146,0-10.083-1.574-14.274-4.552c-2.287-1.625-5.291-1.837-7.784-0.551
	c-2.493,1.287-4.06,3.858-4.06,6.665v53.877H134.08c-2.955,0-5.635,1.735-6.844,4.432s-0.722,5.851,1.244,8.058
	c4.032,4.525,6.252,10.354,6.252,16.413c0,13.614-11.076,24.69-24.69,24.69S85.352,233.612,85.352,219.998z"/>
<path style="fill:#18191B;" d="M486.931,125.813H365.783c-4.142,0-7.5,3.358-7.5,7.5s3.358,7.5,7.5,7.5h121.147
	c2.888,0,5.237,2.349,5.237,5.236v155.022h-58.585c2.121-4.901,3.234-10.234,3.234-15.757c0-21.885-17.805-39.69-39.69-39.69
	s-39.69,17.805-39.69,39.69c0,5.523,1.112,10.856,3.234,15.757h-58.586v-52.287c4.288,1.549,8.845,2.36,13.471,2.36
	c21.885,0,39.69-17.805,39.69-39.69s-17.805-39.69-39.69-39.69c-4.626,0-9.183,0.812-13.471,2.36v-33.312h33.7
	c4.142,0,7.5-3.358,7.5-7.5s-3.358-7.5-7.5-7.5h-41.2c-4.142,0-7.5,3.358-7.5,7.5v53.731c0,2.931,1.708,5.594,4.372,6.816
	c2.665,1.222,5.797,0.782,8.018-1.13c4.475-3.847,10.186-5.966,16.082-5.966c13.614,0,24.69,11.076,24.69,24.69
	s-11.076,24.69-24.69,24.69c-5.896,0-11.607-2.119-16.082-5.966c-2.222-1.911-5.354-2.352-8.018-1.13
	c-2.664,1.223-4.372,3.885-4.372,6.816v65.206h-78.06c-2.769,0-5.312,1.525-6.616,3.968c-1.304,2.442-1.156,5.404,0.384,7.705
	c2.719,4.062,4.156,8.803,4.156,13.711c0,13.614-11.076,24.69-24.69,24.69s-24.69-11.076-24.69-24.69
	c0-4.908,1.438-9.649,4.156-13.711c1.541-2.3,1.688-5.262,0.384-7.705c-1.304-2.442-3.848-3.968-6.616-3.968H89.5
	c-4.142,0-7.5,3.358-7.5,7.5v70.103c0,4.142,3.358,7.5,7.5,7.5s7.5-3.358,7.5-7.5v-62.603h46.941
	c-0.909,3.359-1.374,6.844-1.374,10.383c0,21.885,17.805,39.69,39.69,39.69s39.69-17.805,39.69-39.69
	c0-3.539-0.465-7.024-1.374-10.383h66.509v55.663c0,2.714,1.467,5.217,3.835,6.543s5.268,1.27,7.583-0.148
	c3.866-2.369,8.318-3.621,12.876-3.621c13.614,0,24.69,11.076,24.69,24.69s-11.076,24.69-24.69,24.69
	c-4.558,0-9.01-1.252-12.876-3.621c-2.315-1.418-5.214-1.475-7.583-0.148c-2.368,1.326-3.835,3.829-3.835,6.543v49.667H102.237
	c-2.888,0-5.237-2.349-5.237-5.237v-62.419c0-4.142-3.358-7.5-7.5-7.5s-7.5,3.358-7.5,7.5v62.419
	c0,11.159,9.078,20.237,20.237,20.237h192.347h192.347c11.159,0,20.237-9.078,20.237-20.237V308.571V146.049
	C507.167,134.891,498.089,125.813,486.931,125.813z M486.931,476.33H302.083v-38.541c3.027,0.728,6.146,1.1,9.294,1.1
	c21.885,0,39.69-17.805,39.69-39.69s-17.805-39.69-39.69-39.69c-3.149,0-6.267,0.373-9.294,1.1v-44.538h72.8
	c3.064,0,5.819-1.864,6.96-4.707s0.438-6.095-1.776-8.213c-4.922-4.708-7.632-11.043-7.632-17.837
	c0-13.614,11.076-24.69,24.69-24.69s24.69,11.076,24.69,24.69c0,6.794-2.71,13.129-7.632,17.838
	c-2.214,2.118-2.917,5.369-1.776,8.212c1.141,2.844,3.896,4.707,6.96,4.707h72.799v155.022
	C492.167,473.981,489.818,476.33,486.931,476.33z"/>
<g>
</g>
<g>
</g>
<g>
</g>
<g>
</g>
<g>
</g>
<g>
</g>
<g>
</g>
<g>
</g>
<g>
</g>
<g>
</g>
<g>
</g>
<g>
</g>
<g>
</g>
<g>
</g>
<g>
</g>
</svg>
