<?xml version="1.0" encoding="iso-8859-1"?>
<!-- Generator: Adobe Illustrator 21.0.0, SVG Export Plug-In . SVG Version: 6.00 Build 0)  -->
<svg version="1.1" id="Capa_1" xmlns="http://www.w3.org/2000/svg" xmlns:xlink="http://www.w3.org/1999/xlink" x="0px" y="0px"
	 viewBox="0 0 507.694 507.694" style="enable-background:new 0 0 507.694 507.694;" xml:space="preserve">
<path style="fill:#18191B;" d="M485.194,22.591H250.061H97.791c-4.142,0-7.5,3.358-7.5,7.5s3.358,7.5,7.5,7.5h152.27v299.928H15
	V45.091c0-4.136,3.365-7.5,7.5-7.5h45.291c4.142,0,7.5-3.358,7.5-7.5s-3.358-7.5-7.5-7.5H22.5c-12.407,0-22.5,10.093-22.5,22.5
	v292.428v46.202v4.21c0,12.407,10.093,22.5,22.5,22.5h4.211h171.566v27.626h-18.442c-12.971,0-23.523,10.553-23.523,23.523
	s10.552,23.523,23.523,23.523h148.024c12.971,0,23.523-10.552,23.523-23.523s-10.552-23.523-23.523-23.523h-18.442v-27.626h171.566
	h4.211c12.407,0,22.5-10.093,22.5-22.5v-4.21v-46.202V45.091C507.694,32.684,497.601,22.591,485.194,22.591z M15,383.72v-31.202
	h235.061v42.913H26.711C20.253,395.431,15,390.177,15,383.72z M336.382,461.58c0,4.7-3.823,8.523-8.523,8.523H179.835
	c-4.7,0-8.523-3.823-8.523-8.523s3.823-8.523,8.523-8.523h148.024C332.559,453.057,336.382,456.881,336.382,461.58z
	 M294.417,438.057h-81.139v-27.626h36.783h44.356V438.057z M265.061,395.431v-42.913h227.633v31.202
	c0,6.457-5.253,11.71-11.711,11.71H265.061z M265.061,337.518V37.591h220.133c4.136,0,7.5,3.364,7.5,7.5v292.428H265.061z"/>
<path style="fill:#18191B;" d="M192.126,69.229H83.023c-12.535,0-22.733,10.198-22.733,22.733v5.446
	c0,12.535,10.198,22.733,22.733,22.733h109.103c12.535,0,22.733-10.198,22.733-22.733v-5.446
	C214.86,79.427,204.662,69.229,192.126,69.229z M199.86,97.408c0,4.264-3.469,7.733-7.733,7.733H83.023
	c-4.264,0-7.733-3.469-7.733-7.733v-5.446c0-4.264,3.469-7.733,7.733-7.733h109.103c4.264,0,7.733,3.469,7.733,7.733V97.408z"/>
<path style="fill:#18191B;" d="M327.45,120.142h109.103c12.535,0,22.733-10.198,22.733-22.733v-5.446
	c0-12.535-10.198-22.733-22.733-22.733h-42.06c-4.142,0-7.5,3.358-7.5,7.5s3.358,7.5,7.5,7.5h42.06c4.264,0,7.733,3.469,7.733,7.733
	v5.446c0,4.264-3.469,7.733-7.733,7.733H327.45c-4.264,0-7.733-3.469-7.733-7.733v-5.446c0-4.264,3.469-7.733,7.733-7.733h37.043
	c4.142,0,7.5-3.358,7.5-7.5s-3.358-7.5-7.5-7.5H327.45c-12.535,0-22.733,10.198-22.733,22.733v5.446
	C304.716,109.944,314.915,120.142,327.45,120.142z"/>
<path style="fill:#18191B;" d="M137.403,162.493c-43.983,0-79.766,35.135-79.766,78.323c0,20.367,8.161,39.961,22.524,54.518
	l-0.059,0.181l3.655,3.263c14.707,13.13,33.758,20.361,53.646,20.361c21.798,0,42.16-8.487,57.335-23.897l4.014-4.076l-0.12-0.208
	c11.982-14.068,18.537-31.656,18.537-50.141C217.169,197.629,181.386,162.493,137.403,162.493z M137.403,177.493
	c35.712,0,64.766,28.406,64.766,63.323c0,13.405-4.276,26.244-12.186,36.959c-12.05-14.486-30.473-23.161-50.184-23.161
	c-21.08,0-40.662,9.904-52.576,26.224c-9.356-11.232-14.586-25.389-14.586-40.022C72.637,205.9,101.691,177.493,137.403,177.493z
	 M98.245,291.256c0.016-0.023,0.029-0.048,0.044-0.071c0.182-0.269,0.375-0.529,0.566-0.79c9.053-12.903,24.366-20.78,40.944-20.78
	c12.138,0,23.608,4.236,32.44,11.57c0.385,0.32,0.761,0.65,1.137,0.982c0.379,0.335,0.754,0.674,1.123,1.021
	c0.345,0.324,0.685,0.654,1.02,0.988c0.394,0.395,0.78,0.798,1.16,1.207c0.29,0.311,0.581,0.621,0.863,0.939
	c0.425,0.482,0.835,0.978,1.24,1.478c0.221,0.272,0.449,0.538,0.665,0.816c0.055,0.071,0.105,0.147,0.16,0.219
	c-11.737,9.911-26.507,15.304-42.203,15.304C123.168,304.139,109.469,299.599,98.245,291.256z"/>
<path style="fill:#18191B;" d="M138.706,246.883c13.474,0,24.435-12.992,24.435-28.961s-10.961-28.961-24.435-28.961
	s-24.435,12.992-24.435,28.961S125.232,246.883,138.706,246.883z M138.706,203.961c5.114,0,9.435,6.394,9.435,13.961
	c0,7.567-4.321,13.961-9.435,13.961s-9.435-6.394-9.435-13.961C129.271,210.354,133.591,203.961,138.706,203.961z"/>
<path style="fill:#18191B;" d="M385.539,162.493c-43.983,0-79.766,35.135-79.766,78.323c0,20.366,8.161,39.96,22.523,54.516
	l-0.059,0.181l3.656,3.265c14.707,13.13,33.758,20.361,53.646,20.361c21.798,0,42.16-8.487,57.335-23.897l4.014-4.076l-0.12-0.208
	c11.982-14.068,18.537-31.656,18.537-50.141C465.305,197.629,429.522,162.493,385.539,162.493z M385.539,177.493
	c35.712,0,64.766,28.406,64.766,63.323c0,13.405-4.276,26.244-12.186,36.958c-0.217-0.261-0.451-0.506-0.673-0.763
	c-0.2-0.233-0.391-0.475-0.594-0.705h-0.026c-12.052-13.591-29.861-21.692-48.89-21.692c-21.08,0-40.662,9.904-52.577,26.224
	c-9.355-11.232-14.586-25.389-14.586-40.022C320.772,205.9,349.827,177.493,385.539,177.493z M346.38,291.256
	c0.013-0.02,0.025-0.041,0.038-0.061c1.23-1.834,2.598-3.558,4.066-5.188h-0.029c9.23-10.282,22.869-16.392,37.48-16.392
	c9.121,0,17.865,2.395,25.398,6.692h-0.002c1.155,0.659,2.274,1.373,3.369,2.119c0.346,0.236,0.692,0.472,1.032,0.717
	c0.401,0.288,0.796,0.584,1.188,0.884c0.397,0.304,0.786,0.617,1.173,0.934c0.327,0.267,0.657,0.529,0.977,0.804
	c0.67,0.578,1.326,1.172,1.963,1.786c0.213,0.205,0.415,0.42,0.624,0.628c0.48,0.481,0.953,0.969,1.413,1.47
	c0.22,0.24,0.437,0.483,0.652,0.727c0.47,0.535,0.928,1.081,1.375,1.638c0.158,0.197,0.32,0.389,0.475,0.588
	c0.059,0.076,0.112,0.158,0.171,0.235c-11.737,9.91-26.507,15.304-42.203,15.304C371.303,304.139,357.604,299.599,346.38,291.256z"
	/>
<path style="fill:#18191B;" d="M386.841,246.883c13.474,0,24.435-12.992,24.435-28.961s-10.961-28.961-24.435-28.961
	c-13.473,0-24.435,12.992-24.435,28.961S373.368,246.883,386.841,246.883z M386.841,203.961c5.114,0,9.435,6.394,9.435,13.961
	c0,7.567-4.321,13.961-9.435,13.961s-9.435-6.394-9.435-13.961C377.407,210.354,381.727,203.961,386.841,203.961z"/>
<g>
</g>
<g>
</g>
<g>
</g>
<g>
</g>
<g>
</g>
<g>
</g>
<g>
</g>
<g>
</g>
<g>
</g>
<g>
</g>
<g>
</g>
<g>
</g>
<g>
</g>
<g>
</g>
<g>
</g>
</svg>
