<?xml version="1.0" encoding="iso-8859-1"?>
<!-- Generator: Adobe Illustrator 21.0.0, SVG Export Plug-In . SVG Version: 6.00 Build 0)  -->
<svg version="1.1" id="Capa_1" xmlns="http://www.w3.org/2000/svg" xmlns:xlink="http://www.w3.org/1999/xlink" x="0px" y="0px"
	 viewBox="0 0 512.145 512.145" style="enable-background:new 0 0 512.145 512.145;" xml:space="preserve">
<ellipse transform="matrix(1 -0.003 0.003 1 -0.935 0.3242)" style="fill:#18191B;" cx="107.791" cy="312.357" rx="8.509" ry="8.509"/>
<ellipse transform="matrix(1 -0.003 0.003 1 -0.9353 0.5048)" style="fill:#18191B;" cx="167.894" cy="312.177" rx="8.509" ry="8.509"/>
<ellipse transform="matrix(1 -0.003 0.003 1 -0.9388 1.034)" style="fill:#18191B;" cx="344.791" cy="313.998" rx="8.509" ry="8.509"/>
<ellipse transform="matrix(1 -0.003 0.003 1 -0.9391 1.2154)" style="fill:#18191B;" cx="404.894" cy="313.818" rx="8.509" ry="8.509"/>
<path style="fill:#18191B;" d="M222.373,261.038c11.209-8.79,18.221-22.628,17.663-37.92c-0.926-25.367-22.344-45.253-47.683-44.325
	c-10.471,0.382-20.484,4.362-28.351,11.124c-7.329-4.609-15.869-6.921-24.657-6.605c-9.465,0.345-18.413,3.736-25.636,9.552
	c-9.145-11.235-23.196-17.811-38.003-17.267c-25.768,0.941-45.966,22.669-45.026,48.438c0.579,15.866,9.042,29.615,21.473,37.623
	c-13.378,3.578-23.243,15.82-23.199,30.306c0.05,16.664,13.192,30.285,29.638,31.135c2.819,17.026,10.964,32.27,22.677,43.944
	c-10.871,5.562-20.098,13.212-26.987,22.435c-9.057,12.126-13.845,26.742-13.845,42.268v29.958c0,4.142,3.358,7.5,7.5,7.5
	s7.5-3.358,7.5-7.5v-29.958c0-23.677,13.85-43.515,37.171-53.46c1.407,23.688,21.116,42.53,45.15,42.53
	c24.15,0,43.939-19.021,45.175-42.869c23.824,9.698,37.954,29.622,37.954,53.8v63.758h-15.942
	C202.867,460.138,173.449,432,137.572,432s-65.295,28.138-67.372,63.503H55.436v-3.8c0-4.142-3.358-7.5-7.5-7.5s-7.5,3.358-7.5,7.5
	v11.3c0,4.142,3.358,7.5,7.5,7.5h180.45c4.142,0,7.5-3.358,7.5-7.5v-71.258c0-27.756-15.349-51.728-40.697-64.659
	c11.876-11.818,20.099-27.292,22.829-44.565c15.834-1.565,28.222-14.98,28.174-31.209
	C246.148,276.669,235.995,264.383,222.373,261.038z M137.572,447c27.603,0,50.282,21.417,52.332,48.503H85.24
	C87.291,468.417,109.97,447,137.572,447z M76.252,190.587c12.401-0.456,23.981,6.42,29.551,17.507
	c1.156,2.302,3.413,3.849,5.976,4.098c2.563,0.248,5.075-0.834,6.653-2.87c5.189-6.695,13.011-10.711,21.458-11.02
	c7.316-0.275,14.366,2.258,19.861,7.111c1.507,1.331,3.482,1.998,5.493,1.86c2.006-0.142,3.871-1.083,5.177-2.612
	c5.63-6.597,13.823-10.562,22.478-10.877c17.106-0.633,31.521,12.78,32.146,29.881s-12.78,31.522-29.881,32.146
	c-8.659,0.318-17.115-3.041-23.211-9.209c-1.409-1.426-3.33-2.229-5.334-2.229c-0.006,0-0.013,0-0.019,0
	c-2.011,0.005-3.936,0.818-5.342,2.255c-5.126,5.24-11.977,8.273-19.29,8.54c-10.583,0.385-20.44-5.089-25.726-14.291
	c-1.282-2.232-3.62-3.651-6.192-3.758c-2.574-0.107-5.02,1.113-6.483,3.232c-5.765,8.349-14.875,13.349-24.997,13.718
	c-17.497,0.647-32.262-13.081-32.9-30.583C45.031,205.985,58.75,191.226,76.252,190.587z M43.953,291.918
	c-0.013-4.346,1.667-8.438,4.731-11.521c2.398-2.412,5.422-3.966,8.705-4.541l0.096,32.04c-3.286-0.555-6.32-2.09-8.732-4.487
	C45.67,300.346,43.966,296.264,43.953,291.918z M137.756,405.815c-17.238,0-24.657-10.668-28.674-22.659
	c9.057,3.522,18.889,5.476,29.171,5.476c0.082,0,0.164,0,0.246,0c9.76-0.029,19.115-1.799,27.774-5.011
	C162.122,395.371,155.054,405.815,137.756,405.815z M138.454,375.631c-0.068,0-0.131,0-0.2,0c-36.168,0-65.653-29.374-65.762-65.568
	l-0.123-41.249c1.652,0.178,3.325,0.277,5.02,0.277c0.573,0,1.151-0.01,1.728-0.031c11.28-0.412,22.013-4.962,30.171-12.538
	c8.479,9.025,20.515,14.1,33.226,13.636c8.788-0.321,17.138-3.254,24.11-8.385c7.897,5.843,17.531,9.058,27.423,9.058
	c0.554,0,1.109-0.01,1.664-0.03c2.806-0.103,5.54-0.469,8.191-1.05l0.12,39.918C204.13,345.932,174.716,375.522,138.454,375.631z
	 M219.014,307.135l-0.094-31.484c7.023,1.785,12.25,8.133,12.273,15.706C231.215,298.93,226.026,305.308,219.014,307.135z"/>
<path style="fill:#18191B;" d="M147.033,342.206c-2.527,2.341-5.818,3.636-9.267,3.646c-0.014,0-0.028,0-0.042,0
	c-3.434,0-6.718-1.275-9.25-3.592c-3.056-2.797-7.799-2.587-10.596,0.469c-2.796,3.056-2.586,7.8,0.469,10.596
	c5.306,4.856,12.184,7.527,19.376,7.527c0.028,0,0.058,0,0.087,0c7.223-0.021,14.119-2.735,19.416-7.642
	c3.039-2.815,3.22-7.56,0.406-10.599S150.072,339.392,147.033,342.206z"/>
<path style="fill:#18191B;" d="M336.192,88.5c0-48.799-39.701-88.5-88.5-88.5s-88.5,39.701-88.5,88.5s39.701,88.5,88.5,88.5
	S336.192,137.299,336.192,88.5z M247.692,162c-40.528,0-73.5-32.972-73.5-73.5s32.972-73.5,73.5-73.5s73.5,32.972,73.5,73.5
	S288.22,162,247.692,162z"/>
<path style="fill:#18191B;" d="M369.692,145c12.958,0,23.5-10.542,23.5-23.5S382.65,98,369.692,98s-23.5,10.542-23.5,23.5
	S356.734,145,369.692,145z M369.692,113c4.687,0,8.5,3.813,8.5,8.5s-3.813,8.5-8.5,8.5s-8.5-3.813-8.5-8.5S365.005,113,369.692,113z
	"/>
<path style="fill:#18191B;" d="M129.378,158.398c12.958,0,23.5-10.542,23.5-23.5s-10.542-23.5-23.5-23.5s-23.5,10.542-23.5,23.5
	S116.42,158.398,129.378,158.398z M129.378,126.398c4.687,0,8.5,3.813,8.5,8.5s-3.813,8.5-8.5,8.5s-8.5-3.813-8.5-8.5
	S124.691,126.398,129.378,126.398z"/>
<path style="fill:#18191B;" d="M267.738,52.438c-7.534,0-14.619,2.783-20.045,7.621c-5.427-4.837-12.511-7.621-20.045-7.621
	c-16.623,0-30.147,13.524-30.147,30.147c0,4.997,1.031,9.45,3.063,13.236c8.469,15.775,40.126,32.333,43.708,34.169
	c1.074,0.55,2.248,0.826,3.421,0.826c1.16,0,2.321-0.269,3.385-0.807c3.592-1.817,35.34-18.214,43.774-34.243
	c2.013-3.826,3.034-8.26,3.034-13.181C297.885,65.962,284.361,52.438,267.738,52.438z M281.577,88.781
	c-4.265,8.106-21.767,19.521-33.865,26.058c-12.101-6.604-29.621-18.083-33.933-26.114c-0.836-1.558-1.279-3.681-1.279-6.14
	c0-8.352,6.795-15.147,15.147-15.147c5.638,0,10.776,3.105,13.41,8.105c1.297,2.463,3.852,4.005,6.636,4.005
	s5.338-1.542,6.636-4.005c2.633-5,7.771-8.105,13.41-8.105c8.352,0,15.147,6.795,15.147,15.147
	C282.885,85.012,282.433,87.155,281.577,88.781z"/>
<path style="fill:#18191B;" d="M355.347,354.966c5.306,4.856,12.183,7.527,19.377,7.527c0.028,0,0.058,0,0.087,0
	c7.223-0.021,14.118-2.735,19.415-7.641c3.039-2.815,3.221-7.56,0.407-10.599c-2.814-3.038-7.56-3.222-10.599-0.407
	c-2.528,2.341-5.819,3.636-9.268,3.646c-3.46-0.009-6.75-1.265-9.291-3.592c-3.056-2.797-7.8-2.588-10.596,0.468
	C352.082,347.426,352.292,352.17,355.347,354.966z"/>
<path style="fill:#18191B;" d="M475.667,313.384c4.887-5.689,7.548-12.855,7.526-20.431c-0.025-8.353-3.302-16.196-9.226-22.085
	c-0.32-0.318-0.648-0.625-0.979-0.927c0.52-1.04,0.803-2.193,0.8-3.377l-0.025-8.433c-0.079-26.263-10.447-50.99-29.196-69.626
	c-18.677-18.566-43.347-28.778-69.499-28.778c-0.1,0-0.202,0-0.301,0c-15.982,0.048-31.873,4.051-45.955,11.575
	c-3.653,1.952-5.032,6.496-3.08,10.149c1.952,3.654,6.496,5.033,10.149,3.08c11.928-6.374,25.39-9.764,38.93-9.805
	c0.085,0,0.169,0,0.255,0c22.161,0,43.08,8.666,58.926,24.417c15.907,15.812,24.704,36.777,24.771,59.033l0.003,0.91H291.363
	l-0.001-0.408c-0.058-19.146,6.596-37.92,18.735-52.862c2.612-3.215,2.123-7.938-1.092-10.55c-3.216-2.611-7.938-2.124-10.55,1.092
	c-14.314,17.62-22.16,39.769-22.092,62.365l0.023,7.886c0.003,1.083,0.241,2.11,0.657,3.039
	c-6.801,5.761-11.119,14.366-11.09,23.957c0.025,8.426,3.403,16.068,8.857,21.68c-0.113,0.41-0.2,0.832-0.242,1.27l-4.12,42.236
	c-0.21,0.691-0.325,1.423-0.325,2.183c0,4.142,3.358,7.5,7.5,7.5h0.146c0.003,0,0.007,0,0.01,0c0.003,0,0.007,0,0.01,0h40.277
	c0.063,0.063,0.121,0.129,0.184,0.192c-25.42,12.909-40.813,36.907-40.813,64.721v71.258c0,4.142,3.358,7.5,7.5,7.5h180.45
	c4.142,0,7.5-3.358,7.5-7.5v-71.258c0-28.036-15.285-51.901-40.649-64.706c0.071-0.071,0.146-0.137,0.217-0.208h38.605
	c0.262,0,0.52-0.014,0.775-0.04c0.25,0.025,0.502,0.041,0.757,0.041c0.234,0,0.472-0.011,0.709-0.033
	c4.124-0.387,7.153-4.044,6.767-8.168L475.667,313.384z M280.953,293.56c-0.024-8.017,5.788-14.699,13.424-16.055l0.107,32.029
	C286.834,308.228,280.977,301.579,280.953,293.56z M456.013,308.783l-0.105-31.499c2.803,0.704,5.381,2.132,7.484,4.222
	c3.083,3.064,4.787,7.146,4.8,11.492s-1.667,8.438-4.731,11.521C461.373,306.619,458.808,308.061,456.013,308.783z M441.021,311.311
	c0.052,17.486-6.761,33.999-19.186,46.498c-12.425,12.499-28.897,19.412-46.382,19.464c-0.067,0-0.134,0-0.201,0
	c-17.411,0-33.846-6.809-46.297-19.186c-12.5-12.424-19.412-28.896-19.464-46.384l-0.126-37.617h131.531L441.021,311.311z
	 M375.252,390.273c0.082,0,0.165,0,0.247,0c9.76-0.029,19.115-1.798,27.773-5.011c-4.151,11.75-11.94,22.195-28.516,22.195
	c-17.332,0-24.657-10.668-28.674-22.659C355.139,388.32,364.97,390.273,375.252,390.273z M455.018,324.166
	c2.216-0.217,4.381-0.669,6.469-1.337l2.876,30.645H444.23C449.609,344.665,453.343,334.753,455.018,324.166z M286.036,353.473
	l2.908-29.812c2.135,0.587,4.357,0.96,6.646,1.078c1.717,10.374,5.403,20.089,10.682,28.733H286.036z M324.132,497.145
	c1.237-27.859,24.281-50.145,52.44-50.145s51.203,22.286,52.44,50.145H324.132z M457.886,433.387v63.758h-13.873
	c-1.247-36.131-31.01-65.145-67.44-65.145s-66.193,29.014-67.44,65.145h-16.696v-63.758c0-23.925,13.821-43.665,37.17-53.47
	c1.401,23.692,21.113,42.54,45.151,42.54c24.155,0,43.947-19.029,45.177-42.884C443.46,389.063,457.886,409.321,457.886,433.387z"/>
<g>
</g>
<g>
</g>
<g>
</g>
<g>
</g>
<g>
</g>
<g>
</g>
<g>
</g>
<g>
</g>
<g>
</g>
<g>
</g>
<g>
</g>
<g>
</g>
<g>
</g>
<g>
</g>
<g>
</g>
</svg>
