<?xml version="1.0" encoding="iso-8859-1"?>
<!-- Generator: Adobe Illustrator 21.0.0, SVG Export Plug-In . SVG Version: 6.00 Build 0)  -->
<svg version="1.1" id="Capa_1" xmlns="http://www.w3.org/2000/svg" xmlns:xlink="http://www.w3.org/1999/xlink" x="0px" y="0px"
	 viewBox="0 0 503.596 503.596" style="enable-background:new 0 0 503.596 503.596;" xml:space="preserve">
<path style="fill:#18191B;" d="M182.3,189.122l-0.04,0.123l3.656,3.264c20.79,18.562,47.728,28.784,75.851,28.784
	c30.822,0,59.612-11.998,81.064-33.783l4.015-4.076l-0.078-0.134c17.935-20.164,27.748-45.744,27.748-72.653
	C374.515,49.636,323.936,0,261.766,0c-25.509,0-49.573,8.156-69.591,23.585c-3.281,2.529-3.89,7.238-1.361,10.519
	c2.527,3.281,7.238,3.891,10.519,1.362C218.702,22.077,239.6,15,261.766,15c53.899,0,97.749,42.907,97.749,95.646
	c0,21.755-7.448,42.518-21.143,59.379c-16.775-22.336-43.937-35.86-73.116-35.86c-31.102,0-59.87,15.335-76.26,40.33
	c-15.975-17.458-24.979-40.243-24.979-63.848c0-19.913,6.191-38.998,17.904-55.19c2.428-3.356,1.675-8.045-1.681-10.473
	c-3.356-2.428-8.045-1.675-10.472,1.681c-13.576,18.767-20.751,40.891-20.751,63.982C149.018,140.097,161.093,168.42,182.3,189.122z
	 M265.256,149.165c25.409,0,48.931,12.172,62.719,32.096h-0.321c-18.05,16.184-41.211,25.031-65.888,25.031
	c-22.549,0-44.211-7.555-61.595-21.379c0.086-0.142,0.169-0.285,0.255-0.426c0.206-0.335,0.415-0.667,0.626-0.998
	c0.17-0.266,0.342-0.531,0.515-0.795c0.285-0.432,0.572-0.863,0.866-1.289C216.206,161.392,239.767,149.165,265.256,149.165z"/>
<path style="fill:#18191B;" d="M295.827,77.303c0-21.37-14.429-38.756-32.164-38.756c-17.735,0-32.164,17.386-32.164,38.756
	s14.429,38.756,32.164,38.756C281.399,116.059,295.827,98.674,295.827,77.303z M246.5,77.303c0-12.877,7.86-23.756,17.164-23.756
	s17.164,10.879,17.164,23.756s-7.86,23.756-17.164,23.756S246.5,90.18,246.5,77.303z"/>
<path style="fill:#18191B;" d="M132.777,325.264c-17.989,0-35.381,5.155-50.295,14.907c-3.467,2.267-4.439,6.915-2.173,10.382
	c2.267,3.467,6.915,4.439,10.382,2.173c12.467-8.152,27.021-12.461,42.086-12.461c41.813,0,75.831,33.271,75.831,74.166
	c0,16.201-5.331,31.695-15.165,44.479c-13.649-17.119-35.01-27.42-57.902-27.42c-24.448,0-47.117,11.723-60.547,30.956
	c-11.561-13.33-18.046-30.377-18.046-48.015c0-15.464,4.815-30.279,13.926-42.845c2.431-3.354,1.684-8.043-1.67-10.474
	c-3.354-2.432-8.043-1.684-10.475,1.67c-10.979,15.143-16.781,33.003-16.781,51.65c0,23.417,9.467,45.951,26.128,62.571
	l-0.047,0.145l3.644,3.254c0.003,0.003,0.007,0.006,0.01,0.009c0.002,0.002,0.004,0.003,0.006,0.005
	c16.746,14.949,38.44,23.181,61.089,23.181c24.825,0,48.014-9.665,65.295-27.214l4.014-4.076l-0.107-0.184
	c13.976-16.116,21.628-36.381,21.628-57.692C223.608,365.263,182.861,325.264,132.777,325.264z M86.077,472.863
	c0.059-0.093,0.12-0.185,0.18-0.277c1.023-1.576,2.121-3.094,3.293-4.549c10.834-13.457,27.771-21.548,45.992-21.548
	c18.182,0,35.107,8.072,45.946,21.496h-0.015c0.484,0.599,0.964,1.2,1.425,1.818c0.04,0.054,0.081,0.106,0.121,0.16
	c-13.872,12.058-31.493,18.633-50.239,18.633C115.748,488.596,99.374,483.046,86.077,472.863z"/>
<path style="fill:#18191B;" d="M161.308,388.031c0-17.781-12.125-32.247-27.028-32.247s-27.028,14.466-27.028,32.247
	s12.125,32.247,27.028,32.247S161.308,405.812,161.308,388.031z M122.252,388.031c0-9.349,5.508-17.247,12.028-17.247
	s12.028,7.898,12.028,17.247s-5.508,17.247-12.028,17.247S122.252,397.379,122.252,388.031z"/>
<path style="fill:#18191B;" d="M440.021,472.122c13.976-16.115,21.627-36.38,21.627-57.692c0-49.167-40.746-89.166-90.83-89.166
	s-90.83,40-90.83,89.166c0,23.417,9.467,45.951,26.128,62.572l-0.047,0.145l3.654,3.263c16.747,14.952,38.444,23.187,61.095,23.187
	c24.823,0,48.011-9.663,65.291-27.21c0.001-0.001,0.003-0.002,0.004-0.004c0.002-0.002,0.003-0.003,0.005-0.005l4.01-4.071
	L440.021,472.122z M370.818,340.264c41.813,0,75.83,33.271,75.83,74.166c0,16.202-5.33,31.695-15.165,44.479
	c-13.649-17.119-35.009-27.42-57.901-27.42c-24.45,0-47.12,11.724-60.548,30.956c-11.561-13.33-18.046-30.377-18.046-48.015
	C294.988,373.534,329.006,340.264,370.818,340.264z M370.818,488.596c-17.029,0-33.402-5.55-46.701-15.732
	c0.061-0.096,0.124-0.191,0.186-0.287c0.456-0.7,0.924-1.392,1.409-2.069h-0.003c10.689-14.934,28.561-24.019,47.872-24.019
	c19.295,0,37.175,9.089,47.866,24.019h-1.046C406.632,482.211,389.274,488.596,370.818,488.596z"/>
<path style="fill:#18191B;" d="M372.321,420.277c14.903,0,27.027-14.466,27.027-32.247s-12.124-32.247-27.027-32.247
	s-27.028,14.466-27.028,32.247S357.418,420.277,372.321,420.277z M372.321,370.784c6.52,0,12.027,7.898,12.027,17.247
	s-5.508,17.247-12.027,17.247c-6.521,0-12.028-7.898-12.028-17.247S365.801,370.784,372.321,370.784z"/>
<path style="fill:#18191B;" d="M145.501,312.032c4.142,0,7.5-3.358,7.5-7.5v-1.445c0-17.878,14.544-32.423,32.422-32.423h149.656
	c17.878,0,32.423,14.545,32.423,32.423v1.485c0,4.142,3.357,7.5,7.5,7.5s7.5-3.358,7.5-7.5v-1.485
	c0-26.149-21.273-47.423-47.423-47.423h-67.328v-14.981c0-4.142-3.357-7.5-7.5-7.5c-4.142,0-7.5,3.358-7.5,7.5v14.981h-67.328
	c-26.149,0-47.422,21.274-47.422,47.423v1.445C138.001,308.674,141.359,312.032,145.501,312.032z"/>
<g>
</g>
<g>
</g>
<g>
</g>
<g>
</g>
<g>
</g>
<g>
</g>
<g>
</g>
<g>
</g>
<g>
</g>
<g>
</g>
<g>
</g>
<g>
</g>
<g>
</g>
<g>
</g>
<g>
</g>
</svg>
