<?xml version="1.0" encoding="iso-8859-1"?>
<!-- Generator: Adobe Illustrator 21.0.0, SVG Export Plug-In . SVG Version: 6.00 Build 0)  -->
<svg version="1.1" id="Capa_1" xmlns="http://www.w3.org/2000/svg" xmlns:xlink="http://www.w3.org/1999/xlink" x="0px" y="0px"
	 viewBox="0 0 508.128 508.128" style="enable-background:new 0 0 508.128 508.128;" xml:space="preserve">
<path style="fill:#18191B;" d="M390.617,390.747c-4.143,0-7.5,3.358-7.5,7.5v54.732c0,11.855-9.645,21.5-21.5,21.5H145.383
	c-11.855,0-21.5-9.645-21.5-21.5V229.548c0-4.142-3.357-7.5-7.5-7.5s-7.5,3.358-7.5,7.5v85.245H41.354c-4.143,0-7.5,3.358-7.5,7.5
	v50.526C14.443,377.604,0,395.155,0,416.023c0,24.538,19.963,44.5,44.5,44.5s44.5-19.962,44.5-44.5
	c0-23.068-17.645-42.088-40.146-44.284v-41.946h60.028V452.98c0,20.126,16.374,36.5,36.5,36.5h216.234
	c20.126,0,36.5-16.374,36.5-36.5v-54.732C398.117,394.105,394.76,390.747,390.617,390.747z M74,416.023
	c0,16.267-13.233,29.5-29.5,29.5S15,432.29,15,416.023s13.233-29.5,29.5-29.5S74,399.757,74,416.023z"/>
<path style="fill:#18191B;" d="M184.325,205.404c14.903,0,27.027-12.125,27.027-27.027c0-14.903-12.124-27.028-27.027-27.028
	s-27.028,12.125-27.028,27.028C157.297,193.279,169.422,205.404,184.325,205.404z M184.325,166.348
	c6.632,0,12.027,5.396,12.027,12.028c0,6.632-5.396,12.027-12.027,12.027c-6.633,0-12.028-5.396-12.028-12.027
	C172.297,171.744,177.692,166.348,184.325,166.348z"/>
<path style="fill:#18191B;" d="M236.716,171.588h20.004c4.143,0,7.5-3.358,7.5-7.5s-3.357-7.5-7.5-7.5h-20.004
	c-4.143,0-7.5,3.358-7.5,7.5S232.573,171.588,236.716,171.588z"/>
<path style="fill:#18191B;" d="M236.716,195.402h105.487c4.143,0,7.5-3.358,7.5-7.5s-3.357-7.5-7.5-7.5H236.716
	c-4.143,0-7.5,3.358-7.5,7.5S232.573,195.402,236.716,195.402z"/>
<path style="fill:#18191B;" d="M184.325,286.404c14.903,0,27.027-12.125,27.027-27.027c0-14.903-12.124-27.028-27.027-27.028
	s-27.028,12.125-27.028,27.028C157.297,274.279,169.422,286.404,184.325,286.404z M184.325,247.348
	c6.632,0,12.027,5.396,12.027,12.028c0,6.632-5.396,12.027-12.027,12.027c-6.633,0-12.028-5.396-12.028-12.027
	C172.297,252.744,177.692,247.348,184.325,247.348z"/>
<path style="fill:#18191B;" d="M236.716,252.588h20.004c4.143,0,7.5-3.358,7.5-7.5s-3.357-7.5-7.5-7.5h-20.004
	c-4.143,0-7.5,3.358-7.5,7.5S232.573,252.588,236.716,252.588z"/>
<path style="fill:#18191B;" d="M236.716,276.402h105.487c4.143,0,7.5-3.358,7.5-7.5s-3.357-7.5-7.5-7.5H236.716
	c-4.143,0-7.5,3.358-7.5,7.5S232.573,276.402,236.716,276.402z"/>
<path style="fill:#18191B;" d="M184.325,367.404c14.903,0,27.027-12.125,27.027-27.027c0-14.903-12.124-27.028-27.027-27.028
	s-27.028,12.125-27.028,27.028C157.297,355.279,169.422,367.404,184.325,367.404z M184.325,328.348
	c6.632,0,12.027,5.396,12.027,12.028c0,6.632-5.396,12.027-12.027,12.027c-6.633,0-12.028-5.396-12.028-12.027
	C172.297,333.744,177.692,328.348,184.325,328.348z"/>
<path style="fill:#18191B;" d="M236.716,333.588h20.004c4.143,0,7.5-3.358,7.5-7.5s-3.357-7.5-7.5-7.5h-20.004
	c-4.143,0-7.5,3.358-7.5,7.5S232.573,333.588,236.716,333.588z"/>
<path style="fill:#18191B;" d="M236.716,357.402h105.487c4.143,0,7.5-3.358,7.5-7.5s-3.357-7.5-7.5-7.5H236.716
	c-4.143,0-7.5,3.358-7.5,7.5S232.573,357.402,236.716,357.402z"/>
<path style="fill:#18191B;" d="M184.325,448.404c14.903,0,27.027-12.125,27.027-27.027c0-14.903-12.124-27.028-27.027-27.028
	s-27.028,12.125-27.028,27.028C157.297,436.279,169.422,448.404,184.325,448.404z M184.325,409.348
	c6.632,0,12.027,5.396,12.027,12.028c0,6.632-5.396,12.027-12.027,12.027c-6.633,0-12.028-5.396-12.028-12.027
	C172.297,414.744,177.692,409.348,184.325,409.348z"/>
<path style="fill:#18191B;" d="M236.716,414.588h20.004c4.143,0,7.5-3.358,7.5-7.5s-3.357-7.5-7.5-7.5h-20.004
	c-4.143,0-7.5,3.358-7.5,7.5S232.573,414.588,236.716,414.588z"/>
<path style="fill:#18191B;" d="M236.716,438.402h105.487c4.143,0,7.5-3.358,7.5-7.5s-3.357-7.5-7.5-7.5H236.716
	c-4.143,0-7.5,3.358-7.5,7.5S232.573,438.402,236.716,438.402z"/>
<path style="fill:#18191B;" d="M474.272,372.82v-50.526c0-4.142-3.357-7.5-7.5-7.5h-68.655V192.665h68.655
	c4.143,0,7.5-3.358,7.5-7.5v-50.526c19.413-4.784,33.855-22.335,33.855-43.204c0-24.538-19.963-44.5-44.5-44.5
	s-44.5,19.962-44.5,44.5c0,23.068,17.644,42.088,40.145,44.284v41.946h-61.155v-65.601c0-20.126-16.374-36.5-36.5-36.5h-32.914
	v-4.488c0-12.407-10.094-22.5-22.5-22.5h-13.944v-7.427c0-12.407-10.094-22.5-22.5-22.5h-35.32c-12.406,0-22.5,10.093-22.5,22.5
	v7.427h-11.142c-12.406,0-22.5,10.093-22.5,22.5v4.488h-32.914c-20.126,0-36.5,16.374-36.5,36.5v65.601H48.854v-41.946
	C71.355,133.523,89,114.503,89,91.435c0-24.538-19.963-44.5-44.5-44.5S0,66.897,0,91.435c0,20.868,14.443,38.419,33.854,43.204
	v50.526c0,4.142,3.357,7.5,7.5,7.5h67.528v6.883c0,4.142,3.357,7.5,7.5,7.5s7.5-3.358,7.5-7.5v-87.484
	c0-11.855,9.645-21.5,21.5-21.5h32.914v7.648c0,12.407,10.094,22.5,22.5,22.5h105.406c12.406,0,22.5-10.093,22.5-22.5v-7.648h32.914
	c11.855,0,21.5,9.645,21.5,21.5v256.184c0,4.142,3.357,7.5,7.5,7.5s7.5-3.358,7.5-7.5v-38.454h61.155v41.946
	c-22.5,2.196-40.145,21.216-40.145,44.284c0,24.538,19.963,44.5,44.5,44.5s44.5-19.962,44.5-44.5
	C508.128,395.155,493.685,377.604,474.272,372.82z M434.128,91.435c0-16.267,13.233-29.5,29.5-29.5s29.5,13.233,29.5,29.5
	s-13.233,29.5-29.5,29.5S434.128,107.701,434.128,91.435z M15,91.435c0-16.267,13.233-29.5,29.5-29.5S74,75.168,74,91.435
	s-13.233,29.5-29.5,29.5S15,107.701,15,91.435z M226.938,41.148c0-4.136,3.364-7.5,7.5-7.5h35.32c4.136,0,7.5,3.364,7.5,7.5V61.84
	h-50.32V41.148z M313.703,98.212c0,4.136-3.364,7.5-7.5,7.5H200.797c-4.136,0-7.5-3.364-7.5-7.5V71.075c0-4.135,3.364-7.5,7.5-7.5
	h11.142v5.765c0,4.142,3.357,7.5,7.5,7.5h65.32c4.143,0,7.5-3.358,7.5-7.5v-5.765h13.944c4.136,0,7.5,3.365,7.5,7.5V98.212z
	 M463.628,445.523c-16.267,0-29.5-13.233-29.5-29.5s13.233-29.5,29.5-29.5s29.5,13.233,29.5,29.5S479.895,445.523,463.628,445.523z"
	/>
<g>
</g>
<g>
</g>
<g>
</g>
<g>
</g>
<g>
</g>
<g>
</g>
<g>
</g>
<g>
</g>
<g>
</g>
<g>
</g>
<g>
</g>
<g>
</g>
<g>
</g>
<g>
</g>
<g>
</g>
</svg>
