<?xml version="1.0" encoding="iso-8859-1"?>
<!-- Generator: Adobe Illustrator 21.0.0, SVG Export Plug-In . SVG Version: 6.00 Build 0)  -->
<svg version="1.1" id="Capa_1" xmlns="http://www.w3.org/2000/svg" xmlns:xlink="http://www.w3.org/1999/xlink" x="0px" y="0px"
	 viewBox="0 0 507.364 507.364" style="enable-background:new 0 0 507.364 507.364;" xml:space="preserve">
<path style="fill:#18191B;" d="M464.951,396.508l-11.282-0.002v-49.574c0-22.843-11.228-44.411-29.682-57.744
	c9.208-12.755,14.166-27.984,14.118-43.938l-0.101-33.731h9.076c1.993,0,3.904-0.793,5.311-2.205
	c1.407-1.411,2.195-3.324,2.189-5.317l-0.022-7.783c-0.152-50.453-41.244-91.391-91.661-91.391c-0.093,0-0.188,0-0.28,0
	c-24.392,0.073-47.356,9.702-64.664,27.114c-17.308,17.412-26.8,40.434-26.727,64.825l0.021,7.278
	c0.013,4.134,3.366,7.478,7.5,7.478h9.028l0.103,34.182c0.047,15.764,4.983,30.789,14.057,43.397
	c-18.569,13.312-29.798,34.752-29.798,57.834v49.546l-52.63-0.008v-49.538c0-22.886-11.214-44.417-29.677-57.749
	c9.205-12.754,14.162-27.982,14.115-43.933l-0.101-33.731h9.076c1.993,0,3.904-0.793,5.312-2.205
	c1.407-1.412,2.194-3.325,2.188-5.318l-0.023-7.782c-0.073-24.392-9.702-47.357-27.114-64.665
	c-17.347-17.242-40.257-26.727-64.546-26.727c-0.092,0-0.188,0-0.28,0c-24.392,0.073-47.356,9.702-64.664,27.114
	c-17.308,17.412-26.8,40.434-26.727,64.825l0.021,7.278c0.013,4.134,3.366,7.478,7.5,7.478h9.028l0.102,34.182
	c0.049,16.185,5.257,31.163,14.035,43.413c-18.555,13.313-29.775,34.746-29.775,57.818v49.744
	C16.67,398.904,0.004,416.969,0,438.856v0.828c-0.002,11.292,4.419,21.935,12.449,29.967s18.671,12.458,29.964,12.459l154.44,0.029
	h0.001c4.142,0,7.499-3.357,7.5-7.499c0.001-4.142-3.356-7.5-7.499-7.501l-154.44-0.029c-7.285-0.001-14.16-2.865-19.357-8.064
	c-5.197-5.199-8.06-12.074-8.058-19.361v-0.828c0.002-15.118,12.302-27.416,27.419-27.416c0.001,0,0.004,0,0.005,0l2.955,0
	c0.033,0,0.064,0.005,0.097,0.005c0.032,0,0.064-0.004,0.096-0.005l38.653,0.006c4.08,23.143,24.318,40.785,48.614,40.785
	c24.29,0,44.524-17.634,48.61-40.77l30.469,0.005c0.03,0,0.059,0.004,0.089,0.004c0.03,0,0.058-0.004,0.088-0.004l97.21,0.015
	c1.556,9.981,6.16,19.576,13.834,27.25c9.273,9.273,21.673,14.38,34.915,14.38s25.643-5.107,34.916-14.38
	c7.67-7.67,12.273-17.258,13.831-27.235l58.147,0.009c15.119,0.003,27.417,12.305,27.415,27.425v0.828
	c-0.001,7.285-2.865,14.16-8.064,19.357c-5.198,5.196-12.071,8.058-19.355,8.058c-0.002,0-0.003,0-0.005,0l-238.084-0.037
	c0,0,0,0-0.001,0c-4.142,0-7.499,3.357-7.5,7.499c-0.001,4.142,3.356,7.5,7.499,7.501l238.084,0.037c0.003,0,0.004,0,0.007,0
	c23.387-0.001,42.416-19.026,42.42-42.415v-0.828C507.368,415.544,488.342,396.512,464.951,396.508z M308.59,142.513
	c14.483-14.57,33.687-22.628,54.071-22.689c0.08,0,0.154,0,0.234,0c42.164,0,76.535,34.242,76.662,76.435l0.001,0.261H295.253
	c-0.007,0-0.015,0-0.022,0h-9.005C286.217,176.209,294.154,157.035,308.59,142.513z M423.004,211.52l0.102,33.776
	c0.048,15.982-6.181,31.077-17.538,42.502c-11.356,11.425-26.413,17.744-42.396,17.792c-0.062,0-0.121,0-0.183,0
	c-15.914,0-30.938-6.225-42.319-17.538c-11.426-11.357-17.744-26.414-17.792-42.396l-0.102-34.137H423.004z M100.452,196.52h-39.36
	c-0.007,0-0.015,0-0.022,0h-9.005c-0.009-20.311,7.93-39.484,22.364-54.006c14.483-14.57,33.687-22.628,54.071-22.689
	c20.388-0.063,39.637,7.882,54.206,22.364c14.57,14.483,22.628,33.686,22.689,54.071l0.001,0.26h-74.944c-4.143,0-7.5,3.358-7.5,7.5
	s3.357,7.5,7.5,7.5h58.391l0.102,33.776c0.048,15.982-6.181,31.077-17.538,42.502s-26.414,17.744-42.396,17.792
	c-0.063,0-0.12,0-0.183,0c-17.335,0-32.982-7.39-43.968-19.183c-0.274-0.361-0.575-0.692-0.902-0.991
	c-9.431-10.583-15.196-24.505-15.242-39.76l-0.102-34.137h31.838c4.143,0,7.5-3.358,7.5-7.5S104.595,196.52,100.452,196.52z
	 M77.715,300.444c13.421,12.489,31.39,20.146,51.112,20.146c0.076,0,0.152,0,0.229,0c18.969-0.057,36.876-7.177,50.775-20.095
	c15.316,10.453,24.676,27.884,24.676,46.437v49.536l-22.719-0.004c-3.146-24.215-23.89-42.984-48.949-42.984
	c-25.055,0-45.795,18.761-48.948,42.969l-30.915-0.005v-49.511C52.976,328.232,62.33,310.886,77.715,300.444z M132.839,437.234
	c-18.956,0-34.378-15.422-34.378-34.377s15.422-34.377,34.378-34.377c18.955,0,34.377,15.421,34.377,34.377
	S151.794,437.234,132.839,437.234z M382.364,428.127c-6.44,6.44-15.074,9.987-24.31,9.987s-17.868-3.547-24.308-9.987
	c-6.441-6.441-9.782-14.823-10.033-23.28c0.032-0.283,0.053-0.57,0.053-0.861c0-0.316-0.026-0.625-0.063-0.931
	c0.135-6.155,1.909-12.281,5.322-17.658l23.725,23.725c1.408,1.407,3.315,2.197,5.304,2.197c0.03,0,0.061,0,0.09,0
	c2.021-0.024,3.945-0.863,5.34-2.325l23.147-24.29C395.571,398.058,394.149,416.342,382.364,428.127z M392.965,368.899
	c-0.278-0.278-0.559-0.552-0.843-0.823c-1.439-1.373-3.38-2.117-5.355-2.071c-1.989,0.048-3.878,0.883-5.251,2.324l-23.59,24.754
	l-24.179-24.179c-2.93-2.929-7.678-2.929-10.607,0c-7.758,7.759-12.385,17.479-13.89,27.58l-22.113-0.003v-49.548
	c0-18.716,9.371-36.077,24.781-46.515c13.979,13.023,32,20.173,51.071,20.173c0.075,0,0.153,0,0.229,0
	c18.971-0.057,36.88-7.178,50.779-20.099c15.307,10.453,24.674,27.922,24.674,46.441v49.572l-31.807-0.005
	C405.359,386.392,400.73,376.664,392.965,368.899z"/>
<path style="fill:#18191B;" d="M160.227,73.024c0.097,0,0.193-0.002,0.29-0.005l24.911-0.962c4.14-0.16,7.365-3.645,7.205-7.784
	c-0.159-4.139-3.668-7.345-7.783-7.205l-0.067,0.002c18.37-11.063,39.241-16.882,60.992-16.882c21.756,0,42.8,5.885,61.247,17.041
	l-4.173-0.161c-4.12-0.142-7.623,3.067-7.783,7.205c-0.16,4.139,3.065,7.624,7.205,7.784l24.911,0.962
	c0.097,0.003,0.193,0.005,0.29,0.005c2.171,0,4.242-0.942,5.669-2.591c1.491-1.722,2.119-4.029,1.706-6.269l-4.813-26.099
	c-0.752-4.074-4.662-6.771-8.736-6.016c-4.073,0.751-6.767,4.662-6.016,8.735l0.81,4.392
	c-21.097-13.091-45.296-19.989-70.318-19.989c-26.888,0-52.596,7.872-74.689,22.815l1.331-7.218
	c0.751-4.073-1.942-7.984-6.016-8.735c-4.076-0.754-7.984,1.942-8.736,6.016l-4.813,26.099c-0.413,2.24,0.215,4.546,1.706,6.269
	C155.984,72.082,158.056,73.024,160.227,73.024z"/>
<g>
</g>
<g>
</g>
<g>
</g>
<g>
</g>
<g>
</g>
<g>
</g>
<g>
</g>
<g>
</g>
<g>
</g>
<g>
</g>
<g>
</g>
<g>
</g>
<g>
</g>
<g>
</g>
<g>
</g>
</svg>
