<?xml version="1.0" encoding="iso-8859-1"?>
<!-- Generator: Adobe Illustrator 21.0.0, SVG Export Plug-In . SVG Version: 6.00 Build 0)  -->
<svg version="1.1" id="Capa_1" xmlns="http://www.w3.org/2000/svg" xmlns:xlink="http://www.w3.org/1999/xlink" x="0px" y="0px"
	 viewBox="0 0 490.534 490.534" style="enable-background:new 0 0 490.534 490.534;" xml:space="preserve">
<g>
	<g>
		<path style="fill:#FFF4F1;" d="M217.297,102.87H15c-8.25,0-15,6.75-15,15v31.179c0,8.25,6.75,15,15,15h74.083l13.019,22.55
			c3.897,6.749,13.639,6.749,17.536,0l13.019-22.55h84.64c8.25,0,15-6.75,15-15V117.87
			C232.297,109.62,225.547,102.87,217.297,102.87z"/>
	</g>
	<g>
		<path style="fill:#EDEAE6;" d="M227.297,102.87h-30c8.25,0,15,6.75,15,15v31.178c0,8.25-6.75,15-15,15h30c8.25,0,15-6.75,15-15
			V117.87C242.297,109.62,235.547,102.87,227.297,102.87z"/>
	</g>
	<g>
		<circle style="fill:#9DDBDF;" cx="255.564" cy="356.622" r="130.415"/>
	</g>
	<g>
		<path style="fill:#7CD6E6;" d="M255.564,226.207c-5.074,0-10.077,0.3-15,0.864c64.96,7.44,115.415,62.599,115.415,129.551
			s-50.455,122.111-115.415,129.551c4.923,0.564,9.926,0.864,15,0.864c72.026,0,130.415-58.389,130.415-130.415
			C385.979,284.596,327.59,226.207,255.564,226.207z"/>
	</g>
	<g>
		<ellipse style="fill:#FFF4F1;" cx="255.564" cy="356.622" rx="46.432" ry="130.415"/>
	</g>
	<g>
		<path style="fill:#EAE6E2;" d="M255.564,226.207c-5.249,0-10.294,2.45-15,6.959c18.283,17.52,31.432,66.173,31.432,123.456
			c0,57.283-13.149,105.937-31.432,123.456c4.706,4.509,9.751,6.959,15,6.959c25.644,0,46.432-58.389,46.432-130.415
			C301.996,284.596,281.208,226.207,255.564,226.207z"/>
	</g>
	<g>
		<path style="fill:#FFF4F1;" d="M461.12,378.583H294.838c-9.641,0-17.528,7.888-17.528,17.528v36.434
			c0,9.641,7.888,17.528,17.528,17.528h51.513l15.214,26.351c4.554,7.887,15.938,7.887,20.491,0l15.214-26.351h63.85
			c9.641,0,17.528-7.888,17.528-17.528v-36.434C478.648,386.471,470.76,378.583,461.12,378.583z"/>
	</g>
	<g>
		<path style="fill:#EDEAE6;" d="M469.12,378.583h-30c9.641,0,17.528,7.888,17.528,17.528v36.434
			c0,9.641-7.888,17.528-17.528,17.528h30c9.641,0,17.528-7.888,17.528-17.528v-36.434
			C486.648,386.471,478.76,378.583,469.12,378.583z"/>
	</g>
	<g>
		<path style="fill:#FFF4F1;" d="M327.236,3.497h142.297c8.25,0,15,6.75,15,15v31.179c0,8.25-6.75,15-15,15h-34.083l-13.019,22.55
			c-3.897,6.749-13.639,6.749-17.536,0l-13.019-22.55h-64.64c-8.25,0-15-6.75-15-15V18.497
			C312.236,10.247,318.986,3.497,327.236,3.497z"/>
	</g>
	<g>
		<path style="fill:#EDEAE6;" d="M475.534,3.497h-30c8.25,0,15,6.75,15,15v31.179c0,8.25-6.75,15-15,15h30c8.25,0,15-6.75,15-15
			V18.497C490.534,10.247,483.784,3.497,475.534,3.497z"/>
	</g>
	<g>
		<path style="fill:#F86654;" d="M417.809,191.129c0,25.928-34.31,69.968-52.781,91.798c-5.999,7.09-16.914,7.09-22.913,0
			c-18.47-21.83-52.781-65.87-52.781-91.798c0-35.477,28.76-64.237,64.237-64.237S417.809,155.652,417.809,191.129z"/>
	</g>
	<path style="fill:#EA543C;" d="M353.572,126.892c-5.167,0-10.186,0.627-15,1.779c28.238,6.758,49.237,32.148,49.237,62.458
		c0,24.348-30.254,64.665-49.237,87.566c1.232,1.486,2.418,2.902,3.544,4.232c5.999,7.09,16.914,7.09,22.913,0
		c18.47-21.83,52.781-65.87,52.781-91.798C417.809,155.652,389.049,126.892,353.572,126.892z"/>
	<g>
		<circle style="fill:#FFF4F1;" cx="353.662" cy="192.171" r="24.273"/>
	</g>
</g>
<g>
</g>
<g>
</g>
<g>
</g>
<g>
</g>
<g>
</g>
<g>
</g>
<g>
</g>
<g>
</g>
<g>
</g>
<g>
</g>
<g>
</g>
<g>
</g>
<g>
</g>
<g>
</g>
<g>
</g>
</svg>
