<?xml version="1.0" encoding="iso-8859-1"?>
<!-- Generator: Adobe Illustrator 21.0.0, SVG Export Plug-In . SVG Version: 6.00 Build 0)  -->
<svg version="1.1" id="Capa_1" xmlns="http://www.w3.org/2000/svg" xmlns:xlink="http://www.w3.org/1999/xlink" x="0px" y="0px"
	 viewBox="0 0 498.549 498.549" style="enable-background:new 0 0 498.549 498.549;" xml:space="preserve">
<g>
	<g>
		<rect x="142.495" y="418.755" style="fill:#E3DED9;" width="78.803" height="15"/>
	</g>
	<g>
		<rect x="59" y="65.65" style="fill:#E3DED9;" width="15" height="163.918"/>
	</g>
	<g>
		<rect x="94.206" y="243.987" style="fill:#E3DED9;" width="108.929" height="15"/>
	</g>
	<g>
		<path style="fill:#E3DED9;" d="M261.229,104.182h-15V88.15c0-12.406,10.093-22.5,22.5-22.5h85.928v15h-85.928
			c-4.136,0-7.5,3.365-7.5,7.5V104.182z"/>
	</g>
	<g>
		<rect x="246.229" y="156.055" style="fill:#E3DED9;" width="15" height="35.704"/>
	</g>
	<g>
		<rect x="236.309" y="300.646" style="fill:#E3DED9;" width="15" height="90.801"/>
	</g>
	<g>
		<rect x="418.457" y="365.855" style="fill:#E3DED9;" width="15" height="77.601"/>
	</g>
	<g>
		<path style="fill:#E3DED9;" d="M433.457,303.97h-15v-37.483c0-4.509-2.585-7.5-4.295-7.5h-115.06v-15h115.06
			c10.639,0,19.295,10.093,19.295,22.5V303.97z"/>
	</g>
	<g>
		<path style="fill:#9DDBDF;" d="M94.56,250.141c0,16.661-3.506,30.167-20.167,30.167s-30.167-13.506-30.167-30.167
			s13.506-30.167,30.167-30.167S94.56,233.481,94.56,250.141z"/>
	</g>
	<g>
		<path style="fill:#7CD6E6;" d="M74.231,220.016c-5.462,0.03-10.573,1.516-14.978,4.079c9.088,5.156,15.247,14.888,15.308,26.086
			c0.061,11.198-5.993,20.997-15.025,26.25c4.433,2.515,9.559,3.946,15.021,3.917c16.66-0.09,30.093-13.669,30.003-30.329
			S90.891,219.926,74.231,220.016z"/>
	</g>
	<g>
		<g>
			<path style="fill:#5E8EE1;" d="M292.102,156.055h-85.815c-8.25,0-15-6.75-15-15v-22.258c0-8.25,6.75-15,15-15h85.815
				c8.25,0,15,6.75,15,15v22.258C307.102,149.305,300.352,156.055,292.102,156.055z"/>
		</g>
		<g>
			<path style="fill:#467BFF;" d="M302.102,103.797h-30c8.25,0,15,6.75,15,15v22.258c0,8.25-6.75,15-15,15h30c8.25,0,15-6.75,15-15
				v-22.258C317.102,110.547,310.352,103.797,302.102,103.797z"/>
		</g>
	</g>
	<g>
		<path style="fill:#FFE056;" d="M128.232,493.345H15c-8.25,0-15-6.75-15-15V368.204c0-8.25,6.75-15,15-15h113.232
			c8.25,0,15,6.75,15,15v110.141C143.232,486.595,136.482,493.345,128.232,493.345z"/>
	</g>
	<g>
		<path style="fill:#F9CD45;" d="M132.232,353.204h-30c8.25,0,15,6.75,15,15v110.141c0,8.25-6.75,15-15,15h30c8.25,0,15-6.75,15-15
			V368.204C147.232,359.954,140.482,353.204,132.232,353.204z"/>
	</g>
	<g>
		<path style="fill:#FFD5CC;" d="M297.343,248.871c0,31.848-15.818,57.667-47.667,57.667s-57.667-25.818-57.667-57.667
			s25.818-57.667,57.667-57.667S297.343,217.023,297.343,248.871z"/>
	</g>
	<g>
		<path style="fill:#FDB1AA;" d="M249.676,191.204c-5.19,0-10.216,0.697-15,1.983c24.573,6.604,42.667,29.026,42.667,55.684
			c0,26.658-18.094,49.081-42.667,55.684c4.784,1.286,9.81,1.983,15,1.983c31.848,0,57.667-25.818,57.667-57.667
			C307.343,217.022,281.525,191.204,249.676,191.204z"/>
	</g>
	<g>
		<circle style="fill:#FFF4F1;" cx="249.676" cy="248.871" r="21.352"/>
	</g>
	<g>
		<path style="fill:#5E8EE1;" d="M446.395,462.259c0,16.66-3.506,30.167-20.167,30.167s-30.167-13.506-30.167-30.167
			c0-16.661,13.506-30.167,30.167-30.167S446.395,445.598,446.395,462.259z"/>
	</g>
	<g>
		<path style="fill:#2970D6;" d="M426.229,432.092c-5.462,0-10.581,1.459-15,3.998c9.06,5.205,15.167,14.97,15.167,26.169
			s-6.106,20.964-15.167,26.168c4.419,2.539,9.538,3.998,15,3.998c16.66,0,30.167-13.506,30.167-30.167
			C456.395,445.598,442.889,432.092,426.229,432.092z"/>
	</g>
	<g>
		<path style="fill:#FFE89F;" d="M265.259,414.613c0,19.144-5.519,34.663-24.663,34.663s-34.663-15.519-34.663-34.663
			c0-19.144,15.519-34.663,34.663-34.663S265.259,395.469,265.259,414.613z"/>
	</g>
	<g>
		<path style="fill:#F9E075;" d="M240.595,379.95c-6.277,0-12.158,1.677-17.236,4.594c10.411,5.981,17.427,17.202,17.427,30.07
			s-7.017,24.089-17.427,30.069c5.078,2.917,10.959,4.594,17.236,4.594c19.144,0,34.663-15.519,34.663-34.663
			C275.259,395.469,259.74,379.95,240.595,379.95z"/>
	</g>
	<g>
		<path style="fill:#FC9086;" d="M483.549,377.97h-134c-8.25,0-15-6.75-15-15v-44c0-8.25,6.75-15,15-15h134c8.25,0,15,6.75,15,15v44
			C498.549,371.22,491.799,377.97,483.549,377.97z"/>
	</g>
	<g>
		<path style="fill:#F57A73;" d="M483.549,303.97h-30c8.25,0,15,6.75,15,15v44c0,8.25-6.75,15-15,15h30c8.25,0,15-6.75,15-15v-44
			C498.549,310.72,491.799,303.97,483.549,303.97z"/>
	</g>
	<g>
		<path style="fill:#F86654;" d="M149.343,79.204h-134c-8.25,0-15-6.75-15-15v-44c0-8.25,6.75-15,15-15h134c8.25,0,15,6.75,15,15v44
			C164.343,72.454,157.593,79.204,149.343,79.204z"/>
	</g>
	<g>
		<path style="fill:#EA543C;" d="M154.343,5.204h-30c8.25,0,15,6.75,15,15v44c0,8.25-6.75,15-15,15h30c8.25,0,15-6.75,15-15v-44
			C169.343,11.954,162.593,5.204,154.343,5.204z"/>
	</g>
	<g>
		<path style="fill:#FFE056;" d="M474.232,146.345H361c-8.25,0-15-6.75-15-15V21.204c0-8.25,6.75-15,15-15h113.232
			c8.25,0,15,6.75,15,15v110.14C489.232,139.595,482.482,146.345,474.232,146.345z"/>
	</g>
	<g>
		<path style="fill:#F9CD45;" d="M479.232,6.204h-30c8.25,0,15,6.75,15,15v110.141c0,8.25-6.75,15-15,15h30c8.25,0,15-6.75,15-15
			V21.204C494.232,12.954,487.482,6.204,479.232,6.204z"/>
	</g>
	<g>
		<g>
			<path style="fill:#F9CD45;" d="M99.935,392.752H35.297c-4.142,0-7.5-3.358-7.5-7.5s3.358-7.5,7.5-7.5h64.638
				c4.142,0,7.5,3.358,7.5,7.5S104.077,392.752,99.935,392.752z"/>
		</g>
		<g>
			<path style="fill:#F9CD45;" d="M99.935,430.774H35.297c-4.142,0-7.5-3.358-7.5-7.5s3.358-7.5,7.5-7.5h64.638
				c4.142,0,7.5,3.358,7.5,7.5S104.077,430.774,99.935,430.774z"/>
		</g>
		<g>
			<path style="fill:#F9CD45;" d="M99.935,468.797H35.297c-4.142,0-7.5-3.358-7.5-7.5s3.358-7.5,7.5-7.5h64.638
				c4.142,0,7.5,3.358,7.5,7.5S104.077,468.797,99.935,468.797z"/>
		</g>
	</g>
	<g>
		<g>
			<path style="fill:#F9CD45;" d="M449.935,45.752h-64.638c-4.142,0-7.5-3.358-7.5-7.5s3.358-7.5,7.5-7.5h64.638
				c4.142,0,7.5,3.358,7.5,7.5S454.077,45.752,449.935,45.752z"/>
		</g>
		<g>
			<path style="fill:#F9CD45;" d="M449.935,83.774h-64.638c-4.142,0-7.5-3.358-7.5-7.5s3.358-7.5,7.5-7.5h64.638
				c4.142,0,7.5,3.358,7.5,7.5S454.077,83.774,449.935,83.774z"/>
		</g>
		<g>
			<path style="fill:#F9CD45;" d="M449.935,121.797h-64.638c-4.142,0-7.5-3.358-7.5-7.5s3.358-7.5,7.5-7.5h64.638
				c4.142,0,7.5,3.358,7.5,7.5S454.077,121.797,449.935,121.797z"/>
		</g>
	</g>
</g>
<g>
</g>
<g>
</g>
<g>
</g>
<g>
</g>
<g>
</g>
<g>
</g>
<g>
</g>
<g>
</g>
<g>
</g>
<g>
</g>
<g>
</g>
<g>
</g>
<g>
</g>
<g>
</g>
<g>
</g>
</svg>
