<?xml version="1.0" encoding="iso-8859-1"?>
<!-- Generator: Adobe Illustrator 21.0.0, SVG Export Plug-In . SVG Version: 6.00 Build 0)  -->
<svg version="1.1" id="Capa_1" xmlns="http://www.w3.org/2000/svg" xmlns:xlink="http://www.w3.org/1999/xlink" x="0px" y="0px"
	 viewBox="0 0 492.167 492.167" style="enable-background:new 0 0 492.167 492.167;" xml:space="preserve">
<g>
	<g>
		<path style="fill:#FC9086;" d="M492.167,239.303v219.806c0,9.511-5.702,17.221-12.737,17.221H287.084V279.303l33.388-40H492.167z"
			/>
	</g>
	<g>
		<path style="fill:#5E8EE1;" d="M479.431,125.813H302.084c-8.284,0-15,6.716-15,15v16.335c0,9.073,7.979,15.977,16.982,14.862
			c2.033-0.252,4.126-0.314,6.259-0.167c15.884,1.092,28.754,13.96,29.842,29.844c1.288,18.804-13.584,34.458-32.113,34.458
			c-1.445,0-2.868-0.095-4.262-0.28c-8.884-1.178-16.709,5.937-16.709,14.899v50.308h56.11c9.416,0,16.276-8.548,14.698-17.83
			c-0.397-2.333-0.542-4.752-0.407-7.227c0.876-16.072,13.809-29.208,29.867-30.312c18.807-1.292,34.465,13.581,34.465,32.112
			c0,1.994-0.182,3.946-0.529,5.839c-1.67,9.098,5.551,17.418,14.801,17.418h56.079V138.549
			C492.167,131.515,486.465,125.813,479.431,125.813z"/>
	</g>
	<g>
		<path style="fill:#F57A73;" d="M462.167,252.089v207.949c0,8.998-5.702,16.292-12.737,16.292h30
			c7.034,0,12.737-7.294,12.737-16.292V252.089H462.167z"/>
	</g>
	<g>
		<path style="fill:#467BFF;" d="M479.431,125.813h-30c7.034,0,12.737,5.702,12.737,12.737v162.522h30V138.549
			C492.167,131.515,486.465,125.813,479.431,125.813z"/>
	</g>
	<g>
		<path style="fill:#FFE056;" d="M225.981,71.355c-1.536-0.106-3.051-0.104-4.537-0.001c-8.8,0.612-16.36-6.115-16.36-14.937V30.837
			c0-8.284-6.716-15-15-15H12.737C5.702,15.837,0,21.54,0,28.574v147.522c0,8.284,6.716,15,15,15h40.791
			c9.137,0,16.04,8.083,14.841,17.14c-0.27,2.039-0.349,4.138-0.218,6.279c0.976,15.984,13.878,28.998,29.855,30.095
			c18.807,1.292,34.464-13.582,34.464-32.112c0-1.541-0.108-3.056-0.318-4.539c-1.265-8.949,5.958-16.862,14.996-16.862h40.674
			c8.284,0,15-6.716,15-15v-25.583c0-8.685,7.359-15.654,16.017-14.96c0.858,0.069,1.725,0.104,2.601,0.104
			c18.523,0,33.392-15.645,32.114-34.441C254.735,85.328,241.868,72.453,225.981,71.355z"/>
	</g>
	<g>
		<path style="fill:#F9CD45;" d="M255.815,101.216c-1.08-15.888-13.948-28.763-29.834-29.86c-1.536-0.106-3.051-0.104-4.537-0.001
			c-8.8,0.612-16.36-6.115-16.36-14.937v-25.58c0-8.284-6.716-15-15-15h-30c8.284,0,15,6.716,15,15v25.58
			c0,8.822,7.56,15.548,16.36,14.937c1.487-0.103,3.001-0.105,4.537,0.001c15.887,1.098,28.754,13.973,29.834,29.86
			c1.278,18.797-13.591,34.441-32.114,34.441c-0.876,0-1.743-0.035-2.601-0.104c-8.657-0.694-16.017,6.275-16.017,14.96v25.583
			c0,8.284-6.716,15-15,15h30c8.284,0,15-6.716,15-15v-25.583c0-8.685,7.359-15.654,16.017-14.96
			c0.858,0.069,1.725,0.104,2.601,0.104C242.224,135.657,257.093,120.012,255.815,101.216z"/>
	</g>
	<g>
		<path style="fill:#9DDBDF;" d="M306.032,359.579c-1.086-0.071-2.161-0.088-3.222-0.053c-8.565,0.28-15.726-6.409-15.726-14.978
			v-43.476h-65.227c-8.879,0-15.442,7.234-14.957,16.1c0.4,7.308-1.641,15.267-6.927,23.083c-1.051,1.553-2.4,2.899-3.954,3.948
			c-25.904,17.477-53.45-0.668-53.45-25.246c0-0.643,0.019-1.282,0.056-1.916c0.508-8.651-6.296-15.967-14.962-15.967H97
			c-8.284,0-15,6.716-15,15v147.522c0,7.034,5.702,12.737,12.737,12.737h192.347v-37.479c0-8.422,6.937-15.366,15.35-14.994
			c0.479,0.021,0.96,0.032,1.444,0.032c18.529,0,33.401-15.655,32.112-34.459C334.898,373.503,321.962,360.617,306.032,359.579z"/>
	</g>
</g>
<g>
</g>
<g>
</g>
<g>
</g>
<g>
</g>
<g>
</g>
<g>
</g>
<g>
</g>
<g>
</g>
<g>
</g>
<g>
</g>
<g>
</g>
<g>
</g>
<g>
</g>
<g>
</g>
<g>
</g>
</svg>
