<?xml version="1.0" encoding="iso-8859-1"?>
<!-- Generator: Adobe Illustrator 21.0.0, SVG Export Plug-In . SVG Version: 6.00 Build 0)  -->
<svg version="1.1" id="Capa_1" xmlns="http://www.w3.org/2000/svg" xmlns:xlink="http://www.w3.org/1999/xlink" x="0px" y="0px"
	 viewBox="0 0 492.694 492.694" style="enable-background:new 0 0 492.694 492.694;" xml:space="preserve">
<g>
	<g>
		<rect x="198.277" y="360.964" style="fill:#9A9999;" width="96.139" height="84.724"/>
	</g>
	<g>
		<rect x="264.417" y="360.964" style="fill:#696867;" width="30" height="84.724"/>
	</g>
	<g>
		<path style="fill:#9DDBDF;" d="M250.014,22.59H15c-8.25,0-15,6.75-15,15v342.841c0,8.25,6.75,15,15,15h235.014l40-167.224
			L250.014,22.59z"/>
	</g>
	<g>
		<path style="fill:#FFD5CC;" d="M457.694,22.59H250.06v372.841h207.633c8.25,0,15-6.75,15-15V37.59
			C472.694,29.34,465.944,22.59,457.694,22.59z"/>
	</g>
	<g>
		<path style="fill:#FDACA4;" d="M462.694,37.59v299.845l16.18,10l13.82-10V37.59c0-8.25-6.75-15-15-15h-30
			C455.944,22.59,462.694,29.34,462.694,37.59z"/>
	</g>
	<g>
		<path style="fill:#B4B4B4;" d="M320.359,470.103H172.335c-8.813,0-16.023-7.21-16.023-16.023v0c0-8.813,7.21-16.023,16.023-16.023
			h148.024c8.813,0,16.023,7.21,16.023,16.023v0C336.382,462.893,329.172,470.103,320.359,470.103z"/>
	</g>
	<g>
		<path style="fill:#E3DED9;" d="M0,337.518v38.702c0,10.566,8.645,19.211,19.211,19.211h454.272
			c10.566,0,19.211-8.645,19.211-19.211v-38.702H0z"/>
	</g>
	<g>
		<path style="fill:#B4B4B4;" d="M462.694,337.518v38.702c0,10.566-8.645,19.211-19.211,19.211h30
			c10.566,0,19.211-8.645,19.211-19.211v-38.702H462.694z"/>
	</g>
	<g>
		<path style="fill:#FFF4F1;" d="M184.627,105.142H75.524c-8.378,0-15.233-6.855-15.233-15.233v-5.446
			c0-8.378,6.855-15.233,15.233-15.233h109.103c8.378,0,15.233,6.855,15.233,15.233v5.446
			C199.86,98.287,193.005,105.142,184.627,105.142z"/>
	</g>
	<g>
		<path style="fill:#E3DED9;" d="M184.627,69.229h-30c8.378,0,15.233,6.855,15.233,15.233v5.446c0,8.378-6.855,15.233-15.233,15.233
			h30c8.378,0,15.233-6.855,15.233-15.233v-5.446C199.86,76.084,193.005,69.229,184.627,69.229z"/>
	</g>
	<g>
		<path style="fill:#9A9999;" d="M320.359,438.057h-30c8.813,0,16.023,7.21,16.023,16.023s-7.21,16.023-16.023,16.023h30
			c8.813,0,16.023-7.21,16.023-16.023S329.172,438.057,320.359,438.057z"/>
	</g>
	<g>
		<path style="fill:#9DDBDF;" d="M429.053,105.142H319.95c-8.378,0-15.233-6.855-15.233-15.233v-5.446
			c0-8.378,6.855-15.233,15.233-15.233h109.103c8.378,0,15.233,6.855,15.233,15.233v5.446
			C444.286,98.287,437.431,105.142,429.053,105.142z"/>
	</g>
	<g>
		<path style="fill:#7CD6E6;" d="M429.053,69.229h-30c8.378,0,15.233,6.855,15.233,15.233v5.446c0,8.378-6.855,15.233-15.233,15.233
			h30c8.378,0,15.233-6.855,15.233-15.233v-5.446C444.286,76.084,437.431,69.229,429.053,69.229z"/>
	</g>
	<g>
		<g>
			<path style="fill:#FFF4F1;" d="M180.865,280.845c-9.411-16.227-27.574-44.164-48.449-44.164
				c-20.931,0-39.138,27.996-48.527,44.295c-0.567,0.984-1.011,1.988-1.341,3c12.544,11.199,29.221,18.029,47.527,18.029
				C150.024,302.004,168.026,293.883,180.865,280.845z"/>
		</g>
		<path style="fill:#E8E4E0;" d="M132.195,236.794c-4.378,0.03-8.625,1.296-12.694,3.409c5.156,2.593,10.045,6.554,14.55,11.156
			c16.126,16.47,7.888,44.57-14.659,49.357c-0.612,0.13-1.226,0.252-1.844,0.366c4.139,0.711,8.398,1.08,12.75,1.05
			c19.948-0.135,37.895-8.379,50.645-21.504C171.421,264.467,153.069,236.653,132.195,236.794z"/>
		<g>
			<path style="fill:#F7EE7D;" d="M132.416,253.624c20.875,0,39.038,10.994,48.449,27.221
				c12.255-12.444,19.806-29.366,19.806-48.027c0-38.211-31.607-69.186-70.596-69.186s-70.596,30.976-70.596,69.186
				c0,20.27,8.896,38.503,23.069,51.157c0.33-1.012,0.774-2.016,1.341-3C93.278,264.676,111.485,253.624,132.416,253.624z"/>
		</g>
		<g>
			<path style="fill:#FFE056;" d="M130.075,163.632c-3.416,0-6.775,0.243-10.061,0.703c34.223,4.787,60.535,33.621,60.535,68.484
				c0,12.931-3.629,25.026-9.934,35.376c4.053,3.685,7.522,7.946,10.25,12.65c12.255-12.444,19.806-29.366,19.806-48.027
				C200.671,194.607,169.064,163.632,130.075,163.632z"/>
		</g>
		<g>
			<ellipse style="fill:#FFD5CC;" cx="131.348" cy="210.453" rx="16.544" ry="20.965"/>
		</g>
	</g>
	<g>
		<g>
			<path style="fill:#FFF4F1;" d="M425.291,280.845c-9.411-16.227-27.574-44.164-48.449-44.164
				c-20.931,0-39.138,27.996-48.527,44.295c-0.567,0.984-1.01,1.988-1.341,3c12.544,11.199,29.221,18.029,47.527,18.029
				C394.45,302.004,412.452,293.883,425.291,280.845z"/>
		</g>
		<path style="fill:#E8E4E0;" d="M376.621,236.794c-4.378,0.03-8.625,1.296-12.694,3.409c5.156,2.593,10.045,6.554,14.55,11.156
			c16.126,16.47,7.888,44.57-14.659,49.357c-0.612,0.13-1.226,0.252-1.844,0.366c4.139,0.711,8.398,1.08,12.75,1.05
			c19.948-0.135,37.895-8.379,50.645-21.504C415.847,264.467,397.495,236.653,376.621,236.794z"/>
		<g>
			<path style="fill:#F7EE7D;" d="M376.842,253.624c20.875,0,39.038,10.994,48.449,27.221
				c12.255-12.444,19.806-29.366,19.806-48.027c0-38.211-31.607-69.186-70.596-69.186s-70.596,30.976-70.596,69.186
				c0,20.27,8.896,38.503,23.069,51.157c0.33-1.012,0.774-2.016,1.341-3C337.704,264.676,355.911,253.624,376.842,253.624z"/>
		</g>
		<g>
			<path style="fill:#FFE056;" d="M374.501,163.632c-3.416,0-6.775,0.243-10.061,0.703c34.223,4.787,60.535,33.621,60.535,68.484
				c0,12.931-3.629,25.026-9.934,35.376c4.053,3.685,7.522,7.946,10.25,12.65c12.255-12.444,19.806-29.366,19.806-48.027
				C445.097,194.607,413.49,163.632,374.501,163.632z"/>
		</g>
		<g>
			<ellipse style="fill:#FFD5CC;" cx="375.774" cy="210.453" rx="16.544" ry="20.965"/>
		</g>
	</g>
	<circle style="fill:#B4B4B4;" cx="241.288" cy="366.475" r="8.773"/>
</g>
<g>
</g>
<g>
</g>
<g>
</g>
<g>
</g>
<g>
</g>
<g>
</g>
<g>
</g>
<g>
</g>
<g>
</g>
<g>
</g>
<g>
</g>
<g>
</g>
<g>
</g>
<g>
</g>
<g>
</g>
</svg>
