<?xml version="1.0" encoding="iso-8859-1"?>
<!-- Generator: Adobe Illustrator 21.0.0, SVG Export Plug-In . SVG Version: 6.00 Build 0)  -->
<svg version="1.1" id="Capa_1" xmlns="http://www.w3.org/2000/svg" xmlns:xlink="http://www.w3.org/1999/xlink" x="0px" y="0px"
	 viewBox="0 0 487.105 487.105" style="enable-background:new 0 0 487.105 487.105;" xml:space="preserve">
<g>
	<g>
		<path style="fill:#FFE056;" d="M246.86,100.746V64.561c0-15.95-13.05-29-29-29H29c-15.95,0-29,13.05-29,29v36.185H246.86z"/>
	</g>
	<g>
		<path style="fill:#F9CD45;" d="M217.86,35.561h-30c15.95,0,29,13.05,29,29v36.185h30V64.561
			C246.86,48.611,233.81,35.561,217.86,35.561z"/>
	</g>
	<g>
		<path style="fill:#FFE056;" d="M458.105,451.544H29.245c-15.95,0-29-13.05-29-29V102.535c0-15.95,13.05-29,29-29h428.86
			c15.95,0,29,13.05,29,29v320.009C487.105,438.494,474.055,451.544,458.105,451.544z"/>
	</g>
	<g>
		<path style="fill:#F9CD45;" d="M458.105,73.535h-30c15.95,0,29,13.05,29,29v320.009c0,15.95-13.05,29-29,29h30
			c15.95,0,29-13.05,29-29V102.535C487.105,86.585,474.055,73.535,458.105,73.535z"/>
	</g>
	<g>
		<path style="fill:#F8B53C;" d="M0.245,401.009v21.535c0,15.95,13.05,29,29,29h428.86c15.95,0,29-13.05,29-29v-21.535H0.245z"/>
	</g>
	<g>
		<path style="fill:#DC8839;" d="M457.105,401.009v21.535c0,15.95-13.05,29-29,29h30c15.95,0,29-13.05,29-29v-21.535H457.105z"/>
	</g>
	<g>
		<path style="fill:#FFF4F1;" d="M359.897,184.344H127.452c-6.551,0-11.911-5.36-11.911-11.911v-40.802
			c0-6.551,5.36-11.911,11.911-11.911h232.445c6.551,0,11.911,5.36,11.911,11.911v40.802
			C371.808,178.984,366.448,184.344,359.897,184.344z"/>
	</g>
	<g>
		<path style="fill:#E3DED9;" d="M333.839,159.961H148.624c-4.143,0-7.5-3.358-7.5-7.5s3.357-7.5,7.5-7.5h185.215
			c4.143,0,7.5,3.358,7.5,7.5S337.981,159.961,333.839,159.961z"/>
	</g>
	<g>
		<g>
			<path style="fill:#E3DED9;" d="M138.89,330.121c-7.842-13.522-22.979-36.804-40.374-36.804c-17.442,0-32.615,23.33-40.439,36.912
				c-0.472,0.82-0.842,1.657-1.117,2.5c10.453,9.333,24.351,15.024,39.606,15.024C113.189,347.754,128.191,340.986,138.89,330.121z"
				/>
		</g>
		<path style="fill:#D9D8DA;" d="M98.331,293.412c-3.648,0.025-7.187,1.08-10.578,2.841c4.297,2.161,8.371,5.462,12.125,9.297
			c13.438,13.725,6.574,37.141-12.216,41.13c-0.51,0.108-1.022,0.21-1.537,0.305c3.449,0.592,6.998,0.9,10.625,0.875
			c16.624-0.113,31.579-6.983,42.204-17.92C131.02,316.472,115.726,293.294,98.331,293.412z"/>
		<g>
			<path style="fill:#FFF4F1;" d="M98.516,307.437c17.395,0,32.532,9.162,40.374,22.684c10.212-10.37,16.505-24.472,16.505-40.022
				c0-31.842-26.339-57.655-58.83-57.655s-58.83,25.813-58.83,57.655c0,16.892,7.414,32.086,19.224,42.631
				c0.275-0.843,0.645-1.68,1.117-2.5C65.901,316.647,81.073,307.437,98.516,307.437z"/>
		</g>
		<g>
			<path style="fill:#E3DED9;" d="M96.565,232.444c-2.847,0-5.645,0.202-8.384,0.585c28.519,3.989,50.446,28.018,50.446,57.07
				c0,10.776-3.024,20.855-8.278,29.48c3.378,3.071,6.268,6.621,8.542,10.542c10.212-10.37,16.505-24.472,16.505-40.022
				C155.395,258.257,129.056,232.444,96.565,232.444z"/>
		</g>
		<g>
			<ellipse style="fill:#FFD5CC;" cx="97.625" cy="271.461" rx="13.786" ry="17.471"/>
		</g>
	</g>
	<g>
		<g>
			<path style="fill:#FFF4F1;" d="M287.156,330.121c-7.842-13.522-22.979-36.804-40.374-36.804
				c-17.442,0-32.615,23.33-40.439,36.912c-0.472,0.82-0.842,1.657-1.117,2.5c10.453,9.333,24.351,15.024,39.606,15.024
				C261.455,347.754,276.457,340.986,287.156,330.121z"/>
		</g>
		<path style="fill:#E8E4E0;" d="M246.597,293.412c-3.648,0.025-7.187,1.08-10.578,2.841c4.297,2.161,8.371,5.462,12.125,9.297
			c13.438,13.725,6.574,37.141-12.216,41.13c-0.51,0.108-1.022,0.21-1.537,0.305c3.449,0.592,6.998,0.9,10.625,0.875
			c16.624-0.113,31.579-6.983,42.204-17.92C279.286,316.472,263.992,293.294,246.597,293.412z"/>
		<g>
			<path style="fill:#FC9086;" d="M246.782,307.437c17.395,0,32.532,9.162,40.374,22.684c10.212-10.37,16.505-24.472,16.505-40.022
				c0-31.842-26.339-57.655-58.83-57.655s-58.83,25.813-58.83,57.655c0,16.892,7.414,32.086,19.224,42.631
				c0.275-0.843,0.645-1.68,1.117-2.5C214.167,316.647,229.339,307.437,246.782,307.437z"/>
		</g>
		<g>
			<path style="fill:#F57A73;" d="M244.831,232.444c-2.847,0-5.645,0.202-8.384,0.585c28.519,3.989,50.445,28.018,50.445,57.07
				c0,10.776-3.024,20.855-8.278,29.48c3.378,3.071,6.268,6.621,8.542,10.542c10.212-10.37,16.505-24.472,16.505-40.022
				C303.661,258.257,277.322,232.444,244.831,232.444z"/>
		</g>
		<g>
			<ellipse style="fill:#FFD5CC;" cx="245.892" cy="271.461" rx="13.786" ry="17.471"/>
		</g>
	</g>
	<g>
		<g>
			<path style="fill:#FFF4F1;" d="M435.422,330.121c-7.842-13.522-22.979-36.804-40.374-36.804
				c-17.442,0-32.615,23.33-40.439,36.912c-0.472,0.82-0.842,1.657-1.117,2.5c10.453,9.333,24.351,15.024,39.606,15.024
				C409.721,347.754,424.723,340.986,435.422,330.121z"/>
		</g>
		<path style="fill:#E8E4E0;" d="M394.864,293.412c-3.648,0.025-7.187,1.08-10.578,2.841c4.297,2.161,8.371,5.462,12.125,9.297
			c13.438,13.725,6.574,37.141-12.216,41.13c-0.51,0.108-1.022,0.21-1.537,0.305c3.449,0.592,6.998,0.9,10.625,0.875
			c16.624-0.113,31.579-6.983,42.204-17.92C427.552,316.472,412.259,293.294,394.864,293.412z"/>
		<g>
			<path style="fill:#9DDBDF;" d="M395.048,307.437c17.395,0,32.532,9.162,40.374,22.684c10.212-10.37,16.505-24.472,16.505-40.022
				c0-31.842-26.339-57.655-58.83-57.655s-58.83,25.813-58.83,57.655c0,16.892,7.414,32.086,19.224,42.631
				c0.275-0.843,0.645-1.68,1.117-2.5C362.433,316.647,377.606,307.437,395.048,307.437z"/>
		</g>
		<g>
			<path style="fill:#7CD6E6;" d="M393.097,232.444c-2.847,0-5.645,0.202-8.384,0.585c28.519,3.989,50.446,28.018,50.446,57.07
				c0,10.776-3.024,20.855-8.278,29.48c3.378,3.071,6.268,6.621,8.542,10.542c10.212-10.37,16.505-24.472,16.505-40.022
				C451.927,258.257,425.588,232.444,393.097,232.444z"/>
		</g>
		<g>
			<ellipse style="fill:#FFD5CC;" cx="394.158" cy="271.461" rx="13.786" ry="17.471"/>
		</g>
	</g>
</g>
<g>
</g>
<g>
</g>
<g>
</g>
<g>
</g>
<g>
</g>
<g>
</g>
<g>
</g>
<g>
</g>
<g>
</g>
<g>
</g>
<g>
</g>
<g>
</g>
<g>
</g>
<g>
</g>
<g>
</g>
</svg>
