<?xml version="1.0" encoding="iso-8859-1"?>
<!-- Generator: Adobe Illustrator 21.0.0, SVG Export Plug-In . SVG Version: 6.00 Build 0)  -->
<svg version="1.1" id="Capa_1" xmlns="http://www.w3.org/2000/svg" xmlns:xlink="http://www.w3.org/1999/xlink" x="0px" y="0px"
	 viewBox="0 0 492.732 492.732" style="enable-background:new 0 0 492.732 492.732;" xml:space="preserve">
<g>
	<g>
		<path style="fill:#E3DED9;" d="M157.816,74.468c-2.613,0-5.15-1.367-6.531-3.802c-2.043-3.604-0.778-8.181,2.825-10.224
			c32.26-18.29,69.026-27.957,106.324-27.957c34.963,0,69.691,8.553,100.428,24.734c3.666,1.93,5.072,6.465,3.143,10.13
			c-1.93,3.666-6.467,5.071-10.13,3.143c-28.591-15.052-60.902-23.008-93.44-23.008c-34.71,0-68.918,8.993-98.926,26.006
			C160.339,74.153,159.069,74.468,157.816,74.468z"/>
	</g>
	<g>
		<path style="fill:#E3DED9;" d="M189.131,188.441c-1.708,0-3.425-0.58-4.833-1.768l-52.095-43.955
			c-3.166-2.671-3.567-7.403-0.896-10.569c2.672-3.166,7.403-3.567,10.569-0.896l52.095,43.955
			c3.166,2.671,3.567,7.403,0.896,10.569C193.384,187.535,191.265,188.441,189.131,188.441z"/>
	</g>
	<g>
		<path style="fill:#E3DED9;" d="M421.423,152.283c0-2.613,1.367-5.15,3.802-6.531c3.604-2.043,8.181-0.778,10.224,2.825
			c18.29,32.26,27.957,69.026,27.957,106.324c0,34.963-8.553,69.691-24.734,100.428c-1.93,3.666-6.465,5.072-10.13,3.143
			c-3.666-1.93-5.071-6.467-3.143-10.13c15.052-28.591,23.008-60.902,23.008-93.44c0-34.71-8.993-68.918-26.006-98.926
			C421.738,154.807,421.423,153.536,421.423,152.283z"/>
	</g>
	<g>
		<path style="fill:#E3DED9;" d="M307.451,183.599c0-1.708,0.58-3.425,1.768-4.833l43.955-52.095
			c2.671-3.166,7.403-3.567,10.569-0.896c3.166,2.672,3.567,7.403,0.896,10.569l-43.955,52.095
			c-2.671,3.166-7.403,3.567-10.569,0.896C308.356,187.851,307.451,185.732,307.451,183.599z"/>
	</g>
	<g>
		<path style="fill:#E3DED9;" d="M343.608,415.891c2.613,0,5.15,1.367,6.531,3.802c2.043,3.604,0.778,8.181-2.825,10.224
			c-32.26,18.29-69.026,27.957-106.324,27.957c-34.963,0-69.691-8.553-100.428-24.734c-3.666-1.93-5.072-6.465-3.143-10.13
			c1.93-3.666,6.467-5.071,10.13-3.143c28.591,15.052,60.902,23.008,93.44,23.008c34.71,0,68.918-8.993,98.926-26.006
			C341.084,416.206,342.355,415.891,343.608,415.891z"/>
	</g>
	<g>
		<path style="fill:#E3DED9;" d="M312.293,301.918c1.708,0,3.425,0.58,4.833,1.768l52.095,43.955
			c3.166,2.671,3.567,7.403,0.896,10.569c-2.672,3.166-7.403,3.567-10.569,0.896l-52.095-43.955
			c-3.166-2.671-3.567-7.403-0.896-10.569C308.04,302.823,310.159,301.918,312.293,301.918z"/>
	</g>
	<g>
		<path style="fill:#E3DED9;" d="M80.001,338.076c0,2.613-1.367,5.15-3.802,6.531c-3.604,2.043-8.181,0.778-10.224-2.825
			c-18.29-32.26-27.957-69.026-27.957-106.324c0-34.963,8.553-69.691,24.734-100.428c1.93-3.666,6.465-5.072,10.13-3.143
			c3.666,1.93,5.071,6.467,3.143,10.13c-15.052,28.591-23.008,60.902-23.008,93.44c0,34.71,8.993,68.918,26.006,98.926
			C79.686,335.552,80.001,336.822,80.001,338.076z"/>
	</g>
	<g>
		<path style="fill:#E3DED9;" d="M193.973,306.76c0,1.708-0.58,3.425-1.768,4.833l-43.955,52.095
			c-2.671,3.166-7.403,3.567-10.569,0.896c-3.166-2.672-3.567-7.403-0.896-10.569l43.955-52.095
			c2.671-3.166,7.403-3.567,10.569-0.896C193.068,302.508,193.973,304.627,193.973,306.76z"/>
	</g>
	<g>
		<circle style="fill:#FFE056;" cx="253.376" cy="243.297" r="90.136"/>
	</g>
	<path style="fill:#F9CD45;" d="M253.376,153.162c-5.111,0-10.121,0.432-15,1.25c42.64,7.144,75.136,44.217,75.136,88.886
		c0,44.669-32.496,81.743-75.136,88.886c4.879,0.817,9.889,1.25,15,1.25c49.781,0,90.136-40.355,90.136-90.136
		S303.157,153.162,253.376,153.162z"/>
	<g>
		<path style="fill:#F8B53C;" d="M250.712,273.823c-11.307-0.377-20.541-6.219-20.541-12.249c0-3.204,2.826-7.915,6.407-7.915
			c3.958,0,7.161,5.559,14.134,6.784v-15.265c-8.669-3.298-18.844-7.349-18.844-19.41c0-11.966,8.857-17.714,18.844-19.127v-2.639
			c0-1.319,1.507-2.544,3.581-2.544c1.79,0,3.581,1.225,3.581,2.544v2.356c5.841,0.188,16.866,1.696,16.866,8.198
			c0,2.544-1.696,7.726-5.842,7.726c-3.109,0-4.9-3.015-11.024-3.486v13.757c8.574,3.203,18.561,7.632,18.561,20.352
			c0,11.684-7.538,18.75-18.561,20.541v2.733c0,1.319-1.79,2.544-3.581,2.544c-2.073,0-3.581-1.225-3.581-2.544V273.823z
			 M251.654,230.293V219.08c-4.24,0.848-6.03,3.015-6.03,5.277C245.624,227.089,248.073,228.785,251.654,230.293z M256.93,247.724
			v12.626c3.203-0.754,5.748-2.544,5.748-5.936C262.678,251.304,260.323,249.325,256.93,247.724z"/>
	</g>
	<g>
		<g>
			<path style="fill:#FFF4F1;" d="M137.199,140.814c-10.637-18.34-31.166-49.918-54.76-49.918
				c-23.657,0-44.236,31.643-54.849,50.065c-0.641,1.112-1.142,2.247-1.515,3.391c14.178,12.658,33.028,20.378,53.718,20.378
				C102.34,164.73,122.687,155.55,137.199,140.814z"/>
		</g>
		<path style="fill:#E8E4E0;" d="M82.188,91.025c-4.948,0.034-9.748,1.464-14.348,3.853c5.828,2.931,11.353,7.408,16.446,12.609
			c18.226,18.616,8.916,50.376-16.569,55.786c-0.691,0.147-1.386,0.285-2.084,0.414c4.679,0.804,9.492,1.22,14.411,1.187
			c22.547-0.153,42.831-9.471,57.242-24.305C126.525,122.302,105.781,90.865,82.188,91.025z"/>
		<g>
			<path style="fill:#F7EE7D;" d="M82.438,110.047c23.594,0,44.123,12.426,54.76,30.767c13.851-14.065,22.386-33.192,22.386-54.283
				c0-43.188-35.724-78.199-79.793-78.199S0,43.343,0,86.531c0,22.911,10.055,43.519,26.074,57.821
				c0.373-1.144,0.875-2.279,1.515-3.391C38.202,122.539,58.781,110.047,82.438,110.047z"/>
		</g>
		<g>
			<path style="fill:#FFE056;" d="M79.792,8.332c-3.861,0-7.657,0.275-11.372,0.794c38.681,5.41,68.421,38.001,68.421,77.405
				c0,14.616-4.102,28.286-11.228,39.985c4.581,4.165,8.501,8.981,11.586,14.298c13.851-14.065,22.386-33.192,22.386-54.283
				C159.585,43.343,123.861,8.332,79.792,8.332z"/>
		</g>
		<g>
			<ellipse style="fill:#FFD5CC;" cx="81.231" cy="61.252" rx="18.699" ry="23.696"/>
		</g>
	</g>
	<g>
		<g>
			<path style="fill:#FFF4F1;" d="M470.346,140.814c-10.637-18.34-31.167-49.918-54.76-49.918
				c-23.657,0-44.236,31.643-54.848,50.065c-0.641,1.112-1.142,2.247-1.516,3.391c14.178,12.658,33.028,20.378,53.718,20.378
				C435.487,164.73,455.835,155.55,470.346,140.814z"/>
		</g>
		<path style="fill:#E8E4E0;" d="M415.335,91.025c-4.948,0.034-9.748,1.464-14.348,3.853c5.828,2.931,11.353,7.408,16.446,12.609
			c18.226,18.616,8.916,50.376-16.569,55.786c-0.691,0.147-1.386,0.285-2.084,0.414c4.678,0.804,9.492,1.22,14.411,1.187
			c22.547-0.153,42.831-9.471,57.242-24.305C459.672,122.302,438.929,90.865,415.335,91.025z"/>
		<g>
			<path style="fill:#9DDBDF;" d="M415.586,110.047c23.594,0,44.123,12.426,54.76,30.767c13.851-14.065,22.386-33.192,22.386-54.283
				c0-43.188-35.724-78.199-79.793-78.199s-79.793,35.011-79.793,78.199c0,22.911,10.055,43.519,26.074,57.821
				c0.373-1.144,0.875-2.279,1.516-3.391C371.349,122.539,391.928,110.047,415.586,110.047z"/>
		</g>
		<g>
			<path style="fill:#7CD6E6;" d="M412.94,8.332c-3.861,0-7.657,0.275-11.372,0.794c38.681,5.41,68.421,38.001,68.421,77.405
				c0,14.616-4.102,28.286-11.228,39.985c4.581,4.165,8.501,8.981,11.586,14.298c13.851-14.065,22.386-33.192,22.386-54.283
				C492.732,43.343,457.008,8.332,412.94,8.332z"/>
		</g>
		<g>
			<ellipse style="fill:#FFD5CC;" cx="414.378" cy="61.252" rx="18.699" ry="23.696"/>
		</g>
	</g>
	<g>
		<g>
			<path style="fill:#FFF4F1;" d="M470.346,460.338c-10.637-18.34-31.167-49.918-54.76-49.918
				c-23.657,0-44.236,31.643-54.848,50.065c-0.641,1.112-1.142,2.247-1.516,3.391c14.178,12.658,33.028,20.378,53.718,20.378
				C435.487,484.254,455.835,475.074,470.346,460.338z"/>
		</g>
		<path style="fill:#E8E4E0;" d="M415.335,410.549c-4.948,0.034-9.748,1.464-14.348,3.853c5.828,2.931,11.353,7.408,16.446,12.609
			c18.226,18.616,8.916,50.376-16.569,55.786c-0.691,0.147-1.386,0.285-2.084,0.414c4.678,0.804,9.492,1.22,14.411,1.187
			c22.547-0.153,42.831-9.471,57.242-24.305C459.672,441.826,438.929,410.389,415.335,410.549z"/>
		<g>
			<path style="fill:#467BFF;" d="M415.586,429.571c23.594,0,44.123,12.426,54.76,30.767c13.851-14.065,22.386-33.192,22.386-54.283
				c0-43.188-35.724-78.199-79.793-78.199s-79.793,35.011-79.793,78.199c0,22.911,10.055,43.519,26.074,57.821
				c0.373-1.144,0.875-2.279,1.516-3.391C371.349,442.063,391.928,429.571,415.586,429.571z"/>
		</g>
		<g>
			<path style="fill:#2970D6;" d="M412.94,327.856c-3.861,0-7.657,0.275-11.372,0.794c38.681,5.41,68.421,38.001,68.421,77.405
				c0,14.616-4.102,28.286-11.228,39.985c4.581,4.165,8.501,8.981,11.586,14.298c13.851-14.065,22.386-33.192,22.386-54.283
				C492.732,362.866,457.008,327.856,412.94,327.856z"/>
		</g>
		<g>
			<ellipse style="fill:#FFD5CC;" cx="414.378" cy="380.776" rx="18.699" ry="23.696"/>
		</g>
	</g>
	<g>
		<g>
			<path style="fill:#FFF4F1;" d="M137.199,460.338c-10.637-18.34-31.166-49.918-54.76-49.918
				c-23.657,0-44.236,31.643-54.849,50.065c-0.641,1.112-1.142,2.247-1.515,3.391c14.178,12.658,33.028,20.378,53.718,20.378
				C102.34,484.254,122.687,475.074,137.199,460.338z"/>
		</g>
		<path style="fill:#E8E4E0;" d="M82.188,410.549c-4.948,0.034-9.748,1.464-14.348,3.853c5.828,2.931,11.353,7.408,16.446,12.609
			c18.226,18.616,8.916,50.376-16.569,55.786c-0.691,0.147-1.386,0.285-2.084,0.414c4.679,0.804,9.492,1.22,14.411,1.187
			c22.547-0.153,42.831-9.471,57.242-24.305C126.525,441.826,105.781,410.389,82.188,410.549z"/>
		<g>
			<path style="fill:#FC9086;" d="M82.438,429.571c23.594,0,44.123,12.426,54.76,30.767c13.851-14.065,22.386-33.192,22.386-54.283
				c0-43.188-35.724-78.199-79.793-78.199S0,362.866,0,406.055c0,22.911,10.055,43.519,26.074,57.821
				c0.373-1.144,0.875-2.279,1.515-3.391C38.202,442.063,58.781,429.571,82.438,429.571z"/>
		</g>
		<g>
			<path style="fill:#F57A73;" d="M79.792,327.856c-3.861,0-7.657,0.275-11.372,0.794c38.681,5.41,68.421,38.001,68.421,77.405
				c0,14.616-4.102,28.286-11.228,39.985c4.581,4.165,8.501,8.981,11.586,14.298c13.851-14.065,22.386-33.192,22.386-54.283
				C159.585,362.866,123.861,327.856,79.792,327.856z"/>
		</g>
		<g>
			<ellipse style="fill:#FFD5CC;" cx="81.231" cy="380.776" rx="18.699" ry="23.696"/>
		</g>
	</g>
</g>
<g>
</g>
<g>
</g>
<g>
</g>
<g>
</g>
<g>
</g>
<g>
</g>
<g>
</g>
<g>
</g>
<g>
</g>
<g>
</g>
<g>
</g>
<g>
</g>
<g>
</g>
<g>
</g>
<g>
</g>
</svg>
