<?xml version="1.0" encoding="iso-8859-1"?>
<!-- Generator: Adobe Illustrator 21.0.0, SVG Export Plug-In . SVG Version: 6.00 Build 0)  -->
<svg version="1.1" id="Capa_1" xmlns="http://www.w3.org/2000/svg" xmlns:xlink="http://www.w3.org/1999/xlink" x="0px" y="0px"
	 viewBox="0 0 504.61 504.61" style="enable-background:new 0 0 504.61 504.61;" xml:space="preserve">
<g>
	<g>
		<path style="fill:#B4B4B4;" d="M358.181,246.643l-4.163,0.101c-1.085-19.884-8.289-38.155-19.744-52.991l3.5-2.557
			c5.723-4.182,6.519-12.435,1.682-17.617c-9.928-10.637-21.916-19.321-35.087-25.417c-6.436-2.979-14.032,0.365-16.211,7.114
			l-1.725,5.344c-8.795-2.679-18.119-4.133-27.779-4.133c-10.412,0-20.431,1.698-29.82,4.792l-1.928-5.909
			c-2.2-6.742-9.806-10.062-16.233-7.063c-13.152,6.138-25.113,14.86-35.008,25.529c-4.82,5.197-3.999,13.447,1.738,17.611
			l4.739,3.44c-11.504,15.372-18.46,34.318-18.944,54.837l-4.679,0.005c-7.078,0.007-12.572,6.191-11.74,13.22
			c1.722,14.561,6.27,28.521,13.448,41.279c3.472,6.171,11.56,7.924,17.282,3.754l2.52-1.838
			c11.497,16.644,28.134,29.463,47.6,36.17l-0.532,1.642c-2.183,6.738,2.003,13.889,8.953,15.254
			c7.094,1.394,14.33,2.097,21.629,2.097c0.003,0,0.003,0,0.007,0c7.334,0,14.604-0.71,21.731-2.118
			c6.95-1.373,11.132-8.527,8.942-15.265l-0.341-1.048c21.019-6.808,38.858-20.714,50.698-38.883l1.944,1.339
			c5.837,4.022,13.89,2.047,17.184-4.229c6.762-12.883,11.001-27.067,12.406-41.511
			C370.935,252.537,365.271,246.471,358.181,246.643z M258.655,308.136c-30.951,0-56.132-25.181-56.132-56.132
			s25.181-56.132,56.132-56.132s56.132,25.181,56.132,56.132S289.606,308.136,258.655,308.136z"/>
	</g>
	<g>
		<path style="fill:#9A9999;" d="M358.181,246.643l-4.163,0.101c-1.085-19.884-8.289-38.155-19.744-52.99l3.5-2.557
			c5.723-4.182,6.519-12.435,1.682-17.617c-9.928-10.637-21.916-19.322-35.087-25.417c-6.436-2.979-14.032,0.365-16.211,7.114
			l-1.725,5.344c-2.639-0.804-5.331-1.483-8.06-2.06c27.178,20.207,44.788,52.561,44.788,89.031
			c0,54.849-39.83,100.388-92.143,109.29c1.42,1.126,3.116,1.954,5.032,2.33c7.094,1.394,14.33,2.097,21.629,2.097
			c0.003,0,0.003,0,0.007,0c7.334,0,14.604-0.71,21.731-2.118c6.95-1.373,11.132-8.527,8.942-15.265l-0.341-1.048
			c21.019-6.808,38.858-20.714,50.698-38.883l1.943,1.339c5.837,4.021,13.89,2.047,17.184-4.229
			c6.762-12.883,11.001-27.066,12.406-41.511C370.935,252.537,365.271,246.471,358.181,246.643z"/>
	</g>
	<g>
		<path style="fill:#5E8EE1;" d="M24.947,369.722"/>
	</g>
	<g>
		<path style="fill:#F57A73;" d="M417.378,341.895c-3.932,0-7.798,0.28-11.581,0.809c39.391,5.509,69.676,38.699,69.676,78.826
			c0,14.884-4.177,28.806-11.434,40.719c4.665,4.241,8.658,9.145,11.798,14.561c14.105-14.324,22.797-33.801,22.797-55.28
			C498.635,377.548,462.255,341.895,417.378,341.895z"/>
	</g>
	<g>
		<g>
			<path style="fill:#FFF4F1;" d="M155.984,150.51C143.9,129.674,120.576,93.8,93.772,93.8c-26.877,0-50.256,35.949-62.312,56.878
				c-0.728,1.263-1.298,2.553-1.722,3.852C45.846,168.91,67.26,177.68,90.766,177.68C116.382,177.68,139.498,167.251,155.984,150.51
				z"/>
		</g>
		<path style="fill:#E8E4E0;" d="M93.488,93.946c-5.621,0.038-11.075,1.664-16.3,4.378c6.621,3.33,12.898,8.416,18.684,14.325
			c20.706,21.149,10.129,57.231-18.823,63.377c-0.785,0.167-1.575,0.324-2.368,0.47c5.315,0.913,10.783,1.386,16.372,1.348
			c25.615-0.174,48.66-10.759,65.032-27.612C143.858,129.479,120.292,93.764,93.488,93.946z"/>
		<g>
			<path style="fill:#FFE056;" d="M93.772,115.557c26.804,0,50.127,14.117,62.212,34.953c15.736-15.979,25.433-37.709,25.433-61.67
				c0-49.065-40.586-88.84-90.65-88.84S0.116,39.775,0.116,88.84c0,26.028,11.423,49.441,29.622,65.689
				c0.424-1.3,0.994-2.589,1.722-3.852C43.516,129.749,66.895,115.557,93.772,115.557z"/>
		</g>
		<g>
			<path style="fill:#F9CD45;" d="M90.766,0c-4.387,0-8.699,0.312-12.92,0.902c43.944,6.146,77.731,43.172,77.731,87.938
				c0,16.605-4.66,32.136-12.756,45.426c5.204,4.731,9.658,10.203,13.162,16.244c15.736-15.979,25.433-37.709,25.433-61.67
				C181.417,39.775,140.831,0,90.766,0z"/>
		</g>
		<g>
			<ellipse style="fill:#FFD5CC;" cx="92.401" cy="60.122" rx="21.243" ry="26.921"/>
		</g>
	</g>
	<g>
		<g>
			<path style="fill:#FFF4F1;" d="M479.061,150.51c-12.084-20.836-35.407-56.71-62.212-56.71c-26.877,0-50.256,35.949-62.312,56.878
				c-0.728,1.263-1.298,2.553-1.722,3.852c16.107,14.381,37.522,23.151,61.028,23.151
				C439.459,177.68,462.575,167.251,479.061,150.51z"/>
		</g>
		<path style="fill:#E8E4E0;" d="M416.565,93.946c-5.621,0.038-11.075,1.664-16.3,4.378c6.621,3.33,12.898,8.416,18.684,14.325
			c20.706,21.149,10.129,57.231-18.823,63.377c-0.785,0.167-1.575,0.324-2.368,0.47c5.315,0.913,10.783,1.386,16.372,1.348
			c25.615-0.174,48.66-10.759,65.032-27.612C466.935,129.479,443.369,93.764,416.565,93.946z"/>
		<g>
			<path style="fill:#9DDBDF;" d="M416.849,115.557c26.804,0,50.127,14.117,62.212,34.953c15.736-15.979,25.433-37.709,25.433-61.67
				c0-49.065-40.586-88.84-90.65-88.84s-90.65,39.775-90.65,88.84c0,26.028,11.423,49.441,29.622,65.689
				c0.424-1.3,0.994-2.589,1.722-3.852C366.593,129.749,389.973,115.557,416.849,115.557z"/>
		</g>
		<g>
			<path style="fill:#7CD6E6;" d="M413.843,0c-4.387,0-8.699,0.312-12.919,0.902c43.944,6.146,77.731,43.172,77.731,87.938
				c0,16.605-4.66,32.136-12.756,45.426c5.204,4.731,9.658,10.203,13.162,16.244c15.736-15.979,25.433-37.709,25.433-61.67
				C504.494,39.775,463.908,0,413.843,0z"/>
		</g>
		<g>
			<ellipse style="fill:#FFD5CC;" cx="415.478" cy="60.122" rx="21.243" ry="26.921"/>
		</g>
	</g>
	<g>
		<g>
			<path style="fill:#FFF4F1;" d="M479.061,476.272c-12.084-20.836-35.407-56.71-62.212-56.71
				c-26.877,0-50.256,35.949-62.312,56.878c-0.728,1.263-1.298,2.553-1.722,3.852c16.107,14.381,37.522,23.151,61.028,23.151
				C439.459,503.443,462.575,493.014,479.061,476.272z"/>
		</g>
		<path style="fill:#E8E4E0;" d="M416.565,419.709c-5.621,0.038-11.075,1.664-16.3,4.378c6.621,3.33,12.898,8.416,18.684,14.325
			c20.706,21.149,10.129,57.231-18.823,63.377c-0.785,0.167-1.575,0.324-2.368,0.47c5.315,0.913,10.783,1.386,16.372,1.348
			c25.615-0.174,48.66-10.759,65.032-27.612C466.935,455.242,443.369,419.527,416.565,419.709z"/>
		<g>
			<path style="fill:#FC9086;" d="M416.849,441.319c26.804,0,50.127,14.117,62.212,34.953c15.736-15.979,25.433-37.709,25.433-61.67
				c0-49.065-40.586-88.84-90.65-88.84s-90.65,39.775-90.65,88.84c0,26.028,11.423,49.441,29.622,65.689
				c0.424-1.3,0.994-2.589,1.722-3.852C366.593,455.511,389.973,441.319,416.849,441.319z"/>
		</g>
		<g>
			<path style="fill:#F57A73;" d="M413.843,325.762c-4.387,0-8.699,0.312-12.919,0.902c43.944,6.146,77.731,43.172,77.731,87.938
				c0,16.605-4.66,32.136-12.756,45.426c5.204,4.731,9.658,10.203,13.162,16.244c15.736-15.979,25.433-37.709,25.433-61.67
				C504.494,365.537,463.908,325.762,413.843,325.762z"/>
		</g>
		<g>
			<ellipse style="fill:#FFD5CC;" cx="415.478" cy="385.884" rx="21.243" ry="26.921"/>
		</g>
	</g>
	<g>
		<g>
			<path style="fill:#FFF4F1;" d="M155.984,477.272c-12.084-20.836-35.407-56.71-62.212-56.71
				c-26.877,0-50.256,35.949-62.312,56.878c-0.728,1.263-1.298,2.553-1.722,3.852c16.107,14.381,37.522,23.151,61.028,23.151
				C116.382,504.443,139.498,494.014,155.984,477.272z"/>
		</g>
		<path style="fill:#E8E4E0;" d="M93.488,420.709c-5.621,0.038-11.075,1.664-16.3,4.378c6.621,3.33,12.898,8.416,18.684,14.325
			c20.706,21.149,10.129,57.231-18.823,63.377c-0.785,0.167-1.575,0.324-2.368,0.47c5.315,0.913,10.783,1.386,16.372,1.348
			c25.615-0.174,48.66-10.759,65.032-27.612C143.858,456.242,120.292,420.527,93.488,420.709z"/>
		<g>
			<path style="fill:#5E8EE1;" d="M93.772,442.319c26.804,0,50.127,14.117,62.212,34.953c15.736-15.979,25.433-37.709,25.433-61.67
				c0-49.065-40.586-88.84-90.65-88.84s-90.65,39.775-90.65,88.84c0,26.028,11.423,49.441,29.622,65.689
				c0.424-1.3,0.994-2.589,1.722-3.852C43.516,456.511,66.895,442.319,93.772,442.319z"/>
		</g>
		<g>
			<path style="fill:#467BFF;" d="M90.766,326.762c-4.387,0-8.699,0.312-12.92,0.902c43.944,6.146,77.731,43.172,77.731,87.938
				c0,16.605-4.66,32.136-12.756,45.426c5.204,4.731,9.658,10.203,13.162,16.244c15.736-15.979,25.433-37.709,25.433-61.67
				C181.417,366.537,140.831,326.762,90.766,326.762z"/>
		</g>
		<g>
			<ellipse style="fill:#FFD5CC;" cx="92.401" cy="386.884" rx="21.243" ry="26.921"/>
		</g>
	</g>
</g>
<g>
	<path style="fill:#D0CFD1;" d="M230.414,47.715c0.31,0,0.63-0.02,0.95-0.06c4.11-0.52,7.01-4.28,6.49-8.38
		c-0.52-4.12-4.27-7.02-8.38-6.5c-4.11,0.52-7.02,4.27-6.5,8.38C223.454,44.945,226.684,47.715,230.414,47.715z"/>
	<path style="fill:#D0CFD1;" d="M313.634,53.545c0.67,0.18,1.35,0.27,2.01,0.27c3.29,0,6.3-2.17,7.22-5.49
		c1.11-4-1.23-8.13-5.22-9.24c-3.99-1.1-8.13,1.24-9.23,5.23C307.304,48.305,309.644,52.435,313.634,53.545z"/>
	<path style="fill:#D0CFD1;" d="M188.584,57.345c0.8,0,1.61-0.13,2.41-0.4c3.92-1.33,6.02-5.58,4.69-9.51
		c-1.33-3.92-5.58-6.02-9.5-4.69c-3.93,1.33-6.03,5.58-4.7,9.51C182.544,55.375,185.454,57.345,188.584,57.345z"/>
	<path style="fill:#D0CFD1;" d="M272.804,46.515c0.18,0.01,0.36,0.02,0.54,0.02c3.9,0,7.19-3.02,7.47-6.97
		c0.29-4.13-2.82-7.72-6.95-8.01c-4.13-0.3-7.72,2.82-8.01,6.95C265.554,42.635,268.674,46.225,272.804,46.515z"/>
	<path style="fill:#D0CFD1;" d="M474.924,275.765c0.29-4.13-2.82-7.72-6.95-8.01c-4.13-0.29-7.72,2.82-8.01,6.95
		s2.82,7.72,6.95,8.01c0.18,0.02,0.36,0.02,0.54,0.02C471.354,282.735,474.644,279.715,474.924,275.765z"/>
	<path style="fill:#D0CFD1;" d="M458.154,324.775c0.67,0.18,1.35,0.27,2.01,0.27c3.29,0,6.3-2.18,7.22-5.5
		c1.11-3.99-1.23-8.12-5.22-9.23c-3.99-1.11-8.12,1.23-9.23,5.22C451.824,319.525,454.164,323.665,458.154,324.775z"/>
	<path style="fill:#D0CFD1;" d="M456.634,197.995c0.79,0,1.61-0.13,2.4-0.4c3.93-1.33,6.03-5.59,4.7-9.51s-5.59-6.03-9.51-4.7
		c-3.92,1.33-6.02,5.59-4.69,9.51h-0.01C450.584,196.025,453.504,197.995,456.634,197.995z"/>
	<path style="fill:#D0CFD1;" d="M458.824,233.265c0.48,3.79,3.71,6.56,7.43,6.56c0.32,0,0.63-0.02,0.95-0.06
		c4.11-0.52,7.02-4.28,6.5-8.39s-4.28-7.02-8.38-6.5C461.214,225.405,458.304,229.155,458.824,233.265z"/>
	<path style="fill:#D0CFD1;" d="M313.584,451.435c-3.93,1.33-6.03,5.58-4.7,9.51c1.06,3.12,3.98,5.09,7.1,5.09
		c0.8,0,1.61-0.13,2.41-0.4c3.92-1.33,6.02-5.58,4.7-9.51C321.764,452.205,317.504,450.105,313.584,451.435z"/>
	<path style="fill:#D0CFD1;" d="M273.214,460.725c-4.11,0.52-7.02,4.28-6.5,8.39c0.48,3.78,3.71,6.55,7.43,6.55
		c0.32,0,0.64-0.02,0.96-0.06c4.11-0.52,7.01-4.27,6.49-8.38C281.074,463.115,277.324,460.205,273.214,460.725z"/>
	<path style="fill:#D0CFD1;" d="M231.774,461.865c-4.13-0.29-7.72,2.82-8.02,6.95c-0.29,4.13,2.82,7.72,6.96,8.01
		c0.18,0.02,0.36,0.02,0.53,0.02c3.91,0,7.2-3.02,7.48-6.97C239.014,465.745,235.904,462.155,231.774,461.865z"/>
	<path style="fill:#D0CFD1;" d="M47.944,325.395c0.79,0,1.61-0.13,2.4-0.4c3.93-1.33,6.03-5.59,4.7-9.51s-5.59-6.03-9.51-4.7
		c-3.92,1.33-6.03,5.59-4.7,9.51C41.894,323.425,44.814,325.395,47.944,325.395z"/>
	<path style="fill:#D0CFD1;" d="M30.874,277.005c0.48,3.79,3.7,6.55,7.43,6.55c0.31,0,0.63-0.02,0.95-0.06
		c4.11-0.52,7.02-4.27,6.49-8.38h0.01c-0.53-4.11-4.28-7.02-8.39-6.5c-4.11,0.53-7.02,4.28-6.5,8.39
		C30.874,277.005,30.874,277.005,30.874,277.005z"/>
	<path style="fill:#D0CFD1;" d="M42.404,198.065c0.68,0.19,1.35,0.27,2.01,0.27c3.29,0.01,6.3-2.17,7.23-5.49
		c1.1-3.99-1.24-8.13-5.23-9.24c-3.99-1.1-8.12,1.24-9.23,5.23C36.074,192.825,38.414,196.955,42.404,198.065z"/>
	<path style="fill:#D0CFD1;" d="M29.654,232.615c-0.3,4.13,2.81,7.72,6.95,8.01c0.18,0.01,0.35,0.02,0.53,0.02
		c3.9,0,7.2-3.02,7.48-6.97c0.29-4.13-2.82-7.72-6.95-8.01C33.524,225.365,29.944,228.485,29.654,232.615z"/>
</g>
<g>
</g>
<g>
</g>
<g>
</g>
<g>
</g>
<g>
</g>
<g>
</g>
<g>
</g>
<g>
</g>
<g>
</g>
<g>
</g>
<g>
</g>
<g>
</g>
<g>
</g>
<g>
</g>
<g>
</g>
</svg>
