<?xml version="1.0" encoding="iso-8859-1"?>
<!-- Generator: Adobe Illustrator 21.0.0, SVG Export Plug-In . SVG Version: 6.00 Build 0)  -->
<svg version="1.1" id="Capa_1" xmlns="http://www.w3.org/2000/svg" xmlns:xlink="http://www.w3.org/1999/xlink" x="0px" y="0px"
	 viewBox="0 0 487.211 487.211" style="enable-background:new 0 0 487.211 487.211;" xml:space="preserve">
<g>
	<g>
		<path style="fill:#B4B4B4;" d="M310.205,60.48l-2.529,0.061c-0.659-12.077-5.035-23.175-11.992-32.186l2.126-1.553
			c3.476-2.54,3.959-7.553,1.022-10.7c-6.03-6.461-13.312-11.736-21.311-15.438c-3.909-1.809-8.523,0.222-9.846,4.321l-1.048,3.246
			c-5.342-1.627-11.005-2.51-16.872-2.51c-6.324,0-12.409,1.031-18.112,2.911l-1.171-3.589c-1.336-4.095-5.956-6.112-9.86-4.29
			c-7.988,3.728-15.254,9.026-21.264,15.506c-2.928,3.157-2.429,8.168,1.055,10.697l2.879,2.089
			c-6.987,9.337-11.212,20.844-11.506,33.308l-2.842,0.003c-4.299,0.005-7.636,3.76-7.131,8.03
			c1.046,8.844,3.808,17.323,8.168,25.072c2.109,3.748,7.021,4.813,10.497,2.28l1.531-1.116
			c6.983,10.11,17.088,17.895,28.912,21.969l-0.323,0.997c-1.326,4.093,1.217,8.436,5.438,9.265
			c4.309,0.847,8.704,1.274,13.137,1.274c0.002,0,0.002,0,0.004,0c4.455,0,8.87-0.431,13.199-1.286
			c4.222-0.834,6.761-5.179,5.431-9.272l-0.207-0.636c12.766-4.135,23.602-12.582,30.793-23.617l1.18,0.813
			c3.545,2.443,8.436,1.243,10.437-2.569c4.107-7.825,6.682-16.44,7.535-25.213C317.952,64.06,314.511,60.375,310.205,60.48z
			 M249.754,85.045c-11.75,0-21.309-9.559-21.309-21.309s9.559-21.309,21.309-21.309c11.75,0,21.309,9.559,21.309,21.309
			S261.504,85.045,249.754,85.045z"/>
	</g>
	<g>
		<path style="fill:#9A9999;" d="M310.205,60.48l-2.528,0.062c-0.659-12.077-5.035-23.175-11.992-32.186l2.125-1.553
			c3.476-2.54,3.959-7.553,1.022-10.7c-6.03-6.461-13.312-11.736-21.311-15.438c-3.909-1.809-8.523,0.222-9.846,4.321l-1.048,3.246
			c-5.342-1.627-11.005-2.51-16.872-2.51c-3.554,0-7.029,0.337-10.406,0.956c25.134,7.518,43.458,30.807,43.458,58.386
			c0,30.5-22.404,55.767-51.653,60.242c0.986,1.768,2.705,3.122,4.872,3.548c4.309,0.847,8.704,1.274,13.137,1.274
			c0.002,0,0.002,0,0.004,0c4.455,0,8.87-0.431,13.199-1.286c4.222-0.834,6.761-5.179,5.431-9.272l-0.207-0.636
			c12.766-4.135,23.602-12.582,30.793-23.617l1.18,0.813c3.545,2.443,8.437,1.243,10.438-2.569
			c4.107-7.825,6.682-16.44,7.535-25.213C317.952,64.06,314.511,60.375,310.205,60.48z"/>
	</g>
	<g>
		<path style="fill:#B4B4B4;" d="M326.367,241.514l-3.492,0.085c-0.91-16.679-6.953-32.006-16.562-44.451l2.936-2.145
			c4.801-3.508,5.468-10.431,1.411-14.778c-8.328-8.923-18.384-16.208-29.432-21.321c-5.399-2.499-11.771,0.306-13.598,5.968
			l-1.447,4.483c-7.378-2.247-15.199-3.467-23.302-3.467c-8.734,0-17.138,1.424-25.014,4.02l-1.617-4.956
			c-1.845-5.656-8.226-8.44-13.617-5.925c-11.032,5.149-21.066,12.465-29.366,21.415c-4.043,4.359-3.354,11.28,1.458,14.773
			l3.975,2.885c-9.65,12.895-15.485,28.788-15.891,46l-3.925,0.004c-5.938,0.006-10.546,5.193-9.848,11.09
			c1.445,12.214,5.26,23.924,11.281,34.626c2.912,5.176,9.697,6.647,14.496,3.149l2.114-1.541
			c9.644,13.962,23.6,24.715,39.929,30.341l-0.446,1.378c-1.831,5.652,1.68,11.651,7.51,12.796
			c5.951,1.169,12.02,1.759,18.144,1.759c0.002,0,0.003,0,0.006,0c6.152,0,12.251-0.596,18.229-1.776
			c5.83-1.152,9.338-7.153,7.501-12.805l-0.286-0.879c17.631-5.711,32.595-17.376,42.527-32.617l1.63,1.123
			c4.896,3.373,11.651,1.717,14.415-3.547c5.672-10.807,9.228-22.705,10.407-34.821
			C337.066,246.457,332.314,241.369,326.367,241.514z M286.485,263.781c-7.027,17.18-23.926,29.315-43.605,29.315
			c-25.963,0-47.086-21.123-47.086-47.086s21.123-47.086,47.086-47.086c20.666,0,38.265,13.383,44.587,31.938 M287.467,230.862
			c1.62,4.756,2.499,9.851,2.499,15.148c0,6.284-1.237,12.285-3.481,17.771"/>
	</g>
	<g>
		<path style="fill:#9A9999;" d="M326.367,241.514l-3.492,0.085c-0.91-16.679-6.953-32.006-16.562-44.451l2.936-2.145
			c4.801-3.508,5.468-10.431,1.411-14.777c-8.328-8.923-18.384-16.208-29.432-21.321c-5.399-2.499-11.771,0.306-13.598,5.968
			l-1.447,4.483c-7.378-2.247-15.199-3.467-23.302-3.467c-0.641,0-1.277,0.024-1.914,0.039
			c32.217,13.675,54.813,45.601,54.813,82.805c0,42.659-29.707,78.38-69.563,87.603c5.214,0.89,10.507,1.365,15.846,1.365
			c0.002,0,0.003,0,0.006,0c6.152,0,12.251-0.595,18.229-1.776c5.83-1.151,9.338-7.153,7.501-12.805l-0.286-0.879
			c17.631-5.711,32.595-17.376,42.527-32.617l1.63,1.123c4.896,3.374,11.651,1.717,14.415-3.547
			c5.673-10.807,9.228-22.705,10.407-34.822C337.066,246.457,332.314,241.369,326.367,241.514z"/>
	</g>
	<g>
		<g>
			<ellipse style="fill:#FFD5CC;" cx="96.618" cy="188.631" rx="23.746" ry="34.195"/>
		</g>
		<g>
			<path style="fill:#7CD6E6;" d="M28.745,460.718c-5.073,0.001-10.078-2.334-13.309-6.739c-5.385-7.344-3.798-17.663,3.545-23.048
				l59.096-43.336l-9.402-41.326c-0.133-9.105,6.039-17.694,15.145-17.829c9.084-0.147,26.487,8.239,26.623,17.344l0.732,49.833
				c0.079,5.337-2.43,10.382-6.735,13.539l-65.956,48.367C35.545,459.68,32.129,460.718,28.745,460.718z"/>
		</g>
		<g>
			<path style="fill:#B4B4B4;" d="M36.627,480.167c2.761,2.761,7.461,2.236,9.391-1.159c6.657-11.707,4.998-26.856-4.986-36.84
				c-9.984-9.984-25.133-11.643-36.84-4.986c-3.395,1.93-3.92,6.63-1.159,9.391L36.627,480.167z"/>
		</g>
		<g>
			<path style="fill:#FC9086;" d="M211,236.182H96.173c-0.573-0.029-1.151-0.044-1.731-0.044c-18.5,0-33.637,15.136-33.637,33.637
				v69.445l34.005,10l33.268-10v-69.445c0-1.088-0.057-2.164-0.159-3.226H211c8.351,0,15.183-6.833,15.183-15.183l0,0
				C226.183,243.014,219.351,236.182,211,236.182z"/>
		</g>
		<g>
			<path style="fill:#F57A73;" d="M98.079,339.22l-15.021,4.515h30l15.02-4.515v-69.445c0-1.088-0.057-2.164-0.159-3.226h-26.702
				c-1.755,0-3.141,1.438-3.139,3.193c0,0.011,0,0.022,0,0.033V339.22z"/>
			<path style="fill:#F57A73;" d="M211,236.182h-30c8.351,0,15.183,6.833,15.183,15.183c0,8.351-6.832,15.183-15.183,15.183h30
				c8.351,0,15.183-6.833,15.183-15.183C226.183,243.014,219.351,236.182,211,236.182z"/>
		</g>
		<g>
			<path style="fill:#9DDBDF;" d="M128.079,339.219l42.802,40.555l1.37,1.215c2.773,2.46,4.236,5.872,4.337,9.286l1.508,67.569
				c0.204,7.776-6.002,14.243-13.859,14.444c-7.858,0.202-14.393-5.939-14.597-13.715c-0.006-0.228-8.721-60.224-8.721-60.224
				l-63.896-34.485c-9.914-4.584-16.844-14.457-16.218-24.648"/>
		</g>
		<g>
			<path style="fill:#B4B4B4;" d="M192.915,487.211c3.952,0,6.86-3.766,5.797-7.572c-3.609-12.927-15.465-22.411-29.544-22.411
				c-14.079,0-25.936,9.484-29.544,22.411c-1.063,3.807,1.844,7.572,5.797,7.572H192.915z"/>
		</g>
	</g>
	<g>
		<g>
			<ellipse style="fill:#FFD5CC;" cx="390.593" cy="188.631" rx="23.746" ry="34.195"/>
		</g>
		<g>
			<path style="fill:#467BFF;" d="M458.466,460.718c5.073,0.001,10.078-2.334,13.309-6.739c5.385-7.344,3.798-17.663-3.545-23.048
				l-59.096-43.336l9.402-41.326c0.133-9.105-6.039-17.694-15.145-17.829c-9.084-0.147-26.487,8.239-26.623,17.344l-0.732,49.833
				c-0.079,5.337,2.43,10.382,6.735,13.539l65.956,48.367C451.667,459.68,455.083,460.718,458.466,460.718z"/>
		</g>
		<g>
			<path style="fill:#B4B4B4;" d="M450.585,480.167c-2.761,2.761-7.461,2.236-9.391-1.159c-6.657-11.707-4.998-26.856,4.986-36.84
				c9.984-9.984,25.133-11.643,36.84-4.986c3.395,1.93,3.92,6.63,1.159,9.391L450.585,480.167z"/>
		</g>
		<g>
			<path style="fill:#FFE056;" d="M276.211,236.182h114.827c0.573-0.029,1.151-0.044,1.731-0.044
				c18.5,0,33.637,15.136,33.637,33.637v69.445l-34.005,10l-33.268-10v-69.445c0-1.088,0.057-2.164,0.159-3.226h-83.081
				c-8.351,0-15.183-6.833-15.183-15.183l0,0C261.028,243.014,267.861,236.182,276.211,236.182z"/>
		</g>
		<path style="fill:#F9CD45;" d="M392.77,236.137c-0.581,0-1.158,0.015-1.731,0.044h-26.539
			c17.705,0.908,31.907,15.672,31.907,33.592v69.445l-18.841,5.541l14.836,4.459l34.005-10v-69.445
			C426.406,251.274,411.27,236.137,392.77,236.137z"/>
		<g>
			<path style="fill:#5E8EE1;" d="M359.133,339.219l-42.802,40.555l-1.37,1.215c-2.773,2.46-4.236,5.872-4.337,9.286l-1.508,67.569
				c-0.204,7.776,6.002,14.243,13.859,14.444c7.858,0.202,14.393-5.939,14.597-13.715c0.006-0.228,8.721-60.224,8.721-60.224
				l63.896-34.485c9.914-4.584,16.844-14.457,16.218-24.648"/>
		</g>
		<g>
			<path style="fill:#B4B4B4;" d="M294.296,487.211c-3.952,0-6.86-3.766-5.797-7.572c3.609-12.927,15.466-22.411,29.544-22.411
				c14.079,0,25.936,9.484,29.544,22.411c1.063,3.807-1.844,7.572-5.797,7.572H294.296z"/>
		</g>
	</g>
</g>
<g>
</g>
<g>
</g>
<g>
</g>
<g>
</g>
<g>
</g>
<g>
</g>
<g>
</g>
<g>
</g>
<g>
</g>
<g>
</g>
<g>
</g>
<g>
</g>
<g>
</g>
<g>
</g>
<g>
</g>
</svg>
