<?xml version="1.0" encoding="iso-8859-1"?>
<!-- Generator: Adobe Illustrator 21.0.0, SVG Export Plug-In . SVG Version: 6.00 Build 0)  -->
<svg version="1.1" id="Capa_1" xmlns="http://www.w3.org/2000/svg" xmlns:xlink="http://www.w3.org/1999/xlink" x="0px" y="0px"
	 viewBox="0 0 488.61 488.61" style="enable-background:new 0 0 488.61 488.61;" xml:space="preserve">
<g>
	<g>
		<path style="fill:#FFF4F1;" d="M166.832,142.783h305.633c8.284,0,15,6.716,15,15V473.61c0,8.284-6.716,15-15,15H16.145
			c-8.284,0-15-6.716-15-15V157.783c0-8.284,6.716-15,15-15h25.928"/>
	</g>
	<path style="fill:#E3DED9;" d="M472.465,142.783h-30c8.284,0,15,6.716,15,15V473.61c0,8.284-6.716,15-15,15h30
		c8.284,0,15-6.716,15-15V157.783C487.465,149.499,480.749,142.783,472.465,142.783z"/>
	<g>
		<line style="fill:#FFF4F1;" x1="42.073" y1="142.783" x2="166.832" y2="142.783"/>
	</g>
	<g>
		<circle style="fill:#9DDBDF;" cx="383.906" cy="253.578" r="53.641"/>
	</g>
	<g>
		<path style="fill:#7CD6E6;" d="M383.906,199.937c-5.528,0-10.859,0.838-15.877,2.391c21.874,6.769,37.764,27.153,37.764,51.251
			s-15.891,44.482-37.764,51.251c5.017,1.553,10.349,2.391,15.877,2.391c29.625,0,53.641-24.016,53.641-53.641
			S413.531,199.937,383.906,199.937z"/>
	</g>
	<g>
		<path style="fill:#E3DED9;" d="M269.356,248.249H53.945c-4.143,0-7.5-3.358-7.5-7.5s3.357-7.5,7.5-7.5h215.411
			c4.143,0,7.5,3.358,7.5,7.5S273.499,248.249,269.356,248.249z"/>
	</g>
	<g>
		<path style="fill:#E3DED9;" d="M433.84,365.545h-99.869c-4.143,0-7.5-3.358-7.5-7.5s3.357-7.5,7.5-7.5h99.869
			c4.143,0,7.5,3.358,7.5,7.5S437.983,365.545,433.84,365.545z"/>
	</g>
	<g>
		<path style="fill:#E3DED9;" d="M433.84,397.729h-99.869c-4.143,0-7.5-3.358-7.5-7.5s3.357-7.5,7.5-7.5h99.869
			c4.143,0,7.5,3.358,7.5,7.5S437.983,397.729,433.84,397.729z"/>
	</g>
	<g>
		<path style="fill:#E3DED9;" d="M433.84,429.914h-99.869c-4.143,0-7.5-3.358-7.5-7.5s3.357-7.5,7.5-7.5h99.869
			c4.143,0,7.5,3.358,7.5,7.5S437.983,429.914,433.84,429.914z"/>
	</g>
	<g>
		<path style="fill:#E3DED9;" d="M269.356,215.349H53.945c-4.143,0-7.5-3.358-7.5-7.5s3.357-7.5,7.5-7.5h215.411
			c4.143,0,7.5,3.358,7.5,7.5S273.499,215.349,269.356,215.349z"/>
	</g>
	<path style="fill:#5E8EE1;" d="M291.937,376.666h-37.38c-3.67,0-6.644,2.975-6.644,6.644l-10,22.491l10,22.491
		c0,3.669,2.974,6.644,6.644,6.644h37.38c3.67,0,6.644-2.975,6.644-6.644v-44.983C298.581,379.64,295.606,376.666,291.937,376.666z"
		/>
	<g>
		<g>
			<path style="fill:#FFF4F1;" d="M165.941,143.944c-11.557-19.927-33.863-54.237-59.498-54.237
				c-25.704,0-48.064,34.381-59.594,54.396c-0.696,1.208-1.241,2.441-1.647,3.684c15.405,13.754,35.885,22.141,58.366,22.141
				C128.066,169.929,150.174,159.956,165.941,143.944z"/>
		</g>
		<path style="fill:#E8E4E0;" d="M106.171,89.848c-5.376,0.036-10.592,1.591-15.589,4.187c6.332,3.185,12.336,8.049,17.869,13.7
			c19.803,20.226,9.687,54.734-18.002,60.613c-0.751,0.159-1.506,0.309-2.264,0.45c5.083,0.873,10.313,1.326,15.657,1.29
			c24.498-0.166,46.537-10.29,62.195-26.408C154.344,123.831,131.806,89.674,106.171,89.848z"/>
		<g>
			<path style="fill:#FC9086;" d="M106.443,110.516c25.635,0,47.941,13.502,59.498,33.429c15.049-15.282,24.323-36.064,24.323-58.98
				C190.264,38.04,151.449,0,103.568,0S16.872,38.04,16.872,84.965c0,24.893,10.925,47.284,28.33,62.824
				c0.406-1.243,0.951-2.476,1.647-3.684C58.379,124.089,80.739,110.516,106.443,110.516z"/>
		</g>
		<g>
			<path style="fill:#F57A73;" d="M103.568,0c-4.196,0-8.32,0.298-12.356,0.863c42.027,5.878,74.34,41.289,74.34,84.102
				c0,15.88-4.456,30.734-12.199,43.444c4.977,4.525,9.237,9.758,12.588,15.535c15.049-15.282,24.323-36.064,24.323-58.98
				C190.264,38.04,151.449,0,103.568,0z"/>
		</g>
		<g>
			<ellipse style="fill:#FFD5CC;" cx="105.131" cy="57.499" rx="20.316" ry="25.746"/>
		</g>
	</g>
	<g>
		<g>
			<path style="fill:#FFF4F1;" d="M375.554,143.944c-11.557-19.927-33.863-54.237-59.498-54.237
				c-25.704,0-48.064,34.381-59.594,54.396c-0.696,1.208-1.241,2.441-1.647,3.684c15.405,13.754,35.885,22.141,58.366,22.141
				C337.68,169.929,359.788,159.956,375.554,143.944z"/>
		</g>
		<path style="fill:#E8E4E0;" d="M315.784,89.848c-5.376,0.036-10.592,1.591-15.589,4.187c6.332,3.185,12.336,8.049,17.868,13.7
			c19.803,20.226,9.687,54.734-18.002,60.613c-0.751,0.159-1.506,0.309-2.264,0.45c5.083,0.873,10.313,1.326,15.657,1.29
			c24.498-0.166,46.537-10.29,62.195-26.408C363.957,123.831,341.419,89.674,315.784,89.848z"/>
		<g>
			<path style="fill:#9DDBDF;" d="M316.056,110.516c25.635,0,47.941,13.502,59.498,33.429c15.049-15.282,24.323-36.064,24.323-58.98
				C399.878,38.04,361.063,0,313.182,0s-86.696,38.04-86.696,84.965c0,24.893,10.925,47.284,28.33,62.824
				c0.406-1.243,0.951-2.476,1.647-3.684C267.993,124.089,290.352,110.516,316.056,110.516z"/>
		</g>
		<g>
			<path style="fill:#7CD6E6;" d="M313.182,0c-4.196,0-8.32,0.298-12.356,0.863c42.027,5.878,74.34,41.289,74.34,84.102
				c0,15.88-4.456,30.734-12.199,43.444c4.977,4.525,9.237,9.758,12.588,15.535c15.049-15.282,24.323-36.064,24.323-58.98
				C399.878,38.04,361.063,0,313.182,0z"/>
		</g>
		<g>
			<ellipse style="fill:#FFD5CC;" cx="314.745" cy="57.499" rx="20.316" ry="25.746"/>
		</g>
	</g>
	<path style="fill:#9DDBDF;" d="M242.155,351.324h-37.38c-3.67,0-6.644,2.975-6.644,6.644l-10,35.162l10,35.162
		c0,3.669,2.974,6.644,6.644,6.644h37.38c3.67,0,6.644-2.975,6.644-6.644v-70.325C248.799,354.298,245.824,351.324,242.155,351.324z
		"/>
	<path style="fill:#FC9086;" d="M90.153,289.868h-37.38c-3.67,0-6.644,2.975-6.644,6.644v131.78c0,3.669,2.974,6.644,6.644,6.644
		h37.38c3.67,0,6.644-2.975,6.644-6.644l10-65.89l-10-46.705v-19.185C96.797,292.843,93.822,289.868,90.153,289.868z"/>
	<path style="fill:#FFE056;" d="M191.488,335.485h-37.38c-3.67,0-6.644,2.975-6.644,6.644l-10,49.241l10,36.923
		c0,3.669,2.974,6.644,6.644,6.644h37.38c3.67,0,6.644-2.975,6.644-6.644v-86.164C198.131,338.459,195.157,335.485,191.488,335.485z
		"/>
	<path style="fill:#FFD5CC;" d="M140.82,311.409h-37.38c-3.67,0-6.644,2.975-6.644,6.644v110.239c0,3.669,2.974,6.644,6.644,6.644
		h37.38c3.67,0,6.644-2.975,6.644-6.644V318.053C147.464,314.384,144.489,311.409,140.82,311.409z"/>
</g>
<g>
</g>
<g>
</g>
<g>
</g>
<g>
</g>
<g>
</g>
<g>
</g>
<g>
</g>
<g>
</g>
<g>
</g>
<g>
</g>
<g>
</g>
<g>
</g>
<g>
</g>
<g>
</g>
<g>
</g>
</svg>
