<?xml version="1.0" encoding="iso-8859-1"?>
<!-- Generator: Adobe Illustrator 21.0.0, SVG Export Plug-In . SVG Version: 6.00 Build 0)  -->
<svg version="1.1" id="Capa_1" xmlns="http://www.w3.org/2000/svg" xmlns:xlink="http://www.w3.org/1999/xlink" x="0px" y="0px"
	 viewBox="0 0 482.538 482.538" style="enable-background:new 0 0 482.538 482.538;" xml:space="preserve">
<g>
	<g>
		<path style="fill:#FFD5CC;" d="M351.633,256.3l-99.613-77.817l-19.732-36.258c-6.603-12.132-19.238-19.673-32.964-19.673h-47.097
			c-6.075,0-13.727,4.925-20.711,10.813l-65.151-0.309v132.031h38.254L261.57,375.951c8.161,6.244,19.906,4.621,26.099-3.607
			c6.167-8.193,4.592-19.966-3.48-26.23c8.157,6.152,19.826,4.514,25.994-3.68c6.167-8.194,4.592-19.966-3.48-26.23
			c8.157,6.152,19.826,4.514,25.994-3.68c6.167-8.193,4.592-19.966-3.48-26.23c8.157,6.152,19.826,4.514,25.994-3.68h0
			C361.404,274.385,359.794,262.545,351.633,256.3z"/>
	</g>
	<g>
		<path style="fill:#FECECA;" d="M351.633,256.3l-99.613-77.817l-19.732-36.259c-6.603-12.132-19.238-19.673-32.964-19.673h-30
			c13.726,0,26.361,7.541,32.964,19.673l19.732,36.259l99.613,77.817c8.161,6.245,9.771,18.085,3.578,26.313h0
			c-2.863,3.804-6.913,6.195-11.246,7.05c-4.724,0.932-7.973,5.141-7.568,9.939c0.377,4.47-0.814,9.087-3.7,12.921
			c-2.863,3.804-6.913,6.195-11.246,7.05c-4.724,0.931-7.973,5.141-7.568,9.939c0.377,4.47-0.814,9.087-3.699,12.921
			c-2.864,3.804-6.913,6.195-11.246,7.049c-4.724,0.931-7.973,5.141-7.568,9.939c0.377,4.47-0.814,9.087-3.7,12.921
			c-0.142,0.188-0.3,0.354-0.448,0.536l4.348,3.072c8.161,6.244,19.906,4.621,26.099-3.607c6.167-8.193,4.592-19.966-3.48-26.23
			c8.157,6.152,19.826,4.514,25.994-3.68c6.167-8.194,4.592-19.966-3.48-26.23c8.157,6.152,19.826,4.514,25.994-3.68
			c6.167-8.193,4.592-19.965-3.48-26.23c8.157,6.152,19.826,4.514,25.994-3.68h0C361.404,274.385,359.794,262.545,351.633,256.3z"/>
	</g>
	<g>
		<path style="fill:#FFE0DA;" d="M129.787,307.214l-2.452-1.861c-7.198-5.463-8.618-15.822-3.156-23.02l16.861-22.217
			c5.463-7.198,15.822-8.618,23.02-3.156l2.452,1.861c7.198,5.463,8.618,15.822,3.156,23.02l-16.861,22.217
			C147.344,311.257,136.985,312.677,129.787,307.214z"/>
	</g>
	<g>
		<path style="fill:#FFE0DA;" d="M158.405,328.932l-2.452-1.861c-7.198-5.463-8.618-15.822-3.156-23.02l16.861-22.217
			c5.463-7.198,15.822-8.618,23.02-3.156l2.452,1.861c7.198,5.463,8.618,15.822,3.156,23.02l-16.861,22.217
			C175.962,332.975,165.603,334.395,158.405,328.932z"/>
	</g>
	<g>
		<path style="fill:#FFE0DA;" d="M187.023,350.65l-2.452-1.861c-7.198-5.463-8.618-15.822-3.156-23.02l16.861-22.217
			c5.463-7.198,15.822-8.618,23.02-3.156l2.452,1.861c7.198,5.463,8.618,15.822,3.156,23.02l-16.861,22.217
			C204.58,354.693,194.221,356.113,187.023,350.65z"/>
	</g>
	<g>
		<path style="fill:#FFE0DA;" d="M215.641,372.368l-2.452-1.861c-7.198-5.463-8.618-15.822-3.156-23.02l16.861-22.217
			c5.463-7.198,15.822-8.618,23.02-3.156l2.452,1.861c7.198,5.463,8.618,15.822,3.156,23.02l-16.861,22.217
			C233.198,376.411,222.839,377.831,215.641,372.368z"/>
	</g>
	<g>
		<path style="fill:#5E8EE1;" d="M75.507,281.052L12.412,269.99c-8.16-1.431-13.615-9.205-12.184-17.365L24.32,115.2
			c1.431-8.16,9.205-13.615,17.365-12.184l63.095,11.061c8.16,1.431,13.615,9.205,12.184,17.365L92.872,268.867
			C91.441,277.027,83.667,282.482,75.507,281.052z"/>
	</g>
	<g>
		<path style="fill:#FFE0DA;" d="M356.15,154.18c0,0-26.047-31.628-41.861-31.628h-49.273c-14.36,0-27.579,7.825-34.487,20.415
			l-41.454,75.554c-2.679,4.883,0.14,10.997,5.607,12.059c10.785,2.095,27.681,2.957,40.537-7.562
			c20.465-16.744,31.628-30.698,31.628-30.698s0.93,24.186,31.628,24.186l65.621,53.954h24.612l-0.834-115.515
			C387.874,154.944,356.666,154.695,356.15,154.18z"/>
	</g>
	<g>
		<path style="fill:#FECECA;" d="M387.874,154.944c0,0-31.209-0.249-31.724-0.765c0,0-26.047-31.628-41.861-31.628h-30
			c15.814,0,41.861,31.628,41.861,31.628c0.005,0.005,0.013,0.01,0.025,0.015c19.289,8.761,31.895,27.75,32.048,48.935l0.454,62.873
			l5.42,4.456h24.612L387.874,154.944z"/>
	</g>
	<g>
		<path style="fill:#5E8EE1;" d="M407.031,281.052l63.095-11.061c8.16-1.431,13.615-9.205,12.184-17.365L458.218,115.2
			c-1.431-8.16-9.205-13.615-17.365-12.184l-63.095,11.061c-8.16,1.431-13.615,9.205-12.184,17.365l24.093,137.425
			C391.097,277.027,398.871,282.482,407.031,281.052z"/>
	</g>
	<path style="fill:#467BFF;" d="M482.31,252.625L458.218,115.2c-1.431-8.16-9.205-13.615-17.365-12.184l-15.713,2.755
		c3.316,2.194,5.765,5.683,6.506,9.908l26.143,149.119c0.454,2.589,0.21,5.138-0.589,7.459l12.927-2.266
		C478.286,268.56,483.741,260.785,482.31,252.625z"/>
</g>
<g>
</g>
<g>
</g>
<g>
</g>
<g>
</g>
<g>
</g>
<g>
</g>
<g>
</g>
<g>
</g>
<g>
</g>
<g>
</g>
<g>
</g>
<g>
</g>
<g>
</g>
<g>
</g>
<g>
</g>
</svg>
