<?xml version="1.0" encoding="iso-8859-1"?>
<!-- Generator: Adobe Illustrator 21.0.0, SVG Export Plug-In . SVG Version: 6.00 Build 0)  -->
<svg version="1.1" id="Capa_1" xmlns="http://www.w3.org/2000/svg" xmlns:xlink="http://www.w3.org/1999/xlink" x="0px" y="0px"
	 viewBox="0 0 506 506" style="enable-background:new 0 0 506 506;" xml:space="preserve">
<g>
	<g>
		<polygon style="fill:#FFF4F1;" points="251.51,135.891 337.791,135.891 337.791,43.392 251.51,43.392 235.227,88.27 		"/>
	</g>
	<g>
		<polygon style="fill:#E3DED9;" points="337.791,106.792 232.354,106.792 251.51,135.891 337.791,135.891 		"/>
	</g>
	<g>
		<path style="fill:#5E8EE1;" d="M251.55,43.392H83.128c-14.153,0-25.627,11.474-25.627,25.627v41.245
			c0,14.153,11.474,25.627,25.627,25.627H251.55V43.392z"/>
	</g>
	<g>
		<path style="fill:#467BFF;" d="M251.55,106.792H83.453c-14.333,0-25.952-11.619-25.952-25.952v29.099
			c0,14.333,11.619,25.952,25.952,25.952H251.55V106.792z"/>
	</g>
	<g>
		<g>
			<polygon style="fill:#FFF4F1;" points="135.891,254.49 135.891,168.209 43.392,168.209 43.392,254.49 88.27,270.773 			"/>
		</g>
		<g>
			<polygon style="fill:#E3DED9;" points="106.792,168.209 106.792,273.646 135.891,254.49 135.891,168.209 			"/>
		</g>
		<g>
			<path style="fill:#5E8EE1;" d="M43.392,254.45v168.422c0,14.153,11.474,25.627,25.627,25.627h41.245
				c14.153,0,25.627-11.474,25.627-25.627V254.45H43.392z"/>
		</g>
		<g>
			<path style="fill:#467BFF;" d="M106.792,254.45v168.097c0,14.333-11.619,25.952-25.952,25.952h29.099
				c14.333,0,25.952-11.619,25.952-25.952V254.45H106.792z"/>
		</g>
		<g>
			<path style="fill:#FFD5CC;" d="M188.288,96.666c-7.346-5.217-17.624-3.475-22.841,3.871l-11.446,16.118l-0.07-93.596
				c0-9.01-7.372-16.382-16.382-16.382c-9.01,0-16.382,7.372-16.382,16.382v-6.677c0-9.01-7.372-16.381-16.381-16.381h0
				c-9.01,0-16.381,7.372-16.381,16.381v6.07c0-9.01-7.372-16.381-16.382-16.381c-9.01,0-16.381,7.372-16.381,16.381v13.382
				l-0.022,6.982c0-9.01-7.372-16.382-16.381-16.382c-9.01,0-16.382,7.372-16.382,16.382l1.977,115.466
				c0,36.183,30.262,65.514,66.445,65.514h0c29.627,0,57.44-19.671,65.539-46.661l35.342-57.628
				C197.376,112.161,195.634,101.882,188.288,96.666z"/>
		</g>
		<g>
			<path style="fill:#FECECA;" d="M188.288,96.666c-7.346-5.217-17.624-3.475-22.841,3.871l-11.446,16.118l-0.07-93.596
				c0-9.01-7.372-16.382-16.382-16.382c-7.882,0-14.511,5.642-16.046,13.088v10.072c12.98,29.904,25.436,88.286,16.887,126.173
				c-8.166,36.189-29.378,52.719-57.837,66.903c3.5,0.572,7.08,0.884,10.725,0.884h0c29.627,0,57.44-19.671,65.539-46.661
				l35.342-57.628C197.376,112.161,195.634,101.882,188.288,96.666z"/>
		</g>
	</g>
	<g>
		<g>
			<polygon style="fill:#FFF4F1;" points="254.49,370.109 168.209,370.109 168.209,462.608 254.49,462.608 270.773,417.73 			"/>
		</g>
		<g>
			<polygon style="fill:#E3DED9;" points="168.209,399.208 273.646,399.208 254.49,370.109 168.209,370.109 			"/>
		</g>
		<g>
			<path style="fill:#5E8EE1;" d="M254.45,462.608h168.422c14.153,0,25.627-11.474,25.627-25.627v-41.245
				c0-14.153-11.474-25.627-25.627-25.627H254.45V462.608z"/>
		</g>
		<g>
			<path style="fill:#467BFF;" d="M254.45,399.208h168.097c14.333,0,25.952,11.619,25.952,25.952v-29.099
				c0-14.333-11.619-25.952-25.952-25.952H254.45V399.208z"/>
		</g>
		<g>
			<path style="fill:#FFD5CC;" d="M96.666,317.712c-5.217,7.346-3.475,17.624,3.871,22.841l16.118,11.446l-93.596,0.07
				c-9.01,0-16.382,7.372-16.382,16.382c0,9.01,7.372,16.382,16.382,16.382h-6.677C7.372,384.832,0,392.203,0,401.213v0
				c0,9.01,7.372,16.381,16.381,16.381h6.07c-9.01,0-16.381,7.372-16.381,16.382c0,9.01,7.372,16.381,16.381,16.381h13.382
				l6.982,0.022c-9.01,0-16.382,7.372-16.382,16.381c0,9.01,7.372,16.382,16.382,16.382l115.466-1.977
				c36.183,0,65.514-30.262,65.514-66.445v0c0-29.627-19.671-57.44-46.661-65.539l-57.628-35.342
				C112.161,308.624,101.882,310.366,96.666,317.712z"/>
		</g>
		<path style="fill:#FFCCC4;" d="M177.135,349.183l-57.628-35.342c-7.346-5.217-17.625-3.475-22.841,3.871
			c-0.086,0.122-0.155,0.25-0.238,0.374l50.707,31.098c26.99,8.099,46.661,35.912,46.661,65.539
			c0,35.83-28.767,65.835-64.462,66.417v0.523l28.948-0.496c36.182,0,65.514-30.262,65.514-66.445
			C223.796,385.095,204.125,357.282,177.135,349.183z"/>
	</g>
	<g>
		<g>
			<polygon style="fill:#FFF4F1;" points="370.109,251.51 370.109,337.791 462.608,337.791 462.608,251.51 417.73,235.227 			"/>
		</g>
		<g>
			<polygon style="fill:#E3DED9;" points="399.208,337.791 399.208,232.354 370.109,251.51 370.109,337.791 			"/>
		</g>
		<g>
			<path style="fill:#5E8EE1;" d="M462.608,251.55V83.128c0-14.153-11.474-25.627-25.627-25.627h-41.245
				c-14.153,0-25.627,11.474-25.627,25.627V251.55H462.608z"/>
		</g>
		<g>
			<path style="fill:#467BFF;" d="M399.208,251.55V83.453c0-14.333,11.619-25.952,25.952-25.952h-29.099
				c-14.333,0-25.952,11.619-25.952,25.952V251.55H399.208z"/>
		</g>
		<g>
			<path style="fill:#FFD5CC;" d="M317.712,409.335c7.346,5.217,17.624,3.475,22.841-3.871l11.446-16.118l0.07,93.596
				c0,9.01,7.372,16.382,16.382,16.382c9.01,0,16.382-7.372,16.382-16.382v6.677c0,9.01,7.372,16.381,16.381,16.381h0
				c9.01,0,16.381-7.372,16.381-16.381v-6.07c0,9.01,7.372,16.381,16.382,16.381c9.01,0,16.381-7.372,16.381-16.381v-13.382
				l0.022-6.982c0,9.01,7.372,16.382,16.381,16.382c9.01,0,16.382-7.372,16.382-16.382l-1.977-115.466
				c0-36.183-30.262-65.514-66.445-65.514h0c-29.627,0-57.44,19.671-65.539,46.661l-35.342,57.628
				C308.624,393.839,310.366,404.118,317.712,409.335z"/>
		</g>
		<g>
			<path style="fill:#FFCCC4;" d="M481.166,347.718c0-36.182-30.262-65.514-66.445-65.514h0c-5.119,0-10.181,0.6-15.099,1.711
				c29.219,6.73,51.544,32.73,51.544,63.803l1.977,115.467c0,2.325-0.498,4.536-1.381,6.544c2.539,5.775,8.315,9.837,15,9.837
				c9.01,0,16.381-7.372,16.381-16.382L481.166,347.718z"/>
		</g>
		<g>
			<line style="fill:#FFD5CC;" x1="417.625" y1="485.065" x2="417.625" y2="411.699"/>
		</g>
		<g>
			<line style="fill:#FFD5CC;" x1="450.454" y1="477.038" x2="450.454" y2="424.585"/>
		</g>
	</g>
	<g>
		<path style="fill:#FFD5CC;" d="M409.335,188.288c5.217-7.346,3.475-17.624-3.871-22.841l-16.118-11.446l93.596-0.07
			c9.01,0,16.382-7.372,16.382-16.382c0-9.01-7.372-16.382-16.382-16.382h6.677c9.01,0,16.381-7.372,16.381-16.381v0
			c0-9.01-7.372-16.381-16.381-16.381h-6.07c9.01,0,16.381-7.372,16.381-16.382c0-9.01-7.372-16.381-16.381-16.381h-13.382
			l-6.982-0.022c9.01,0,16.382-7.372,16.382-16.381c0-9.01-7.372-16.382-16.382-16.382l-115.466,1.977
			c-36.183,0-65.514,30.262-65.514,66.445v0c0,29.627,19.671,57.44,46.661,65.539l57.628,35.342
			C393.839,197.376,404.118,195.634,409.335,188.288z"/>
	</g>
	<g>
		<path style="fill:#FECECA;" d="M409.334,188.288c5.217-7.346,3.475-17.624-3.871-22.841l-16.118-11.446l93.596-0.07
			c9.01,0,16.382-7.372,16.382-16.382c0-7.882-5.642-14.511-13.088-16.046h-10.072c-29.904,12.98-88.286,25.436-126.173,16.887
			c-36.189-8.166-52.719-29.378-66.903-57.837c-0.572,3.5-0.884,7.08-0.884,10.725v0c0,29.627,19.671,57.44,46.661,65.539
			l57.628,35.342C393.839,197.376,404.118,195.634,409.334,188.288z"/>
	</g>
</g>
<g>
</g>
<g>
</g>
<g>
</g>
<g>
</g>
<g>
</g>
<g>
</g>
<g>
</g>
<g>
</g>
<g>
</g>
<g>
</g>
<g>
</g>
<g>
</g>
<g>
</g>
<g>
</g>
<g>
</g>
</svg>
