<?xml version="1.0" encoding="iso-8859-1"?>
<!-- Generator: Adobe Illustrator 21.0.0, SVG Export Plug-In . SVG Version: 6.00 Build 0)  -->
<svg version="1.1" id="Capa_1" xmlns="http://www.w3.org/2000/svg" xmlns:xlink="http://www.w3.org/1999/xlink" x="0px" y="0px"
	 viewBox="0 0 495.414 495.414" style="enable-background:new 0 0 495.414 495.414;" xml:space="preserve">
<g>
	<g>
		<path style="fill:#FFF4F1;" d="M180.021,468.96c-11.694-20.163-34.263-54.878-60.201-54.878c-26.008,0-48.632,34.787-60.298,55.04
			c-0.704,1.222-1.256,2.47-1.666,3.728c15.587,13.916,36.309,22.402,59.056,22.402C141.699,495.252,164.068,485.16,180.021,468.96z
			"/>
	</g>
	<path style="fill:#E8E4E0;" d="M119.545,414.224c-5.439,0.037-10.717,1.61-15.773,4.236c6.407,3.223,12.481,8.144,18.08,13.862
		c20.037,20.465,9.802,55.381-18.215,61.329c-0.76,0.161-1.524,0.313-2.291,0.455c5.143,0.883,10.435,1.341,15.842,1.305
		c24.787-0.168,47.087-10.412,62.93-26.72C168.287,448.609,145.482,414.048,119.545,414.224z"/>
	<g>
		<path style="fill:#F7EE7D;" d="M119.82,435.136c25.938,0,48.508,13.661,60.201,33.824c15.227-15.463,24.611-36.49,24.611-59.677
			c0-47.479-39.274-85.969-87.721-85.969s-87.721,38.49-87.721,85.969c0,25.187,11.054,47.843,28.665,63.567
			c0.41-1.258,0.962-2.505,1.666-3.728C71.188,448.87,93.812,435.136,119.82,435.136z"/>
	</g>
	<g>
		<path style="fill:#FFE056;" d="M116.911,323.314c-4.245,0-8.418,0.302-12.502,0.873c42.524,5.948,75.219,41.777,75.219,85.096
			c0,16.068-4.509,31.097-12.343,43.958c5.036,4.578,9.346,9.873,12.737,15.719c15.227-15.463,24.611-36.49,24.611-59.677
			C204.632,361.804,165.358,323.314,116.911,323.314z"/>
	</g>
	<g>
		<ellipse style="fill:#FFD5CC;" cx="118.493" cy="381.493" rx="20.557" ry="26.051"/>
	</g>
	<g>
		<path style="fill:#FFF4F1;" d="M441.613,468.96c-11.694-20.163-34.263-54.878-60.201-54.878c-26.008,0-48.632,34.787-60.298,55.04
			c-0.704,1.222-1.256,2.47-1.666,3.728c15.587,13.916,36.309,22.402,59.056,22.402C403.29,495.252,425.659,485.16,441.613,468.96z"
			/>
	</g>
	<path style="fill:#E8E4E0;" d="M381.136,414.224c-5.439,0.037-10.717,1.61-15.773,4.236c6.407,3.223,12.481,8.144,18.08,13.862
		c20.037,20.465,9.802,55.381-18.215,61.329c-0.76,0.161-1.524,0.313-2.291,0.455c5.143,0.883,10.435,1.341,15.842,1.305
		c24.787-0.168,47.087-10.412,62.93-26.72C429.878,448.609,407.074,414.048,381.136,414.224z"/>
	<g>
		<path style="fill:#F86654;" d="M381.411,435.136c25.938,0,48.508,13.661,60.201,33.824c15.227-15.463,24.611-36.49,24.611-59.677
			c0-47.479-39.274-85.969-87.721-85.969s-87.721,38.49-87.721,85.969c0,25.187,11.054,47.843,28.665,63.567
			c0.41-1.258,0.962-2.505,1.666-3.728C332.779,448.87,355.403,435.136,381.411,435.136z"/>
	</g>
	<g>
		<path style="fill:#EA543C;" d="M378.502,323.314c-4.245,0-8.418,0.302-12.502,0.873c42.524,5.948,75.219,41.777,75.219,85.096
			c0,16.068-4.509,31.097-12.343,43.958c5.036,4.578,9.346,9.873,12.737,15.719c15.227-15.463,24.611-36.49,24.611-59.677
			C466.223,361.804,426.949,323.314,378.502,323.314z"/>
	</g>
	<g>
		<ellipse style="fill:#FFD5CC;" cx="380.084" cy="381.493" rx="20.557" ry="26.051"/>
	</g>
	<g>
		<g>
			<path style="fill:#FFF4F1;" d="M318.383,165.734c-13.307-22.944-38.989-62.447-68.505-62.447
				c-29.595,0-55.339,39.585-68.615,62.631c-0.801,1.391-1.429,2.811-1.896,4.242c17.737,15.836,41.317,25.492,67.201,25.492
				C274.774,195.653,300.229,184.169,318.383,165.734z"/>
		</g>
		<path style="fill:#E8E4E0;" d="M249.565,103.449c-6.19,0.042-12.195,1.832-17.949,4.821c7.29,3.667,14.203,9.267,20.573,15.774
			c22.801,23.288,11.154,63.02-20.727,69.788c-0.865,0.184-1.734,0.356-2.607,0.518c5.853,1.005,11.874,1.527,18.028,1.485
			c28.206-0.192,53.582-11.848,71.61-30.405C305.03,142.576,279.08,103.248,249.565,103.449z"/>
		<g>
			<path style="fill:#5E8EE1;" d="M249.878,127.245c29.516,0,55.198,15.545,68.505,38.489
				c17.327-17.596,28.005-41.523,28.005-67.908C346.388,43.798,301.697,0,246.568,0s-99.82,43.798-99.82,97.826
				c0,28.661,12.579,54.442,32.619,72.334c0.467-1.431,1.094-2.851,1.896-4.242C194.539,142.873,220.283,127.245,249.878,127.245z"
				/>
		</g>
		<g>
			<path style="fill:#467BFF;" d="M246.568,0c-4.831,0-9.579,0.343-14.226,0.993c48.389,6.768,85.593,47.539,85.593,96.833
				c0,18.284-5.131,35.386-14.046,50.021c5.731,5.21,10.635,11.235,14.494,17.887c17.327-17.596,28.005-41.523,28.005-67.908
				C346.388,43.798,301.697,0,246.568,0z"/>
		</g>
		<g>
			<ellipse style="fill:#FFD5CC;" cx="248.368" cy="66.203" rx="23.392" ry="29.644"/>
		</g>
	</g>
	<path style="fill:#E3DED9;" d="M329.872,242.152h-70.876v-15.77c0-4.36-3.534-7.895-7.895-7.895c-4.36,0-7.895,3.535-7.895,7.895
		v15.77H172.33c-27.527,0-49.921,22.395-49.921,49.921v1.521c0,4.36,3.535,7.895,7.895,7.895c4.36,0,7.895-3.535,7.895-7.895v-1.521
		c0-18.82,15.311-34.131,34.131-34.131h157.541c18.82,0,34.131,15.311,34.131,34.131v1.563c0,4.36,3.534,7.895,7.895,7.895
		c4.361,0,7.895-3.535,7.895-7.895v-1.563C379.793,264.547,357.399,242.152,329.872,242.152z"/>
</g>
<g>
</g>
<g>
</g>
<g>
</g>
<g>
</g>
<g>
</g>
<g>
</g>
<g>
</g>
<g>
</g>
<g>
</g>
<g>
</g>
<g>
</g>
<g>
</g>
<g>
</g>
<g>
</g>
<g>
</g>
</svg>
