<?xml version="1.0" encoding="iso-8859-1"?>
<!-- Generator: Adobe Illustrator 21.0.0, SVG Export Plug-In . SVG Version: 6.00 Build 0)  -->
<svg version="1.1" id="Capa_1" xmlns="http://www.w3.org/2000/svg" xmlns:xlink="http://www.w3.org/1999/xlink" x="0px" y="0px"
	 viewBox="0 0 493.357 493.357" style="enable-background:new 0 0 493.357 493.357;" xml:space="preserve">
<g>
	<g>
		<circle style="fill:#DC8839;" cx="249.982" cy="242.869" r="204.693"/>
	</g>
	<path style="fill:#BE7511;" d="M249.982,38.176c-5.046,0-10.046,0.191-15,0.549c106.044,7.682,189.693,96.14,189.693,204.143
		s-83.649,196.462-189.693,204.143c4.954,0.359,9.954,0.549,15,0.549c113.049,0,204.693-91.644,204.693-204.693
		S363.03,38.176,249.982,38.176z"/>
	<g>
		<path style="fill:#FC9086;" d="M151.317,109.961c-2.519,0-5.075-0.598-7.457-1.858c-7.798-4.126-10.774-13.792-6.648-21.59
			c12.294-23.232,31.649-41.777,55.972-53.628c24.17-11.777,50.869-15.79,77.214-11.61c0.077,0.012,0.155,0.025,0.232,0.039
			c39.475,6.865,73.004,30.54,91.987,64.955c4.261,7.725,1.453,17.441-6.271,21.702c-7.728,4.262-17.441,1.452-21.702-6.271
			c-14.262-25.854-39.544-43.669-69.374-48.891c-40.263-6.343-81.302,13.652-99.82,48.647
			C162.584,106.871,157.045,109.961,151.317,109.961z"/>
	</g>
	<g>
		<ellipse style="fill:#FFD5CC;" cx="248.683" cy="38.682" rx="26.325" ry="38.682"/>
	</g>
	<g>
		<path style="fill:#467BFF;" d="M438.43,225.227c-6.704-25.301-23.317-47.493-46.529-59.777c-5.415-2.866-8.505-8.404-8.505-14.133
			c0-2.519,0.598-5.075,1.858-7.457c4.126-7.798,13.792-10.774,21.59-6.648c23.232,12.294,41.777,31.649,53.628,55.972
			c11.777,24.17,15.79,50.869,11.61,77.214c-0.012,0.077-0.025,0.155-0.039,0.232c-6.865,39.475-30.54,73.004-64.955,91.987
			c-7.725,4.261-17.441,1.453-21.702-6.271c-4.262-7.728-1.452-17.441,6.271-21.702c22.989-12.682,39.623-34.076,46.698-59.635"/>
	</g>
	<g>
		<ellipse style="fill:#FFD5CC;" cx="454.674" cy="248.683" rx="38.682" ry="26.325"/>
	</g>
	<g>
		<path style="fill:#FC9086;" d="M342.039,383.396c2.519,0,5.075,0.598,7.457,1.858c7.798,4.126,10.774,13.792,6.648,21.59
			c-12.294,23.232-31.649,41.777-55.972,53.628c-24.17,11.777-50.869,15.79-77.214,11.61c-0.077-0.012-0.155-0.025-0.232-0.039
			c-39.475-6.865-73.004-30.54-91.987-64.955c-4.261-7.725-1.453-17.441,6.271-21.702c7.728-4.262,17.441-1.452,21.702,6.271
			c14.262,25.854,39.544,43.669,69.374,48.891c40.263,6.343,81.302-13.652,99.82-48.647
			C330.773,386.486,336.311,383.396,342.039,383.396z"/>
	</g>
	<g>
		<ellipse style="fill:#FFD5CC;" cx="244.674" cy="454.674" rx="26.325" ry="38.682"/>
	</g>
	<g>
		<path style="fill:#467BFF;" d="M109.961,342.039c0,2.519-0.598,5.075-1.858,7.457c-4.126,7.798-13.792,10.774-21.59,6.648
			c-23.232-12.294-41.777-31.649-53.628-55.972c-11.777-24.17-15.79-50.869-11.61-77.214c0.012-0.077,0.025-0.155,0.039-0.232
			c6.865-39.475,30.54-73.004,64.955-91.987c7.725-4.261,17.441-1.453,21.702,6.271c4.262,7.728,1.452,17.441-6.271,21.702
			c-25.854,14.262-43.669,39.544-48.891,69.374c-6.343,40.263,13.652,81.302,48.647,99.82
			C106.871,330.773,109.961,336.311,109.961,342.039z"/>
	</g>
	<g>
		<ellipse style="fill:#FFD5CC;" cx="38.682" cy="244.674" rx="38.682" ry="26.325"/>
	</g>
	<g>
		<circle style="fill:#FFF4F1;" cx="247.409" cy="238.257" r="88.795"/>
	</g>
	<g>
		<path style="fill:#E3B569;" d="M259.96,231.973c-7.009,5.479-7.136,9.302-7.136,15.928c0,2.421-1.274,5.225-7.519,5.225
			c-5.225,0-7.008-1.912-7.008-8.538c0-10.958,4.842-16.183,8.537-19.369c4.205-3.568,11.341-7.519,11.341-14.399
			c0-5.861-5.097-8.665-11.468-8.665c-12.998,0-10.194,9.812-17.075,9.812c-3.44,0-7.646-2.294-7.646-7.263
			c0-6.881,7.9-17.075,25.103-17.075c16.311,0,27.142,9.047,27.142,21.025S263.4,229.297,259.96,231.973z M255.245,271.73
			c0,5.225-4.332,9.812-9.812,9.812s-9.685-4.587-9.685-9.812c0-5.352,4.332-9.812,9.685-9.812
			C250.785,261.918,255.245,266.378,255.245,271.73z"/>
	</g>
</g>
<g>
</g>
<g>
</g>
<g>
</g>
<g>
</g>
<g>
</g>
<g>
</g>
<g>
</g>
<g>
</g>
<g>
</g>
<g>
</g>
<g>
</g>
<g>
</g>
<g>
</g>
<g>
</g>
<g>
</g>
</svg>
