<?xml version="1.0" encoding="iso-8859-1"?>
<!-- Generator: Adobe Illustrator 21.0.0, SVG Export Plug-In . SVG Version: 6.00 Build 0)  -->
<svg version="1.1" id="Capa_1" xmlns="http://www.w3.org/2000/svg" xmlns:xlink="http://www.w3.org/1999/xlink" x="0px" y="0px"
	 viewBox="0 0 496.178 496.178" style="enable-background:new 0 0 496.178 496.178;" xml:space="preserve">
<g>
	<path style="fill:#E3B569;" d="M332.214,224.504c-2.929-2.929-7.678-2.929-10.606,0l-45.57,45.57V71.324c0-4.142-3.358-7.5-7.5-7.5
		s-7.5,3.358-7.5,7.5v60.521l-45.57-45.571c-2.929-2.93-7.678-2.929-10.606,0c-2.929,2.929-2.929,7.678,0,10.606l56.116,56.117
		c0.019,0.02,0.041,0.036,0.061,0.055v158.239l-32.846-32.846c-2.928-2.93-7.677-2.929-10.606,0s-2.929,7.678,0,10.606
		l43.452,43.453v12.626c0,4.142,3.358,7.5,7.5,7.5s7.5-3.358,7.5-7.5v-53.844l56.176-56.176
		C335.143,232.181,335.143,227.432,332.214,224.504z"/>
	<g>
		<path style="fill:#DC8839;" d="M326.312,496.178H217.626c-6.608,0-12.014-5.406-12.014-12.014l-16.019-95.663
			c0-6.608,5.406-12.014,12.014-12.014H342.33c6.608,0,12.014,5.406,12.014,12.014l-16.019,95.663
			C338.326,490.772,332.919,496.178,326.312,496.178z"/>
	</g>
	<g>
		<path style="fill:#BE7511;" d="M342.33,376.487h-30c6.608,0,12.014,5.406,12.014,12.014l-16.019,95.662
			c0,6.608-5.406,12.014-12.014,12.014h30c6.608,0,12.014-5.406,12.014-12.014l16.019-95.662
			C354.345,381.894,348.938,376.487,342.33,376.487z"/>
	</g>
	<g>
		<path style="fill:#DC8839;" d="M353.674,395.668H190.263c-8.25,0-15-6.75-15-15v-18.433c0-8.25,6.75-15,15-15h163.412
			c8.25,0,15,6.75,15,15v18.433C368.674,388.918,361.924,395.668,353.674,395.668z"/>
	</g>
	<g>
		<path style="fill:#BE7511;" d="M353.674,347.235h-30c8.25,0,15,6.75,15,15v18.433c0,8.25-6.75,15-15,15h30c8.25,0,15-6.75,15-15
			v-18.433C368.674,353.985,361.924,347.235,353.674,347.235z"/>
	</g>
	<g>
		<path style="fill:#55E08F;" d="M298.044,67.183c-11.63,11.63-27.668,14.447-35.822,6.293s-5.337-24.193,6.293-35.822
			s40.111-10.582,40.111-10.582S309.674,55.553,298.044,67.183z"/>
	</g>
	<g>
		<path style="fill:#55E08F;" d="M331.496,153.496c-7.15,0.261-15.556-3.171-22.396-9.836c-10.89-10.614-10.26-36.957-10.26-36.957
			s26.319-1.307,37.209,9.306c6.322,6.161,9.916,13.731,10.363,20.492"/>
	</g>
	<g>
		<path style="fill:#55E08F;" d="M244.301,155.289c13.015,2.626,22.074,12.153,20.232,21.279
			c-1.841,9.126-13.885,14.395-26.9,11.768c-13.015-2.626-25.032-22.247-25.032-22.247S231.286,152.663,244.301,155.289z"/>
	</g>
	<g>
		<path style="fill:#55E08F;" d="M424.533,257.538c-11.63-11.63-27.668-14.447-35.822-6.293s-5.337,24.193,6.293,35.822
			s40.111,10.582,40.111,10.582S436.163,269.168,424.533,257.538z"/>
	</g>
	<g>
		<path style="fill:#55E08F;" d="M124.253,317.329c11.63-11.63,14.447-27.668,6.293-35.822c-8.154-8.154-24.193-5.337-35.822,6.293
			s-10.582,40.111-10.582,40.111S112.624,328.959,124.253,317.329z"/>
	</g>
	<g>
		<path style="fill:#55E08F;" d="M80.115,55.734c16.447,0,29.78-9.348,29.78-20.88s-13.333-20.88-29.78-20.88
			S44.27,34.854,44.27,34.854S63.668,55.734,80.115,55.734z"/>
	</g>
	<g>
		<g>
			<path style="fill:#FC9086;" d="M196.827,113.547c-9.117-15.719-26.712-42.783-46.934-42.783
				c-20.276,0-37.914,27.121-47.009,42.909c-0.549,0.953-0.979,1.926-1.299,2.906c12.152,10.849,28.307,17.465,46.041,17.465
				C166.951,134.045,184.39,126.177,196.827,113.547z"/>
		</g>
		<path style="fill:#F7938E;" d="M149.679,70.875c-4.241,0.029-8.355,1.255-12.297,3.303c4.995,2.512,9.731,6.349,14.095,10.807
			c15.621,15.955,7.642,43.176-14.201,47.813c-0.593,0.126-1.188,0.244-1.786,0.355c4.01,0.689,8.135,1.046,12.351,1.017
			c19.324-0.131,36.71-8.117,49.061-20.831C187.679,97.681,169.9,70.737,149.679,70.875z"/>
		<g>
			<path style="fill:#FFF4F1;" d="M149.894,87.178c20.222,0,37.817,10.65,46.934,26.37c11.871-12.055,19.187-28.448,19.187-46.525
				C216.014,30.007,185.396,0,147.626,0S79.238,30.007,79.238,67.023c0,19.636,8.618,37.299,22.348,49.557
				c0.32-0.98,0.75-1.953,1.299-2.906C111.98,97.885,129.617,87.178,149.894,87.178z"/>
		</g>
		<g>
			<path style="fill:#E3DED9;" d="M147.626,0c-3.31,0-6.563,0.235-9.747,0.681c33.152,4.637,58.642,32.57,58.642,66.342
				c0,12.527-3.515,24.244-9.623,34.27c3.926,3.569,7.286,7.697,9.93,12.255c11.871-12.055,19.187-28.448,19.187-46.525
				C216.014,30.007,185.396,0,147.626,0z"/>
		</g>
		<g>
			<ellipse style="fill:#FFD5CC;" cx="148.859" cy="45.357" rx="16.026" ry="20.309"/>
		</g>
	</g>
	<g>
		<g>
			<path style="fill:#FC9086;" d="M432.722,241.215c-9.117-15.719-26.712-42.783-46.934-42.783
				c-20.276,0-37.914,27.121-47.009,42.909c-0.549,0.953-0.979,1.926-1.299,2.906c12.152,10.849,28.307,17.465,46.041,17.465
				C402.845,261.712,420.284,253.845,432.722,241.215z"/>
		</g>
		<path style="fill:#F7938E;" d="M385.573,198.542c-4.241,0.029-8.355,1.255-12.297,3.303c4.995,2.512,9.731,6.349,14.095,10.807
			c15.621,15.955,7.642,43.176-14.201,47.813c-0.593,0.126-1.188,0.244-1.786,0.355c4.01,0.689,8.135,1.046,12.351,1.017
			c19.324-0.131,36.71-8.117,49.061-20.831C423.573,225.349,405.795,198.405,385.573,198.542z"/>
		<g>
			<path style="fill:#FFF4F1;" d="M385.788,214.845c20.222,0,37.817,10.65,46.934,26.37c11.871-12.055,19.187-28.448,19.187-46.525
				c0-37.016-30.618-67.023-68.388-67.023s-68.388,30.007-68.388,67.023c0,19.636,8.618,37.299,22.348,49.557
				c0.32-0.98,0.75-1.953,1.299-2.906C347.874,225.552,365.512,214.845,385.788,214.845z"/>
		</g>
		<g>
			<path style="fill:#E3DED9;" d="M383.52,127.667c-3.31,0-6.563,0.235-9.747,0.681c33.152,4.637,58.642,32.57,58.642,66.342
				c0,12.527-3.515,24.244-9.623,34.27c3.926,3.569,7.286,7.697,9.93,12.255c11.871-12.055,19.187-28.448,19.187-46.525
				C451.908,157.674,421.29,127.667,383.52,127.667z"/>
		</g>
		<g>
			<ellipse style="fill:#FFD5CC;" cx="384.753" cy="173.024" rx="16.026" ry="20.309"/>
		</g>
	</g>
	<g>
		<g>
			<path style="fill:#FC9086;" d="M217.351,293.044c-9.117-15.719-26.712-42.783-46.934-42.783
				c-20.276,0-37.914,27.12-47.009,42.909c-0.549,0.953-0.979,1.926-1.299,2.906c12.152,10.849,28.307,17.465,46.041,17.465
				C187.474,313.542,204.913,305.674,217.351,293.044z"/>
		</g>
		<path style="fill:#F7938E;" d="M170.202,250.371c-4.241,0.029-8.355,1.255-12.297,3.303c4.995,2.512,9.731,6.349,14.095,10.807
			c15.621,15.955,7.642,43.176-14.201,47.813c-0.593,0.126-1.188,0.244-1.786,0.355c4.01,0.689,8.135,1.046,12.351,1.017
			c19.324-0.131,36.71-8.117,49.061-20.831C208.202,277.178,190.424,250.234,170.202,250.371z"/>
		<g>
			<path style="fill:#FFF4F1;" d="M170.417,266.675c20.222,0,37.817,10.65,46.934,26.37c11.871-12.055,19.187-28.448,19.187-46.525
				c0-37.016-30.618-67.023-68.388-67.023s-68.388,30.007-68.388,67.023c0,19.636,8.618,37.299,22.348,49.557
				c0.32-0.98,0.75-1.953,1.299-2.906C132.503,277.381,150.141,266.675,170.417,266.675z"/>
		</g>
		<g>
			<path style="fill:#E3DED9;" d="M168.149,179.497c-3.31,0-6.563,0.235-9.747,0.681c33.152,4.637,58.642,32.57,58.642,66.342
				c0,12.527-3.515,24.244-9.623,34.27c3.926,3.569,7.286,7.697,9.93,12.255c11.871-12.055,19.187-28.448,19.187-46.525
				C236.537,209.504,205.919,179.497,168.149,179.497z"/>
		</g>
		<g>
			<ellipse style="fill:#FFD5CC;" cx="169.382" cy="224.854" rx="16.026" ry="20.309"/>
		</g>
	</g>
</g>
<g>
</g>
<g>
</g>
<g>
</g>
<g>
</g>
<g>
</g>
<g>
</g>
<g>
</g>
<g>
</g>
<g>
</g>
<g>
</g>
<g>
</g>
<g>
</g>
<g>
</g>
<g>
</g>
<g>
</g>
</svg>
