<?xml version="1.0" encoding="iso-8859-1"?>
<!-- Generator: Adobe Illustrator 21.0.0, SVG Export Plug-In . SVG Version: 6.00 Build 0)  -->
<svg version="1.1" id="Capa_1" xmlns="http://www.w3.org/2000/svg" xmlns:xlink="http://www.w3.org/1999/xlink" x="0px" y="0px"
	 viewBox="0 0 491.798 491.798" style="enable-background:new 0 0 491.798 491.798;" xml:space="preserve">
<g>
	<g>
		<path style="fill:#F86654;" d="M249.461,249.117c0,52.658-72.896,177.189-107.224,232.913c-8.024,13.025-26.948,13.025-34.971,0
			C72.938,426.306,0.042,301.775,0.042,249.117c0-68.875,55.834-128.71,124.71-128.71S249.461,180.241,249.461,249.117z"/>
	</g>
	<g>
		<path style="fill:#EA543C;" d="M124.752,120.407c-5.077,0-10.081,0.333-15,0.963c61.801,7.916,109.71,63.948,109.71,127.746
			c0,52.658-72.896,177.19-107.224,232.913c-0.741,1.203-1.576,2.293-2.486,3.273c8.941,9.638,25.203,8.548,32.486-3.273
			c34.328-55.724,107.224-180.255,107.224-232.913C249.461,180.241,193.627,120.407,124.752,120.407z"/>
	</g>
	<g>
		<path style="fill:#FFE056;" d="M491.756,99.687c0,40.784-56.459,137.235-83.046,180.394c-6.214,10.088-20.871,10.088-27.086,0
			c-26.587-43.159-83.046-139.609-83.046-180.394C298.578,46.342,341.823,0,395.167,0S491.756,46.342,491.756,99.687z"/>
	</g>
	<g>
		<path style="fill:#F9CD45;" d="M395.167,0c-5.102,0-10.111,0.427-15,1.241c46.221,7.692,81.589,50.204,81.589,98.446
			c0,40.055-54.455,133.798-81.589,178.023c0.494,0.805,0.982,1.599,1.457,2.371c6.214,10.087,20.871,10.087,27.086,0
			c26.587-43.159,83.046-139.609,83.046-180.394C491.756,46.342,448.512,0,395.167,0z"/>
	</g>
	<path style="fill:#E3DED9;" d="M256.578,33.613c-29.832,0-58.853,7.746-84.522,22.433l3.424-14.138
		c0.975-4.026-1.498-8.08-5.523-9.055c-4.028-0.979-8.08,1.499-9.055,5.523l-8.118,33.516c-0.509,2.102-0.086,4.322,1.161,6.089
		c1.247,1.768,3.196,2.911,5.347,3.136l30.111,3.155c0.266,0.028,0.529,0.042,0.791,0.042c3.791,0,7.046-2.865,7.45-6.719
		c0.432-4.12-2.558-7.809-6.677-8.241l-10.119-1.06c23.068-12.894,49.043-19.681,75.73-19.681c4.142,0,7.5-3.358,7.5-7.5
		S260.72,33.613,256.578,33.613z"/>
	<path style="fill:#E3DED9;" d="M367.692,332.782c-1.169-1.819-3.068-3.044-5.207-3.362l-29.949-4.444
		c-4.099-0.607-7.912,2.221-8.52,6.318c-0.608,4.097,2.221,7.912,6.318,8.52l11.654,1.729
		c-20.12,15.744-43.859,26.342-68.922,30.705c-4.081,0.71-6.813,4.594-6.102,8.675c0.635,3.646,3.802,6.215,7.38,6.215
		c0.427,0,0.86-0.037,1.295-0.113c26.222-4.566,51.115-15.355,72.501-31.318l-3.512,12.19c-1.147,3.98,1.15,8.137,5.13,9.283
		c0.694,0.2,1.393,0.295,2.08,0.295c3.257,0,6.256-2.139,7.203-5.425l9.548-33.136C369.19,336.837,368.862,334.602,367.692,332.782z
		"/>
	<g>
		<g>
			<path style="fill:#FC9086;" d="M184.851,296.094c-11.179-19.274-32.753-52.46-57.549-52.46
				c-24.862,0-46.489,33.254-57.641,52.614c-0.673,1.169-1.2,2.361-1.593,3.564c14.9,13.303,34.709,21.415,56.453,21.415
				C148.217,321.227,169.601,311.58,184.851,296.094z"/>
		</g>
		<path style="fill:#F57A73;" d="M127.04,243.77c-5.2,0.035-10.245,1.539-15.078,4.05c6.124,3.081,11.931,7.785,17.283,13.251
			c19.154,19.564,9.37,52.941-17.412,58.627c-0.727,0.154-1.457,0.299-2.19,0.435c4.917,0.844,9.975,1.282,15.144,1.247
			c23.695-0.161,45.012-9.953,60.157-25.543C173.634,276.639,151.834,243.601,127.04,243.77z"/>
		<g>
			<path style="fill:#FFF4F1;" d="M127.303,263.76c24.795,0,46.37,13.059,57.549,32.333c14.556-14.782,23.526-34.882,23.526-57.047
				c0-45.387-37.543-82.181-83.856-82.181s-83.855,36.794-83.855,82.181c0,24.077,10.567,45.735,27.402,60.766
				c0.392-1.202,0.919-2.395,1.593-3.564C80.814,276.888,102.44,263.76,127.303,263.76z"/>
		</g>
		<g>
			<path style="fill:#E3DED9;" d="M124.522,156.865c-4.058,0-8.047,0.289-11.951,0.835c40.65,5.686,71.904,39.936,71.904,81.346
				c0,15.36-4.31,29.727-11.8,42.021c4.814,4.377,8.934,9.438,12.176,15.026c14.556-14.782,23.526-34.882,23.526-57.047
				C208.377,193.659,170.834,156.865,124.522,156.865z"/>
		</g>
		<g>
			<ellipse style="fill:#FFD5CC;" cx="126.034" cy="212.481" rx="19.651" ry="24.903"/>
		</g>
	</g>
	<g>
		<g>
			<path style="fill:#9DDBDF;" d="M436.67,128.687c-7.69-13.259-22.532-36.089-39.59-36.089c-17.104,0-31.981,22.877-39.654,36.195
				c-0.463,0.804-0.826,1.624-1.096,2.451c10.25,9.152,23.878,14.732,38.836,14.732C411.468,145.978,426.179,139.341,436.67,128.687
				z"/>
		</g>
		<path style="fill:#7CD6E6;" d="M396.899,92.692c-3.577,0.024-7.048,1.059-10.373,2.786c4.213,2.119,8.208,5.356,11.89,9.116
			c13.177,13.459,6.446,36.42-11.979,40.331c-0.5,0.106-1.002,0.206-1.507,0.299c3.382,0.581,6.862,0.882,10.418,0.858
			c16.301-0.111,30.966-6.847,41.384-17.572C428.953,115.304,413.956,92.576,396.899,92.692z"/>
		<g>
			<path style="fill:#FFF4F1;" d="M397.08,106.444c17.058,0,31.9,8.984,39.59,22.243c10.014-10.169,16.185-23.997,16.185-39.245
				c0-31.224-25.827-56.535-57.687-56.535S337.48,58.219,337.48,89.442c0,16.564,7.27,31.463,18.851,41.803
				c0.27-0.827,0.633-1.648,1.096-2.451C365.099,115.475,379.977,106.444,397.08,106.444z"/>
		</g>
		<g>
			<path style="fill:#E3DED9;" d="M395.167,32.907c-2.792,0-5.536,0.198-8.222,0.574c27.965,3.911,49.466,27.473,49.466,55.961
				c0,10.567-2.965,20.45-8.117,28.908c3.312,3.011,6.146,6.493,8.376,10.337c10.014-10.169,16.185-23.997,16.185-39.245
				C452.854,58.219,427.027,32.907,395.167,32.907z"/>
		</g>
		<g>
			<ellipse style="fill:#FFD5CC;" cx="396.207" cy="71.167" rx="13.518" ry="17.132"/>
		</g>
	</g>
</g>
<g>
</g>
<g>
</g>
<g>
</g>
<g>
</g>
<g>
</g>
<g>
</g>
<g>
</g>
<g>
</g>
<g>
</g>
<g>
</g>
<g>
</g>
<g>
</g>
<g>
</g>
<g>
</g>
<g>
</g>
</svg>
