<?xml version="1.0" encoding="iso-8859-1"?>
<!-- Generator: Adobe Illustrator 21.0.0, SVG Export Plug-In . SVG Version: 6.00 Build 0)  -->
<svg version="1.1" id="Capa_1" xmlns="http://www.w3.org/2000/svg" xmlns:xlink="http://www.w3.org/1999/xlink" x="0px" y="0px"
	 viewBox="0 0 493.522 493.522" style="enable-background:new 0 0 493.522 493.522;" xml:space="preserve">
<g>
	<g>
		<path style="fill:#FFE056;" d="M441.206,57.857H238.309c-9.274,0-16.861,7.588-16.861,16.861s7.588,16.861,16.861,16.861h202.897
			c9.274,0,16.861-7.588,16.861-16.861S450.479,57.857,441.206,57.857z"/>
	</g>
	<g>
		<ellipse style="fill:#FFD5CC;" cx="339.757" cy="50.427" rx="26.371" ry="37.974"/>
	</g>
	<g>
		<path style="fill:#FFF4F1;" d="M322.485,80.999h133.083c16.806,0,30.43,13.624,30.43,30.43v344.875
			c0,16.806-13.624,30.43-30.43,30.43H214.59c-16.806,0-30.43-13.624-30.43-30.43V111.429c0-16.806,13.624-30.43,30.43-30.43
			H322.485"/>
	</g>
	<g>
		<path style="fill:#FC9086;" d="M424.566,440.856H258.762c-11.468,0-20.765-9.297-20.765-20.765V407.62
			c0-11.468,9.297-20.764,20.765-20.764h165.804c11.468,0,20.764,9.297,20.764,20.764v12.471
			C445.331,431.559,436.034,440.856,424.566,440.856z"/>
	</g>
	<g>
		<path style="fill:#E3DED9;" d="M362.78,183.504H262.548c-14.111,0-25.551-11.439-25.551-25.551v0
			c0-14.111,11.439-25.551,25.551-25.551H362.78c14.111,0,25.551,11.439,25.551,25.551v0
			C388.331,172.064,376.891,183.504,362.78,183.504z"/>
	</g>
	<path style="fill:#F57A73;" d="M424.566,386.855h-30c11.468,0,20.765,9.297,20.765,20.765v12.471
		c0,11.468-9.297,20.764-20.765,20.764h30c11.468,0,20.765-9.297,20.765-20.764V407.62
		C445.331,396.152,436.034,386.855,424.566,386.855z"/>
	<path style="fill:#D0CFD1;" d="M362.78,132.402h-30c14.111,0,25.551,11.439,25.551,25.551v0c0,14.111-11.439,25.551-25.551,25.551
		h30c14.111,0,25.551-11.439,25.551-25.551v0C388.331,143.842,376.891,132.402,362.78,132.402z"/>
	<g>
		<path style="fill:#E3DED9;" d="M455.567,80.999h-30c16.806,0,30.43,13.624,30.43,30.43v344.875c0,16.806-13.624,30.43-30.43,30.43
			h30c16.806,0,30.43-13.624,30.43-30.43V111.429C485.998,94.623,472.373,80.999,455.567,80.999z"/>
	</g>
	<g>
		<path style="fill:#E3DED9;" d="M374.246,232.689H236.745c-4.143,0-7.5-3.358-7.5-7.5s3.357-7.5,7.5-7.5h137.501
			c4.143,0,7.5,3.358,7.5,7.5S378.389,232.689,374.246,232.689z"/>
	</g>
	<g>
		<path style="fill:#E3DED9;" d="M441.412,274.689H236.745c-4.143,0-7.5-3.358-7.5-7.5s3.357-7.5,7.5-7.5h204.667
			c4.143,0,7.5,3.358,7.5,7.5S445.555,274.689,441.412,274.689z"/>
	</g>
	<g>
		<path style="fill:#E3DED9;" d="M441.412,316.689H236.745c-4.143,0-7.5-3.358-7.5-7.5s3.357-7.5,7.5-7.5h204.667
			c4.143,0,7.5,3.358,7.5,7.5S445.555,316.689,441.412,316.689z"/>
	</g>
	<g>
		<path style="fill:#E3DED9;" d="M441.412,358.689H236.745c-4.143,0-7.5-3.358-7.5-7.5s3.357-7.5,7.5-7.5h204.667
			c4.143,0,7.5,3.358,7.5,7.5S445.555,358.689,441.412,358.689z"/>
	</g>
	<g>
		<path style="fill:#F86654;" d="M368.321,413.852c0-4.14,3.35-7.5,7.5-7.5l0,0c4.14,0,7.5,3.36,7.5,7.5l0,0
			c0,4.15-3.36,7.5-7.5,7.5l0,0C371.671,421.352,368.321,418.002,368.321,413.852z M336.321,413.852c0-4.14,3.359-7.5,7.5-7.5l0,0
			c4.14,0,7.5,3.36,7.5,7.5l0,0c0,4.15-3.36,7.5-7.5,7.5l0,0C339.681,421.352,336.321,418.002,336.321,413.852z M304.321,413.852
			c0-4.14,3.359-7.5,7.5-7.5l0,0c4.14,0,7.5,3.36,7.5,7.5l0,0c0,4.15-3.36,7.5-7.5,7.5l0,0
			C307.681,421.352,304.321,418.002,304.321,413.852z"/>
	</g>
	<g>
		<path style="fill:#E3DED9;" d="M65.579,63.587c-2.93-2.929-7.678-2.929-10.607,0l-3.806,3.806l-3.806-3.806
			c-2.93-2.929-7.678-2.929-10.607,0c-2.929,2.929-2.929,7.678,0,10.606L40.559,78l-3.806,3.806c-2.929,2.929-2.929,7.678,0,10.606
			c1.465,1.464,3.385,2.197,5.304,2.197s3.839-0.732,5.304-2.197l3.806-3.806l3.806,3.806c1.465,1.464,3.385,2.197,5.304,2.197
			s3.839-0.732,5.304-2.197c2.929-2.929,2.929-7.678,0-10.606L61.773,78l3.806-3.806C68.508,71.265,68.508,66.516,65.579,63.587z"/>
		<path style="fill:#E3DED9;" d="M185.563,16.609l3.806-3.806c2.929-2.929,2.929-7.678,0-10.606c-2.93-2.929-7.678-2.929-10.607,0
			l-3.806,3.806l-3.806-3.806c-2.93-2.929-7.678-2.929-10.607,0c-2.929,2.929-2.929,7.678,0,10.606l3.806,3.806l-3.806,3.806
			c-2.929,2.929-2.929,7.678,0,10.606c1.465,1.464,3.385,2.197,5.304,2.197s3.839-0.732,5.304-2.197l3.806-3.806l3.806,3.806
			c1.465,1.464,3.385,2.197,5.304,2.197s3.839-0.732,5.304-2.197c2.929-2.929,2.929-7.678,0-10.606L185.563,16.609z"/>
	</g>
	<g>
		<g>
			<ellipse style="fill:#FFD5CC;" cx="110.46" cy="171.213" rx="25.633" ry="36.912"/>
		</g>
		<g>
			<path style="fill:#BE7511;" d="M37.193,464.924c-5.477,0.001-10.879-2.519-14.367-7.274c-5.813-7.927-4.1-19.066,3.826-24.88
				l63.792-46.78l-10.149-44.61c-0.144-9.829,6.519-19.101,16.348-19.245c9.806-0.159,28.592,8.894,28.738,18.723l0.79,53.794
				c0.086,5.761-2.624,11.207-7.27,14.615l-71.197,52.211C44.533,463.803,40.845,464.924,37.193,464.924z"/>
		</g>
		<g>
			<path style="fill:#B4B4B4;" d="M45.701,485.918c2.981,2.981,8.054,2.414,10.137-1.251c7.186-12.637,5.395-28.99-5.382-39.768
				c-10.778-10.778-27.131-12.568-39.768-5.382c-3.664,2.084-4.231,7.156-1.251,10.137L45.701,485.918z"/>
		</g>
		<g>
			<path style="fill:#FFE056;" d="M233.932,222.543H109.979c-0.619-0.032-1.242-0.048-1.869-0.048
				c-19.971,0-36.31,16.339-36.31,36.31v74.964l36.708,10.795l35.912-10.795v-74.964c0-1.175-0.061-2.336-0.172-3.482h89.683
				c9.014,0,16.39-7.376,16.39-16.39l0,0C250.321,229.918,242.946,222.543,233.932,222.543z"/>
		</g>
		<g>
			<path style="fill:#F9CD45;" d="M112.036,333.769l-16.214,4.874h32.384l16.214-4.874v-74.964c0-1.175-0.061-2.336-0.172-3.482
				h-28.824c-1.895,0-3.39,1.553-3.388,3.447c0,0.012,0,0.023,0,0.035V333.769z"/>
			<path style="fill:#F9CD45;" d="M233.932,222.543h-32.384c9.014,0,16.39,7.376,16.39,16.39c0,9.014-7.375,16.39-16.39,16.39
				h32.384c9.014,0,16.39-7.376,16.39-16.39C250.321,229.919,242.946,222.543,233.932,222.543z"/>
		</g>
		<g>
			<path style="fill:#DC8839;" d="M144.421,333.769l46.204,43.778l1.479,1.312c2.994,2.655,4.572,6.339,4.682,10.024l1.628,72.939
				c0.22,8.394-6.478,15.375-14.961,15.592c-8.482,0.218-15.537-6.411-15.757-14.804c-0.007-0.246-9.414-65.01-9.414-65.01
				l-68.974-37.225c-10.702-4.948-18.183-15.606-17.506-26.607"/>
		</g>
		<g>
			<path style="fill:#B4B4B4;" d="M214.41,493.522c4.267,0,7.405-4.065,6.258-8.174c-3.895-13.954-16.695-24.193-31.892-24.193
				c-15.198,0-27.997,10.238-31.892,24.193c-1.147,4.109,1.991,8.174,6.258,8.174H214.41z"/>
		</g>
	</g>
</g>
<g>
</g>
<g>
</g>
<g>
</g>
<g>
</g>
<g>
</g>
<g>
</g>
<g>
</g>
<g>
</g>
<g>
</g>
<g>
</g>
<g>
</g>
<g>
</g>
<g>
</g>
<g>
</g>
<g>
</g>
</svg>
