<?xml version="1.0" encoding="iso-8859-1"?>
<!-- Generator: Adobe Illustrator 21.0.0, SVG Export Plug-In . SVG Version: 6.00 Build 0)  -->
<svg version="1.1" id="Capa_1" xmlns="http://www.w3.org/2000/svg" xmlns:xlink="http://www.w3.org/1999/xlink" x="0px" y="0px"
	 viewBox="0 0 506.366 506.366" style="enable-background:new 0 0 506.366 506.366;" xml:space="preserve">
<g>
	<g>
		<path style="fill:#9A9999;" d="M261.861,481.693h52.427c53.655,0,97.151-43.496,97.151-97.151V133.909H261.861V481.693z"/>
	</g>
	<g>
		<path style="fill:#81807F;" d="M381.438,133.909v250.634c0,53.655-43.496,97.15-97.151,97.15h30
			c53.655,0,97.151-43.496,97.151-97.15V133.909H381.438z"/>
	</g>
	<g>
		<path style="fill:#696867;" d="M223.274,441.693l-52.427,40c-53.655,0-97.151-43.496-97.151-97.151V78.909c0-8.284,6.716-15,15-15
			h134.577V441.693z"/>
	</g>
	<g>
		<path style="fill:#B4B4B4;" d="M319.841,481.693H170.264V39.673c0-8.284,6.716-15,15-15h119.577c8.284,0,15,6.716,15,15V481.693z"
			/>
	</g>
	<g>
		<rect x="170.264" y="360.004" style="fill:#FFF4F1;" width="149.577" height="121.688"/>
	</g>
	<g>
		<rect x="246.244" y="360.004" style="fill:#EBE7E4;" width="73.597" height="121.688"/>
	</g>
	<g>
		<rect x="289.841" y="360.004" style="fill:#E3DED9;" width="30" height="121.688"/>
	</g>
	<g>
		<ellipse style="fill:#FFD5CC;" cx="82.025" cy="383.041" rx="15.676" ry="19.866"/>
	</g>
	<g>
		<path style="fill:#18191B;" d="M82.025,410.406c-12.779,0-23.176-12.276-23.176-27.366s10.397-27.366,23.176-27.366
			s23.176,12.276,23.176,27.366S94.805,410.406,82.025,410.406z M82.025,370.675c-4.355,0-8.176,5.778-8.176,12.366
			s3.821,12.366,8.176,12.366s8.176-5.778,8.176-12.366S86.381,370.675,82.025,370.675z"/>
	</g>
	<g>
		<path style="fill:#9A9999;" d="M138.551,117.667h-35.036c-4.142,0-7.5-3.358-7.5-7.5s3.358-7.5,7.5-7.5h35.036
			c4.142,0,7.5,3.358,7.5,7.5S142.693,117.667,138.551,117.667z"/>
	</g>
	<g>
		<path style="fill:#9A9999;" d="M138.551,153.614h-8.036c-4.142,0-7.5-3.358-7.5-7.5s3.358-7.5,7.5-7.5h8.036
			c4.142,0,7.5,3.358,7.5,7.5S142.693,153.614,138.551,153.614z"/>
	</g>
	<g>
		<path style="fill:#9A9999;" d="M138.551,189.562h-18.036c-4.142,0-7.5-3.358-7.5-7.5s3.358-7.5,7.5-7.5h18.036
			c4.142,0,7.5,3.358,7.5,7.5S142.693,189.562,138.551,189.562z"/>
	</g>
	<g>
		<path style="fill:#9A9999;" d="M138.551,225.509h-28.036c-4.142,0-7.5-3.358-7.5-7.5s3.358-7.5,7.5-7.5h28.036
			c4.142,0,7.5,3.358,7.5,7.5S142.693,225.509,138.551,225.509z"/>
	</g>
	<g>
		<path style="fill:#9A9999;" d="M138.551,261.457h-28.036c-4.142,0-7.5-3.358-7.5-7.5s3.358-7.5,7.5-7.5h28.036
			c4.142,0,7.5,3.358,7.5,7.5S142.693,261.457,138.551,261.457z"/>
	</g>
	<g>
		<path style="fill:#9A9999;" d="M138.551,297.404h-28.036c-4.142,0-7.5-3.358-7.5-7.5s3.358-7.5,7.5-7.5h28.036
			c4.142,0,7.5,3.358,7.5,7.5S142.693,297.404,138.551,297.404z"/>
	</g>
	<g>
		<path style="fill:#9A9999;" d="M138.551,333.352h-28.036c-4.142,0-7.5-3.358-7.5-7.5s3.358-7.5,7.5-7.5h28.036
			c4.142,0,7.5,3.358,7.5,7.5S142.693,333.352,138.551,333.352z"/>
	</g>
	<g>
		<g>
			<path style="fill:#B4B4B4;" d="M369.939,222.671h-28.036c-4.142,0-7.5-3.358-7.5-7.5s3.358-7.5,7.5-7.5h28.036
				c4.142,0,7.5,3.358,7.5,7.5S374.081,222.671,369.939,222.671z"/>
		</g>
		<g>
			<path style="fill:#B4B4B4;" d="M369.939,258.619h-28.036c-4.142,0-7.5-3.358-7.5-7.5s3.358-7.5,7.5-7.5h28.036
				c4.142,0,7.5,3.358,7.5,7.5S374.081,258.619,369.939,258.619z"/>
		</g>
		<g>
			<path style="fill:#B4B4B4;" d="M369.939,294.566h-28.036c-4.142,0-7.5-3.358-7.5-7.5s3.358-7.5,7.5-7.5h28.036
				c4.142,0,7.5,3.358,7.5,7.5S374.081,294.566,369.939,294.566z"/>
		</g>
		<g>
			<path style="fill:#B4B4B4;" d="M369.939,330.513h-28.036c-4.142,0-7.5-3.358-7.5-7.5s3.358-7.5,7.5-7.5h28.036
				c4.142,0,7.5,3.358,7.5,7.5S374.081,330.513,369.939,330.513z"/>
		</g>
		<g>
			<path style="fill:#B4B4B4;" d="M359.939,366.461h-18.036c-4.142,0-7.5-3.358-7.5-7.5s3.358-7.5,7.5-7.5h18.036
				c4.142,0,7.5,3.358,7.5,7.5S364.081,366.461,359.939,366.461z"/>
		</g>
	</g>
	<g>
		<g>
			<path style="fill:#9A9999;" d="M230.311,81.72h-28.036c-4.142,0-7.5-3.358-7.5-7.5s3.358-7.5,7.5-7.5h28.036
				c4.142,0,7.5,3.358,7.5,7.5S234.453,81.72,230.311,81.72z"/>
		</g>
		<g>
			<path style="fill:#9A9999;" d="M289.357,81.72h-28.037c-4.142,0-7.5-3.358-7.5-7.5s3.358-7.5,7.5-7.5h28.037
				c4.142,0,7.5,3.358,7.5,7.5S293.499,81.72,289.357,81.72z"/>
		</g>
		<g>
			<path style="fill:#9A9999;" d="M230.311,120.376h-28.036c-4.142,0-7.5-3.358-7.5-7.5s3.358-7.5,7.5-7.5h28.036
				c4.142,0,7.5,3.358,7.5,7.5S234.453,120.376,230.311,120.376z"/>
		</g>
		<g>
			<path style="fill:#9A9999;" d="M289.357,120.376h-28.037c-4.142,0-7.5-3.358-7.5-7.5s3.358-7.5,7.5-7.5h28.037
				c4.142,0,7.5,3.358,7.5,7.5S293.499,120.376,289.357,120.376z"/>
		</g>
		<g>
			<path style="fill:#9A9999;" d="M230.311,159.031h-28.036c-4.142,0-7.5-3.358-7.5-7.5s3.358-7.5,7.5-7.5h28.036
				c4.142,0,7.5,3.358,7.5,7.5S234.453,159.031,230.311,159.031z"/>
		</g>
		<g>
			<path style="fill:#9A9999;" d="M289.357,159.031h-28.037c-4.142,0-7.5-3.358-7.5-7.5s3.358-7.5,7.5-7.5h28.037
				c4.142,0,7.5,3.358,7.5,7.5S293.499,159.031,289.357,159.031z"/>
		</g>
		<g>
			<path style="fill:#9A9999;" d="M230.311,197.688h-28.036c-4.142,0-7.5-3.358-7.5-7.5s3.358-7.5,7.5-7.5h28.036
				c4.142,0,7.5,3.358,7.5,7.5S234.453,197.688,230.311,197.688z"/>
		</g>
		<g>
			<path style="fill:#9A9999;" d="M289.357,197.688h-28.037c-4.142,0-7.5-3.358-7.5-7.5s3.358-7.5,7.5-7.5h28.037
				c4.142,0,7.5,3.358,7.5,7.5S293.499,197.688,289.357,197.688z"/>
		</g>
		<g>
			<path style="fill:#9A9999;" d="M230.311,236.343h-28.036c-4.142,0-7.5-3.358-7.5-7.5s3.358-7.5,7.5-7.5h28.036
				c4.142,0,7.5,3.358,7.5,7.5S234.453,236.343,230.311,236.343z"/>
		</g>
		<g>
			<path style="fill:#9A9999;" d="M289.357,236.343h-28.037c-4.142,0-7.5-3.358-7.5-7.5s3.358-7.5,7.5-7.5h28.037
				c4.142,0,7.5,3.358,7.5,7.5S293.499,236.343,289.357,236.343z"/>
		</g>
		<g>
			<path style="fill:#9A9999;" d="M230.311,275h-28.036c-4.142,0-7.5-3.358-7.5-7.5s3.358-7.5,7.5-7.5h28.036
				c4.142,0,7.5,3.358,7.5,7.5S234.453,275,230.311,275z"/>
		</g>
		<g>
			<path style="fill:#9A9999;" d="M289.357,275h-28.037c-4.142,0-7.5-3.358-7.5-7.5s3.358-7.5,7.5-7.5h28.037
				c4.142,0,7.5,3.358,7.5,7.5S293.499,275,289.357,275z"/>
		</g>
		<g>
			<path style="fill:#9A9999;" d="M230.311,313.655h-28.036c-4.142,0-7.5-3.358-7.5-7.5s3.358-7.5,7.5-7.5h28.036
				c4.142,0,7.5,3.358,7.5,7.5S234.453,313.655,230.311,313.655z"/>
		</g>
		<g>
			<path style="fill:#9A9999;" d="M289.357,313.655h-28.037c-4.142,0-7.5-3.358-7.5-7.5s3.358-7.5,7.5-7.5h28.037
				c4.142,0,7.5,3.358,7.5,7.5S293.499,313.655,289.357,313.655z"/>
		</g>
	</g>
	<g>
		<path style="fill:#D0CFD1;" d="M274.086,429.796c-4.142,0-7.5-3.358-7.5-7.5V408.74c0-4.142,3.358-7.5,7.5-7.5s7.5,3.358,7.5,7.5
			v13.556C281.586,426.438,278.228,429.796,274.086,429.796z"/>
	</g>
	<g>
		<path style="fill:#D0CFD1;" d="M214.086,429.796c-4.142,0-7.5-3.358-7.5-7.5V408.74c0-4.142,3.358-7.5,7.5-7.5s7.5,3.358,7.5,7.5
			v13.556C221.586,426.438,218.228,429.796,214.086,429.796z"/>
	</g>
	<g>
		<g>
			<path style="fill:#FFF4F1;" d="M463.406,441.695c-8.315-14.338-24.364-39.023-42.809-39.023
				c-18.494,0-34.582,24.737-42.878,39.138c-0.501,0.869-0.893,1.757-1.185,2.651c11.084,9.896,25.819,15.93,41.994,15.93
				C436.155,460.391,452.062,453.215,463.406,441.695z"/>
		</g>
		<path style="fill:#E3DED9;" d="M420.402,402.772c-3.868,0.026-7.621,1.145-11.216,3.012c4.556,2.292,8.875,5.791,12.856,9.857
			c14.248,14.553,6.97,39.381-12.953,43.611c-0.54,0.115-1.084,0.223-1.629,0.324c3.657,0.628,7.42,0.954,11.266,0.928
			c17.626-0.12,33.484-7.404,44.749-19C455.062,427.223,438.846,402.647,420.402,402.772z"/>
		<g>
			<path style="fill:#FC9086;" d="M420.597,417.643c18.445,0,34.493,9.714,42.809,24.052c10.828-10.996,17.501-25.948,17.501-42.436
				c0-33.762-27.928-61.132-62.378-61.132s-62.378,27.37-62.378,61.132c0,17.911,7.861,34.021,20.384,45.202
				c0.292-0.894,0.684-1.781,1.185-2.651C386.015,427.408,402.103,417.643,420.597,417.643z"/>
		</g>
		<g>
			<path style="fill:#F57A73;" d="M418.529,338.126c-3.019,0-5.986,0.215-8.89,0.621c30.239,4.229,53.488,29.707,53.488,60.511
				c0,11.426-3.206,22.113-8.777,31.258c3.581,3.256,6.646,7.021,9.057,11.178c10.828-10.996,17.501-25.948,17.501-42.436
				C480.907,365.496,452.979,338.126,418.529,338.126z"/>
		</g>
		<g>
			<ellipse style="fill:#FFD5CC;" cx="419.653" cy="379.497" rx="14.618" ry="18.525"/>
		</g>
	</g>
	<g>
		<g>
			<path style="fill:#FFF4F1;" d="M481.78,188.168c-11.682-20.142-34.228-54.821-60.14-54.821
				c-25.981,0-48.582,34.751-60.236,54.983c-0.704,1.221-1.254,2.468-1.664,3.724c15.571,13.902,36.272,22.379,58.995,22.379
				C443.497,214.433,465.843,204.352,481.78,188.168z"/>
		</g>
		<path style="fill:#E3DED9;" d="M421.366,133.488c-5.434,0.037-10.706,1.608-15.757,4.232c6.4,3.219,12.469,8.136,18.061,13.848
			c20.017,20.444,9.792,55.325-18.196,61.266c-0.759,0.161-1.522,0.313-2.289,0.455c5.138,0.882,10.424,1.34,15.826,1.303
			c24.762-0.168,47.039-10.401,62.866-26.693C470.058,167.838,447.277,133.312,421.366,133.488z"/>
		<g>
			<path style="fill:#FFE056;" d="M421.64,154.379c25.912,0,48.458,13.647,60.14,33.789c15.212-15.447,24.585-36.453,24.585-59.616
				c0-47.431-39.234-85.881-87.631-85.881s-87.631,38.45-87.631,85.881c0,25.161,11.043,47.794,28.636,63.501
				c0.41-1.256,0.961-2.503,1.664-3.724C373.059,168.098,395.659,154.379,421.64,154.379z"/>
		</g>
		<g>
			<path style="fill:#F9CD45;" d="M418.735,42.671c-4.241,0-8.409,0.302-12.489,0.872c42.48,5.942,75.142,41.734,75.142,85.009
				c0,16.052-4.504,31.065-12.331,43.913c5.031,4.574,9.337,9.863,12.724,15.703c15.212-15.447,24.585-36.453,24.585-59.616
				C506.366,81.121,467.132,42.671,418.735,42.671z"/>
		</g>
		<g>
			<ellipse style="fill:#FFD5CC;" cx="420.315" cy="100.79" rx="20.535" ry="26.024"/>
		</g>
	</g>
	<g>
		<g>
			<path style="fill:#FFF4F1;" d="M112.739,199.814c-8.741-15.071-25.61-41.019-44.998-41.019c-19.44,0-36.35,26.002-45.07,41.14
				c-0.526,0.914-0.939,1.846-1.245,2.786c11.65,10.402,27.14,16.745,44.141,16.745C84.095,219.466,100.815,211.923,112.739,199.814
				z"/>
		</g>
		<path style="fill:#E3DED9;" d="M67.536,158.901c-4.066,0.028-8.011,1.203-11.79,3.166c4.789,2.409,9.329,6.087,13.514,10.361
			c14.977,15.297,7.326,41.395-13.615,45.841c-0.568,0.121-1.139,0.234-1.713,0.34c3.844,0.66,7.8,1.003,11.842,0.975
			c18.527-0.126,35.196-7.782,47.037-19.972C103.968,184.602,86.923,158.77,67.536,158.901z"/>
		<g>
			<path style="fill:#9DDBDF;" d="M67.742,174.532c19.388,0,36.257,10.211,44.998,25.282c11.382-11.558,18.395-27.275,18.395-44.606
				c0-35.489-29.356-64.258-65.567-64.258S0,119.72,0,155.208c0,18.826,8.263,35.761,21.426,47.513
				c0.307-0.94,0.719-1.873,1.245-2.786C31.391,184.797,48.302,174.532,67.742,174.532z"/>
		</g>
		<g>
			<path style="fill:#9DDBDF;" d="M65.567,90.95c-3.173,0-6.292,0.226-9.345,0.653c31.785,4.446,56.223,31.226,56.223,63.605
				c0,12.01-3.37,23.244-9.226,32.857c3.764,3.422,6.986,7.38,9.52,11.749c11.382-11.558,18.395-27.275,18.395-44.606
				C131.135,119.72,101.779,90.95,65.567,90.95z"/>
		</g>
		<g>
			<ellipse style="fill:#FFD5CC;" cx="66.75" cy="134.436" rx="15.365" ry="19.472"/>
		</g>
	</g>
	<g>
		<g>
			<path style="fill:#FFF4F1;" d="M125.739,446.789c-8.741-15.071-25.61-41.019-44.998-41.019c-19.44,0-36.35,26.002-45.07,41.14
				c-0.526,0.914-0.939,1.846-1.245,2.786c11.65,10.402,27.14,16.745,44.141,16.745C97.095,466.441,113.815,458.898,125.739,446.789
				z"/>
		</g>
		<path style="fill:#E3DED9;" d="M80.536,405.876c-4.066,0.028-8.011,1.203-11.79,3.166c4.789,2.409,9.329,6.087,13.514,10.361
			c14.977,15.297,7.326,41.395-13.615,45.841c-0.568,0.121-1.139,0.234-1.713,0.34c3.844,0.66,7.8,1.003,11.842,0.975
			c18.527-0.126,35.196-7.782,47.037-19.972C116.968,431.577,99.923,405.744,80.536,405.876z"/>
		<g>
			<path style="fill:#5E8EE1;" d="M80.742,421.507c19.388,0,36.257,10.211,44.998,25.282c11.382-11.558,18.395-27.275,18.395-44.606
				c0-35.489-29.356-64.258-65.567-64.258S13,366.694,13,402.183c0,18.826,8.263,35.761,21.426,47.513
				c0.307-0.94,0.719-1.873,1.245-2.786C44.391,431.772,61.302,421.507,80.742,421.507z"/>
		</g>
		<g>
			<path style="fill:#467BFF;" d="M78.567,337.925c-3.173,0-6.292,0.226-9.345,0.653c31.785,4.446,56.223,31.226,56.223,63.605
				c0,12.01-3.37,23.244-9.226,32.857c3.764,3.422,6.986,7.38,9.52,11.749c11.382-11.558,18.395-27.275,18.395-44.606
				C144.135,366.694,114.779,337.925,78.567,337.925z"/>
		</g>
		<g>
			<ellipse style="fill:#FFD5CC;" cx="79.75" cy="381.411" rx="15.365" ry="19.472"/>
		</g>
	</g>
</g>
<g>
</g>
<g>
</g>
<g>
</g>
<g>
</g>
<g>
</g>
<g>
</g>
<g>
</g>
<g>
</g>
<g>
</g>
<g>
</g>
<g>
</g>
<g>
</g>
<g>
</g>
<g>
</g>
<g>
</g>
</svg>
