<?xml version="1.0" encoding="iso-8859-1"?>
<!-- Generator: Adobe Illustrator 21.0.0, SVG Export Plug-In . SVG Version: 6.00 Build 0)  -->
<svg version="1.1" id="Capa_1" xmlns="http://www.w3.org/2000/svg" xmlns:xlink="http://www.w3.org/1999/xlink" x="0px" y="0px"
	 viewBox="0 0 484.47 484.47" style="enable-background:new 0 0 484.47 484.47;" xml:space="preserve">
<g>
	<g>
		<g>
			<path style="fill:#2970D6;" d="M31.724,452.522c-5.866,0.001-11.653-2.698-15.389-7.792c-6.226-8.491-4.391-20.422,4.098-26.649
				l68.329-50.107l-10.871-47.783c-0.154-10.528,6.983-20.459,17.511-20.614c10.503-0.17,30.626,9.526,30.782,20.054l0.847,57.619
				c0.092,6.171-2.81,12.004-7.787,15.654l-76.26,55.924C39.586,451.321,35.637,452.522,31.724,452.522z"/>
		</g>
		<g>
			<path style="fill:#5E8EE1;" d="M202.666,371.074c-0.118-3.947-1.808-7.893-5.015-10.737l-1.584-1.405l-56.363-57.458H71.561
				c-0.059,0.121-0.125,0.238-0.182,0.36c-7,14.825,1.185,31.779,16.166,38.706l73.879,39.872l-0.301,0.898l10.385,67.891
				c-0.006,0.261-0.007,0.58,0,0.844c0.235,8.991,7.792,16.09,16.877,15.857s16.26-7.71,16.025-16.701L202.666,371.074z"/>
		</g>
		<g>
			<path style="fill:#B4B4B4;" d="M218.215,479.154c4.611,0,8.012-4.396,6.762-8.834c-4.198-14.907-17.888-25.834-34.138-25.834
				c-16.25,0-29.94,10.928-34.138,25.834c-1.25,4.439,2.151,8.834,6.762,8.834H218.215z"/>
		</g>
		<g>
			<path style="fill:#B4B4B4;" d="M40.774,469.108c3.261,3.261,8.774,2.557,11.028-1.465c7.572-13.509,5.619-30.917-5.872-42.407
				c-11.49-11.49-28.897-13.443-42.407-5.872c-4.022,2.255-4.726,7.768-1.465,11.028L40.774,469.108z"/>
		</g>
		<g>
			<path style="fill:#9DDBDF;" d="M235.52,122.909L235.52,122.909c-6.827-6.827-17.999-6.827-24.827,0l-78.612,78.612
				c-6.685-5.412-15.176-8.669-24.396-8.669c-21.391,0-38.892,17.501-38.892,38.892v76.827h77.784v-71.893l88.942-88.942
				C242.347,140.909,242.347,129.737,235.52,122.909z"/>
		</g>
		<g>
			<path style="fill:#7CD6E6;" d="M235.686,123.078c-6.827-7.012-18.408-6.753-25.328,0.167l-2.529,2.529
				c4.397,6.795,3.631,16.022-2.309,21.963l-67.659,67.659c-13.627,13.627-21.283,32.11-21.283,51.382v41.794h30v-71.893
				l88.942-88.942C242.291,140.965,242.346,129.919,235.686,123.078z"/>
		</g>
		<g>
			<ellipse style="fill:#FFD5CC;" cx="107.889" cy="129.174" rx="27.456" ry="39.537"/>
		</g>
		<g>
			<g>
				<path style="fill:#FFD5CC;" d="M242.217,97.065L242.217,97.065c-0.095-5.805-6.188-9.671-11.403-7.118
					c-10.457,5.12-17.579,15.945-17.377,28.358c0.219,13.447,8.969,24.751,21.01,28.846c3.015,1.026,6.096-0.369,7.578-2.876
					c0.132-0.224,0.192-0.484,0.192-0.744V97.065z"/>
			</g>
		</g>
	</g>
	<g>
		<g>
			<path style="fill:#2970D6;" d="M452.746,452.522c5.866,0.001,11.653-2.698,15.389-7.792c6.226-8.491,4.391-20.422-4.098-26.649
				l-68.329-50.107l10.871-47.783c0.154-10.528-6.983-20.459-17.511-20.614c-10.503-0.17-30.626,9.526-30.782,20.054l-0.846,57.619
				c-0.092,6.171,2.81,12.004,7.787,15.654l76.26,55.924C444.884,451.321,448.833,452.522,452.746,452.522z"/>
		</g>
		<g>
			<path style="fill:#5E8EE1;" d="M281.804,371.074c0.118-3.947,1.808-7.893,5.015-10.737l1.584-1.405l56.363-57.458h68.143
				c0.059,0.121,0.125,0.238,0.182,0.36c7,14.825-1.185,31.779-16.166,38.706l-73.879,39.872l0.301,0.898L312.963,449.2
				c0.006,0.261,0.007,0.58,0,0.844c-0.235,8.991-7.792,16.09-16.877,15.857s-16.26-7.71-16.025-16.701L281.804,371.074z"/>
		</g>
		<g>
			<path style="fill:#B4B4B4;" d="M266.255,479.154c-4.611,0-8.012-4.396-6.762-8.834c4.198-14.907,17.888-25.834,34.138-25.834
				c16.25,0,29.94,10.928,34.138,25.834c1.25,4.439-2.151,8.834-6.762,8.834H266.255z"/>
		</g>
		<g>
			<path style="fill:#B4B4B4;" d="M443.696,469.108c-3.261,3.261-8.774,2.557-11.028-1.465c-7.572-13.509-5.619-30.917,5.872-42.407
				c11.49-11.49,28.897-13.443,42.407-5.872c4.022,2.255,4.726,7.768,1.465,11.028L443.696,469.108z"/>
		</g>
		<g>
			<path style="fill:#FC9086;" d="M248.95,122.909L248.95,122.909c6.827-6.827,17.999-6.827,24.827,0l78.612,78.612
				c6.684-5.412,15.176-8.669,24.396-8.669c21.391,0,38.892,17.501,38.892,38.892v76.827h-77.784v-71.893l-88.942-88.942
				C242.123,140.909,242.123,129.737,248.95,122.909z"/>
		</g>
		<g>
			<path style="fill:#F57A73;" d="M340.408,193.387c1.128-0.188,2.273-0.327,3.431-0.415l-69.677-69.677
				c-5.393-5.393-13.642-7.024-20.509-3.708c-3.117,1.505-5.396,3.69-7.012,6.187l55.538,55.538
				C312.194,191.326,326.438,195.717,340.408,193.387z"/>
			<path style="fill:#F57A73;" d="M376.785,192.853c-5.307,0-10.371,1.084-14.99,3.033c13.994,5.903,23.882,19.782,23.882,35.859
				v76.827h30v-76.827C415.677,210.354,398.175,192.853,376.785,192.853z"/>
		</g>
		<g>
			<ellipse style="fill:#FFD5CC;" cx="376.581" cy="129.174" rx="27.456" ry="39.537"/>
		</g>
		<g>
			<g>
				<path style="fill:#FFD5CC;" d="M242.253,97.065L242.253,97.065c0.095-5.805,6.188-9.671,11.403-7.118
					c10.457,5.12,17.579,15.945,17.377,28.358c-0.219,13.447-8.969,24.751-21.01,28.846c-3.015,1.026-6.096-0.369-7.578-2.876
					c-0.132-0.224-0.192-0.484-0.192-0.744l-10-27.235L242.253,97.065z"/>
			</g>
		</g>
	</g>
	<g>
		<path style="fill:#E3DED9;" d="M188.643,51.203c-2.928-2.929-7.677-2.929-10.606,0l-3.806,3.806l-3.806-3.806
			c-2.929-2.93-7.678-2.929-10.606,0c-2.929,2.929-2.929,7.678,0,10.606l3.806,3.806l-3.806,3.806
			c-2.929,2.929-2.929,7.677,0,10.606c1.464,1.465,3.384,2.197,5.303,2.197s3.839-0.732,5.303-2.197l3.806-3.806l3.806,3.806
			c1.464,1.465,3.384,2.197,5.303,2.197s3.839-0.732,5.303-2.197c2.929-2.929,2.929-7.678,0-10.606l-3.806-3.806l3.806-3.806
			C191.572,58.881,191.572,54.133,188.643,51.203z"/>
		<path style="fill:#E3DED9;" d="M292.897,21.925l3.806-3.806c2.929-2.929,2.929-7.678,0-10.606c-2.93-2.929-7.678-2.929-10.607,0
			l-3.806,3.806l-3.806-3.806c-2.93-2.929-7.678-2.929-10.607,0c-2.929,2.929-2.929,7.678,0,10.606l3.806,3.806l-3.806,3.806
			c-2.929,2.929-2.929,7.678,0,10.606c1.465,1.464,3.385,2.197,5.304,2.197s3.839-0.732,5.304-2.197l3.806-3.806l3.806,3.806
			c1.465,1.464,3.385,2.197,5.304,2.197s3.839-0.732,5.304-2.197c2.929-2.929,2.929-7.678,0-10.606L292.897,21.925z"/>
		<path style="fill:#E3DED9;" d="M255.053,202.911c-2.93-2.929-7.678-2.929-10.607,0l-3.806,3.806l-3.806-3.806
			c-2.929-2.929-7.678-2.929-10.606,0c-2.929,2.929-2.929,7.678,0,10.606l3.806,3.806l-3.806,3.806
			c-2.929,2.929-2.929,7.678,0,10.606c1.464,1.464,3.384,2.197,5.303,2.197s3.839-0.732,5.303-2.197l3.806-3.806l3.806,3.806
			c1.465,1.464,3.385,2.197,5.304,2.197s3.839-0.732,5.304-2.197c2.929-2.929,2.929-7.678,0-10.606l-3.806-3.806l3.806-3.806
			C257.982,210.589,257.982,205.84,255.053,202.911z"/>
	</g>
</g>
<g>
</g>
<g>
</g>
<g>
</g>
<g>
</g>
<g>
</g>
<g>
</g>
<g>
</g>
<g>
</g>
<g>
</g>
<g>
</g>
<g>
</g>
<g>
</g>
<g>
</g>
<g>
</g>
<g>
</g>
</svg>
