<?xml version="1.0" encoding="iso-8859-1"?>
<!-- Generator: Adobe Illustrator 21.0.0, SVG Export Plug-In . SVG Version: 6.00 Build 0)  -->
<svg version="1.1" id="Capa_1" xmlns="http://www.w3.org/2000/svg" xmlns:xlink="http://www.w3.org/1999/xlink" x="0px" y="0px"
	 viewBox="0 0 486.014 486.014" style="enable-background:new 0 0 486.014 486.014;" xml:space="preserve">
<g>
	<g>
		<path style="fill:#E3DED9;" d="M286.986,102.626c-1.843,0-3.69-0.675-5.139-2.039c-3.017-2.839-3.16-7.585-0.321-10.602
			l48.858-49.477c2.839-3.016,7.585-3.161,10.602-0.321c3.017,2.839,3.16,7.585,0.321,10.602l-48.858,49.477
			C290.973,101.834,288.982,102.626,286.986,102.626z"/>
	</g>
	<g>
		<path style="fill:#E3DED9;" d="M355.878,184.038c-1.353,0-2.722-0.366-3.955-1.133l-62.712-43.799
			c-3.517-2.188-4.594-6.813-2.405-10.33c2.188-3.516,6.813-4.595,10.33-2.405l62.712,43.799c3.517,2.188,4.594,6.813,2.405,10.33
			C360.832,182.783,358.383,184.038,355.878,184.038z"/>
	</g>
	<g>
		<path style="fill:#E3DED9;" d="M295.067,121.368c-3.943,0-7.248-3.077-7.48-7.064c-0.241-4.135,2.916-7.683,7.051-7.923
			L435.29,92.352c4.143-0.25,7.683,2.916,7.923,7.051c0.241,4.135-2.916,7.683-7.051,7.923L295.51,121.355
			C295.362,121.364,295.214,121.368,295.067,121.368z"/>
	</g>
	<g>
		<path style="fill:#E3DED9;" d="M436.918,81.541c-1.493,0-3-0.444-4.313-1.369L381.063,43.86
			c-3.386-2.386-4.197-7.065-1.812-10.451c2.386-3.387-0.122-9.431,3.264-7.047l62.114,43.933c3.386,2.386,0.811,4.679-1.574,8.065
			C441.595,80.433,439.274,81.541,436.918,81.541z"/>
	</g>
	<g>
		<path style="fill:#E3DED9;" d="M38.311,437.272c-0.246,0-0.494-0.012-0.745-0.037c-4.122-0.406-7.134-4.078-6.728-8.2
			l9.582-92.711c0.406-4.122,4.069-7.131,8.2-6.728c4.122,0.406,7.134,4.078,6.728,8.2l-9.582,92.711
			C45.384,434.379,42.122,437.272,38.311,437.272z"/>
	</g>
	<g>
		<path style="fill:#E3DED9;" d="M64.495,298.152c-2.504,0-4.952-1.253-6.373-3.535c-2.19-3.516-1.116-8.142,2.4-10.332
			l79.53-51.446c3.517-2.189,8.143-1.115,10.332,2.4c2.19,3.516,1.116,8.142-2.4,10.332l-79.53,51.446
			C67.219,297.785,65.849,298.152,64.495,298.152z"/>
	</g>
	<g>
		<path style="fill:#E3DED9;" d="M166.334,407.813c-4.112,0-7.463-3.315-7.498-7.436l-1.171-147.051
			c-0.036-4.142,3.293-7.528,7.436-7.563c0.021,0,0.043,0,0.065,0c4.112,0,7.463,3.315,7.498,7.436l1.171,147.051
			c0.036,4.142-3.293-2.472-7.436-2.437C166.378,397.813,166.356,407.813,166.334,407.813z"/>
	</g>
	<g>
		<path style="fill:#E3DED9;" d="M151.695,417.373c-1.96,0-3.917-0.763-5.388-2.282l-79.069-80.472
			c-2.882-2.975-2.807-7.723,0.168-10.605c2.975-2.882,7.724-2.806,10.605,0.168l79.069,80.472
			c2.882,2.975,2.807,7.723-0.168,10.605C155.456,416.671,153.574,417.373,151.695,417.373z"/>
	</g>
	<g>
		<path style="fill:#E3DED9;" d="M65.591,457.554c-3.424,0-6.516-2.359-7.307-5.839c-0.918-4.039,1.612-8.058,5.651-8.976
			l77.311-17.57c4.04-0.918,8.057,1.612,8.976,5.651c0.918,4.039-1.612,8.058-5.651,8.976l-77.311,17.57
			C66.7,457.493,66.141,457.554,65.591,457.554z"/>
	</g>
	<g>
		<path style="fill:#E3DED9;" d="M396.066,172.289c-2.219,0-4.416-0.98-5.896-2.859c-2.563-3.254-2.004-7.969,1.25-10.533
			l52.655-50.456c3.254-2.563,7.969-2.004,10.533,1.25c2.563,3.254,2.004,7.969-1.25,10.533l-52.655,50.456
			C399.327,171.763,397.691,172.289,396.066,172.289z"/>
	</g>
	<g>
		<path style="fill:#E3DED9;" d="M369.206,443.498c-0.075,0-0.149-0.001-0.225-0.003l-168.897-4.687
			c-4.14-0.122-7.398-3.577-7.276-7.717c0.119-4.065,3.453-7.279,7.493-7.279c0.075,0,0.149,0.001,0.225,0.003l159.308,4.686
			c4.14,0.122,7.398,3.577,7.276,7.717C366.99,440.282,373.246,443.498,369.206,443.498z"/>
	</g>
	<g>
		<path style="fill:#E3DED9;" d="M392.906,396.331c-3.732,0-6.965-2.783-7.434-6.582l-12.218-178.91
			c-0.508-4.111,2.413-7.855,6.524-8.363c4.107-0.51,7.854,2.413,8.363,6.524l12.218,178.91c0.508,4.111-2.413,7.855-6.524,8.363
			C393.523,396.312,393.213,396.331,392.906,396.331z"/>
	</g>
	<g>
		<path style="fill:#E3DED9;" d="M247.967,117.754c-0.571,0-1.15-0.065-1.729-0.202L60.465,74.369
			c-4.032-0.951-6.528-4.991-5.577-9.022c0.951-4.032,4.994-6.528,9.022-5.577l185.773,43.183c4.032,0.951,6.528,4.991,5.577,9.022
			C254.446,115.427,251.366,117.754,247.967,117.754z"/>
	</g>
	<g>
		<path style="fill:#E3DED9;" d="M35.555,301.874c-4,0-7.321-3.156-7.488-7.189L22.56,94.874c-0.171-4.139,3.044-7.632,7.183-7.804
			c4.131-0.185,7.632,3.044,7.804,7.183l5.507,199.81c0.171,4.139-3.044,7.632-7.183,7.804
			C35.766,301.872,35.66,301.874,35.555,301.874z"/>
	</g>
	<g>
		<path style="fill:#E3DED9;" d="M183.756,228.217c-3.776,0-7.026-2.844-7.446-6.684c-0.451-4.118,2.522-7.821,6.639-8.272
			l175.545-29.988c4.12-0.449,7.821,2.521,8.272,6.639s-2.522,7.821-6.639,8.272l-175.545,29.988
			C184.304,228.202,184.028,228.217,183.756,228.217z"/>
	</g>
	<g>
		<path style="fill:#E3DED9;" d="M189.92,411.014c-1.712,0-3.433-0.583-4.842-1.776c-3.161-2.677-3.554-7.409-0.878-10.57
			l173.958-204.362c2.676-3.16,7.408-3.555,10.57-0.878c3.161,2.677,3.554,7.409,0.878,10.57L195.648,408.36
			C194.165,410.112,192.05,411.014,189.92,411.014z"/>
	</g>
	<g>
		<path style="fill:#E3DED9;" d="M173.369,212.379c-2.244,0-4.462-1.002-5.94-2.915c-2.533-3.278-1.929-7.988,1.349-10.521
			l89.311-78.74c3.277-2.535,7.988-1.929,10.521,1.349c2.533,3.278,1.929,7.988-1.349,10.521l-89.311,78.74
			C176.585,211.868,174.97,212.379,173.369,212.379z"/>
	</g>
	<g>
		<circle style="fill:#9DDBDF;" cx="35.564" cy="455.706" r="29.845"/>
	</g>
	<g>
		<path style="fill:#7CD6E6;" d="M35.564,425.86c-4.076,0-7.96,0.82-11.5,2.299c10.774,4.503,18.345,15.139,18.345,27.546
			c0,12.407-7.572,23.043-18.345,27.546c3.54,1.479,7.424,2.299,11.5,2.299c16.483,0,29.845-13.362,29.845-29.845
			C65.409,439.222,52.047,425.86,35.564,425.86z"/>
	</g>
	<g>
		<circle style="fill:#FC9086;" cx="49.76" cy="308.83" r="29.845"/>
	</g>
	<g>
		<path style="fill:#F57A73;" d="M49.76,278.985c-4.076,0-7.96,0.82-11.5,2.299c10.774,4.503,18.345,15.139,18.345,27.546
			c0,12.407-7.572,23.043-18.345,27.546c3.54,1.479,7.424,2.299,11.5,2.299c16.483,0,29.845-13.362,29.845-29.846
			C79.605,292.347,66.243,278.985,49.76,278.985z"/>
	</g>
	<g>
		
			<ellipse transform="matrix(1 -0.0074 0.0074 1 -1.3245 2.8282)" style="fill:#FC9086;" cx="379.39" cy="179.406" rx="29.845" ry="29.845"/>
	</g>
	<g>
		<path style="fill:#F57A73;" d="M379.168,149.562c-3.996,0.03-7.8,0.849-11.273,2.3c10.696,4.474,18.248,14.997,18.339,27.322
			c0.093,12.487-7.499,23.233-18.35,27.767c3.607,1.509,7.571,2.331,11.727,2.3c16.483-0.123,29.745-13.584,29.622-30.067
			C409.112,162.701,395.651,149.439,379.168,149.562z"/>
	</g>
	<g>
		
			<ellipse transform="matrix(1 -0.0074 0.0074 1 -0.7057 3.3972)" style="fill:#9DDBDF;" cx="456.168" cy="96.53" rx="29.845" ry="29.845"/>
	</g>
	<g>
		<path style="fill:#7CD6E6;" d="M455.946,66.685c-3.996,0.03-7.8,0.85-11.273,2.3c10.696,4.474,18.247,14.997,18.339,27.322
			c0.093,12.487-7.499,23.233-18.35,27.767c3.607,1.508,7.571,2.331,11.727,2.3c16.483-0.123,29.745-13.584,29.622-30.067
			S472.429,66.563,455.946,66.685z"/>
	</g>
	<g>
		
			<ellipse transform="matrix(1 -0.0074 0.0074 1 -0.2157 2.6414)" style="fill:#FFE056;" cx="354.851" cy="30.308" rx="29.845" ry="29.845"/>
	</g>
	<g>
		<path style="fill:#F9CD45;" d="M354.629,0.464c-3.996,0.03-7.8,0.85-11.273,2.3c10.696,4.474,18.247,14.997,18.339,27.322
			c0.093,12.487-7.499,23.233-18.35,27.767c3.607,1.509,7.571,2.331,11.727,2.3c16.483-0.123,29.745-13.584,29.622-30.067
			C384.573,13.604,371.112,0.341,354.629,0.464z"/>
	</g>
	<g>
		
			<ellipse transform="matrix(1 -0.0074 0.0074 1 -0.8485 2.0429)" style="fill:#9DDBDF;" cx="274.102" cy="115.039" rx="29.845" ry="29.845"/>
	</g>
	<g>
		<path style="fill:#7CD6E6;" d="M273.88,85.195c-3.996,0.03-7.8,0.85-11.273,2.3c10.696,4.473,18.247,14.996,18.339,27.322
			c0.093,12.486-7.499,23.233-18.35,27.767c3.607,1.509,7.571,2.331,11.727,2.3c16.483-0.123,29.745-13.584,29.622-30.066
			C303.824,98.334,290.363,85.072,273.88,85.195z"/>
	</g>
	<g>
		<circle style="fill:#FFE056;" cx="162.821" cy="226.32" r="26.893"/>
	</g>
	<g>
		<circle style="fill:#5E8EE1;" cx="35.141" cy="75.212" r="35.141"/>
	</g>
	<g>
		<path style="fill:#F9CD45;" d="M162.821,199.426c-4.115,0-8.013,0.928-11.5,2.58c9.099,4.312,15.393,13.576,15.393,24.313
			s-6.295,20.002-15.393,24.313c3.487,1.652,7.385,2.58,11.5,2.58c14.853,0,26.893-12.041,26.893-26.894
			S177.674,199.426,162.821,199.426z"/>
	</g>
	<g>
		<path style="fill:#2970D6;" d="M35.141,40.071c-4.029,0-7.896,0.687-11.5,1.935c13.758,4.765,23.641,17.827,23.641,33.206
			c0,15.379-9.883,28.442-23.641,33.207c3.604,1.248,7.471,1.935,11.5,1.935c19.408,0,35.141-15.733,35.141-35.142
			C70.283,55.804,54.549,40.071,35.141,40.071z"/>
	</g>
	<g>
		<circle style="fill:#FFE056;" cx="172" cy="422.449" r="29.845"/>
	</g>
	<g>
		<path style="fill:#F9CD45;" d="M172,392.604c-4.66,0-9.07,1.07-13,2.974c9.97,4.833,16.845,15.048,16.845,26.872
			c0,11.823-6.875,22.039-16.845,26.871c3.93,1.905,8.34,2.974,13,2.974c16.483,0,29.845-13.362,29.845-29.845
			C201.845,405.966,188.483,392.604,172,392.604z"/>
	</g>
	<g>
		<circle style="fill:#9DDBDF;" cx="394.754" cy="425.454" r="35.141"/>
	</g>
	<g>
		<path style="fill:#7CD6E6;" d="M394.754,390.313c-4.029,0-7.896,0.687-11.5,1.936c13.758,4.764,23.641,17.827,23.641,33.206
			s-9.883,28.441-23.641,33.206c3.604,1.248,7.471,1.935,11.5,1.935c19.408,0,35.141-15.733,35.141-35.141
			C429.896,406.046,414.162,390.313,394.754,390.313z"/>
	</g>
</g>
<g>
</g>
<g>
</g>
<g>
</g>
<g>
</g>
<g>
</g>
<g>
</g>
<g>
</g>
<g>
</g>
<g>
</g>
<g>
</g>
<g>
</g>
<g>
</g>
<g>
</g>
<g>
</g>
<g>
</g>
</svg>
