<?xml version="1.0" encoding="iso-8859-1"?>
<!-- Generator: Adobe Illustrator 21.0.0, SVG Export Plug-In . SVG Version: 6.00 Build 0)  -->
<svg version="1.1" id="Capa_1" xmlns="http://www.w3.org/2000/svg" xmlns:xlink="http://www.w3.org/1999/xlink" x="0px" y="0px"
	 viewBox="0 0 492.365 492.365" style="enable-background:new 0 0 492.365 492.365;" xml:space="preserve">
<g>
	<g>
		<path style="fill:#5E8EE1;" d="M204.508,408.944v-65.762c0-35.027-28.658-63.685-63.685-63.685h-39.161
			c-35.027,0-63.685,28.658-63.685,63.685v65.762H204.508z"/>
	</g>
	<g>
		<path style="fill:#5E8EE1;" d="M438.669,408.944v-65.762c0-35.027-28.658-63.685-63.685-63.685h-39.161
			c-35.027,0-63.685,28.658-63.685,63.685v65.762H438.669z"/>
	</g>
	<g>
		<path style="fill:#467BFF;" d="M140.822,279.497h-30c35.027,0,63.685,28.658,63.685,63.685v65.762h30v-65.762
			C204.508,308.156,175.849,279.497,140.822,279.497z"/>
	</g>
	<g>
		<path style="fill:#467BFF;" d="M374.984,279.497h-30c35.027,0,63.685,28.658,63.685,63.685v65.762h30v-65.762
			C438.669,308.156,410.011,279.497,374.984,279.497z"/>
	</g>
	<g>
		<path style="fill:#FFD5CC;" d="M287.701,182.71l0.177,59.219c0.111,37.188,30.629,67.523,67.816,67.411h0
			c37.188-0.111,67.523-30.629,67.411-67.816l-0.176-58.814H287.701z"/>
	</g>
	<g>
		<path style="fill:#FDB4AD;" d="M422.929,182.71h-30l0.176,58.814c0.096,32.104-22.505,59.217-52.61,66.108
			c4.893,1.12,9.977,1.724,15.199,1.708h0c37.188-0.111,67.523-30.629,67.411-67.816L422.929,182.71z"/>
	</g>
	<g>
		<path style="fill:#FFD5CC;" d="M53.539,182.71l0.177,59.219c0.111,37.188,30.629,67.523,67.816,67.411h0
			c37.188-0.111,67.523-30.629,67.411-67.816l-0.176-58.814H53.539z"/>
	</g>
	<g>
		<path style="fill:#FDB4AD;" d="M188.768,182.71h-30l0.176,58.814c0.096,32.104-22.505,59.217-52.61,66.108
			c4.893,1.12,9.977,1.724,15.199,1.708h0c37.188-0.111,67.523-30.629,67.411-67.816L188.768,182.71z"/>
	</g>
	<g>
		<path style="fill:#DC8839;" d="M205.42,200.27l-0.023-7.782c-0.139-46.291-38.127-84.052-84.418-83.913h0
			c-46.291,0.139-84.052,38.127-83.913,84.418l0.022,7.278H205.42z"/>
	</g>
	<g>
		<path style="fill:#BE7511;" d="M205.396,192.488c-0.139-46.291-38.127-84.052-84.418-83.913h0
			c-5.031,0.015-9.954,0.502-14.746,1.374c39.095,7.113,69.041,41.455,69.164,82.539l0.023,7.782h30L205.396,192.488z"/>
	</g>
	<g>
		<path style="fill:#E3B569;" d="M439.581,200.27l-0.023-7.782c-0.139-46.291-38.127-84.052-84.418-83.913h0
			c-46.291,0.139-84.052,38.127-83.913,84.418l0.022,7.278H439.581z"/>
	</g>
	<g>
		<path style="fill:#CB9558;" d="M439.558,192.488c-0.139-46.291-38.127-84.052-84.418-83.913h0
			c-5.031,0.015-9.954,0.502-14.746,1.374c39.095,7.113,69.041,41.455,69.164,82.539l0.023,7.782h30L439.558,192.488z"/>
	</g>
	<g>
		<path style="fill:#E3DED9;" d="M457.439,470.927l-422.525-0.066C15.708,470.858-0.003,455.142,0,435.936l0-0.829
			c0.003-19.206,15.719-34.917,34.925-34.914l422.525,0.066c19.206,0.003,34.917,15.719,34.914,34.925l0,0.829
			C492.362,455.218,476.645,470.93,457.439,470.927z"/>
	</g>
	<g>
		<path style="fill:#D0CFD1;" d="M167.216,400.218l260.235,0.04c19.206,0.003,34.917,15.72,34.914,34.925v0.829
			c-0.003,19.145-15.62,34.813-34.742,34.91l29.816,0.005c19.206,0.003,34.922-15.708,34.925-34.915v-0.829
			c0.003-19.206-15.708-34.922-34.914-34.925"/>
	</g>
	<g>
		<path style="fill:#D0CFD1;" d="M83.462,400.2l-48.536-0.008c-0.062,0-0.122,0.004-0.183,0.005l132.474,0.021"/>
	</g>
	<g>
		<circle style="fill:#FFE056;" cx="125.339" cy="399.107" r="41.877"/>
	</g>
	<path style="fill:#FFE056;" d="M384.632,376.481c-2.308-3.399-7.14-3.866-10.045-0.961l-15.827,15.827
		c-4.675,4.675-12.253,4.675-16.928,0l-15.827-15.827c-2.905-2.905-7.737-2.437-10.045,0.961
		c-11.595,17.074-9.186,41.1,7.227,55.286c7.729,6.681,17.411,10.046,27.109,10.104c9.698-0.059,19.38-3.424,27.109-10.104
		C393.818,417.581,396.227,393.554,384.632,376.481z"/>
	<path style="fill:#E3DED9;" d="M327.347,60.414l-4.813-26.099c-0.752-4.074-4.662-6.771-8.736-6.016
		c-4.073,0.751-6.767,4.662-6.016,8.735l0.81,4.392c-21.097-13.091-45.296-19.989-70.318-19.989
		c-26.888,0-52.596,7.872-74.689,22.815l1.331-7.218c0.751-4.073-1.942-7.984-6.016-8.735c-4.076-0.754-7.984,1.942-8.736,6.016
		l-4.813,26.099c-0.413,2.24,0.215,4.546,1.706,6.269c1.427,1.649,3.498,2.591,5.669,2.591c0.097,0,0.193-0.002,0.29-0.005
		l24.911-0.962c4.14-0.16,7.365-3.645,7.205-7.784c-0.159-4.139-3.668-7.345-7.783-7.205l-0.067,0.002
		c18.37-11.063,39.241-16.882,60.992-16.882c21.756,0,42.8,5.885,61.247,17.041l-4.173-0.161c-4.12-0.142-7.623,3.067-7.783,7.205
		c-0.16,4.139,3.065,7.624,7.205,7.784l24.911,0.962c0.097,0.003,0.193,0.005,0.29,0.005c2.171,0,4.242-0.942,5.669-2.591
		C327.132,64.961,327.76,62.654,327.347,60.414z"/>
</g>
<g>
</g>
<g>
</g>
<g>
</g>
<g>
</g>
<g>
</g>
<g>
</g>
<g>
</g>
<g>
</g>
<g>
</g>
<g>
</g>
<g>
</g>
<g>
</g>
<g>
</g>
<g>
</g>
<g>
</g>
</svg>
