<?xml version="1.0" encoding="iso-8859-1"?>
<!-- Generator: Adobe Illustrator 21.0.0, SVG Export Plug-In . SVG Version: 6.00 Build 0)  -->
<svg version="1.1" id="Capa_1" xmlns="http://www.w3.org/2000/svg" xmlns:xlink="http://www.w3.org/1999/xlink" x="0px" y="0px"
	 viewBox="0 0 472.608 472.608" style="enable-background:new 0 0 472.608 472.608;" xml:space="preserve">
<g>
	<g>
		<path style="fill:#B4B4B4;" d="M145.428,432.806H25.06c-8.284,0-15-6.716-15-15V191.452h150.368l10,93.973l-10,132.381
			C160.428,426.09,153.713,432.806,145.428,432.806z"/>
	</g>
	<g>
		<path style="fill:#D0CFD1;" d="M295.797,432.806H175.428c-8.284,0-15-6.716-15-15V191.452h150.368l10,108.077l-10,118.277
			C310.797,426.09,304.081,432.806,295.797,432.806z"/>
	</g>
	<g>
		<path style="fill:#B4B4B4;" d="M446.165,432.806H325.797c-8.284,0-15-6.716-15-15V191.452h150.368v226.354
			C461.165,426.09,454.45,432.806,446.165,432.806z"/>
	</g>
	<g>
		<path style="fill:#9A9999;" d="M160.428,408.405v9.401c0,8.284,6.716,15,15,15h120.368c8.284,0,15-6.716,15-15v-9.401H160.428z"/>
	</g>
	<g>
		<path style="fill:#9A9999;" d="M310.797,408.405v9.401c0,8.284,6.716,15,15,15h120.369c8.284,0,15-6.716,15-15v-9.401H310.797z"/>
	</g>
	<g>
		<path style="fill:#9A9999;" d="M10.06,408.405v9.401c0,8.284,6.716,15,15,15h120.369c8.284,0,15-6.716,15-15v-9.401H10.06z"/>
	</g>
	<g>
		<path style="fill:#F7EE7D;" d="M253.113,259.098L253.113,259.098c2.122,6.53,8.207,10.951,15.073,10.951h0
			c15.353,0,21.737,19.646,9.316,28.671l0,0c-5.555,4.036-7.879,11.189-5.757,17.719l0,0c4.744,14.602-11.968,26.744-24.389,17.719
			l0,0c-5.555-4.036-13.077-4.036-18.631,0l0,0c-12.421,9.024-29.133-3.118-24.389-17.719l0,0c2.122-6.53-0.203-13.684-5.757-17.719
			l0,0c-12.421-9.024-6.037-28.671,9.316-28.671h0c6.866,0,12.951-4.421,15.073-10.951l0,0
			C227.711,244.496,248.368,244.496,253.113,259.098z"/>
	</g>
	<g>
		<path style="fill:#F9CD45;" d="M268.186,270.049L268.186,270.049c-6.866,0-12.951-4.421-15.073-10.951v0
			c-4.744-14.602-25.402-14.602-30.146,0v0c-0.474,1.459-1.156,2.806-1.99,4.028c2.9,4.249,7.751,6.923,13.083,6.923h0
			c15.353,0,21.737,19.646,9.316,28.671l0,0c-5.555,4.036-7.879,11.189-5.757,17.719v0c1.884,5.797,0.378,11.201-2.891,15.052
			c4.304-0.919,8.907-0.036,12.628,2.668v0c12.421,9.024,29.133-3.118,24.389-17.719v0c-2.122-6.53,0.203-13.684,5.757-17.719l0,0
			C289.922,289.695,283.539,270.049,268.186,270.049z"/>
	</g>
	<g>
		<path style="fill:#F7EE7D;" d="M98.817,301.799L98.817,301.799c1.911,5.88,7.39,9.861,13.573,9.861h0
			c13.825,0,19.573,17.691,8.388,25.817l0,0c-5.002,3.634-7.095,10.076-5.184,15.956l0,0c4.272,13.148-10.777,24.082-21.961,15.956
			l0,0c-5.002-3.634-11.775-3.634-16.777,0l0,0c-11.185,8.126-26.233-2.807-21.961-15.956l0,0c1.911-5.88-0.182-12.322-5.184-15.956
			l0,0c-11.185-8.126-5.436-25.817,8.388-25.817h0c6.183,0,11.662-3.981,13.573-9.861l0,0
			C75.943,288.65,94.545,288.65,98.817,301.799z"/>
	</g>
	<g>
		<path style="fill:#F9CD45;" d="M112.39,311.66L112.39,311.66c-6.183,0-11.662-3.981-13.573-9.861v0
			c-4.272-13.148-22.873-13.148-27.145,0v0c-0.427,1.314-1.04,2.526-1.792,3.627c2.611,3.826,6.98,6.234,11.781,6.234h0
			c13.825,0,19.573,17.691,8.388,25.817l0,0c-5.002,3.634-7.095,10.076-5.184,15.956v0c1.696,5.22,0.341,10.086-2.603,13.554
			c3.876-0.827,8.02-0.033,11.371,2.402v0c11.185,8.126,26.233-2.807,21.961-15.956v0c-1.911-5.88,0.182-12.322,5.184-15.956l0,0
			C131.962,329.351,126.214,311.66,112.39,311.66z"/>
	</g>
	<g>
		<path style="fill:#F7EE7D;" d="M399.554,309.39L399.554,309.39c1.911,5.88,7.39,9.861,13.573,9.861h0
			c13.825,0,19.573,17.691,8.388,25.817l0,0c-5.002,3.634-7.095,10.076-5.184,15.956l0,0c4.272,13.148-10.777,24.082-21.961,15.956
			l0,0c-5.002-3.634-11.775-3.634-16.777,0l0,0c-11.185,8.126-26.233-2.807-21.961-15.956l0,0c1.911-5.88-0.182-12.322-5.184-15.956
			l0,0c-11.185-8.126-5.436-25.817,8.388-25.817h0c6.183,0,11.662-3.981,13.573-9.861v0
			C376.68,296.242,395.282,296.242,399.554,309.39z"/>
	</g>
	<g>
		<path style="fill:#F9CD45;" d="M413.127,319.251L413.127,319.251c-6.183,0-11.662-3.981-13.573-9.861v0
			c-4.272-13.148-22.873-13.148-27.145,0v0c-0.427,1.314-1.04,2.526-1.792,3.627c2.611,3.826,6.98,6.234,11.781,6.234h0
			c13.825,0,19.573,17.691,8.388,25.817l0,0c-5.002,3.634-7.095,10.076-5.184,15.956v0c1.696,5.22,0.341,10.086-2.603,13.554
			c3.876-0.827,8.02-0.033,11.371,2.402v0c11.185,8.126,26.233-2.807,21.961-15.956v0c-1.911-5.88,0.182-12.322,5.184-15.956l0,0
			C432.699,336.942,426.951,319.251,413.127,319.251z"/>
	</g>
	<g>
		<g>
			<path style="fill:#FFF4F1;" d="M449.378,220.397c-11.038-19.031-32.341-51.799-56.824-51.799
				c-24.549,0-45.903,32.835-56.915,51.951c-0.665,1.154-1.185,2.332-1.573,3.519c14.712,13.135,34.272,21.145,55.742,21.145
				C413.206,245.214,434.32,235.689,449.378,220.397z"/>
		</g>
		<path style="fill:#E3DED9;" d="M392.295,168.732c-5.134,0.035-10.116,1.52-14.888,3.999c6.047,3.042,11.781,7.687,17.065,13.084
			c18.913,19.317,9.252,52.274-17.193,57.888c-0.717,0.152-1.438,0.296-2.163,0.43c4.855,0.834,9.849,1.266,14.954,1.232
			c23.396-0.159,44.445-9.827,59.399-25.221C438.302,201.188,416.777,168.566,392.295,168.732z"/>
		<g>
			<path style="fill:#FC9086;" d="M392.554,188.471c24.483,0,45.786,12.895,56.824,31.926c14.373-14.595,23.23-34.443,23.23-56.329
				c0-44.815-37.07-81.146-82.799-81.146s-82.799,36.33-82.799,81.146c0,23.774,10.434,45.159,27.057,60
				c0.387-1.187,0.908-2.365,1.573-3.519C346.651,201.434,368.005,188.471,392.554,188.471z"/>
		</g>
		<g>
			<path style="fill:#F57A73;" d="M389.809,82.923c-4.007,0-7.946,0.285-11.801,0.824c40.138,5.614,70.999,39.433,70.999,80.321
				c0,15.167-4.256,29.352-11.651,41.491c4.754,4.322,8.822,9.319,12.022,14.837c14.373-14.595,23.23-34.443,23.23-56.329
				C472.608,119.253,435.537,82.923,389.809,82.923z"/>
		</g>
		<g>
			<ellipse style="fill:#FFD5CC;" cx="391.301" cy="137.838" rx="19.403" ry="24.589"/>
		</g>
	</g>
	<g>
		<g>
			<path style="fill:#FFF4F1;" d="M142.368,220.397c-11.038-19.031-32.341-51.799-56.824-51.799
				c-24.549,0-45.903,32.835-56.915,51.951c-0.665,1.154-1.185,2.332-1.573,3.519c14.712,13.135,34.272,21.145,55.742,21.145
				C106.196,245.214,127.31,235.689,142.368,220.397z"/>
		</g>
		<path style="fill:#E3DED9;" d="M85.285,168.732c-5.134,0.035-10.116,1.52-14.888,3.999c6.047,3.042,11.781,7.687,17.065,13.084
			c18.913,19.317,9.252,52.274-17.193,57.888c-0.717,0.152-1.438,0.296-2.163,0.43c4.855,0.834,9.849,1.266,14.954,1.232
			c23.396-0.159,44.445-9.827,59.399-25.221C131.292,201.188,109.767,168.566,85.285,168.732z"/>
		<g>
			<path style="fill:#9DDBDF;" d="M85.545,188.471c24.483,0,45.786,12.895,56.824,31.926c14.373-14.595,23.23-34.443,23.23-56.329
				c0-44.815-37.07-81.146-82.799-81.146S0,119.253,0,164.069c0,23.774,10.434,45.159,27.057,60
				c0.387-1.187,0.908-2.365,1.573-3.519C39.641,201.434,60.996,188.471,85.545,188.471z"/>
		</g>
		<g>
			<path style="fill:#7CD6E6;" d="M82.799,82.923c-4.007,0-7.946,0.285-11.801,0.824c40.138,5.614,70.999,39.433,70.999,80.321
				c0,15.167-4.256,29.352-11.651,41.491c4.754,4.322,8.822,9.319,12.022,14.837c14.373-14.595,23.23-34.443,23.23-56.329
				C165.598,119.253,128.528,82.923,82.799,82.923z"/>
		</g>
		<g>
			<ellipse style="fill:#FFD5CC;" cx="84.292" cy="137.838" rx="19.403" ry="24.589"/>
		</g>
	</g>
	<g>
		<g>
			<path style="fill:#FFF4F1;" d="M306.041,205.367c-13.293-22.92-38.949-62.383-68.435-62.383
				c-29.565,0-55.283,39.545-68.545,62.567c-0.801,1.39-1.427,2.808-1.894,4.238c17.718,15.819,41.275,25.466,67.133,25.466
				C262.477,235.255,287.906,223.783,306.041,205.367z"/>
		</g>
		<path style="fill:#E3DED9;" d="M237.294,143.145c-6.183,0.042-12.183,1.83-17.931,4.816c7.283,3.663,14.188,9.258,20.552,15.758
			c22.778,23.264,11.142,62.956-20.706,69.717c-0.864,0.183-1.732,0.356-2.605,0.517c5.847,1.004,11.862,1.525,18.009,1.483
			c28.177-0.191,53.527-11.836,71.537-30.374C292.702,182.233,266.778,142.945,237.294,143.145z"/>
		<g>
			<path style="fill:#FFE056;" d="M237.606,166.917c29.486,0,55.142,15.53,68.435,38.45c17.31-17.578,27.977-41.481,27.977-67.839
				c0-53.973-44.645-97.727-99.718-97.727s-99.718,43.754-99.718,97.727c0,28.632,12.566,54.386,32.586,72.26
				c0.467-1.43,1.093-2.848,1.894-4.238C182.323,182.529,208.041,166.917,237.606,166.917z"/>
		</g>
		<g>
			<path style="fill:#F9CD45;" d="M234.3,39.802c-4.826,0-9.569,0.343-14.212,0.992c48.34,6.761,85.506,47.491,85.506,96.734
				c0,18.266-5.126,35.35-14.032,49.97c5.725,5.205,10.624,11.223,14.479,17.869c17.31-17.578,27.977-41.481,27.977-67.839
				C334.018,83.555,289.373,39.802,234.3,39.802z"/>
		</g>
		<g>
			<ellipse style="fill:#FFD5CC;" cx="236.098" cy="105.937" rx="23.368" ry="29.614"/>
		</g>
	</g>
</g>
<g>
</g>
<g>
</g>
<g>
</g>
<g>
</g>
<g>
</g>
<g>
</g>
<g>
</g>
<g>
</g>
<g>
</g>
<g>
</g>
<g>
</g>
<g>
</g>
<g>
</g>
<g>
</g>
<g>
</g>
</svg>
