<?xml version="1.0" encoding="iso-8859-1"?>
<!-- Generator: Adobe Illustrator 21.0.0, SVG Export Plug-In . SVG Version: 6.00 Build 0)  -->
<svg version="1.1" id="Capa_1" xmlns="http://www.w3.org/2000/svg" xmlns:xlink="http://www.w3.org/1999/xlink" x="0px" y="0px"
	 viewBox="0 0 489.75 489.75" style="enable-background:new 0 0 489.75 489.75;" xml:space="preserve">
<g>
	<g>
		<path style="fill:#FFE056;" d="M440.727,165.156C440.727,73.943,376.784,0,285.571,0S120.415,73.943,120.415,165.156
			c0,75.225,50.296,138.695,119.091,158.638v87.237h92.131v-87.237C400.432,303.851,440.727,240.381,440.727,165.156z"/>
	</g>
	<g>
		<path style="fill:#F9CD45;" d="M285.571,0c-5.058,0-10.058,0.24-15,0.685C354.753,8.266,420.727,79,420.727,165.156
			c0,75.225-50.296,138.695-119.091,158.638v87.237h30v-87.237c68.795-19.943,119.091-83.413,119.091-158.638
			C450.727,73.943,376.784,0,285.571,0z"/>
	</g>
	<g>
		<path style="fill:#E3DED9;" d="M285.613,489.75L285.613,489.75c-25.474,0-46.125-20.651-46.125-46.125V373h92.25v70.625
			C331.738,471.766,311.087,489.75,285.613,489.75z"/>
	</g>
	<g>
		<path style="fill:#D0CFD1;" d="M301.738,373v70.625c0,22.165-12.815,38.021-30.704,43.759c4.584,1.527,9.482,2.366,14.579,2.366
			l0,0c25.474,0,46.125-17.984,46.125-46.125V373H301.738z"/>
	</g>
	<g>
		<path style="fill:#FFF4F1;" d="M362.606,161.619c0,48.619-29.414,88.033-78.033,88.033s-88.033-39.414-88.033-88.033
			s39.414-88.033,88.033-88.033S362.606,112.999,362.606,161.619z"/>
	</g>
	<g>
		<path style="fill:#FFF4F1;" d="M284.573,73.586c-5.114,0-10.125,0.441-15,1.278c41.473,7.12,73.033,43.249,73.033,86.755
			c0,43.505-31.56,79.634-73.033,86.755c4.875,0.837,9.886,1.278,15,1.278c48.619,0,88.033-39.414,88.033-88.033
			C372.606,112.999,333.193,73.586,284.573,73.586z"/>
	</g>
	<g>
		<path style="fill:#F86654;" d="M315.961,161.619c0,22.858-8.53,41.388-31.388,41.388s-41.388-18.53-41.388-41.388
			s18.53-41.388,41.388-41.388S315.961,138.761,315.961,161.619z"/>
	</g>
	<g>
		<path style="fill:#EA543C;" d="M284.573,120.231c-5.293,0-10.348,1.004-15,2.815c15.44,6.009,26.388,21.008,26.388,38.573
			c0,17.565-10.948,32.564-26.388,38.573c4.652,1.811,9.707,2.815,15,2.815c22.858,0,41.388-18.53,41.388-41.388
			C325.961,138.761,307.431,120.231,284.573,120.231z"/>
	</g>
	<g>
		<path style="fill:#9A9999;" d="M345.629,380.579H225.51c-4.143,0-7.5-3.358-7.5-7.5s3.357-7.5,7.5-7.5h120.118
			c4.143,0,7.5,3.358,7.5,7.5S349.771,380.579,345.629,380.579z"/>
	</g>
	<path style="fill:#E3DED9;" d="M284.116,152.243H102.434L82.6,132.409c-2.93-2.928-7.678-2.93-10.607,0
		c-2.929,2.929-2.929,7.677,0,10.606l9.228,9.228h-9.56l-19.834-19.834c-2.93-2.928-7.678-2.93-10.607,0
		c-2.929,2.929-2.929,7.677,0,10.606l16.482,16.483l-16.482,16.483c-2.929,2.929-2.929,7.678,0,10.606
		c1.465,1.465,3.385,2.197,5.304,2.197s3.839-0.732,5.304-2.197l19.344-19.344h9.56l-8.737,8.737c-2.929,2.929-2.929,7.678,0,10.606
		c1.465,1.465,3.385,2.197,5.304,2.197s3.839-0.732,5.304-2.197l19.344-19.344h182.172c4.143,0,7.5-3.358,7.5-7.5
		S288.258,152.243,284.116,152.243z"/>
</g>
<g>
</g>
<g>
</g>
<g>
</g>
<g>
</g>
<g>
</g>
<g>
</g>
<g>
</g>
<g>
</g>
<g>
</g>
<g>
</g>
<g>
</g>
<g>
</g>
<g>
</g>
<g>
</g>
<g>
</g>
</svg>
