<?xml version="1.0" encoding="iso-8859-1"?>
<!-- Generator: Adobe Illustrator 21.0.0, SVG Export Plug-In . SVG Version: 6.00 Build 0)  -->
<svg version="1.1" id="Capa_1" xmlns="http://www.w3.org/2000/svg" xmlns:xlink="http://www.w3.org/1999/xlink" x="0px" y="0px"
	 viewBox="0 0 492.134 492.134" style="enable-background:new 0 0 492.134 492.134;" xml:space="preserve">
<g>
	<g>
		<path style="fill:#DC8839;" d="M482.395,390.231l-0.108-6.635c-0.068-22.611-18.623-41.055-41.234-40.987h0
			c-22.611,0.068-41.055,18.623-40.987,41.234l0,0.108h-0.001l0.108,6.635c0.068,22.611,18.623,41.055,41.234,40.987h0
			c22.611-0.068,41.055-18.623,40.987-41.234L482.395,390.231L482.395,390.231z"/>
	</g>
	<g>
		<path style="fill:#BE7511;" d="M482.395,390.231l-0.108-6.635c-0.068-22.611-18.623-41.055-41.234-40.987h0
			c-5.245,0.016-10.26,1.037-14.878,2.862c15.205,6.01,26.06,20.845,26.112,38.125l0.108,6.635h0l0,0.108
			c0.052,17.366-10.821,32.329-26.11,38.372c4.691,1.854,9.791,2.878,15.122,2.862h0c22.611-0.068,41.055-18.623,40.987-41.234
			L482.395,390.231L482.395,390.231z"/>
	</g>
	<g>
		<path style="fill:#DC8839;" d="M352.286,390.231l-0.108-6.635c-0.068-22.611-18.623-41.055-41.234-40.987h0
			c-22.611,0.068-41.055,18.623-40.987,41.234l0,0.108h-0.001l0.108,6.635c0.068,22.611,18.623,41.055,41.234,40.987h0
			c22.611-0.068,41.055-18.623,40.987-41.234L352.286,390.231L352.286,390.231z"/>
	</g>
	<g>
		<path style="fill:#BE7511;" d="M352.302,390.087l-0.142-6.635c-0.183-22.61-18.832-40.96-41.442-40.777h0
			c-5.245,0.042-10.255,1.089-14.863,2.938c15.236,5.932,26.166,20.712,26.306,37.992l0.142,6.635h0l0.001,0.108
			c0.141,17.365-10.656,32.383-25.914,38.504c4.7,1.83,9.806,2.828,15.136,2.785h0c22.61-0.183,40.96-18.832,40.777-41.442
			L352.302,390.087L352.302,390.087z"/>
	</g>
	<g>
		<path style="fill:#DC8839;" d="M222.177,390.231l-0.108-6.635c-0.068-22.611-18.623-41.055-41.234-40.987h0
			c-22.611,0.068-41.055,18.623-40.987,41.234l0,0.108h-0.001l0.108,6.635c0.068,22.611,18.623,41.055,41.234,40.987h0
			c22.611-0.068,41.055-18.623,40.987-41.234L222.177,390.231L222.177,390.231z"/>
	</g>
	<g>
		<path style="fill:#BE7511;" d="M222.177,390.231l-0.108-6.635c-0.068-22.611-18.623-41.055-41.234-40.987h0
			c-5.245,0.016-10.26,1.037-14.878,2.862c15.205,6.01,26.06,20.845,26.112,38.125l0.108,6.635h-0.001l0,0.108
			c0.052,17.366-10.821,32.329-26.11,38.372c4.691,1.854,9.791,2.878,15.122,2.862h0c22.611-0.068,41.055-18.623,40.987-41.234
			L222.177,390.231L222.177,390.231z"/>
	</g>
	<g>
		<path style="fill:#DC8839;" d="M92.069,390.231l-0.108-6.635c-0.068-22.611-18.623-41.055-41.234-40.987h0
			c-22.611,0.068-41.055,18.623-40.987,41.234l0,0.108H9.739l0.108,6.635c0.068,22.611,18.623,41.055,41.234,40.987h0
			c22.611-0.068,41.055-18.623,40.987-41.234L92.069,390.231L92.069,390.231z"/>
	</g>
	<g>
		<path style="fill:#BE7511;" d="M92.069,390.231l-0.108-6.635c-0.068-22.611-18.623-41.055-41.234-40.987h0
			c-5.245,0.016-10.26,1.037-14.878,2.862c15.205,6.01,26.06,20.845,26.112,38.125l0.108,6.635h-0.001l0,0.108
			c0.052,17.366-10.821,32.329-26.11,38.372c4.691,1.854,9.791,2.878,15.122,2.862h0c22.611-0.068,41.055-18.623,40.987-41.234
			L92.069,390.231L92.069,390.231z"/>
	</g>
	<g>
		<path style="fill:#FFD5CC;" d="M361.749,477.134V452.15c0-21.297-17.425-38.722-38.722-38.722h-23.811
			c-21.297,0-38.722,17.425-38.722,38.722v24.984c0,8.284,6.716,15,15,15h71.255C355.033,492.134,361.749,485.419,361.749,477.134z"
			/>
	</g>
	<g>
		<path style="fill:#FDA8A1;" d="M323.027,413.428h-23.811c-1.042,0-2.072,0.054-3.095,0.136
			c19.863,1.591,35.627,18.332,35.627,38.586v39.985h15c8.284,0,15-6.716,15-15V452.15
			C361.749,430.853,344.324,413.428,323.027,413.428z"/>
	</g>
	<g>
		<path style="fill:#FFE056;" d="M231.64,477.134V452.15c0-21.297-17.425-38.722-38.722-38.722h-23.811
			c-21.297,0-38.722,17.425-38.722,38.722v24.984c0,8.284,6.716,15,15,15h71.255C224.924,492.134,231.64,485.419,231.64,477.134z"/>
	</g>
	<g>
		<path style="fill:#F9CD45;" d="M193.677,413.428h-24.57c-1.042,0-2.072,0.054-3.095,0.136
			c19.863,1.591,35.627,18.332,35.627,38.586v39.985h15c8.284,0,15-6.716,15-15v-25.743
			C231.64,430.511,214.557,413.428,193.677,413.428z"/>
	</g>
	<g>
		<path style="fill:#FC9086;" d="M101.531,477.134V452.15c0-21.297-17.425-38.722-38.722-38.722H38.998
			c-21.297,0-38.722,17.425-38.722,38.722v24.985c0,8.284,6.716,15,15,15h71.255C94.816,492.134,101.531,485.419,101.531,477.134z"
			/>
	</g>
	<g>
		<path style="fill:#F57A73;" d="M63.82,413.428H38.998c-1.042,0-2.072,0.054-3.095,0.136c19.863,1.591,35.627,18.332,35.627,38.586
			v39.985h15c8.284,0,15-6.716,15-15V451.14C101.531,430.398,84.561,413.428,63.82,413.428z"/>
	</g>
	<g>
		<path style="fill:#9DDBDF;" d="M491.858,477.134V452.15c0-21.297-17.425-38.722-38.722-38.722h-23.811
			c-21.297,0-38.722,17.425-38.722,38.722v24.985c0,8.284,6.716,15,15,15h71.255C485.142,492.134,491.858,485.419,491.858,477.134z"
			/>
	</g>
	<g>
		<path style="fill:#7CD6E6;" d="M453.136,413.428h-23.811c-1.042,0-2.072,0.054-3.095,0.136
			c19.863,1.591,35.627,18.332,35.627,38.586v39.985h15c8.284,0,15-6.716,15-15V452.15
			C491.858,430.853,474.433,413.428,453.136,413.428z"/>
	</g>
	<g>
		<g>
			<path style="fill:#D0CFD1;" d="M245.367,291.435c-4.142,0-7.5-3.358-7.5-7.5v-28.192c0-4.142,3.358-7.5,7.5-7.5
				s7.5,3.358,7.5,7.5v28.192C252.867,288.077,249.509,291.435,245.367,291.435z"/>
		</g>
		<g>
			<path style="fill:#FFF4F1;" d="M382.792,254.182H97.943c-17.676,0-32.006-14.33-32.006-32.006V32.006
				C65.938,14.33,80.267,0,97.943,0h284.848c17.676,0,32.006,14.33,32.006,32.006v190.17
				C414.798,239.853,400.468,254.182,382.792,254.182z"/>
		</g>
		<g>
			<path style="fill:#E9E5E1;" d="M392.792,0h-30c17.676,0,32.006,14.33,32.006,32.006v190.17c0,17.676-14.33,32.006-32.006,32.006
				h30c17.676,0,32.006-14.33,32.006-32.006V32.006C424.798,14.33,410.468,0,392.792,0z"/>
		</g>
		<path style="fill:#FFE056;" d="M244.814,129.934h-34.236c-4.142,0-7.5,3.358-7.5,7.5v65.457c0,4.142,3.358,7.5,7.5,7.5h34.236
			c4.142,0,7.5-3.358,7.5-7.5v-65.457C252.314,133.292,248.956,129.934,244.814,129.934z"/>
		<path style="fill:#FC9086;" d="M184.522,154.653h-34.236c-4.142,0-7.5,3.358-7.5,7.5v40.738c0,4.142,3.358,7.5,7.5,7.5h34.236
			c4.142,0,7.5-3.358,7.5-7.5v-40.738C192.022,158.01,188.664,154.653,184.522,154.653z"/>
		<path style="fill:#7CD6E6;" d="M365.398,96.424h-34.236c-4.142,0-7.5,3.358-7.5,7.5v98.011c0,4.142,3.358,7.5,7.5,7.5h34.236
			c4.142,0,7.5-3.358,7.5-7.5v-98.011C372.898,99.781,369.54,96.424,365.398,96.424z"/>
		<path style="fill:#FFD5CC;" d="M305.106,96.196H270.87c-4.142,0-7.5,3.358-7.5,7.5v99.195c0,4.142,3.358,7.5,7.5,7.5h34.236
			c4.142,0,7.5-3.358,7.5-7.5v-99.195C312.606,99.554,309.248,96.196,305.106,96.196z"/>
		<path style="fill:#D0CFD1;" d="M287.184,51.081c0.003-0.075-0.002-0.149-0.001-0.224c0-0.029,0-0.058,0-0.086
			c0-0.117,0.005-0.235-0.001-0.352c-0.001-0.024-0.004-0.048-0.005-0.072c-0.007-0.112-0.023-0.221-0.034-0.332
			c-0.004-0.034-0.006-0.067-0.01-0.101c-0.008-0.07-0.011-0.141-0.022-0.211c-0.004-0.028-0.009-0.055-0.013-0.083
			c-0.022-0.137-0.053-0.27-0.082-0.404c-0.017-0.076-0.028-0.154-0.047-0.23c-0.007-0.027-0.013-0.055-0.02-0.082
			c-0.034-0.132-0.079-0.26-0.12-0.39c-0.026-0.08-0.048-0.162-0.076-0.241c-0.009-0.024-0.015-0.048-0.024-0.072
			c-0.042-0.115-0.093-0.225-0.141-0.337c-0.04-0.095-0.078-0.19-0.123-0.284c-0.01-0.022-0.018-0.045-0.029-0.067
			c0,0,0-0.001-0.001-0.002c0,0,0,0,0,0c-0.043-0.089-0.095-0.173-0.141-0.26c-0.057-0.107-0.114-0.215-0.176-0.32
			c-0.015-0.026-0.029-0.052-0.044-0.078c-0.044-0.071-0.094-0.136-0.14-0.206c-0.073-0.11-0.145-0.22-0.223-0.326
			c-0.016-0.022-0.031-0.044-0.047-0.066c-0.057-0.075-0.119-0.144-0.178-0.216c-0.077-0.094-0.154-0.189-0.236-0.28
			c-0.018-0.02-0.036-0.041-0.054-0.061c-0.068-0.074-0.141-0.142-0.212-0.212c-0.08-0.08-0.158-0.16-0.242-0.237
			c-0.024-0.022-0.047-0.043-0.071-0.065c-0.078-0.069-0.161-0.133-0.242-0.199c-0.08-0.065-0.157-0.132-0.24-0.194
			c-0.031-0.024-0.063-0.047-0.095-0.07c-0.083-0.06-0.171-0.114-0.256-0.17c-0.014-0.009-0.027-0.018-0.041-0.027
			c-0.07-0.046-0.136-0.095-0.208-0.138c-0.038-0.023-0.076-0.046-0.115-0.068c-0.067-0.039-0.137-0.072-0.206-0.109
			c-0.082-0.044-0.163-0.09-0.247-0.131c-0.027-0.013-0.052-0.03-0.079-0.043c-0.003-0.001-0.006-0.002-0.009-0.004
			c-0.036-0.017-0.073-0.034-0.109-0.051c-0.061-0.028-0.124-0.05-0.185-0.076c-0.098-0.042-0.197-0.084-0.297-0.122
			c-0.039-0.015-0.078-0.034-0.117-0.048c-0.024-0.009-0.049-0.016-0.074-0.025c-0.085-0.03-0.173-0.051-0.26-0.077
			c-0.007-0.002-0.014-0.004-0.021-0.006c-0.128-0.039-0.256-0.083-0.386-0.115c-0.01-0.002-0.019-0.004-0.029-0.006
			c-0.059-0.014-0.119-0.022-0.177-0.035c-0.178-0.039-0.355-0.077-0.534-0.102c-0.007-0.001-0.013-0.001-0.02-0.002
			c0,0-0.002,0-0.002,0l-26.487-3.677c-4.106-0.569-7.891,2.294-8.46,6.397c-0.57,4.103,2.294,7.891,6.397,8.46l2.08,0.289
			L136.186,112.3c-3.725,1.813-5.274,6.302-3.461,10.026c1.298,2.668,3.969,4.219,6.749,4.219c1.102,0,2.22-0.244,3.277-0.758
			l120.831-58.812l-2.327,4.837c-1.796,3.733-0.226,8.214,3.507,10.01c1.048,0.504,2.156,0.743,3.246,0.743
			c2.792,0,5.473-1.566,6.764-4.25l11.677-24.27c0.01-0.021,0.017-0.042,0.026-0.063c0.016-0.033,0.033-0.066,0.048-0.099
			c0.059-0.13,0.11-0.265,0.161-0.399c0.026-0.067,0.054-0.133,0.078-0.201c0.007-0.019,0.015-0.038,0.021-0.057
			c0.043-0.125,0.077-0.255,0.114-0.384c0.026-0.091,0.056-0.182,0.079-0.273c0.003-0.011,0.006-0.022,0.008-0.033
			c0.022-0.094,0.037-0.192,0.056-0.288c0.026-0.132,0.056-0.264,0.075-0.396c0.001-0.009,0.002-0.018,0.003-0.026
			c0,0,0-0.001,0-0.001c0.001-0.006,0.001-0.012,0.002-0.018c0.008-0.058,0.01-0.116,0.016-0.174
			c0.019-0.166,0.039-0.332,0.046-0.498C287.184,51.118,287.183,51.1,287.184,51.081z"/>
		<g>
			<path style="fill:#E3DED9;" d="M245.367,321.613c-11.908,0-21.596-9.688-21.596-21.596s9.688-21.596,21.596-21.596
				c11.908,0,21.596,9.688,21.596,21.596S257.276,321.613,245.367,321.613z"/>
		</g>
		<path style="fill:#D0CFD1;" d="M146.213,52.947h-4.17v-4.17c0-4.142-3.358-7.5-7.5-7.5s-7.5,3.358-7.5,7.5v4.17h-4.17
			c-4.142,0-7.5,3.358-7.5,7.5s3.358,7.5,7.5,7.5h4.17v4.17c0,4.142,3.358,7.5,7.5,7.5s7.5-3.358,7.5-7.5v-4.17h4.17
			c4.142,0,7.5-3.358,7.5-7.5S150.355,52.947,146.213,52.947z"/>
		<g>
			<path style="fill:#D0CFD1;" d="M376.595,215.391H122.873c-4.142,0-7.5-3.358-7.5-7.5s3.358-7.5,7.5-7.5h253.723
				c4.142,0,7.5,3.358,7.5,7.5S380.737,215.391,376.595,215.391z"/>
		</g>
	</g>
</g>
<g>
</g>
<g>
</g>
<g>
</g>
<g>
</g>
<g>
</g>
<g>
</g>
<g>
</g>
<g>
</g>
<g>
</g>
<g>
</g>
<g>
</g>
<g>
</g>
<g>
</g>
<g>
</g>
<g>
</g>
</svg>
