<?xml version="1.0" encoding="iso-8859-1"?>
<!-- Generator: Adobe Illustrator 21.0.0, SVG Export Plug-In . SVG Version: 6.00 Build 0)  -->
<svg version="1.1" id="Capa_1" xmlns="http://www.w3.org/2000/svg" xmlns:xlink="http://www.w3.org/1999/xlink" x="0px" y="0px"
	 viewBox="0 0 494.794 494.794" style="enable-background:new 0 0 494.794 494.794;" xml:space="preserve">
<g>
	<g>
		<g>
			<path style="fill:#5E8EE1;" d="M21.588,281.663V463.44c0,14.777,11.979,26.756,26.756,26.756h45.895
				c14.777,0,26.756-11.979,26.756-26.756V281.663l-53.086-10L21.588,281.663z"/>
		</g>
		<g>
			<path style="fill:#467BFF;" d="M90.995,281.663V463.44c0,14.777-11.979,26.756-26.756,26.756h30
				c14.777,0,26.756-11.979,26.756-26.756V281.663l-14.361-10L90.995,281.663z"/>
		</g>
		<g>
			<rect x="21.588" y="188.973" style="fill:#FFF4F1;" width="99.407" height="92.724"/>
		</g>
		<g>
			<rect x="90.995" y="188.973" style="fill:#E3DED9;" width="30" height="92.724"/>
		</g>
		<g>
			<path style="fill:#FFD5CC;" d="M88.871,251.871H52.102C23.327,251.871,0,228.544,0,199.769v-65.423l140.973-20v85.423
				C140.973,228.544,117.646,251.871,88.871,251.871z"/>
		</g>
		<g>
			<path style="fill:#FFCCC4;" d="M52.328,164.53h-0.31c-9.683,0-17.605-7.922-17.605-17.605V96.398
				c0-9.683,7.922-17.605,17.605-17.605h0.31c9.683,0,17.605,7.922,17.605,17.605v50.527
				C69.933,156.608,62.011,164.53,52.328,164.53z"/>
		</g>
		<g>
			<path style="fill:#FFCCC4;" d="M87.848,164.53h-0.31c-9.683,0-17.605-7.922-17.605-17.605V89.818
				c0-9.683,7.922-17.605,17.605-17.605h0.31c9.683,0,17.605,7.922,17.605,17.605v57.107
				C105.453,156.608,97.531,164.53,87.848,164.53z"/>
		</g>
		<g>
			<path style="fill:#FFD5CC;" d="M123.368,164.53h-0.31c-9.683,0-17.605-7.922-17.605-17.605V97.056
				c0-9.683,7.922-17.605,17.605-17.605h0.31c9.683,0,17.605,7.922,17.605,17.605v49.869
				C140.973,156.608,133.05,164.53,123.368,164.53z"/>
		</g>
		<g>
			<path style="fill:#FFCCC4;" d="M123.368,164.53h-0.31c-9.683,0-17.605-7.922-17.605-17.605V97.056
				c0-9.683,7.922-17.605,17.605-17.605h0.31c9.683,0,17.605,7.922,17.605,17.605v49.869
				C140.973,156.608,133.05,164.53,123.368,164.53z"/>
		</g>
		<g>
			<path style="fill:#FFCCC4;" d="M17.605,164.582L17.605,164.582C7.922,164.582,0,156.66,0,146.977l0-28.253
				c0-9.683,7.922-17.605,17.605-17.605h0c9.683,0,17.605,7.922,17.605,17.605v28.253C35.21,156.66,27.288,164.582,17.605,164.582z"
				/>
		</g>
		<g>
			<path style="fill:#FFD5CC;" d="M140.973,202.028v-41.245c0-6.692-2.658-13.109-7.39-17.841L110.89,120.25
				c-2.916-2.916-7.688-2.917-10.605-0.003l-0.042,0.042c-8.328,8.32-8.331,21.937-0.008,30.261l11.763,11.763
				c-3.291-0.725-6.71-1.111-10.219-1.111c-26.118,0-47.291,19.216-47.291,45.334c0,24.027,17.097,42.04,40.3,45.063
				C120.354,248.425,140.973,228.453,140.973,202.028z"/>
		</g>
		<g>
			<path style="fill:#FFCCC4;" d="M66.489,206.537c0-24.033,17.932-42.209,41.144-44.96c-1.919-0.238-3.87-0.374-5.853-0.374
				c-26.118,0-47.291,19.216-47.291,45.334c0,24.027,17.097,42.04,40.3,45.063c2.086-0.259,4.135-0.641,6.146-1.118
				C80.769,245.418,66.489,228.493,66.489,206.537z"/>
		</g>
	</g>
	<g>
		<g>
			<path style="fill:#FC9086;" d="M198.498,321.663V463.44c0,14.777,11.979,26.756,26.756,26.756h45.895
				c14.777,0,26.756-11.979,26.756-26.756V321.663l-53.086-10L198.498,321.663z"/>
		</g>
		<g>
			<path style="fill:#F57A73;" d="M267.905,321.663V463.44c0,14.777-11.979,26.756-26.756,26.756h30
				c14.777,0,26.756-11.979,26.756-26.756V321.663l-14.361-10L267.905,321.663z"/>
		</g>
		<g>
			<rect x="198.498" y="228.973" style="fill:#FFF4F1;" width="99.407" height="92.724"/>
		</g>
		<g>
			<rect x="267.905" y="228.973" style="fill:#E3DED9;" width="30" height="92.724"/>
		</g>
		<g>
			<path style="fill:#FFD5CC;" d="M265.782,291.871h-36.77c-28.775,0-52.102-23.327-52.102-52.102v-65.423l140.973-20v85.423
				C317.883,268.544,294.557,291.871,265.782,291.871z"/>
		</g>
		<g>
			<path style="fill:#FFCCC4;" d="M229.239,204.53h-0.31c-9.683,0-17.605-7.922-17.605-17.605v-50.527
				c0-9.683,7.922-17.605,17.605-17.605h0.31c9.683,0,17.605,7.922,17.605,17.605v50.527
				C246.844,196.608,238.922,204.53,229.239,204.53z"/>
		</g>
		<g>
			<path style="fill:#FFCCC4;" d="M264.759,204.53h-0.31c-9.683,0-17.605-7.922-17.605-17.605v-57.107
				c0-9.683,7.922-17.605,17.605-17.605h0.31c9.683,0,17.605,7.922,17.605,17.605v57.107
				C282.364,196.608,274.441,204.53,264.759,204.53z"/>
		</g>
		<g>
			<path style="fill:#FFD5CC;" d="M300.278,204.53h-0.31c-9.683,0-17.605-7.922-17.605-17.605v-49.869
				c0-9.683,7.922-17.605,17.605-17.605h0.31c9.683,0,17.605,7.922,17.605,17.605v49.869
				C317.883,196.608,309.961,204.53,300.278,204.53z"/>
		</g>
		<g>
			<path style="fill:#FFCCC4;" d="M300.278,204.53h-0.31c-9.683,0-17.605-7.922-17.605-17.605v-49.869
				c0-9.683,7.922-17.605,17.605-17.605h0.31c9.683,0,17.605,7.922,17.605,17.605v49.869
				C317.883,196.608,309.961,204.53,300.278,204.53z"/>
		</g>
		<g>
			<path style="fill:#FFCCC4;" d="M194.515,204.582L194.515,204.582c-9.683,0-17.605-7.922-17.605-17.605v-28.253
				c0-9.683,7.922-17.605,17.605-17.605h0c9.683,0,17.605,7.922,17.605,17.605v28.253
				C212.12,196.66,204.198,204.582,194.515,204.582z"/>
		</g>
		<g>
			<path style="fill:#FFD5CC;" d="M317.883,242.028v-41.245c0-6.692-2.658-13.109-7.39-17.841l-22.692-22.692
				c-2.915-2.916-7.688-2.917-10.605-0.003l-0.042,0.042c-8.328,8.32-8.331,21.937-0.008,30.261l11.763,11.763
				c-3.291-0.725-6.71-1.111-10.219-1.111c-26.118,0-47.291,19.216-47.291,45.334c0,24.027,17.097,42.04,40.3,45.063
				C297.265,288.425,317.883,268.453,317.883,242.028z"/>
		</g>
		<g>
			<path style="fill:#FFCCC4;" d="M243.4,246.537c0-24.033,17.932-42.209,41.144-44.96c-1.919-0.238-3.87-0.374-5.853-0.374
				c-26.118,0-47.291,19.216-47.291,45.334c0,24.027,17.097,42.04,40.3,45.063c2.086-0.259,4.135-0.641,6.146-1.118
				C257.679,285.418,243.4,268.493,243.4,246.537z"/>
		</g>
	</g>
	<g>
		<g>
			<path style="fill:#FFE056;" d="M375.409,371.663v91.778c0,14.777,11.979,26.756,26.756,26.756h45.895
				c14.777,0,26.756-11.979,26.756-26.756v-91.778l-53.086-10L375.409,371.663z"/>
		</g>
		<g>
			<path style="fill:#F9CD45;" d="M444.816,371.663v91.778c0,14.777-11.979,26.756-26.756,26.756h30
				c14.777,0,26.756-11.979,26.756-26.756v-91.778l-14.361-10L444.816,371.663z"/>
		</g>
		<g>
			<rect x="375.409" y="278.973" style="fill:#FFF4F1;" width="99.407" height="92.724"/>
		</g>
		<g>
			<rect x="444.816" y="278.973" style="fill:#E3DED9;" width="30" height="92.724"/>
		</g>
		<g>
			<path style="fill:#FFD5CC;" d="M442.692,341.871h-36.769c-28.775,0-52.102-23.327-52.102-52.102v-65.423l140.973-20v85.423
				C494.794,318.544,471.467,341.871,442.692,341.871z"/>
		</g>
		<g>
			<path style="fill:#FFCCC4;" d="M406.15,254.53h-0.31c-9.683,0-17.605-7.922-17.605-17.605v-50.527
				c0-9.683,7.922-17.605,17.605-17.605h0.31c9.683,0,17.605,7.922,17.605,17.605v50.527
				C423.754,246.608,415.832,254.53,406.15,254.53z"/>
		</g>
		<g>
			<path style="fill:#FFCCC4;" d="M441.669,254.53h-0.31c-9.683,0-17.605-7.922-17.605-17.605v-57.107
				c0-9.683,7.922-17.605,17.605-17.605h0.31c9.683,0,17.605,7.922,17.605,17.605v57.107
				C459.274,246.608,451.352,254.53,441.669,254.53z"/>
		</g>
		<g>
			<path style="fill:#FFD5CC;" d="M477.189,254.53h-0.31c-9.683,0-17.605-7.922-17.605-17.605v-49.869
				c0-9.683,7.922-17.605,17.605-17.605h0.31c9.683,0,17.605,7.922,17.605,17.605v49.869
				C494.794,246.608,486.872,254.53,477.189,254.53z"/>
		</g>
		<g>
			<path style="fill:#FFCCC4;" d="M477.189,254.53h-0.31c-9.683,0-17.605-7.922-17.605-17.605v-49.869
				c0-9.683,7.922-17.605,17.605-17.605h0.31c9.683,0,17.605,7.922,17.605,17.605v49.869
				C494.794,246.608,486.872,254.53,477.189,254.53z"/>
		</g>
		<g>
			<path style="fill:#FFCCC4;" d="M371.426,254.582L371.426,254.582c-9.683,0-17.605-7.922-17.605-17.605v-28.253
				c0-9.683,7.922-17.605,17.605-17.605h0c9.683,0,17.605,7.922,17.605,17.605v28.253
				C389.031,246.66,381.109,254.582,371.426,254.582z"/>
		</g>
		<g>
			<path style="fill:#FFD5CC;" d="M494.794,292.028v-41.245c0-6.692-2.658-13.109-7.39-17.841l-22.692-22.692
				c-2.915-2.916-7.688-2.917-10.605-0.003l-0.042,0.042c-8.328,8.32-8.331,21.937-0.008,30.261l11.763,11.763
				c-3.291-0.725-6.71-1.111-10.219-1.111c-26.118,0-47.291,19.216-47.291,45.334c0,24.027,17.097,42.04,40.3,45.063
				C474.176,338.425,494.794,318.453,494.794,292.028z"/>
		</g>
		<g>
			<path style="fill:#FFCCC4;" d="M420.31,296.537c0-24.033,17.932-42.209,41.144-44.96c-1.919-0.238-3.87-0.374-5.853-0.374
				c-26.118,0-47.291,19.216-47.291,45.334c0,24.027,17.097,42.04,40.3,45.063c2.086-0.259,4.135-0.641,6.146-1.118
				C434.59,335.418,420.31,318.493,420.31,296.537z"/>
		</g>
	</g>
	<path style="fill:#E3DED9;" d="M212.561,66.284l3.806-3.806c2.929-2.929,2.929-7.678,0-10.606c-2.929-2.929-7.678-2.929-10.606,0
		l-3.806,3.806l-3.806-3.806c-2.929-2.929-7.678-2.929-10.606,0c-2.929,2.929-2.929,7.677,0,10.606l3.806,3.806l-3.806,3.806
		c-2.929,2.929-2.929,7.678,0,10.606c1.464,1.465,3.384,2.197,5.303,2.197s3.839-0.732,5.303-2.197l3.806-3.806l3.806,3.806
		c1.464,1.465,3.384,2.197,5.303,2.197c1.919,0,3.839-0.732,5.303-2.197c2.929-2.929,2.929-7.677,0-10.606L212.561,66.284z"/>
	<path style="fill:#E3DED9;" d="M452.451,103.559l3.806-3.806c2.929-2.929,2.929-7.677,0-10.606c-2.93-2.929-7.678-2.929-10.607,0
		l-3.806,3.806l-3.806-3.806c-2.93-2.929-7.678-2.929-10.607,0c-2.929,2.929-2.929,7.677,0,10.606l3.806,3.806l-3.806,3.806
		c-2.929,2.929-2.929,7.677,0,10.606c1.465,1.465,3.385,2.197,5.304,2.197s3.839-0.732,5.304-2.197l3.806-3.806l3.806,3.806
		c1.465,1.465,3.385,2.197,5.304,2.197s3.839-0.732,5.304-2.197c2.929-2.929,2.929-7.677,0-10.606L452.451,103.559z"/>
	<path style="fill:#E3DED9;" d="M359.686,21.207l3.806-3.806c2.929-2.929,2.929-7.677,0-10.606c-2.93-2.929-7.678-2.929-10.607,0
		l-3.806,3.806l-3.806-3.806c-2.93-2.929-7.678-2.929-10.607,0c-2.929,2.929-2.929,7.677,0,10.606l3.806,3.806l-3.806,3.806
		c-2.929,2.929-2.929,7.677,0,10.606c1.465,1.465,3.385,2.197,5.304,2.197s3.839-0.732,5.304-2.197l3.806-3.806l3.806,3.806
		c1.465,1.465,3.385,2.197,5.304,2.197s3.839-0.732,5.304-2.197c2.929-2.929,2.929-7.677,0-10.606L359.686,21.207z"/>
</g>
<g>
</g>
<g>
</g>
<g>
</g>
<g>
</g>
<g>
</g>
<g>
</g>
<g>
</g>
<g>
</g>
<g>
</g>
<g>
</g>
<g>
</g>
<g>
</g>
<g>
</g>
<g>
</g>
<g>
</g>
</svg>
