<?xml version="1.0" encoding="iso-8859-1"?>
<!-- Generator: Adobe Illustrator 21.0.0, SVG Export Plug-In . SVG Version: 6.00 Build 0)  -->
<svg version="1.1" id="Capa_1" xmlns="http://www.w3.org/2000/svg" xmlns:xlink="http://www.w3.org/1999/xlink" x="0px" y="0px"
	 viewBox="0 0 493.982 493.982" style="enable-background:new 0 0 493.982 493.982;" xml:space="preserve">
<g>
	<g>
		<path style="fill:#DC8839;" d="M243.796,293.146h-72.5c-8.284,0-15-6.716-15-15v-72.5c0-8.284,6.716-15,15-15h72.5
			c8.284,0,15,6.716,15,15v72.5C258.796,286.43,252.08,293.146,243.796,293.146z"/>
	</g>
	<g>
		<ellipse style="fill:#FFD5CC;" cx="95.357" cy="187.082" rx="23.746" ry="34.195"/>
	</g>
	<g>
		<path style="fill:#BE7511;" d="M27.484,459.169c-5.073,0.001-10.078-2.334-13.309-6.739c-5.385-7.344-3.798-17.663,3.545-23.048
			l59.096-43.336l-9.402-41.326c-0.133-9.105,6.039-17.694,15.145-17.829c9.084-0.147,26.487,8.239,26.623,17.345l0.732,49.833
			c0.079,5.337-2.43,10.382-6.735,13.539l-65.956,48.367C34.284,458.13,30.868,459.169,27.484,459.169z"/>
	</g>
	<g>
		<path style="fill:#B4B4B4;" d="M35.366,478.617c2.761,2.761,7.461,2.236,9.391-1.159c6.657-11.707,4.998-26.856-4.986-36.84
			c-9.984-9.984-25.133-11.643-36.84-4.986c-3.395,1.93-3.92,6.63-1.159,9.391L35.366,478.617z"/>
	</g>
	<g>
		<path style="fill:#FFE056;" d="M209.739,234.632H94.912c-0.573-0.029-1.151-0.044-1.731-0.044
			c-18.5,0-33.637,15.136-33.637,33.637v69.445l34.005,10l33.268-10v-69.445c0-1.088-0.057-2.164-0.159-3.226h83.081
			c8.351,0,15.183-6.833,15.183-15.183l0,0C224.922,241.465,218.09,234.632,209.739,234.632z"/>
	</g>
	<path style="fill:#BE7511;" d="M243.796,190.646h-30c8.284,0,15,6.716,15,15v72.5c0,8.284-6.716,15-15,15h30
		c8.284,0,15-6.716,15-15v-72.5C258.796,197.362,252.08,190.646,243.796,190.646z"/>
	<g>
		<path style="fill:#F9CD45;" d="M96.818,337.67l-15.021,4.515h30l15.02-4.515v-69.445c0-1.088-0.057-2.164-0.159-3.226H99.957
			c-1.755,0-3.141,1.438-3.139,3.193c0,0.011,0,0.022,0,0.033V337.67z"/>
		<path style="fill:#F9CD45;" d="M209.739,234.632h-30c8.351,0,15.183,6.833,15.183,15.183c0,8.351-6.832,15.183-15.183,15.183h30
			c8.351,0,15.183-6.833,15.183-15.183C224.922,241.465,218.09,234.632,209.739,234.632z"/>
	</g>
	<g>
		<path style="fill:#D0CFD1;" d="M193.866,65.593c-2.929-2.929-7.678-2.929-10.606,0l-3.806,3.806l-3.806-3.806
			c-2.928-2.929-7.677-2.929-10.606,0c-2.929,2.929-2.929,7.677,0,10.606l3.806,3.806l-3.806,3.806
			c-2.929,2.929-2.929,7.678,0,10.606c1.464,1.465,3.384,2.197,5.303,2.197s3.839-0.732,5.303-2.197l3.806-3.806l3.806,3.806
			c1.464,1.465,3.384,2.197,5.303,2.197c1.919,0,3.839-0.732,5.303-2.197c2.929-2.929,2.929-7.677,0-10.606l-3.806-3.806
			l3.806-3.806C196.795,73.27,196.795,68.522,193.866,65.593z"/>
		<path style="fill:#D0CFD1;" d="M429.949,117.281l3.806-3.806c2.93-2.929,2.93-7.677,0.001-10.606
			c-2.929-2.929-7.678-2.93-10.606,0l-3.807,3.807l-3.807-3.807c-2.928-2.93-7.677-2.929-10.606,0
			c-2.929,2.929-2.929,7.678,0.001,10.606l3.806,3.806l-3.806,3.806c-2.93,2.929-2.93,7.677-0.001,10.606
			c1.465,1.465,3.384,2.197,5.304,2.197c1.919,0,3.839-0.732,5.303-2.197l3.807-3.807l3.807,3.807
			c1.464,1.465,3.384,2.197,5.303,2.197s3.839-0.732,5.304-2.197c2.929-2.929,2.929-7.678-0.001-10.606L429.949,117.281z"/>
		<path style="fill:#D0CFD1;" d="M350.992,10.516c-2.93-2.929-7.678-2.929-10.607,0l-3.806,3.806l-3.806-3.806
			c-2.93-2.929-7.678-2.929-10.607,0c-2.929,2.929-2.929,7.678,0,10.606l3.806,3.806l-3.806,3.806
			c-2.929,2.929-2.929,7.678,0,10.606c1.465,1.464,3.385,2.197,5.304,2.197s3.839-0.732,5.304-2.197l3.806-3.806l3.806,3.806
			c1.465,1.464,3.385,2.197,5.304,2.197s3.839-0.732,5.304-2.197c2.929-2.929,2.929-7.678,0-10.606l-3.806-3.806l3.806-3.806
			C353.921,18.194,353.921,13.445,350.992,10.516z"/>
	</g>
	<g>
		<path style="fill:#DC8839;" d="M126.818,337.67l42.802,40.555l1.37,1.215c2.773,2.46,4.236,5.872,4.337,9.286l1.508,67.569
			c0.204,7.776-6.002,14.243-13.859,14.444c-7.858,0.202-14.393-5.939-14.597-13.715c-0.006-0.228-8.721-60.224-8.721-60.224
			l-63.896-34.485c-9.914-4.584-16.844-14.457-16.218-24.648"/>
	</g>
	<g>
		<path style="fill:#B4B4B4;" d="M191.654,485.662c3.952,0,6.86-3.765,5.797-7.572c-3.609-12.927-15.465-22.411-29.544-22.411
			c-14.079,0-25.936,9.484-29.544,22.411c-1.063,3.807,1.844,7.572,5.797,7.572H191.654z"/>
	</g>
	<g>
		<path style="fill:#DC8839;" d="M478.982,293.146h-72.5c-8.284,0-15-6.716-15-15v-72.5c0-8.284,6.716-15,15-15h72.5
			c8.284,0,15,6.716,15,15v72.5C493.982,286.43,487.266,293.146,478.982,293.146z"/>
	</g>
	<g>
		<ellipse style="fill:#FFD5CC;" cx="330.542" cy="187.082" rx="23.746" ry="34.195"/>
	</g>
	<g>
		<path style="fill:#BE7511;" d="M262.669,459.169c-5.073,0.001-10.078-2.334-13.309-6.739c-5.385-7.344-3.798-17.663,3.545-23.048
			l59.096-43.336l-9.402-41.326c-0.133-9.105,6.039-17.694,15.145-17.829c9.084-0.147,26.487,8.239,26.623,17.345l0.732,49.833
			c0.079,5.337-2.43,10.382-6.735,13.539l-65.956,48.367C269.469,458.13,266.053,459.169,262.669,459.169z"/>
	</g>
	<g>
		<path style="fill:#B4B4B4;" d="M270.551,478.617c2.761,2.761,7.461,2.236,9.391-1.159c6.657-11.707,4.998-26.856-4.986-36.84
			c-9.984-9.984-25.133-11.643-36.84-4.986c-3.395,1.93-3.92,6.63-1.159,9.391L270.551,478.617z"/>
	</g>
	<g>
		<path style="fill:#FC9086;" d="M444.924,234.632H330.098c-0.573-0.029-1.151-0.044-1.731-0.044
			c-18.5,0-33.637,15.136-33.637,33.637v69.445l34.005,10l33.268-10v-69.445c0-1.088-0.057-2.164-0.159-3.226h83.081
			c8.351,0,15.183-6.833,15.183-15.183l0,0C460.107,241.465,453.275,234.632,444.924,234.632z"/>
	</g>
	<path style="fill:#BE7511;" d="M478.982,190.646h-30c8.284,0,15,6.716,15,15v72.5c0,8.284-6.716,15-15,15h30
		c8.284,0,15-6.716,15-15v-72.5C493.982,197.362,487.266,190.646,478.982,190.646z"/>
	<g>
		<path style="fill:#F57A73;" d="M332.003,337.67l-15.021,4.515h30l15.02-4.515v-69.445c0-1.088-0.057-2.164-0.159-3.226h-26.702
			c-1.755,0-3.141,1.438-3.139,3.193c0,0.011,0,0.022,0,0.033V337.67z"/>
		<path style="fill:#F57A73;" d="M444.924,234.632h-30c8.351,0,15.183,6.833,15.183,15.183c0,8.351-6.832,15.183-15.183,15.183h30
			c8.351,0,15.183-6.833,15.183-15.183C460.107,241.465,453.275,234.632,444.924,234.632z"/>
	</g>
	<g>
		<path style="fill:#DC8839;" d="M362.003,337.67l42.802,40.555l1.37,1.215c2.773,2.46,4.236,5.872,4.337,9.286l1.508,67.569
			c0.204,7.776-6.002,14.243-13.859,14.444c-7.858,0.202-14.393-5.939-14.597-13.715c-0.006-0.228-8.721-60.224-8.721-60.224
			l-63.896-34.485c-9.914-4.584-16.844-14.457-16.218-24.648"/>
	</g>
	<g>
		<path style="fill:#B4B4B4;" d="M426.84,485.662c3.953,0,6.86-3.765,5.797-7.572c-3.609-12.927-15.465-22.411-29.544-22.411
			c-14.079,0-25.936,9.484-29.544,22.411c-1.063,3.807,1.844,7.572,5.797,7.572H426.84z"/>
	</g>
</g>
<g>
</g>
<g>
</g>
<g>
</g>
<g>
</g>
<g>
</g>
<g>
</g>
<g>
</g>
<g>
</g>
<g>
</g>
<g>
</g>
<g>
</g>
<g>
</g>
<g>
</g>
<g>
</g>
<g>
</g>
</svg>
