<?xml version="1.0" encoding="iso-8859-1"?>
<!-- Generator: Adobe Illustrator 21.0.0, SVG Export Plug-In . SVG Version: 6.00 Build 0)  -->
<svg version="1.1" id="Capa_1" xmlns="http://www.w3.org/2000/svg" xmlns:xlink="http://www.w3.org/1999/xlink" x="0px" y="0px"
	 viewBox="0 0 493.357 493.357" style="enable-background:new 0 0 493.357 493.357;" xml:space="preserve">
<g>
	<g>
		<path style="fill:#B4B4B4;" d="M365.592,240.848l-4.931,0.12c-1.285-23.551-9.818-45.192-23.385-62.764l4.145-3.028
			c6.779-4.953,7.721-14.728,1.992-20.866c-11.759-12.599-25.958-22.885-41.558-30.105c-7.623-3.528-16.62,0.433-19.2,8.426
			l-2.043,6.33c-10.417-3.173-21.461-4.895-32.902-4.895c-12.333,0-24.199,2.011-35.32,5.676l-2.283-6.998
			c-2.606-7.986-11.615-11.918-19.227-8.366c-15.578,7.27-29.745,17.601-41.465,30.238c-5.709,6.155-4.736,15.928,2.058,20.859
			l5.613,4.074c-13.626,18.207-21.865,40.648-22.438,64.951l-5.542,0.006c-8.384,0.009-14.891,7.333-13.906,15.658
			c2.04,17.246,7.427,33.781,15.928,48.892c4.112,7.309,13.692,9.386,20.469,4.446l2.985-2.176
			c13.618,19.714,33.323,34.897,56.38,42.84l-0.63,1.945c-2.586,7.981,2.372,16.45,10.604,18.068
			c8.403,1.651,16.972,2.484,25.618,2.484c0.003,0,0.004,0,0.008,0c8.687,0,17.298-0.841,25.739-2.508
			c8.232-1.626,13.185-10.1,10.591-18.08l-0.403-1.241c24.895-8.064,46.024-24.535,60.048-46.055l2.302,1.586
			c6.913,4.763,16.452,2.425,20.353-5.009c8.009-15.259,13.03-32.059,14.694-49.167C380.699,247.829,373.99,240.644,365.592,240.848
			z M247.71,313.682c-36.66,0-66.485-29.825-66.485-66.485s29.825-66.485,66.485-66.485s66.485,29.825,66.485,66.485
			S284.37,313.682,247.71,313.682z"/>
	</g>
	<g>
		<path style="fill:#9A9999;" d="M365.592,240.848l-4.931,0.12c-1.285-23.551-9.818-45.192-23.385-62.764l4.145-3.028
			c6.779-4.953,7.721-14.728,1.992-20.866c-11.759-12.599-25.958-22.885-41.558-30.104c-7.623-3.528-16.62,0.433-19.2,8.426
			l-2.043,6.33c-5.296-1.613-10.755-2.846-16.344-3.674c36.837,21.686,68.563,61.743,68.563,107.582
			c0,65.422-57.358,119.076-121.426,124.33c1.917,3.478,5.282,6.146,9.532,6.981c8.402,1.651,16.973,2.484,25.619,2.484
			c0.003,0,0.004,0,0.008,0c8.687,0,17.298-0.841,25.739-2.508c8.232-1.626,13.185-10.1,10.591-18.08l-0.403-1.241
			c24.895-8.063,46.024-24.535,60.048-46.055l2.302,1.586c6.913,4.763,16.452,2.425,20.353-5.009
			c8.01-15.259,13.03-32.059,14.694-49.167C380.699,247.828,373.99,240.644,365.592,240.848z"/>
	</g>
	<g>
		<path style="fill:#F7EE7D;" d="M177.361,42.001c5-3.37,10.282-6.417,15.823-9.116c24.17-11.777,50.869-15.79,77.214-11.61
			c0.077,0.012,0.155,0.025,0.232,0.039c39.475,6.865,73.004,30.54,91.987,64.955c4.261,7.725,1.453,17.441-6.271,21.702
			c-7.728,4.262-17.441,1.452-21.702-6.271c-14.262-25.854-39.544-43.669-69.374-48.891c-40.263-6.343-81.302,13.652-99.82,48.647
			c-2.866,5.415-8.404,8.505-14.133,8.505c-2.519,0-5.075-0.598-7.457-1.858c-7.798-4.126-10.774-13.792-6.648-21.59
			c4.61-8.712,10.213-16.765,16.699-24.053"/>
	</g>
	<g>
		<path style="fill:#F7EE7D;" d="M153.911,62.46c6.87-7.72,14.731-14.581,23.45-20.459"/>
	</g>
	<g>
		<ellipse style="fill:#FFD5CC;" cx="248.683" cy="38.682" rx="26.325" ry="38.682"/>
	</g>
	<g>
		<path style="fill:#7CD6E6;" d="M383.396,151.317c0-2.519,0.598-5.075,1.858-7.457c4.126-7.798,13.792-10.774,21.59-6.648
			c23.232,12.294,41.777,31.649,53.628,55.972c11.777,24.17,15.79,50.869,11.61,77.214c-0.012,0.077-0.025,0.155-0.039,0.232
			c-6.865,39.475-30.54,73.004-64.955,91.987c-7.725,4.261-17.441,1.453-21.702-6.271c-4.262-7.728-1.452-17.441,6.271-21.702
			c25.854-14.262,43.669-39.544,48.891-69.374c6.343-40.263-13.652-81.302-48.647-99.82
			C386.486,162.584,383.396,157.045,383.396,151.317z"/>
	</g>
	<g>
		<ellipse style="fill:#FFD5CC;" cx="454.674" cy="248.683" rx="38.682" ry="26.325"/>
	</g>
	<g>
		<path style="fill:#F7EE7D;" d="M342.039,383.396c2.519,0,5.075,0.598,7.457,1.858c7.798,4.126,10.774,13.792,6.648,21.59
			c-12.294,23.232-31.649,41.777-55.972,53.628c-24.17,11.777-50.869,15.79-77.214,11.61c-0.077-0.012-0.155-0.025-0.232-0.039
			c-39.475-6.865-73.004-30.54-91.987-64.955c-4.261-7.725-1.453-17.441,6.271-21.702c7.728-4.262,17.441-1.452,21.702,6.271
			c14.262,25.854,39.544,43.669,69.374,48.891c40.263,6.343,81.302-13.652,99.82-48.647
			C330.773,386.486,336.311,383.396,342.039,383.396z"/>
	</g>
	<g>
		<ellipse style="fill:#FFD5CC;" cx="244.674" cy="454.674" rx="26.325" ry="38.682"/>
	</g>
	<g>
		<path style="fill:#7CD6E6;" d="M109.961,342.039c0,2.519-0.598,5.075-1.858,7.457c-4.126,7.798-13.792,10.774-21.59,6.648
			c-23.232-12.294-41.777-31.649-53.628-55.972c-11.777-24.17-15.79-50.869-11.61-77.214c0.012-0.077,0.025-0.155,0.039-0.232
			c6.865-39.475,30.54-73.004,64.955-91.987c7.725-4.261,17.441-1.453,21.702,6.271c4.262,7.728,1.452,17.441-6.271,21.702
			c-25.854,14.262-43.669,39.544-48.891,69.374c-6.343,40.263,13.652,81.302,48.647,99.82
			C106.871,330.773,109.961,336.311,109.961,342.039z"/>
	</g>
	<g>
		<ellipse style="fill:#FFD5CC;" cx="38.682" cy="244.674" rx="38.682" ry="26.325"/>
	</g>
</g>
<g>
</g>
<g>
</g>
<g>
</g>
<g>
</g>
<g>
</g>
<g>
</g>
<g>
</g>
<g>
</g>
<g>
</g>
<g>
</g>
<g>
</g>
<g>
</g>
<g>
</g>
<g>
</g>
<g>
</g>
</svg>
