<?xml version="1.0" encoding="iso-8859-1"?>
<!-- Generator: Adobe Illustrator 21.0.0, SVG Export Plug-In . SVG Version: 6.00 Build 0)  -->
<svg version="1.1" id="Capa_1" xmlns="http://www.w3.org/2000/svg" xmlns:xlink="http://www.w3.org/1999/xlink" x="0px" y="0px"
	 viewBox="0 0 492.965 492.965" style="enable-background:new 0 0 492.965 492.965;" xml:space="preserve">
<g>
	<g>
		<path style="fill:#B4B4B4;" d="M188.388,402.266h-25.645c11.814,0,21.48,9.666,21.48,21.48v0.708
			c0,11.814-9.666,21.48-21.48,21.48h25.645c11.814,0,21.48-9.666,21.48-21.48v-0.708
			C209.868,411.932,200.202,402.266,188.388,402.266z"/>
	</g>
	<g>
		<path style="fill:#FFE056;" d="M179.235,417.255l-0.968-1.588c-31.789-52.158-49.374-109.684-51.463-168.352l-1.445-40.58
			c-0.623,0-14.867-1.495-20.267-2.065c-0.001-0.138-0.001-0.217-0.001-0.217s-0.379,0.04-1.026,0.108
			c-0.647-0.068-1.026-0.108-1.026-0.108s0,0.078-0.001,0.217c-5.4,0.569-19.644,2.065-20.267,2.065l-1.445,40.579
			c-2.089,58.669-19.674,116.195-51.464,168.353l-0.967,1.587c0,0,66.095,0.571,75.17,0.109
			C113.141,417.826,179.235,417.255,179.235,417.255z"/>
	</g>
	<g>
		<path style="fill:#F9CD45;" d="M78.42,417.365c-1.454,0.074-4.375,0.121-8.249,0.149c7.601,0.028,15.032,0.041,21.071,0.023
			C85.104,417.517,80.402,417.465,78.42,417.365z"/>
	</g>
	<g>
		<path style="fill:#F9CD45;" d="M178.268,415.668c-31.789-52.158-49.374-109.684-51.463-168.353l-1.445-40.58
			c-0.623,0-14.867-1.495-20.267-2.064c-0.001-0.138-0.001-0.217-0.001-0.217s-0.379,0.04-1.026,0.108
			c-0.647-0.068-1.026-0.108-1.026-0.108s0,0.078-0.001,0.217c-2.673,0.282-7.513,0.79-11.796,1.232
			c4.368,0.451,8.157,0.832,8.471,0.832l1.445,40.58c2.089,58.668,19.674,116.195,51.463,168.353l0.968,1.588
			c0,0-21.228,0.183-41.275,0.258c20.309,0.144,66.921-0.258,66.921-0.258L178.268,415.668z"/>
	</g>
	<g>
		<g>
			<circle style="fill:#FFE056;" cx="102.734" cy="152.124" r="45.651"/>
		</g>
		<g>
			<path style="fill:#F9CD45;" d="M98.769,106.473c-4.454,0-8.753,0.65-12.823,1.839c18.968,5.543,32.828,23.053,32.828,43.812
				s-13.86,38.269-32.828,43.812c4.069,1.189,8.369,1.839,12.823,1.839c25.212,0,45.651-20.438,45.651-45.651
				C144.42,126.912,123.981,106.473,98.769,106.473z"/>
		</g>
	</g>
	<path style="fill:#FFE056;" d="M125.972,219.771H80.637c-7.786,0-14.157-6.371-14.157-14.157v-2.319
		c0-7.786,6.371-14.157,14.157-14.157h45.335c7.786,0,14.157,6.371,14.157,14.157v2.319
		C140.129,213.4,133.759,219.771,125.972,219.771z"/>
	<g>
		<path style="fill:#F9CD45;" d="M189.687,445.934H20.181C9.082,445.934,0,436.852,0,425.753l0-3.306
			c0-11.1,9.082-20.181,20.181-20.181h169.505c11.1,0,20.181,9.082,20.181,20.181v3.306
			C209.868,436.852,200.786,445.934,189.687,445.934z"/>
	</g>
	<g>
		<path style="fill:#FC9086;" d="M462.333,417.255l-0.968-1.588c-31.789-52.158-49.374-109.684-51.463-168.352l-1.445-40.58
			c-0.623,0-14.867-1.495-20.267-2.065c-0.001-0.138-0.001-0.217-0.001-0.217s-0.379,0.04-1.026,0.108
			c-0.647-0.068-1.026-0.108-1.026-0.108s0,0.078-0.001,0.217c-5.4,0.569-19.644,2.065-20.267,2.065l-1.445,40.579
			c-2.089,58.669-19.674,116.195-51.464,168.353l-0.967,1.587c0,0,66.095,0.571,75.17,0.109
			C396.238,417.826,462.333,417.255,462.333,417.255z"/>
	</g>
	<g>
		<path style="fill:#F57A73;" d="M361.517,417.365c-1.454,0.074-4.375,0.121-8.249,0.149c7.601,0.028,15.032,0.041,21.071,0.023
			C368.201,417.517,363.499,417.465,361.517,417.365z"/>
	</g>
	<g>
		<path style="fill:#F57A73;" d="M461.365,415.668c-31.789-52.158-49.374-109.684-51.463-168.353l-1.445-40.58
			c-0.623,0-14.867-1.495-20.267-2.064c-0.001-0.138-0.001-0.217-0.001-0.217s-0.379,0.04-1.026,0.108
			c-0.647-0.068-1.026-0.108-1.026-0.108s0,0.078-0.001,0.217c-2.673,0.282-7.513,0.79-11.796,1.232
			c4.368,0.451,8.157,0.832,8.471,0.832l1.445,40.58c2.089,58.668,19.674,116.195,51.463,168.353l0.968,1.588
			c0,0-21.228,0.183-41.275,0.258c20.309,0.144,66.921-0.258,66.921-0.258L461.365,415.668z"/>
	</g>
	<g>
		<g>
			<circle style="fill:#FC9086;" cx="385.831" cy="152.124" r="45.651"/>
		</g>
		<g>
			<path style="fill:#F57A73;" d="M385.832,106.473c-4.454,0-8.753,0.65-12.823,1.839c18.968,5.543,32.828,23.053,32.828,43.812
				s-13.86,38.269-32.828,43.812c4.069,1.189,8.369,1.839,12.823,1.839c25.212,0,45.651-20.438,45.651-45.651
				C431.482,126.912,411.044,106.473,385.832,106.473z"/>
		</g>
	</g>
	<g>
		<path style="fill:#FC9086;" d="M409.07,219.771h-45.335c-7.786,0-14.157-6.371-14.157-14.157v-2.319
			c0-7.786,6.371-14.157,14.157-14.157h45.335c7.786,0,14.157,6.371,14.157,14.157v2.319
			C423.227,213.4,416.856,219.771,409.07,219.771z"/>
	</g>
	<g>
		<path style="fill:#FC9086;" d="M472.784,445.934H303.278c-11.1,0-20.181-9.082-20.181-20.181v-3.306
			c0-11.1,9.082-20.181,20.181-20.181h169.505c11.1,0,20.181,9.082,20.181,20.181v3.306
			C492.965,436.852,483.884,445.934,472.784,445.934z"/>
	</g>
	<g>
		<path style="fill:#F57A73;" d="M472.784,402.266h-30c11.1,0,20.181,9.082,20.181,20.181v3.306c0,11.1-9.082,20.181-20.181,20.181
			h30c11.1,0,20.181-9.082,20.181-20.181v-3.306C492.965,411.347,483.884,402.266,472.784,402.266z"/>
	</g>
	<g>
		<path style="fill:#B4B4B4;" d="M341.769,412.282l-1.132-1.857c-37.187-61.014-57.758-128.308-60.202-196.939l-1.69-47.47
			c-0.729,0-17.392-1.749-23.709-2.415c-0.001-0.162-0.001-0.253-0.001-0.253s-0.443,0.047-1.2,0.127
			c-0.757-0.08-1.2-0.127-1.2-0.127s0,0.092-0.001,0.253c-6.317,0.666-22.98,2.415-23.709,2.415l-1.69,47.47
			c-2.444,68.63-23.015,135.925-60.202,196.939l-1.132,1.857c0,0,77.317,0.668,87.934,0.128
			C264.452,412.95,341.769,412.282,341.769,412.282z"/>
	</g>
	<g>
		<path style="fill:#9A9999;" d="M223.835,412.41c-1.701,0.087-5.118,0.142-9.65,0.174c8.891,0.033,17.584,0.048,24.649,0.026
			C231.654,412.588,226.154,412.527,223.835,412.41z"/>
	</g>
	<g>
		<path style="fill:#9A9999;" d="M340.637,410.424c-37.187-61.014-57.758-128.309-60.202-196.939l-1.69-47.47
			c-0.729,0-17.392-1.749-23.709-2.415c-0.001-0.162-0.001-0.253-0.001-0.253s-0.443,0.047-1.2,0.127
			c-0.757-0.08-1.2-0.127-1.2-0.127s0,0.092-0.001,0.253c-3.127,0.33-8.789,0.925-13.799,1.441c5.11,0.527,9.542,0.974,9.91,0.974
			l1.69,47.47c2.443,68.63,23.015,135.925,60.202,196.939l1.132,1.857c0,0-24.833,0.214-48.284,0.302
			c23.758,0.169,78.284-0.302,78.284-0.302L340.637,410.424z"/>
	</g>
	<g>
		<g>
			<circle style="fill:#E5DCDE;" cx="252.278" cy="100.433" r="53.402"/>
		</g>
		<g>
			<path style="fill:#D0CFD1;" d="M252.278,47.031c-5.21,0-10.24,0.76-15,2.151c22.188,6.484,38.402,26.968,38.402,51.251
				s-16.214,44.767-38.402,51.251c4.76,1.391,9.79,2.151,15,2.151c29.493,0,53.402-23.909,53.402-53.402
				C305.68,70.94,281.771,47.031,252.278,47.031z"/>
		</g>
	</g>
	<g>
		<path style="fill:#E3DED9;" d="M278.396,181.264h-50.901c-9.695,0-17.627-7.932-17.627-17.627v-0.581
			c0-9.695,7.932-17.627,17.627-17.627h50.901c9.695,0,17.627,7.932,17.627,17.627v0.581
			C296.023,173.332,288.091,181.264,278.396,181.264z"/>
	</g>
	<g>
		<path style="fill:#E3DED9;" d="M342.475,445.83H157.227c-13.82,0-25.127-11.307-25.127-25.128v-0.828
			c0-13.82,11.307-25.128,25.127-25.128h185.248c13.82,0,25.127,11.307,25.127,25.128v0.828
			C367.603,434.523,356.296,445.83,342.475,445.83z"/>
	</g>
	<g>
		<path style="fill:#B4B4B4;" d="M352.475,394.747h-30c13.82,0,25.128,11.308,25.128,25.128v0.828
			c0,13.82-11.307,25.127-25.128,25.127h30c13.82,0,25.128-11.307,25.128-25.127v-0.828
			C377.603,406.054,366.296,394.747,352.475,394.747z"/>
	</g>
</g>
<g>
</g>
<g>
</g>
<g>
</g>
<g>
</g>
<g>
</g>
<g>
</g>
<g>
</g>
<g>
</g>
<g>
</g>
<g>
</g>
<g>
</g>
<g>
</g>
<g>
</g>
<g>
</g>
<g>
</g>
</svg>
