<?xml version="1.0" encoding="iso-8859-1"?>
<!-- Generator: Adobe Illustrator 21.0.0, SVG Export Plug-In . SVG Version: 6.00 Build 0)  -->
<svg version="1.1" id="Capa_1" xmlns="http://www.w3.org/2000/svg" xmlns:xlink="http://www.w3.org/1999/xlink" x="0px" y="0px"
	 viewBox="0 0 483.727 483.727" style="enable-background:new 0 0 483.727 483.727;" xml:space="preserve">
<g>
	<g>
		<path style="fill:#FFD5CC;" d="M463.427,254.732H216.423c-8.25,0-15,6.75-15,15v148.669c0,8.25,6.75,15,15,15h89.896
			l17.942,31.076c5.773,10,20.207,10,25.981,0l17.942-31.076h95.244c8.25,0,15-6.75,15-15V269.732
			C478.427,261.482,471.677,254.732,463.427,254.732z"/>
	</g>
	<g>
		<path style="fill:#FFCCC4;" d="M463.427,254.732h-30c8.25,0,15,6.75,15,15V418.4c0,8.25-6.75,15-15,15h30c8.25,0,15-6.75,15-15
			V269.732C478.427,261.482,471.677,254.732,463.427,254.732z"/>
	</g>
	<g>
		<path style="fill:#9DDBDF;" d="M206.326,77.67H11.812C5.316,77.67,0,82.985,0,89.482v117.075c0,6.497,5.316,11.812,11.812,11.812
			h70.792l11.368,19.691c5.773,10,20.207,10,25.981,0l11.368-19.691h75.004c6.497,0,11.812-5.316,11.812-11.812V89.482
			C218.138,82.985,212.822,77.67,206.326,77.67z"/>
	</g>
	<g>
		<path style="fill:#7CD6E6;" d="M206.326,77.669h-30c6.497,0,11.812,5.315,11.812,11.813v117.075
			c0,6.497-5.316,11.813-11.812,11.813h30c6.497,0,11.812-5.315,11.812-11.813V89.482C218.138,82.985,212.822,77.669,206.326,77.669
			z"/>
	</g>
	<g>
		<path style="fill:#FFE89F;" d="M471.915,11.751H277.401c-6.497,0-11.812,5.316-11.812,11.812v117.075
			c0,6.497,5.316,11.812,11.812,11.812h70.792l11.368,19.691c5.773,10,20.207,10,25.981,0l11.368-19.691h75.004
			c6.497,0,11.812-5.316,11.812-11.812V23.563C483.727,17.066,478.412,11.751,471.915,11.751z"/>
	</g>
	<g>
		<path style="fill:#F9CD45;" d="M471.915,11.751h-30c6.497,0,11.812,5.315,11.812,11.812v117.075
			c0,6.497-5.316,11.813-11.812,11.813h30c6.497,0,11.812-5.315,11.812-11.813V23.563C483.727,17.066,478.412,11.751,471.915,11.751
			z"/>
	</g>
	<g>
		<path style="fill:#FC9086;" d="M290.891,287.627c-31.683,0-57.367,25.685-57.367,57.367c0,31.683,25.684,57.367,57.367,57.367
			c31.683,0,57.367-25.684,57.367-57.367C348.258,313.311,322.574,287.627,290.891,287.627z M290.891,369.874
			c-13.741,0-24.88-11.139-24.88-24.88c0-13.741,11.139-24.88,24.88-24.88c13.741,0,24.88,11.14,24.88,24.88
			C315.771,358.735,304.632,369.874,290.891,369.874z"/>
	</g>
	<g>
		<circle style="fill:#7CD6E6;" cx="44.956" cy="132.482" r="19.877"/>
	</g>
	<g>
		<circle style="fill:#F9CD45;" cx="314.963" cy="66.974" r="21.126"/>
	</g>
	<g>
		<path style="fill:#FFF4F1;" d="M159.053,140.411h-62.81c-4.142,0-7.5-3.358-7.5-7.5s3.358-7.5,7.5-7.5h62.81
			c4.142,0,7.5,3.358,7.5,7.5S163.195,140.411,159.053,140.411z"/>
	</g>
	<g>
		<path style="fill:#FFF4F1;" d="M157.948,179.295h-128.3c-4.142,0-7.5-3.358-7.5-7.5s3.358-7.5,7.5-7.5h128.3
			c4.142,0,7.5,3.358,7.5,7.5S162.09,179.295,157.948,179.295z"/>
	</g>
	<g>
		<path style="fill:#FFF4F1;" d="M430.06,68.903h-62.81c-4.143,0-7.5-3.358-7.5-7.5s3.357-7.5,7.5-7.5h62.81
			c4.143,0,7.5,3.358,7.5,7.5S434.203,68.903,430.06,68.903z"/>
	</g>
	<g>
		<path style="fill:#FFF4F1;" d="M428.955,113.788H300.655c-4.143,0-7.5-3.358-7.5-7.5s3.357-7.5,7.5-7.5h128.301
			c4.143,0,7.5,3.358,7.5,7.5S433.098,113.788,428.955,113.788z"/>
	</g>
	<g>
		<path style="fill:#FC9086;" d="M433.594,301.558h-60.172c-4.143,0-7.5-3.358-7.5-7.5s3.357-7.5,7.5-7.5h60.172
			c4.143,0,7.5,3.358,7.5,7.5S437.737,301.558,433.594,301.558z"/>
	</g>
	<g>
		<path style="fill:#FC9086;" d="M433.594,346.923h-60.172c-4.143,0-7.5-3.358-7.5-7.5s3.357-7.5,7.5-7.5h60.172
			c4.143,0,7.5,3.358,7.5,7.5S437.737,346.923,433.594,346.923z"/>
	</g>
	<g>
		<path style="fill:#FC9086;" d="M433.594,392.289h-60.172c-4.143,0-7.5-3.358-7.5-7.5s3.357-7.5,7.5-7.5h60.172
			c4.143,0,7.5,3.358,7.5,7.5S437.737,392.289,433.594,392.289z"/>
	</g>
</g>
<g>
</g>
<g>
</g>
<g>
</g>
<g>
</g>
<g>
</g>
<g>
</g>
<g>
</g>
<g>
</g>
<g>
</g>
<g>
</g>
<g>
</g>
<g>
</g>
<g>
</g>
<g>
</g>
<g>
</g>
</svg>
