<?xml version="1.0" encoding="iso-8859-1"?>
<!-- Generator: Adobe Illustrator 21.0.0, SVG Export Plug-In . SVG Version: 6.00 Build 0)  -->
<svg version="1.1" id="Capa_1" xmlns="http://www.w3.org/2000/svg" xmlns:xlink="http://www.w3.org/1999/xlink" x="0px" y="0px"
	 viewBox="0 0 495.07 495.07" style="enable-background:new 0 0 495.07 495.07;" xml:space="preserve">
<g>
	<g>
		<path style="fill:#DC8839;" d="M222.72,480.07V15c0-8.25,6.75-15,15-15h19.63c8.25,0,15,6.75,15,15v465.07c0,8.25-6.75,15-15,15
			h-19.63C229.47,495.07,222.72,488.32,222.72,480.07z"/>
	</g>
	<g>
		<path style="fill:#BE7511;" d="M257.35,0h-19.63c-1.273,0-2.503,0.178-3.685,0.48c6.48,1.655,11.315,7.542,11.315,14.52v465.07
			c0,6.978-4.835,12.864-11.315,14.52c1.182,0.302,2.412,0.48,3.685,0.48h19.63c8.25,0,15-6.75,15-15V15
			C272.35,6.75,265.6,0,257.35,0z"/>
	</g>
	<g>
		<path style="fill:#CB9558;" d="M325.258,62.846v-11.22c0-8.25-6.75-15-15-15H184.812c-8.25,0-15,6.75-15,15v11.22l77.723,10
			L325.258,62.846z"/>
	</g>
	<g>
		<rect x="80.725" y="84.732" style="fill:#FFF4F1;" width="333.621" height="319.304"/>
	</g>
	<g>
		<rect x="384.345" y="84.732" style="fill:#E3DED9;" width="30" height="319.304"/>
	</g>
	<g>
		<path style="fill:#B4B4B4;" d="M426.709,101.979H68.361c-8.25,0-15-6.75-15-15V76.782c0-8.25,6.75-15,15-15h358.347
			c8.25,0,15,6.75,15,15v10.197C441.709,95.229,434.959,101.979,426.709,101.979z"/>
	</g>
	<g>
		<path style="fill:#9A9999;" d="M426.709,61.782h-30c8.25,0,15,6.75,15,15v10.196c0,8.25-6.75,15-15,15h30c8.25,0,15-6.75,15-15
			V76.782C441.709,68.532,434.959,61.782,426.709,61.782z"/>
	</g>
	<g>
		<path style="fill:#B4B4B4;" d="M426.709,427.852H68.361c-8.25,0-15-6.75-15-15v-10.197c0-8.25,6.75-15,15-15h358.347
			c8.25,0,15,6.75,15,15v10.197C441.709,421.102,434.959,427.852,426.709,427.852z"/>
	</g>
	<g>
		<path style="fill:#9A9999;" d="M426.709,387.655h-30c8.25,0,15,6.75,15,15v10.197c0,8.25-6.75,15-15,15h30c8.25,0,15-6.75,15-15
			v-10.197C441.709,394.405,434.959,387.655,426.709,387.655z"/>
	</g>
	<path style="fill:#B4B4B4;" d="M172.635,167.224l7.871-7.871c2.929-2.929,2.929-7.678,0-10.606c-2.93-2.929-7.678-2.929-10.607,0
		l-7.871,7.871l-7.871-7.871c-2.93-2.929-7.678-2.929-10.607,0c-2.929,2.929-2.929,7.678,0,10.606l7.871,7.871l-7.871,7.871
		c-2.929,2.929-2.929,7.678,0,10.606c1.465,1.464,3.385,2.197,5.304,2.197s3.839-0.732,5.304-2.197l7.871-7.871l7.871,7.871
		c1.465,1.464,3.385,2.197,5.304,2.197s3.839-0.732,5.304-2.197c2.929-2.929,2.929-7.678,0-10.606L172.635,167.224z"/>
	<path style="fill:#E3DED9;" d="M195.863,252.62l-16.229-17.358c-1.591-1.702-3.789-2.498-5.946-2.364
		c-2.136-0.114-4.306,0.68-5.882,2.364l-16.229,17.358c-2.829,3.026-2.669,7.772,0.356,10.601c1.446,1.352,3.285,2.021,5.12,2.021
		c2.004,0,4.004-0.798,5.48-2.378l3.686-3.942v48.485c0,4.142,3.357,7.5,7.5,7.5s7.5-3.358,7.5-7.5v-48.485l3.686,3.942
		c1.477,1.58,3.476,2.378,5.48,2.378c1.835,0,3.674-0.669,5.12-2.021C198.532,260.392,198.692,255.646,195.863,252.62z"/>
	<path style="fill:#E3DED9;" d="M328.909,309.788l-34.284-34.284l5.394,0.181c0.086,0.003,0.171,0.004,0.257,0.004
		c4.025,0,7.354-3.194,7.491-7.248c0.139-4.14-3.104-7.608-7.244-7.748l-23.749-0.798c-2.253-0.079-4.329,0.875-5.766,2.436
		c-1.657,1.432-2.678,3.569-2.599,5.928l0.799,23.75c0.137,4.054,3.466,7.248,7.491,7.248c0.085,0,0.171-0.001,0.257-0.004
		c4.14-0.139,7.383-3.608,7.244-7.748l-0.181-5.393l34.283,34.283c1.465,1.464,3.385,2.197,5.304,2.197s3.839-0.732,5.304-2.197
		C331.838,317.465,331.838,312.716,328.909,309.788z"/>
	<path style="fill:#E3DED9;" d="M315.14,176.288h-48.485l3.942-3.686c3.025-2.829,3.186-7.575,0.356-10.601
		c-2.828-3.025-7.574-3.186-10.601-0.356l-17.357,16.229c-1.693,1.583-2.488,3.768-2.364,5.914
		c-0.124,2.146,0.671,4.331,2.364,5.914l17.357,16.229c1.446,1.352,3.285,2.021,5.12,2.021c2.004,0,4.004-0.798,5.48-2.378
		c2.829-3.025,2.669-7.771-0.356-10.601l-3.942-3.686h48.485c4.143,0,7.5-3.358,7.5-7.5S319.283,176.288,315.14,176.288z"/>
	<path style="fill:#F86654;" d="M365.614,311.68c-6.192-6.192-14.425-9.603-23.182-9.603s-16.989,3.41-23.181,9.603
		c-6.192,6.192-9.603,14.424-9.603,23.181s3.41,16.989,9.603,23.181c6.391,6.391,14.785,9.586,23.181,9.586
		s16.79-3.195,23.181-9.586c6.192-6.192,9.603-14.424,9.603-23.181S371.805,317.872,365.614,311.68z"/>
	<path style="fill:#F86654;" d="M173.721,302.078c-18.077,0-32.783,14.707-32.783,32.783s14.706,32.783,32.783,32.783
		s32.783-14.707,32.783-32.783S191.798,302.078,173.721,302.078z"/>
	<path style="fill:#F86654;" d="M342.432,151.671c-18.077,0-32.783,14.707-32.783,32.784c0,18.077,14.706,32.783,32.783,32.783
		s32.783-14.707,32.783-32.783C375.216,166.378,360.51,151.671,342.432,151.671z"/>
</g>
<g>
</g>
<g>
</g>
<g>
</g>
<g>
</g>
<g>
</g>
<g>
</g>
<g>
</g>
<g>
</g>
<g>
</g>
<g>
</g>
<g>
</g>
<g>
</g>
<g>
</g>
<g>
</g>
<g>
</g>
</svg>
